<svg xmlns="http://www.w3.org/2000/svg" xmlns:xlink="http://www.w3.org/1999/xlink" width="990.476" height="990.476" viewBox="0 0 990.476 990.476">
  <defs>
    <linearGradient id="linear-gradient" x1="0.5" y1="1.217" x2="0.5" y2="0.199" gradientUnits="objectBoundingBox">
      <stop offset="0" stop-color="#f0ae4b"/>
      <stop offset="1" stop-color="#df6445"/>
    </linearGradient>
    <linearGradient id="linear-gradient-2" x1="0.869" y1="2.439" x2="0.869" y2="1.421" xlink:href="#linear-gradient"/>
    <linearGradient id="linear-gradient-3" x1="-0.18" y1="0.513" x2="-0.18" y2="-3.345" xlink:href="#linear-gradient"/>
    <linearGradient id="linear-gradient-4" x1="1.277" y1="10.553" x2="1.277" y2="6.695" xlink:href="#linear-gradient"/>
    <linearGradient id="linear-gradient-5" x1="-0.091" y1="1.125" x2="-0.091" y2="-0.114" xlink:href="#linear-gradient"/>
    <linearGradient id="linear-gradient-6" x1="1.21" y1="3.109" x2="1.21" y2="1.87" xlink:href="#linear-gradient"/>
    <linearGradient id="linear-gradient-7" x1="-0.221" y1="-0.062" x2="-0.221" y2="-1.301" xlink:href="#linear-gradient"/>
    <linearGradient id="linear-gradient-8" x1="1.34" y1="4.296" x2="1.34" y2="3.057" xlink:href="#linear-gradient"/>
    <linearGradient id="linear-gradient-9" x1="0.5" x2="0.5" y2="1" gradientUnits="objectBoundingBox">
      <stop offset="0" stop-color="#008da7"/>
      <stop offset="1" stop-color="#002856"/>
    </linearGradient>
  </defs>
  <g id="sucsess" transform="translate(-6.262 -6.262)">
    <g id="Group_827" data-name="Group 827" transform="translate(6.262 6.262)">
      <g id="Group_823" data-name="Group 823">
        <g id="Group_821" data-name="Group 821" transform="translate(436.975)" opacity="0.06">
          <path id="Path_1122" data-name="Path 1122" d="M292.678,447.935H266.5L221.325,6.262H337.851Z" transform="translate(-221.325 -6.262)" fill="url(#linear-gradient)"/>
          <path id="Path_1123" data-name="Path 1123" d="M266.5,276.363h26.18l45.173,441.673H221.325Z" transform="translate(-221.325 272.44)" fill="url(#linear-gradient-2)"/>
        </g>
        <g id="Group_822" data-name="Group 822" transform="translate(0 436.975)" opacity="0.06">
          <path id="Path_1124" data-name="Path 1124" d="M276.363,292.678V266.5l441.673-45.173V337.851Z" transform="translate(272.44 -221.325)" fill="url(#linear-gradient-3)"/>
          <path id="Path_1125" data-name="Path 1125" d="M447.935,266.5v26.18L6.262,337.851V221.325Z" transform="translate(-6.262 -221.325)" fill="url(#linear-gradient-4)"/>
        </g>
      </g>
      <g id="Group_826" data-name="Group 826" transform="translate(103.853 103.853)" opacity="0.06">
        <g id="Group_824" data-name="Group 824">
          <path id="Path_1126" data-name="Path 1126" d="M282.6,420.14l-18.512-18.512L544.453,57.375l82.4,82.4Z" transform="translate(155.919 -57.375)" fill="url(#linear-gradient-5)"/>
          <path id="Path_1127" data-name="Path 1127" d="M401.627,264.086,420.14,282.6,139.772,626.85l-82.4-82.4Z" transform="translate(-57.375 155.919)" fill="url(#linear-gradient-6)"/>
        </g>
        <g id="Group_825" data-name="Group 825">
          <path id="Path_1128" data-name="Path 1128" d="M264.086,282.6,282.6,264.086,626.85,544.453l-82.4,82.4Z" transform="translate(155.919 155.919)" fill="url(#linear-gradient-7)"/>
          <path id="Path_1129" data-name="Path 1129" d="M420.14,401.627,401.627,420.14,57.375,139.772l82.4-82.4Z" transform="translate(-57.375 -57.375)" fill="url(#linear-gradient-8)"/>
        </g>
      </g>
    </g>
    <g id="Group_857" data-name="Group 857" transform="translate(375.54 81.385)">
      <g id="Group_855" data-name="Group 855">
        <g id="Group_830" data-name="Group 830" transform="translate(97.66 215.582)">
          <path id="Path_1130" data-name="Path 1130" d="M287.166,161.193s9.783-17.482,22.011-9.991c19.9,12.191,13.546,39.621,13.546,39.621l-4.572-12.191s6.1,19.3-3.556,32.51l1.016-12.7s-7.619,18.287-21.334,20.318-15.747,2.032-17.271,10.159,9.627,13.53,6.1,12.953c-12.445-2.032-11.175-17.779-11.175-17.779l-2.032,11.429s-15.747-30.478-14.731-44.7a52.528,52.528,0,0,1,7.619-23.874L254.656,170S279.038,131.224,287.166,161.193Z" transform="translate(-216.895 -149.337)" fill="#333"/>
          <path id="Path_1131" data-name="Path 1131" d="M318.346,195.4c6.52-11.783,16.442-24.937-6.756-37.128-3.737-1.963-12.577-.443-16.084-.591-2.448-.1-2.733,2.481-4.925,2.814-16,2.436-25.057,14.956-25.057,14.956s14.672,22.442-28.964,50.928c-5.1,3.328,31.317,60.356,34.9,39.243C283.652,193.827,314.428,202.472,318.346,195.4Z" transform="translate(-236.072 -141.165)" fill="#eabfa5"/>
          <g id="Group_829" data-name="Group 829" transform="translate(18.594 15.16)">
            <g id="Group_828" data-name="Group 828" transform="translate(20.161 8.828)">
              <path id="Path_1132" data-name="Path 1132" d="M260.754,161.288s7.111-1.949,15.021,8.424a1.825,1.825,0,0,1-.872,2.9c-3.418.983-9.791,2.253-15.505.27C249.094,169.31,260.754,161.288,260.754,161.288Z" transform="translate(-255.146 -161.142)" fill="#d84744"/>
              <path id="Path_1133" data-name="Path 1133" d="M270.7,167.662c.049-.014.073-.053.12-.069a8.713,8.713,0,0,0-5.126-1.65,8.479,8.479,0,0,0-6.467,2.873A30.578,30.578,0,0,0,270.7,167.662Z" transform="translate(-250.938 -156.189)" fill="#822a2a"/>
              <path id="Path_1134" data-name="Path 1134" d="M272.714,171.309s-6.943-6.772-14.394-7.451c0,0,6.774,1.949-.337,2.2,0,0-2.032-1.016-1.016-2.71a17.044,17.044,0,0,1,2.038-1.691,2.211,2.211,0,0,1,1.575-.455A13.718,13.718,0,0,1,272.714,171.309Z" transform="translate(-253.559 -161.09)" fill="#eef9f9"/>
              <path id="Path_1135" data-name="Path 1135" d="M255.619,166.276c-.016.014-.035.043-.051.059a8.717,8.717,0,0,0,3.4,1.93,18.727,18.727,0,0,0,3.986.876l.035-.071s1.144-1.016-.254-2.286S257.033,165.191,255.619,166.276Z" transform="translate(-254.71 -156.522)" fill="#eef9f9"/>
              <path id="Path_1136" data-name="Path 1136" d="M257.437,167.223a22.352,22.352,0,0,0,9.6.874,13.693,13.693,0,0,0-6.337-1.467,15.164,15.164,0,0,0-3.649.443C257.179,167.124,257.3,167.175,257.437,167.223Z" transform="translate(-253.184 -155.48)" fill="#ffabab"/>
            </g>
            <path id="Path_1137" data-name="Path 1137" d="M255.136,189.137c1.721,16.669-7.674,53.346-9.913,61.758.295.354.591.707.886,1.048l18.819-9.844c8.568-35.555,22.389-45.9,32.335-50.343-3.783-1.733-7.664-3.566-11.539-5.474-23.366-11.514-29.643-20.073-29.643-20.073S261.967,175.254,255.136,189.137Z" transform="translate(-245.223 -147.086)" fill="#d8a98f"/>
            <path id="Path_1138" data-name="Path 1138" d="M282.563,174.4s4.911,1.185,1.185,6.264-15.239,5.248-12.36-1.185S282.563,174.4,282.563,174.4Z" transform="translate(-218.696 -138.758)" fill="#eabfa5"/>
            <path id="Path_1139" data-name="Path 1139" d="M269.156,162.431s9.651-4.572,12.445,7.619C281.6,170.051,279.187,161.923,269.156,162.431Z" transform="translate(-220.528 -151.851)" fill="#822a2a"/>
            <path id="Path_1140" data-name="Path 1140" d="M271.156,160.742s13.546-3.556,12.191,8.975C283.347,169.716,281.187,160.234,271.156,160.742Z" transform="translate(-218.464 -153.209)" fill="#333"/>
            <path id="Path_1141" data-name="Path 1141" d="M264.614,157.981s7.619.339,8.068,4.572C272.682,162.552,273.843,153.663,264.614,157.981Z" transform="translate(-225.214 -156.798)" fill="#333"/>
            <path id="Path_1142" data-name="Path 1142" d="M271.182,161.923s1.042-5.539-8.609-2.152C262.573,159.771,268.752,158.67,271.182,161.923Z" transform="translate(-227.321 -154.862)" fill="#822a2a"/>
            <path id="Path_1143" data-name="Path 1143" d="M264.78,161.57l-1.6-1.485s.711-1.816,5.029-.165,7.237.634,7.237.634l-7.873,5.716Z" transform="translate(-226.693 -154.292)" fill="#f7cab2"/>
            <path id="Path_1144" data-name="Path 1144" d="M261.968,161.99l2.465-2.121a1.78,1.78,0,0,1,2.873.859l1.52,5.325A12.714,12.714,0,0,0,261.968,161.99Z" transform="translate(-227.945 -154.075)" fill="#d8a98f"/>
            <path id="Path_1145" data-name="Path 1145" d="M279.123,175.443s.762,4.7-5.842,4.7c0,0,3.174-1.4,2.54-2.666s-2.414-1.144-2.414-1.144,3.3-.254,3.556.508a4.808,4.808,0,0,1,.128,1.778Z" transform="translate(-216.271 -137.559)" fill="#d8a98f"/>
          </g>
          <path id="Path_1146" data-name="Path 1146" d="M272.031,180.362s10.159-1.27,11.175-8.381a19.511,19.511,0,0,0,7.2-4.318c3.149-2.991-5.419,16.509-5.419,16.509s-2.032-3.556-11.175.508Z" transform="translate(-198.967 -130.748)" fill="#333"/>
        </g>
        <g id="Group_851" data-name="Group 851" transform="translate(85.155)">
          <g id="Group_850" data-name="Group 850" transform="translate(39.473)">
            <g id="Group_834" data-name="Group 834">
              <g id="Group_831" data-name="Group 831">
                <path id="Path_1147" data-name="Path 1147" d="M311.313,71.736c2.57,5.013,9.852,3.972,14.751.376C331,68.485,332.1,62.68,331.3,57.83c-2.083-12.78-17.039-18.39-30.978-11.846-17.815,8.365-22.214,25.477-22.708,40.674-.242,7.465,2.993,21.117-8.4,24.573-7.2,2.18-10.818-3.739-12.372-8.509-1.046-3.2-.9-8.03,4.18-9.349,4.9-1.272,8.4,4.348,2.272,4.22q.448,2.652.9,5.3l1.065-.549c3.978-2.04.421-6.758-3.544-4.724-.354.183-.709.364-1.065.547-2.526,1.3-2,5.242.9,5.3,4.777.1,11.108-1.158,12.561-6.089,1.367-4.645-3.2-9.034-7.924-9.974a15.192,15.192,0,0,0-14.855,6.254c-3.8,5.59-1.493,11.994,1.56,16.785,3.174,4.98,8,8.166,15.231,6.981,6.705-1.1,12.272-5.218,14.694-10.8,2.883-6.65,1.477-13.959,1.686-20.648.286-9.082,1.42-19.29,8.44-27.2,6.476-7.3,19.1-13.674,27.467-6.949a12.043,12.043,0,0,1,4.275,9.332,8.82,8.82,0,0,1-1.2,4.964c-.475.7-5.153,4.141-5.539,3.387-1.69-3.3-8.339-1.115-6.628,2.223Z" transform="translate(-249.344 -43.235)" fill="#e5a920"/>
              </g>
              <path id="Path_1148" data-name="Path 1148" d="M367.393,133.508l-11.515-34.35L352.2,88.183,340.684,53.835c-.681-2.03-3.21-3.013-5.651-2.194s-3.867,3.127-3.186,5.157l.138.408h0c-8.381,2.808-15.67,8.085-20.195,14.9a42.247,42.247,0,0,0-6.74,16.572c-1.4,8.8-8.394,16.708-18.215,20l-.632.211a28.375,28.375,0,0,1-19.1-.158l-6.579-2.554a13.9,13.9,0,0,0-9.349-.079l4.807,14.343,3.68,10.974,4.807,14.341a13.885,13.885,0,0,0,7.412-5.7l3.71-6a28.388,28.388,0,0,1,15.147-11.64l.632-.213c9.824-3.292,20.164-1.2,26.591,4.982a42.263,42.263,0,0,0,15.367,9.162c7.717,2.708,16.712,2.526,25.093-.284h0l.136.408c.681,2.03,3.21,3.013,5.651,2.194S368.073,135.535,367.393,133.508Z" transform="translate(-247.457 -34.859)" fill="#e5a920"/>
              <g id="Group_832" data-name="Group 832" transform="translate(3.716 16.493)">
                <path id="Path_1149" data-name="Path 1149" d="M305.24,104.284c3.361-3.416,9.086-11.228,12.327-14.952,4.381-5.039,10.816-9.286,18.1-12.138.884-.345,22.058,59.809,22.966,59.5L338.358,76.216l-.1-.309c-.514-1.534,1.046-3.442,3.487-4.259s4.836-.238,5.35,1.3l-6.406-19.11c-.681-2.03-3.21-3.013-5.651-2.194s-3.867,3.127-3.186,5.157l.138.408h0c-8.381,2.808-15.67,8.085-20.195,14.9a42.247,42.247,0,0,0-6.74,16.572c-1.4,8.8-8.394,16.708-18.215,20l-.632.211a28.375,28.375,0,0,1-19.1-.158l-6.579-2.554a13.9,13.9,0,0,0-9.349-.079l4.771,14.229c3.143-1.052,9.005-1.642,14.723-2.507C270.667,117.818,299.679,109.936,305.24,104.284Z" transform="translate(-251.173 -51.352)" fill="#c68d1a"/>
              </g>
              <g id="Group_833" data-name="Group 833" transform="translate(19.231 97.028)">
                <path id="Path_1150" data-name="Path 1150" d="M328.831,103.847c-.971-5.549,5.466-9.109,11.543-9.192,6.128-.083,10.5,3.893,12.788,8.239,6.041,11.456-2.513,24.945-17.582,28.125-19.256,4.062-33.078-6.941-42.632-18.77-4.694-5.811-10.34-18.654-21.515-14.544-7.057,2.6-6.378,9.5-4.744,14.247,1.1,3.186,4.121,6.949,8.971,4.941,4.673-1.938,4.08-8.534-.729-4.738l-2.481-4.771,1.18-.207c4.4-.768,4.409,5.141.02,5.907q-.591.1-1.18.205c-2.8.49-4.755-2.979-2.481-4.771,3.751-2.96,9.56-5.77,13.693-2.71,3.891,2.881,2.889,9.139-.311,12.734a15.19,15.19,0,0,1-15.623,3.964c-6.4-2.17-8.42-8.672-8.871-14.337-.469-5.886,1.457-11.332,7.945-14.749,6.012-3.166,12.937-3.235,18.236-.238,6.309,3.568,9.592,10.249,13.792,15.46,5.7,7.073,12.758,14.536,23.13,16.618,9.564,1.92,23.484-.6,26.1-11.009a12.048,12.048,0,0,0-2.215-10.025,8.79,8.79,0,0,0-3.948-3.237c-.8-.272-6.608-.2-6.463.636.64,3.647-5.98,5.915-6.626,2.221Z" transform="translate(-258.809 -90.988)" fill="#e5a920"/>
              </g>
            </g>
            <path id="Path_1151" data-name="Path 1151" d="M308.97,78.352a3.477,3.477,0,0,0,2.518-1.512,3.591,3.591,0,0,0,.723-1.751,1.581,1.581,0,0,0-.156-.819c-.01-.018-.024-.045-.043-.073l-.024-.039,0,0c-.545-.77-3.682-4.045-6.406-4.106a1.594,1.594,0,0,0-.382-.931q-.037-.043-.079-.085c-.368-.37-4-2.375-6.577-1.516a1.516,1.516,0,0,0-.459-.532,1.447,1.447,0,0,0-.221-.138c-.6-.311-4.247-.711-6.293.992a1.586,1.586,0,0,0-.656-.3.961.961,0,0,0-.14-.014l-.069,0v0a7.637,7.637,0,0,0-5.382,3.428,1.53,1.53,0,0,0-.484-.041.939.939,0,0,0-.173.03,1.426,1.426,0,0,0-.254.069l.006.016a8.642,8.642,0,0,0-3.911,5.659,1.283,1.283,0,0,0-.272.061,1.033,1.033,0,0,0-.2.085,1.542,1.542,0,0,0-.37.246l.022.024c-1.317,1.3-2.406,5.5-1.865,7.821a6.406,6.406,0,0,0,.171.618,4.331,4.331,0,0,0,3.576,3.09,4.692,4.692,0,0,0,.831.427,3.693,3.693,0,0,0,4.037-.53,9.8,9.8,0,0,0,2.2-3.982l.041-.118a1.546,1.546,0,0,0,.124-.908c-.01-.055-.022-.112-.037-.167a9.51,9.51,0,0,0,2.333-2.182,1.555,1.555,0,0,0,.431-.835,8.487,8.487,0,0,0,2.7-1.008,1.564,1.564,0,0,0,.685-.553,9.06,9.06,0,0,0,2.883.132,1.551,1.551,0,0,0,.886-.25A11.717,11.717,0,0,0,301.6,80a1.554,1.554,0,0,0,1.032.093,15.416,15.416,0,0,0,2.633,2.57l.142.114a1.554,1.554,0,0,0,2.312-.11A4.6,4.6,0,0,0,308.97,78.352Zm-11.433,30.457a1.514,1.514,0,0,0,.364-.325,7.633,7.633,0,0,0,6.36-.508l0,0a.553.553,0,0,0,.053-.045,1.2,1.2,0,0,0,.1-.1,1.553,1.553,0,0,0,.345-.636c2.668.12,5.325-2.389,5.62-3a1.568,1.568,0,0,0,.094-.246,1.491,1.491,0,0,0,.045-.7c2.613-.882,4.257-4.624,4.334-5.161,0-.03.008-.063.01-.093a1.527,1.527,0,0,0-.254-1.012c2.125-1.721,2.666-6.193,2.639-7.124h0l0-.037a.714.714,0,0,0-.01-.089,1.577,1.577,0,0,0-.386-.778,3.62,3.62,0,0,0-1.605-.939,3.47,3.47,0,0,0-2.93.311,4.614,4.614,0,0,0-3.6-2.686,1.552,1.552,0,0,0-1.912,1.3l-.045.177a15.344,15.344,0,0,0-.553,3.637,1.548,1.548,0,0,0-.811.786l-.014-.008a11.311,11.311,0,0,0-1.461,2.737,1.555,1.555,0,0,0-1.372,1.073,1.463,1.463,0,0,1,.467-.713,8.911,8.911,0,0,0-2.172,1.816,1.565,1.565,0,0,0-.983,0c.014,0,.035-.018.049-.02a8.242,8.242,0,0,0-2.711.815,1.552,1.552,0,0,0-.92-.412v-.01a9.274,9.274,0,0,0-3.1-.319,1.341,1.341,0,0,0-.071-.154,1.523,1.523,0,0,0-.646-.65l-.1-.071a9.835,9.835,0,0,0-4.167-1.851,3.7,3.7,0,0,0-3.533,2.014,4.854,4.854,0,0,0-.4.839,4.326,4.326,0,0,0-.992,4.618,6.187,6.187,0,0,0,.234.593c.971,2.184,4.369,4.874,6.205,5.122l0,.033a1.481,1.481,0,0,0,.445-.026.985.985,0,0,0,.209-.051,1.425,1.425,0,0,0,.254-.114,8.646,8.646,0,0,0,6.53,2.156l0,.016a1.506,1.506,0,0,0,.246-.1A.919.919,0,0,0,297.537,108.809Zm4.948-13.13a1.515,1.515,0,0,1,.028-.177,1.228,1.228,0,0,0-.024.177Zm-3.582,1.7a1.752,1.752,0,0,1,.124-.256,1.428,1.428,0,0,0-.116.26Z" transform="translate(-220.105 -19.152)" fill="#c68d1a"/>
            <g id="Group_849" data-name="Group 849" transform="translate(59.102 48.971)">
              <g id="Group_841" data-name="Group 841">
                <g id="Group_835" data-name="Group 835" transform="translate(12.467)">
                  <path id="Path_1152" data-name="Path 1152" d="M285.211,72.443c.043,0-1.376-2.168-.13-3.8,1.292-1.733,5-1.278,4.974-1.189A15.1,15.1,0,0,0,285.211,72.443Z" transform="translate(-284.567 -67.337)" fill="#efb135"/>
                  <path id="Path_1153" data-name="Path 1153" d="M289.027,70.966c-1.374,1.1-4.127,1.347-4.143,1.416a15.1,15.1,0,0,1,4.844-4.986C289.771,67.414,290.437,69.806,289.027,70.966Z" transform="translate(-284.241 -67.276)" fill="#fcc34f"/>
                  <path id="Path_1154" data-name="Path 1154" d="M284.943,70.024c-.035.022.378,2.432,1.859,3.3a6.661,6.661,0,0,0,3.546.477A16.6,16.6,0,0,0,284.943,70.024Z" transform="translate(-284.182 -64.564)" fill="#fcc34f"/>
                  <path id="Path_1155" data-name="Path 1155" d="M289.193,70.416c-1.587-1.329-4.312-.193-4.251-.134a16.6,16.6,0,0,1,5.4,3.779C290.309,74.071,290.7,71.672,289.193,70.416Z" transform="translate(-284.181 -64.822)" fill="#efb135"/>
                </g>
                <g id="Group_836" data-name="Group 836" transform="translate(18.372 0.74)">
                  <path id="Path_1156" data-name="Path 1156" d="M287.651,71.48c.041.022-.809-2.493.884-3.464,1.76-1.059,5.431.888,5.384.969A12.751,12.751,0,0,0,287.651,71.48Z" transform="translate(-287.474 -67.701)" fill="#efb135"/>
                  <path id="Path_1157" data-name="Path 1157" d="M292.141,71.228c-1.707.4-4.549-.457-4.58-.4a12.751,12.751,0,0,1,6.268-2.5C293.868,68.368,293.9,70.783,292.141,71.228Z" transform="translate(-287.383 -67.049)" fill="#fcc34f"/>
                  <path id="Path_1158" data-name="Path 1158" d="M287.593,69.74a5.061,5.061,0,0,0,.99,3.7,8.97,8.97,0,0,0,3.479,1.875A20.6,20.6,0,0,0,287.593,69.74Z" transform="translate(-287.393 -65.598)" fill="#fcc34f"/>
                  <path id="Path_1159" data-name="Path 1159" d="M291.845,71.586c-1.272-1.857-4.322-1.916-4.273-1.835a20.6,20.6,0,0,1,4.468,5.577A4.061,4.061,0,0,0,291.845,71.586Z" transform="translate(-287.372 -65.608)" fill="#efb135"/>
                </g>
                <g id="Group_837" data-name="Group 837" transform="translate(23.748 3.486)">
                  <path id="Path_1160" data-name="Path 1160" d="M290.359,71.774c.037.039-.156-2.576,1.853-2.713,2.095-.205,5.433,3.286,5.37,3.355A13.554,13.554,0,0,0,290.359,71.774Z" transform="translate(-289.873 -69.053)" fill="#efb135"/>
                  <path id="Path_1161" data-name="Path 1161" d="M295.018,72.934c-1.914-.473-4.616-2.469-4.659-2.424a13.554,13.554,0,0,1,7.223.642C297.615,71.205,297,73.383,295.018,72.934Z" transform="translate(-289.873 -67.789)" fill="#fcc34f"/>
                  <path id="Path_1162" data-name="Path 1162" d="M290.529,70.557a4.457,4.457,0,0,0,.016,3.735,13.57,13.57,0,0,0,3.131,3.283A24.253,24.253,0,0,0,290.529,70.557Z" transform="translate(-290.12 -67.501)" fill="#fcc34f"/>
                  <path id="Path_1163" data-name="Path 1163" d="M294.273,74.124c-.845-2.288-3.984-3.665-3.952-3.564a24.253,24.253,0,0,1,3.147,7.018A3.192,3.192,0,0,0,294.273,74.124Z" transform="translate(-289.912 -67.503)" fill="#efb135"/>
                </g>
                <g id="Group_838" data-name="Group 838" transform="translate(0 10.108)">
                  <path id="Path_1164" data-name="Path 1164" d="M281.238,81.21a2.886,2.886,0,0,1-2.678-2.542c-.642-2.773,1.327-6.467,1.374-6.354A30.132,30.132,0,0,0,281.238,81.21Z" transform="translate(-278.432 -72.312)" fill="#efb135"/>
                  <path id="Path_1165" data-name="Path 1165" d="M281.311,75.522c.134,2.2-.884,5.592-.835,5.687a30.132,30.132,0,0,1-1.3-8.9A3.828,3.828,0,0,1,281.311,75.522Z" transform="translate(-277.669 -72.311)" fill="#fcc34f"/>
                  <path id="Path_1166" data-name="Path 1166" d="M279.958,78.506c0,.061,1.841,1.276,3.074.148,1.183-1.093,1.839-3.611,1.89-3.613A10.192,10.192,0,0,0,279.958,78.506Z" transform="translate(-276.857 -69.495)" fill="#fcc34f"/>
                  <path id="Path_1167" data-name="Path 1167" d="M281.911,74.5c-1.625.762-2.026,4.728-1.948,4.732a10.192,10.192,0,0,1,4.964-3.464C284.916,75.821,283.443,73.746,281.911,74.5Z" transform="translate(-276.861 -70.223)" fill="#efb135"/>
                </g>
                <g id="Group_839" data-name="Group 839" transform="translate(2.796 4.343)">
                  <path id="Path_1168" data-name="Path 1168" d="M281.8,77.634a3.577,3.577,0,0,1-1.989-3.312c.065-2.58,2.934-4.952,2.952-4.844A24.466,24.466,0,0,0,281.8,77.634Z" transform="translate(-279.808 -69.474)" fill="#efb135"/>
                  <path id="Path_1169" data-name="Path 1169" d="M283.057,73.176c-.427,1.987-2.278,4.368-2.253,4.456a24.466,24.466,0,0,1,.963-8.156A4.261,4.261,0,0,1,283.057,73.176Z" transform="translate(-278.812 -69.473)" fill="#fcc34f"/>
                  <path id="Path_1170" data-name="Path 1170" d="M280.916,74.053c-.012.049,1.485,1.886,2.979,1.5,1.435-.376,2.715-2.288,2.767-2.274A10.36,10.36,0,0,0,280.916,74.053Z" transform="translate(-278.665 -65.668)" fill="#fcc34f"/>
                  <path id="Path_1171" data-name="Path 1171" d="M284.022,72.048c-1.79-.008-3.18,3.133-3.1,3.155a10.36,10.36,0,0,1,5.746-.774C286.641,74.468,285.719,72.04,284.022,72.048Z" transform="translate(-278.666 -66.819)" fill="#efb135"/>
                </g>
                <g id="Group_840" data-name="Group 840" transform="translate(7.101 0.948)">
                  <path id="Path_1172" data-name="Path 1172" d="M283.2,74.674c.037-.012-1.817-1.619-1.113-3.739.717-2.239,4.163-3.225,4.157-3.125A19.32,19.32,0,0,0,283.2,74.674Z" transform="translate(-281.927 -67.804)" fill="#efb135"/>
                  <path id="Path_1173" data-name="Path 1173" d="M285.912,71.635c-.937,1.621-3.363,2.956-3.359,3.036a19.32,19.32,0,0,1,3.044-6.864C285.637,67.809,286.869,69.932,285.912,71.635Z" transform="translate(-281.28 -67.8)" fill="#fcc34f"/>
                  <path id="Path_1174" data-name="Path 1174" d="M282.65,71.336c-.024.037.981,2.276,2.548,2.558,1.506.268,3.265-.939,3.314-.908A12.859,12.859,0,0,0,282.65,71.336Z" transform="translate(-281.18 -64.159)" fill="#fcc34f"/>
                  <path id="Path_1175" data-name="Path 1175" d="M286.517,70.653c-1.77-.709-3.936,1.491-3.867,1.532a12.859,12.859,0,0,1,5.862,1.65C288.482,73.86,288.2,71.32,286.517,70.653Z" transform="translate(-281.181 -65.008)" fill="#efb135"/>
                </g>
              </g>
              <g id="Group_848" data-name="Group 848" transform="translate(5.336 19.031)">
                <g id="Group_842" data-name="Group 842" transform="translate(16.74 8.676)">
                  <path id="Path_1176" data-name="Path 1176" d="M289.706,84.234c.031-.028.207,2.558,2.184,3.109,2.077.6,4.763-2,4.688-2.05A15.13,15.13,0,0,1,289.706,84.234Z" transform="translate(-288.874 -77.608)" fill="#efb135"/>
                  <path id="Path_1177" data-name="Path 1177" d="M293.865,83.563c-1.755-.047-4.1,1.41-4.159,1.365a15.13,15.13,0,0,0,6.872,1.059C296.6,85.948,295.69,83.638,293.865,83.563Z" transform="translate(-288.874 -78.302)" fill="#fcc34f"/>
                  <path id="Path_1178" data-name="Path 1178" d="M290.009,87.245c-.041,0-1.164-2.168-.506-3.755a6.646,6.646,0,0,1,2.542-2.517A16.616,16.616,0,0,1,290.009,87.245Z" transform="translate(-289.296 -80.973)" fill="#fcc34f"/>
                  <path id="Path_1179" data-name="Path 1179" d="M292.959,84.578c-.467,2.016-3.324,2.753-3.312,2.668a16.616,16.616,0,0,0,2.036-6.272C291.646,80.987,293.4,82.668,292.959,84.578Z" transform="translate(-288.935 -80.973)" fill="#efb135"/>
                </g>
                <g id="Group_843" data-name="Group 843" transform="translate(20.607 5.045)">
                  <path id="Path_1180" data-name="Path 1180" d="M292.016,83.758c.02-.041.857,2.477,2.794,2.231,2.042-.215,3.8-3.982,3.712-4.017A12.771,12.771,0,0,1,292.016,83.758Z" transform="translate(-290.358 -76.311)" fill="#efb135"/>
                  <path id="Path_1181" data-name="Path 1181" d="M295.43,81.413c-1.6.711-3.355,3.107-3.414,3.08a12.771,12.771,0,0,0,6.506-1.786C298.532,82.656,297.1,80.708,295.43,81.413Z" transform="translate(-290.358 -77.047)" fill="#fcc34f"/>
                  <path id="Path_1182" data-name="Path 1182" d="M292.657,86.33a5.067,5.067,0,0,1-1.443-3.552,8.98,8.98,0,0,1,1.646-3.592A20.634,20.634,0,0,1,292.657,86.33Z" transform="translate(-291.2 -79.186)" fill="#fcc34f"/>
                  <path id="Path_1183" data-name="Path 1183" d="M294.221,82.291c.106,2.247-2.294,4.133-2.3,4.039a20.634,20.634,0,0,0,.2-7.144A4.07,4.07,0,0,1,294.221,82.291Z" transform="translate(-290.46 -79.186)" fill="#efb135"/>
                </g>
                <g id="Group_844" data-name="Group 844" transform="translate(23.218)">
                  <path id="Path_1184" data-name="Path 1184" d="M293.748,82.973c.006-.055,1.428,2.15,3.113,1.046,1.794-1.1,2.355-5.9,2.266-5.913A13.566,13.566,0,0,1,293.748,82.973Z" transform="translate(-291.182 -75.254)" fill="#efb135"/>
                  <path id="Path_1185" data-name="Path 1185" d="M296.005,78.542c-1.244,1.532-2.2,4.752-2.257,4.744a13.566,13.566,0,0,0,5.378-4.866C299.118,78.357,297.314,76.991,296.005,78.542Z" transform="translate(-291.182 -75.567)" fill="#fcc34f"/>
                  <path id="Path_1186" data-name="Path 1186" d="M294.789,84.2a4.438,4.438,0,0,1-2.239-2.989,13.482,13.482,0,0,1,.52-4.507A24.434,24.434,0,0,1,294.789,84.2Z" transform="translate(-292.485 -76.703)" fill="#fcc34f"/>
                  <path id="Path_1187" data-name="Path 1187" d="M295.5,78.975c.705,2.335-.969,5.325-1,5.224a24.434,24.434,0,0,0-1.719-7.5A3.194,3.194,0,0,1,295.5,78.975Z" transform="translate(-292.188 -76.703)" fill="#efb135"/>
                </g>
                <g id="Group_845" data-name="Group 845" transform="translate(0 8.172)">
                  <path id="Path_1188" data-name="Path 1188" d="M282.031,81.831a2.886,2.886,0,0,0-.605,3.643c1.158,2.6,4.958,4.36,4.925,4.242A30.078,30.078,0,0,1,282.031,81.831Z" transform="translate(-281.058 -79.584)" fill="#efb135"/>
                  <path id="Path_1189" data-name="Path 1189" d="M285.629,85.866c-1.219-1.837-4.074-3.928-4.092-4.035a30.078,30.078,0,0,0,4.32,7.886A3.833,3.833,0,0,0,285.629,85.866Z" transform="translate(-280.563 -79.584)" fill="#fcc34f"/>
                  <path id="Path_1190" data-name="Path 1190" d="M281.619,82.7c-.033-.049.7-2.125,2.365-1.971,1.6.158,3.641,1.774,3.684,1.745A10.186,10.186,0,0,1,281.619,82.7Z" transform="translate(-280.48 -80.725)" fill="#fcc34f"/>
                  <path id="Path_1191" data-name="Path 1191" d="M286.026,84.417c-1.755.37-4.466-2.552-4.407-2.6a10.186,10.186,0,0,0,6.049-.226C287.631,81.552,287.7,84.1,286.026,84.417Z" transform="translate(-280.48 -79.835)" fill="#efb135"/>
                </g>
                <g id="Group_846" data-name="Group 846" transform="translate(6.085 10.877)">
                  <path id="Path_1192" data-name="Path 1192" d="M284.442,83.8a3.569,3.569,0,0,0,.408,3.84c1.607,2.022,5.325,2.184,5.275,2.087A24.442,24.442,0,0,1,284.442,83.8Z" transform="translate(-284.053 -80.259)" fill="#efb135"/>
                  <path id="Path_1193" data-name="Path 1193" d="M288.726,86c-1.538-1.329-4.45-2.113-4.482-2.2a24.442,24.442,0,0,0,5.683,5.927A4.257,4.257,0,0,0,288.726,86Z" transform="translate(-283.855 -80.259)" fill="#fcc34f"/>
                  <path id="Path_1194" data-name="Path 1194" d="M284.282,85.258c-.039-.03.049-2.4,1.473-2.991,1.371-.565,3.546.189,3.578.146A10.345,10.345,0,0,1,284.282,85.258Z" transform="translate(-283.822 -82.056)" fill="#fcc34f"/>
                  <path id="Path_1195" data-name="Path 1195" d="M288.658,85.723c-1.422,1.087-4.425-.583-4.379-.646a10.345,10.345,0,0,0,5.051-2.845C289.29,82.214,290.017,84.707,288.658,85.723Z" transform="translate(-283.819 -81.875)" fill="#efb135"/>
                </g>
                <g id="Group_847" data-name="Group 847" transform="translate(11.955 10.779)">
                  <path id="Path_1196" data-name="Path 1196" d="M287.06,84.574c.037-.014-.471,2.385,1.363,3.653,1.924,1.355,5.267.063,5.2-.012A19.291,19.291,0,0,1,287.06,84.574Z" transform="translate(-286.859 -79.36)" fill="#efb135"/>
                  <path id="Path_1197" data-name="Path 1197" d="M291.552,85c-1.725-.729-4.464-.331-4.511-.4a19.291,19.291,0,0,0,6.565,3.641C293.638,88.215,293.34,85.78,291.552,85Z" transform="translate(-286.84 -79.386)" fill="#fcc34f"/>
                  <path id="Path_1198" data-name="Path 1198" d="M287.117,86.858c-.041-.014-.589-2.408.492-3.578,1.038-1.122,3.17-1.217,3.192-1.272A12.9,12.9,0,0,1,287.117,86.858Z" transform="translate(-286.942 -82.008)" fill="#fcc34f"/>
                  <path id="Path_1199" data-name="Path 1199" d="M291.037,85.749c-.985,1.634-4.039,1.183-4.009,1.109a12.9,12.9,0,0,0,3.684-4.85C290.671,82.006,291.976,84.206,291.037,85.749Z" transform="translate(-286.853 -82.008)" fill="#efb135"/>
                </g>
              </g>
            </g>
          </g>
          <rect id="Rectangle_107" data-name="Rectangle 107" width="82.817" height="13.735" transform="translate(39.031 51.015) rotate(71.468)" fill="#846c5d"/>
          <rect id="Rectangle_108" data-name="Rectangle 108" width="103.54" height="30.392" transform="translate(32.909 151.342) rotate(-108.532)" fill="#846c5d"/>
          <rect id="Rectangle_109" data-name="Rectangle 109" width="69.052" height="16.561" transform="translate(35.173 132.396) rotate(-108.532)" fill="#fcc34f"/>
        </g>
        <path id="Path_1200" data-name="Path 1200" d="M402.747,343.369a26.575,26.575,0,0,1-15.536-9.759l-13.189,18.567L361.832,300.7c-3.631-14.52-19.508-26.026-34.836-34.017-34.332,10.226-33.2-20.987-32.554-27.109-6.66-40.155,22.765-74.311,48.486-106.432l-28.846-9.891c-109.521,99.971-119.643,266.1-119.643,266.1l132.834,19.707c-20.639-24.719,2.727-38.264-9.1-39.641-2.507-.291,3.588-5.169,4.037-7.428.425-2.14-2.127-3.9-1.516-5.807,4.872-15.2,14.723-22.976,14.723-22.976.762,64.219,41.314,78.563,41.314,78.563Z" transform="translate(-181.371 39.334)" fill="url(#linear-gradient-9)"/>
        <path id="Path_1201" data-name="Path 1201" d="M260.955,202.457c-1.43-.439-2.857.075-3.186,1.148s.563,2.3,1.993,2.737,2.857-.073,3.186-1.146S262.385,202.9,260.955,202.457Zm-6.26,16.962c.329-1.073-.563-2.3-1.993-2.739s-2.857.075-3.186,1.148.563,2.3,1.991,2.737S254.364,220.491,254.695,219.418Zm-1.321,17.744c-1.5,0-2.708.91-2.708,2.032s1.213,2.032,2.708,2.032,2.708-.908,2.708-2.032S254.872,237.163,253.374,237.163ZM251.4,253.525c-1.042.414-1.439,1.877-.886,3.267s1.845,2.182,2.889,1.768,1.439-1.877.886-3.267S252.444,253.111,251.4,253.525ZM238.94,266.982c-1.3-.748-2.8-.567-3.363.4s.035,2.367,1.331,3.115,2.8.567,3.363-.4S240.236,267.73,238.94,266.982Z" transform="translate(-139.139 120.896)" fill="#4addc7"/>
        <g id="Group_852" data-name="Group 852" transform="translate(97.777 310.101)">
          <path id="Path_1202" data-name="Path 1202" d="M236.621,293.14l-.492-1.971c4.31-1.079,4.574-10.23,4.312-13.668l-.028-.388,5.47-7.111.228-.106c.122-.055,12.152-5.575,15.1-7.54.67-.774-1.2-6.006-2.574-9.826-2.347-6.545-5.269-14.688-4.99-21.373.449-10.738,7.932-16.874,10.395-18.61l-3.145-6.815,1.038-.378c.055-.02,5.462-2,7.839-3.9a.825.825,0,0,0,.388-.7c-.006-1.071-1.625-2.68-2.41-3.292l1.25-1.605c.325.254,3.176,2.538,3.192,4.88a2.866,2.866,0,0,1-1.15,2.3,33.5,33.5,0,0,1-7.384,3.83l2.975,6.443-.78.469c-.1.059-9.7,5.984-10.178,17.46-.26,6.287,2.585,14.225,4.872,20.6,2.416,6.742,3.877,10.809,1.788,12.2-2.883,1.922-13.406,6.79-15.149,7.593l-4.694,6.1C242.617,280.077,242.9,291.569,236.621,293.14Z" transform="translate(-236.129 -195.855)" fill="#39aa99"/>
        </g>
        <g id="Group_853" data-name="Group 853" transform="translate(23.33 181.698)">
          <path id="Path_1203" data-name="Path 1203" d="M318.194,242.605l-26.414,49.78c-27.43-37.081-25.906-72.131-25.906-72.131-12.191,59.432,38.1,88.893,38.1,88.893l21.842-59.939Z" transform="translate(-132.956 -42.275)" fill="#002856"/>
          <path id="Path_1204" data-name="Path 1204" d="M199.489,272.692c.679,8.127,8.806-3.387,8.806-3.387s1.353-33.186.677-37.25S199.489,272.692,199.489,272.692Z" transform="translate(-199.489 -30.369)" fill="#002856"/>
          <path id="Path_1205" data-name="Path 1205" d="M294.394,358.727c-.811-7.276-138.842-73.486,3.048-206.232,0,0-32.757,10.541-32.17,2.708a46.855,46.855,0,0,1,7.686-22.543c-23.009,25.264-67.567,97.711-54.927,158.169,14.054,67.222,55.028,68.238,55.028,68.238s-31.494-10.5-36.234-47.748C236.826,311.318,250.372,343.828,294.394,358.727Z" transform="translate(-182.642 -132.66)" fill="#002856"/>
          <path id="Path_1206" data-name="Path 1206" d="M263.372,215.644c2.024.687-6.734-6.983-7.873-10.921a12.05,12.05,0,0,1,.551-8.32A37.367,37.367,0,0,1,253.8,181.9c-4.838,5.325-20.14,23.352-20.14,38.321,0,0,8.889-25.144,18.033-27.176C251.689,193.04,247.625,210.31,263.372,215.644Z" transform="translate(-164.234 -81.857)" fill="#002856"/>
          <path id="Path_1207" data-name="Path 1207" d="M281.253,227.22c-15.239,21.334-38.1,6.1-38.1,6.1l24.89,29.462s6.6-19.81,16.763-28.954l7.619-20.318S284.447,222.75,281.253,227.22Z" transform="translate(-154.431 -49.24)" fill="#002856"/>
          <path id="Path_1208" data-name="Path 1208" d="M277.736,240.359l14.223-6.6-19.3,4.572,4.064,18.795Z" transform="translate(-123.992 -28.345)" fill="#002856"/>
        </g>
        <path id="Path_1209" data-name="Path 1209" d="M252.444,196.218l1.27-2.54,6.857-3.048,8.507,3.176,5.462,8.127s-15.367.38-19.557-1.652S252.444,196.218,252.444,196.218Z" transform="translate(-121.849 108.854)" fill="#39aa99"/>
        <path id="Path_1210" data-name="Path 1210" d="M250.156,198.388l11.514-6.1,4.233,16.085,14.985-4.572-.762-11.683-18.117-2.2Z" transform="translate(-123.879 108.124)" fill="#4addc7"/>
        <path id="Path_1211" data-name="Path 1211" d="M255.055,194.005s33.525,39.367,71.369,16.509c0,0-15.493,20.572-33.525,16.763s-36.573-21.334-39.367-30.986Z" transform="translate(-120.396 112.337)" fill="#db7631"/>
        <path id="Path_1212" data-name="Path 1212" d="M252.323,200.647s25.059,75.855,92.11,14.223c0,0,4.712-7.225,3.848-28.637a1.5,1.5,0,0,0-2.266-1.239L325.469,197.26s-8.5,47.086-41.315,34.541C261.127,223,252.323,200.647,252.323,200.647Z" transform="translate(-121.643 102.818)" fill="#b64e00"/>
        <path id="Path_1213" data-name="Path 1213" d="M248.406,194.473s6.1-4.742,9.483-2.711a21.8,21.8,0,0,1,5.925,5.927l-4.064,3.9A15.244,15.244,0,0,1,248.406,194.473Z" transform="translate(-125.684 109.5)" fill="#b64e00"/>
        <path id="Path_1214" data-name="Path 1214" d="M247.413,188.089a13.129,13.129,0,0,0,6.772,10.667s5.248,2.877,2.371,3.385-7.451-2.877-9.483-8.3S247.413,188.089,247.413,188.089Z" transform="translate(-127.908 106.232)" fill="#db7631"/>
        <path id="Path_1215" data-name="Path 1215" d="M253.027,207.693l6.266-11.512-13.546-16.425-2.032,1.016S241.852,202.276,253.027,207.693Z" transform="translate(-130.645 97.633)" fill="#4addc7"/>
        <g id="Group_854" data-name="Group 854" transform="translate(127.694 104.638)">
          <path id="Path_1216" data-name="Path 1216" d="M255.87,152.685l28.846,9.891-.006.006a424.584,424.584,0,0,1,29.8-33.385l12.388-1.91,4.74-5.5,3.472.085s2.079-1.636,1.607-3.048c-1.524-4.572-4.637-2.928-5.842-5.334-2.253-4.509-4.734-9.554-5.588-11.6-1.319-3.166-1.235-7.642-5.756-7.111-25.906,3.048-15.239,20.318-21.615,26.256a275.345,275.345,0,0,0-47.068,36.344Q253.325,155.008,255.87,152.685Z" transform="translate(-250.853 -94.734)" fill="#eabfa5"/>
          <path id="Path_1217" data-name="Path 1217" d="M319.205,206.255H291.267l-7.111,9.143s.508,5.588,5.08,6.6c2.052.457,3.178-.931,3.8-2.6.9,6.213,7.827,14.04,10.153,16.519l-8.554,12.043a26.575,26.575,0,0,0,15.536,9.759l7.51-19.748C322.761,226.017,319.205,206.255,319.205,206.255Z" transform="translate(-216.489 20.339)" fill="#eabfa5"/>
        </g>
        <path id="Path_1218" data-name="Path 1218" d="M200.5,259.063s38.605-37.928,131.938-3.671l-3.932,10.444s88.757,40.732,111.42,110.339L314.455,427.109l11.872,36.459s-5.01,7.132-14.857-3.409-27.212-49.8-27.212-49.8l95.737-55S329.466,309.951,273.851,322.1c0,0-59.6,89.976-35.628,208.646,0,0,2.353,57.889-14.164,55.018s-6.784-54.614-6.784-54.614S164.679,416.45,200.5,259.063Z" transform="translate(-188.007 160.893)" fill="#333"/>
        <path id="Path_1219" data-name="Path 1219" d="M265.431,120.277s15.578-18.965,30.478,14.9L283.041,154.14s-14.223-23.7-35.218-16.931Z" transform="translate(-126.286 30.799)" fill="url(#linear-gradient-9)"/>
        <path id="Path_1220" data-name="Path 1220" d="M294.083,225.422s11.035,12.53,23.3,11.175l-10.423,28.446s-17.779.339-25.134-25.4Z" transform="translate(-91.203 144.754)" fill="#002856"/>
      </g>
      <path id="Path_1221" data-name="Path 1221" d="M249.825,545.542a504.231,504.231,0,0,1-17.435-53.088c-4.9-17.988-8.822-36.24-12.035-54.61l-2.131-13.829-1.656-13.892c-.618-4.624-.955-9.277-1.294-13.93-.307-4.653-.833-9.292-.878-13.961a343.323,343.323,0,0,1,2.168-55.823l-.843,13.938c-.112,2.322-.374,4.637-.362,6.963l-.02,6.977-.061,6.971c-.022,2.322-.077,4.645.073,6.967l.605,13.928a510.576,510.576,0,0,0,6.4,55.354c3.036,18.335,6.969,36.52,11.537,54.549,2.3,9.009,4.746,17.986,7.424,26.893C243.89,527.9,246.777,536.742,249.825,545.542Z" transform="translate(-161.114 248.957)" fill="#333" opacity="0.2"/>
      <path id="Path_1222" data-name="Path 1222" d="M246.358,462.206c-3.281-7.073-6.057-14.367-8.619-21.731s-4.738-14.861-6.807-22.381c-1.93-7.558-3.678-15.17-5.019-22.854a214.464,214.464,0,0,1-2.861-23.206c.772,3.826,1.246,7.682,2.093,11.484l1.075,5.726,1.227,5.7c1.652,7.585,3.373,15.156,5.447,22.639,1.9,7.528,4.076,14.981,6.323,22.417q1.673,5.581,3.487,11.124C243.857,454.835,245.115,458.512,246.358,462.206Z" transform="translate(-151.845 296.036)" fill="#333" opacity="0.2"/>
      <ellipse id="Ellipse_30" data-name="Ellipse 30" cx="69.484" cy="7.143" rx="69.484" ry="7.143" transform="translate(56.477 819.365)" fill="#333" opacity="0.3"/>
      <g id="Group_856" data-name="Group 856" transform="translate(213.303 507.533)" opacity="0.3">
        <path id="Path_1223" data-name="Path 1223" d="M336.314,293.024c4.218,6.709,8.16,13.561,12.069,20.426q5.791,10.341,11.334,20.8l.965,1.823-1.91.859c-5.4,2.432-10.787,4.917-16.232,7.258-5.419,2.4-10.879,4.71-16.346,7-10.96,4.523-21.962,8.956-33.206,12.841,10.419-5.744,21.08-10.94,31.784-16.043,5.364-2.526,10.736-5.029,16.149-7.445,5.386-2.473,10.838-4.8,16.265-7.185l-.945,2.68q-5.288-10.6-10.33-21.32C342.6,307.55,339.317,300.357,336.314,293.024Z" transform="translate(-292.987 -293.024)" fill="#333"/>
      </g>
    </g>
    <g id="Group_858" data-name="Group 858" transform="translate(86.398 48.208)">
      <path id="Path_1224" data-name="Path 1224" d="M167.609,65.58c-4.809-4.791-8.52-8.912-8.721-16.025-.173-6.152,1.374-12.24,1.485-18.392.071-3.926-6.024-3.926-6.1,0-.144,7.955-2.733,16.226-.847,24.126,1.447,6.063,5.579,10.33,9.867,14.6C166.081,72.663,170.393,68.353,167.609,65.58Z" transform="translate(64.751 -25.552)" fill="url(#linear-gradient-9)"/>
      <path id="Path_1225" data-name="Path 1225" d="M175.791,100.31c-.8,2.081-3.735,3.745-5.48,4.917-2.168,1.453-4.436,2.745-6.664,4.1-3.351,2.032-.291,7.3,3.076,5.262,5.291-3.21,12.573-6.522,14.946-12.658C183.085,98.27,177.193,96.683,175.791,100.31Z" transform="translate(74.503 46.719)" fill="url(#linear-gradient-9)"/>
      <path id="Path_1226" data-name="Path 1226" d="M113.128,90.013c-2.3,2.912-3.972,6.6-2.062,10.163,2.054,3.84,5.12,3.355,8.522,3.6-.335,3.155-2.654,6.482-2.985,9.531a8.562,8.562,0,0,0,2.515,7.43c2.7,2.857,7.006-1.459,4.31-4.31-2.284-2.416.866-7.189,1.589-9.645a12.713,12.713,0,0,0,.408-6.48,2.98,2.98,0,0,0-2.129-2.129c-2.771-.589-7.817.671-5.8-3.808,1.166-2.589,6.977-7.4,9.749-4.783,2.851,2.692,7.168-1.609,4.31-4.312C125.373,79.429,117.563,84.385,113.128,90.013Z" transform="translate(20.885 30.611)" fill="url(#linear-gradient-9)"/>
      <path id="Path_1227" data-name="Path 1227" d="M350.4,52.73l1.3.4a2.8,2.8,0,0,0,1.863-.1c.142.073.274.14.311.165q.451.308.116.083a5.6,5.6,0,0,1,.429.421,3.048,3.048,0,1,0,4.31-4.312c-2.073-2.137-5.38-3.519-8.329-2.54A3.075,3.075,0,0,0,350.4,52.73Z" transform="translate(266.457 -6.656)" fill="url(#linear-gradient-9)"/>
      <path id="Path_1228" data-name="Path 1228" d="M365.672,93.863c-3.773,1.437-9.34,4.224-14.278,5.1,3.824-3.958,9.542-7.859,13.374-8.814,3.8-.949,2.192-6.829-1.621-5.878-4.872,1.215-8.28,4.555-12.2,7.491-3.389,2.536-6.276,4.722-8.2,8.6a3.088,3.088,0,0,0,1.82,4.476c4.893,1.254,10.306-.266,15.381-2.184-1.737,1.831-3.653,3.609-4.543,5.165-2,3.495-4.137,7.788-3.976,11.9.154,3.909,6.25,3.93,6.1,0-.386-9.816,12.171-13.92,12.008-22.921C369.5,94.985,367.584,93.136,365.672,93.863Z" transform="translate(260.425 32.18)" fill="url(#linear-gradient-9)"/>
      <path id="Path_1229" data-name="Path 1229" d="M379.6,154.062v-14.9c0-3.924-6.1-3.93-6.1,0v14.9C373.5,157.984,379.6,157.992,379.6,154.062Z" transform="translate(292.535 85.887)" fill="url(#linear-gradient-9)"/>
      <path id="Path_1230" data-name="Path 1230" d="M389.239,169.5a6.348,6.348,0,0,0-4.864,2.247,3.139,3.139,0,0,0,0,4.31,3.071,3.071,0,0,0,4.312,0,3.919,3.919,0,0,1,.384-.437l.01-.006.045-.014.114,0a3.048,3.048,0,1,0,0-6.1Z" transform="translate(302.871 120.228)" fill="url(#linear-gradient-9)"/>
      <path id="Path_1231" data-name="Path 1231" d="M116.327,194.529a6.671,6.671,0,0,0-3.4-3.314,21.961,21.961,0,0,0-5.336-1.2,42.214,42.214,0,0,0-7.1-1.181c-3.923-.085-3.923,6.01,0,6.1,2.446.055,4.781.874,7.191,1.239,1.644.252,3.665.163,3.34,2.32-.39,2.6,2.944,5.64,5.1,2.964a28.925,28.925,0,0,0,1.9-2.615A2.844,2.844,0,0,0,116.327,194.529Z" transform="translate(7.799 140.177)" fill="url(#linear-gradient-9)"/>
      <path id="Path_1232" data-name="Path 1232" d="M161.093,157.051l-2.71,2.708a3.049,3.049,0,0,0,4.312,4.312q1.353-1.356,2.708-2.71a3.047,3.047,0,0,0-4.31-4.31Z" transform="translate(69.666 106.479)" fill="url(#linear-gradient-9)"/>
      <path id="Path_1233" data-name="Path 1233" d="M434.505,43.66c-6.622,2.485-14.306,6.662-16.5,14-2.142,7.16,5.334,10.895,11.082,12.2,3.82.868,5.449-5.006,1.619-5.876a15.239,15.239,0,0,1-5.277-1.892c-2.288-1.569-1.66-3.068-.215-5.157,2.58-3.735,6.78-5.842,10.911-7.394C439.764,48.171,438.187,42.276,434.505,43.66Z" transform="translate(338.07 -9.834)" fill="url(#linear-gradient-9)"/>
      <path id="Path_1234" data-name="Path 1234" d="M436.752,79.906A3.077,3.077,0,0,0,432.583,81q-.68,1.353-1.355,2.708a3.122,3.122,0,0,0,1.093,4.169,3.075,3.075,0,0,0,4.169-1.093q.68-1.353,1.355-2.708A3.123,3.123,0,0,0,436.752,79.906Z" transform="translate(351.716 27.373)" fill="url(#linear-gradient-9)"/>
      <path id="Path_1235" data-name="Path 1235" d="M422.5,169.5c-3.921,0-3.93,6.1,0,6.1S426.423,169.5,422.5,169.5Z" transform="translate(340.053 120.229)" fill="url(#linear-gradient-9)"/>
      <path id="Path_1236" data-name="Path 1236" d="M408.383,233.054c-.451,2.538-.585,5.12-.949,7.67-.315,2.217-.536,5.644-2.331,7.239-2.938,2.611,1.386,6.908,4.31,4.31,4.622-4.106,3.863-12.065,4.848-17.6C414.944,230.837,409.07,229.191,408.383,233.054Z" transform="translate(324.134 183.533)" fill="url(#linear-gradient-9)"/>
      <path id="Path_1237" data-name="Path 1237" d="M348.211,216.705c.029.018.063.024.091.043a.624.624,0,0,0-.063-.057l-.02.01Z" transform="translate(266.441 168.923)" fill="url(#linear-gradient-9)"/>
      <path id="Path_1238" data-name="Path 1238" d="M354.884,222.378c-.931-.256-1.871-.605-2.81-.815a1.574,1.574,0,0,1-.469-.219c.477.475-1.414.437-.091-.043a3.384,3.384,0,0,0-.53-.311,2.485,2.485,0,0,1,.559.3c.843-.317,1.865-1.479,2.692-1.959a28.545,28.545,0,0,1,3.129-1.554c3.6-1.534.5-6.786-3.076-5.263-4.09,1.743-11.791,6.169-8.463,11.667,1.388,2.292,4.108,3.153,6.536,3.836,2.223.626,4.838.605,4.48,3.383-.5,3.879,5.6,3.842,6.1,0C363.633,225.993,359.411,223.626,354.884,222.378Z" transform="translate(263.139 164.327)" fill="url(#linear-gradient-9)"/>
      <path id="Path_1239" data-name="Path 1239" d="M144.489,266.362c-1.648,1.514-5.305.508-7.327.463-3.926-.089-3.924,6.006,0,6.1,4.137.091,8.3.815,11.636-2.247C151.691,268.011,147.374,263.71,144.489,266.362Z" transform="translate(45.633 219.317)" fill="url(#linear-gradient-9)"/>
      <path id="Path_1240" data-name="Path 1240" d="M211.067,136.29a3.02,3.02,0,0,0,1.325,5.888c.035.016.045.018.1.045l-.085-.045h.008l.234.114a5.854,5.854,0,0,1,1.27.866c.88.742,1.686,1.565,2.578,2.29a3.135,3.135,0,0,0,4.31,0,3.069,3.069,0,0,0,0-4.31C217.9,138.777,215.248,135.431,211.067,136.29Z" transform="translate(122.63 85.819)" fill="url(#linear-gradient-9)"/>
      <path id="Path_1241" data-name="Path 1241" d="M234.055,29.157a3.079,3.079,0,0,0-2.938-2.237c-2.822-.175-5.9,1.319-8.111,2.964a3.141,3.141,0,0,0-1.093,4.169c.76,1.3,2.84,2.081,4.169,1.093a13.843,13.843,0,0,1,2.759-1.625c.144-.061.248-.081.38-.13a3.318,3.318,0,0,0,2.906.707,3.119,3.119,0,0,0,2.129-3.749Z" transform="translate(135.698 -26.906)" fill="url(#linear-gradient-9)"/>
      <path id="Path_1242" data-name="Path 1242" d="M74.077,44.556c-3.818-.134-7.313,1.455-11.163,1.408-4.346-.053-8.615.286-12.569-1.814-2.952-1.569-6.327,2.345-3.694,4.787l.888.821a2.905,2.905,0,0,0,2.359.815A28.377,28.377,0,0,0,59.559,52a51.408,51.408,0,0,0,7.589-.112c2.371-.327,4.5-1.323,6.929-1.237C78,50.788,77.994,44.693,74.077,44.556Z" transform="translate(-45.702 -9.485)" fill="url(#linear-gradient-9)"/>
      <path id="Path_1243" data-name="Path 1243" d="M60.561,143.308c-4.824,3.281-11.2,5.545-13.591,11.3-.636,1.532.687,3.336,2.129,3.749a3.121,3.121,0,0,0,3.749-2.127c.738-1.778,3.353-3.121,4.88-4.076,1.953-1.223,4-2.29,5.909-3.586C66.864,146.378,63.816,141.095,60.561,143.308Z" transform="translate(-44.562 92.655)" fill="url(#linear-gradient-9)"/>
      <path id="Path_1244" data-name="Path 1244" d="M78.861,252.349c-4-.547-7.467-3.318-11.647-2.818a3.146,3.146,0,0,0-3.048,3.048c-.016,1.5,1.414,3.243,3.048,3.048,3.483-.417,6.624,2.138,10.025,2.6a3.158,3.158,0,0,0,3.749-2.129C81.4,254.679,80.491,252.57,78.861,252.349Z" transform="translate(-26.649 202.746)" fill="url(#linear-gradient-9)"/>
      <path id="Path_1245" data-name="Path 1245" d="M388.091,292.183c-4.452.6-6.77,3.993-9.686,7.034a27.55,27.55,0,0,0-6.459,9.456c-3.265,1.075-1.628,6.435,2.054,5.75l1.1-.205a3,3,0,0,0,2.129-2.127,17.85,17.85,0,0,1,4.913-7.987c1.39-1.432,3.865-5.547,5.947-5.825C391.921,297.764,391.972,291.663,388.091,292.183Z" transform="translate(289.12 246.786)" fill="url(#linear-gradient-9)"/>
      <path id="Path_1246" data-name="Path 1246" d="M391.495,343.271l-5.419-2.71a3.124,3.124,0,0,0-4.169,1.093A3.077,3.077,0,0,0,383,345.825l5.419,2.708a3.123,3.123,0,0,0,4.169-1.093A3.077,3.077,0,0,0,391.495,343.271Z" transform="translate(300.8 296.352)" fill="url(#linear-gradient-9)"/>
      <path id="Path_1247" data-name="Path 1247" d="M428.663,284.319c-2.511,4.236-5.856,7.821-9.005,11.576-2.505,2.987,1.784,7.319,4.31,4.31,3.478-4.147,7.187-8.131,9.958-12.809C435.931,284.014,430.663,280.944,428.663,284.319Z" transform="translate(339.381 237.195)" fill="url(#linear-gradient-9)"/>
      <path id="Path_1248" data-name="Path 1248" d="M458.489,154.391c-3.2,3.176-2.28,7.6-2.247,11.638.031,3.919,6.126,3.93,6.1,0-.016-1.959-1.085-5.795.461-7.327C465.586,155.935,461.277,151.626,458.489,154.391Z" transform="translate(377.76 103.72)" fill="url(#linear-gradient-9)"/>
      <path id="Path_1249" data-name="Path 1249" d="M76.686,335.5H64.5c-3.921,0-3.93,6.1,0,6.1H76.686C80.608,341.6,80.616,335.5,76.686,335.5Z" transform="translate(-29.348 291.515)" fill="url(#linear-gradient-9)"/>
      <path id="Path_1250" data-name="Path 1250" d="M115.583,332.5c.047,10.49,2.022,21.5-3.647,30.971-2.022,3.373,3.247,6.443,5.262,3.076,6.311-10.539,4.533-22.326,4.48-34.048C121.66,328.574,115.564,328.566,115.583,332.5Z" transform="translate(22.173 285.377)" fill="url(#linear-gradient-9)"/>
      <path id="Path_1251" data-name="Path 1251" d="M110.5,381.5c-3.921,0-3.93,6.1,0,6.1S114.423,381.5,110.5,381.5Z" transform="translate(18.117 338.98)" fill="url(#linear-gradient-9)"/>
    </g>
  </g>
</svg>
