<svg xmlns="http://www.w3.org/2000/svg" xmlns:xlink="http://www.w3.org/1999/xlink" width="317.028" height="234.926" viewBox="0 0 317.028 234.926">
  <defs>
    <linearGradient id="linear-gradient" x1="0.5" x2="0.5" y2="1" gradientUnits="objectBoundingBox">
      <stop offset="0" stop-color="#008da7"/>
      <stop offset="1" stop-color="#002856"/>
    </linearGradient>
    <linearGradient id="linear-gradient-3" x1="0.5" x2="0.5" y2="1" gradientUnits="objectBoundingBox">
      <stop offset="0" stop-color="#f0ae4b"/>
      <stop offset="1" stop-color="#df6445"/>
    </linearGradient>
  </defs>
  <g id="vc1" transform="translate(-48.361 1159.34)">
    <g id="Group_211" data-name="Group 211" transform="translate(81.538 -1035.359)">
      <g id="Group_84" data-name="Group 84" transform="translate(11.282 0.915)">
        <g id="Group_76" data-name="Group 76" transform="translate(12.125 3.65)">
          <g id="Group_70" data-name="Group 70">
            <path id="Path_221" data-name="Path 221" d="M173.753,285.935a.754.754,0,0,1,.276.14.707.707,0,0,1,.2.238.247.247,0,0,1-.122.321.24.24,0,0,1-.152.018.772.772,0,0,1-.273-.14.729.729,0,0,1-.2-.234.248.248,0,0,1,.115-.323A.237.237,0,0,1,173.753,285.935Z" transform="translate(-173.463 -285.931)" fill="#fff"/>
          </g>
          <g id="Group_71" data-name="Group 71" transform="translate(0.891 0.722)">
            <path id="Path_222" data-name="Path 222" d="M175.35,287.224a.78.78,0,0,1,.465.39.246.246,0,0,1-.13.318.237.237,0,0,1-.152.014.734.734,0,0,1-.27-.146.748.748,0,0,1-.191-.241.246.246,0,0,1,.124-.318A.239.239,0,0,1,175.35,287.224Z" transform="translate(-175.052 -287.219)" fill="#fff"/>
          </g>
          <g id="Group_72" data-name="Group 72" transform="translate(1.763 1.468)">
            <path id="Path_223" data-name="Path 223" d="M176.911,288.555a.732.732,0,0,1,.269.154.747.747,0,0,1,.186.247.246.246,0,0,1-.29.325.741.741,0,0,1-.266-.153.77.77,0,0,1-.185-.245.246.246,0,0,1,.132-.316A.243.243,0,0,1,176.911,288.555Z" transform="translate(-176.607 -288.548)" fill="#fff"/>
          </g>
          <g id="Group_73" data-name="Group 73" transform="translate(3.269 2.839)">
            <path id="Path_224" data-name="Path 224" d="M179.605,291a.766.766,0,0,1,.44.418.245.245,0,0,1-.149.308.236.236,0,0,1-.153.006.787.787,0,0,1-.436-.415.248.248,0,0,1,.145-.311A.236.236,0,0,1,179.605,291Z" transform="translate(-179.293 -290.994)" fill="#fff"/>
          </g>
          <g id="Group_74" data-name="Group 74" transform="translate(4.32 3.859)">
            <path id="Path_225" data-name="Path 225" d="M181.475,292.814a.31.31,0,0,1,.174.086.3.3,0,0,1,.086.173.287.287,0,0,1-.255.307.357.357,0,0,1-.055,0,.3.3,0,0,1-.257-.257.287.287,0,0,1,.251-.308A.312.312,0,0,1,181.475,292.814Z" transform="translate(-181.167 -292.814)" fill="#fff"/>
          </g>
          <g id="Group_75" data-name="Group 75" transform="translate(5.168 4.745)">
            <path id="Path_226" data-name="Path 226" d="M183,294.395a.309.309,0,0,1,.172.09.306.306,0,0,1,.081.176.287.287,0,0,1-.264.3.354.354,0,0,1-.054,0,.3.3,0,0,1-.169-.089.307.307,0,0,1-.08-.174.287.287,0,0,1,.258-.3A.269.269,0,0,1,183,294.395Z" transform="translate(-182.68 -294.393)" fill="#fff"/>
          </g>
        </g>
        <g id="Group_83" data-name="Group 83">
          <g id="Group_77" data-name="Group 77" transform="translate(2.283)">
            <path id="Path_227" data-name="Path 227" d="M156.009,280.084a4.76,4.76,0,0,1,2.535-.664,7.342,7.342,0,0,1,2.547.583,16.174,16.174,0,0,1,2.279,1.2,23.334,23.334,0,0,1,2.082,1.485.218.218,0,0,1-.262.349c-.685-.486-1.383-.951-2.1-1.381a15.593,15.593,0,0,0-2.212-1.134,6.8,6.8,0,0,0-2.345-.57,4.564,4.564,0,0,0-2.3.507.234.234,0,0,1-.293-.09A.2.2,0,0,1,156.009,280.084Z" transform="translate(-155.907 -279.42)" fill="#fff"/>
          </g>
          <g id="Group_78" data-name="Group 78" transform="translate(1.456 0.982)">
            <path id="Path_228" data-name="Path 228" d="M155.108,281.508c-.026.092-.094.133-.138.2a.473.473,0,0,1-.2.136.267.267,0,0,1-.32-.161.246.246,0,0,1-.006-.127.607.607,0,0,1,.139-.245.466.466,0,0,1,.247-.135.249.249,0,0,1,.29.208A.258.258,0,0,1,155.108,281.508Z" transform="translate(-154.433 -281.172)" fill="#fff"/>
          </g>
          <g id="Group_79" data-name="Group 79" transform="translate(0.878 1.723)">
            <path id="Path_229" data-name="Path 229" d="M154.043,282.767a.5.5,0,0,1-.084.234.725.725,0,0,1-.172.181.254.254,0,0,1-.383-.207.457.457,0,0,1,.079-.265.6.6,0,0,1,.2-.191.245.245,0,0,1,.331.126A.274.274,0,0,1,154.043,282.767Z" transform="translate(-153.403 -282.492)" fill="#fff"/>
          </g>
          <g id="Group_80" data-name="Group 80" transform="translate(0.141 2.532)">
            <path id="Path_230" data-name="Path 230" d="M153.015,284.211c-.035.165-.084.323-.133.481l-.122.484c-.081.324-.149.649-.238.979a.227.227,0,0,1-.271.15.21.21,0,0,1-.161-.2,4.58,4.58,0,0,1,.128-1.059l.161-.514a4.963,4.963,0,0,1,.236-.488.215.215,0,0,1,.305-.066A.226.226,0,0,1,153.015,284.211Z" transform="translate(-152.088 -283.936)" fill="#fff"/>
          </g>
          <g id="Group_81" data-name="Group 81" transform="translate(0 5.507)">
            <path id="Path_231" data-name="Path 231" d="M152.338,289.343a.218.218,0,0,1-.011.3.31.31,0,0,1-.43,0l-.006-.007a.23.23,0,0,1,.012-.313.308.308,0,0,1,.428.012Z" transform="translate(-151.836 -289.242)" fill="#fff"/>
          </g>
          <g id="Group_82" data-name="Group 82" transform="translate(0.013 6.543)">
            <path id="Path_232" data-name="Path 232" d="M152.352,291.175a.217.217,0,0,1,.011.3.309.309,0,0,1-.429.026l-.007-.006a.228.228,0,0,1-.011-.312.309.309,0,0,1,.428-.019Z" transform="translate(-151.86 -291.09)" fill="#fff"/>
          </g>
        </g>
      </g>
      <g id="Group_99" data-name="Group 99" transform="translate(238.875 12.039)">
        <g id="Group_91" data-name="Group 91" transform="translate(9.058 6.267)">
          <g id="Group_85" data-name="Group 85" transform="translate(2.365)">
            <path id="Path_233" data-name="Path 233" d="M578.718,310.626a.862.862,0,0,1-.01.333.8.8,0,0,1-.136.3.238.238,0,0,1-.344.034.247.247,0,0,1-.08-.136.889.889,0,0,1,.014-.326.847.847,0,0,1,.128-.3.242.242,0,0,1,.343-.045A.245.245,0,0,1,578.718,310.626Z" transform="translate(-578.139 -310.438)" fill="#fff"/>
          </g>
          <g id="Group_86" data-name="Group 86" transform="translate(2.057 1.193)">
            <path id="Path_234" data-name="Path 234" d="M578.189,312.766a.866.866,0,0,1-.025.331.823.823,0,0,1-.148.3.238.238,0,0,1-.345.02.248.248,0,0,1-.075-.14.87.87,0,0,1,.028-.325.839.839,0,0,1,.142-.294.24.24,0,0,1,.344-.029A.249.249,0,0,1,578.189,312.766Z" transform="translate(-577.59 -312.566)" fill="#fff"/>
          </g>
          <g id="Group_87" data-name="Group 87" transform="translate(1.705 2.373)">
            <path id="Path_235" data-name="Path 235" d="M577.574,314.879a.867.867,0,0,1-.036.33.838.838,0,0,1-.158.291.237.237,0,0,1-.345.009.249.249,0,0,1-.07-.142.839.839,0,0,1,.039-.325.83.83,0,0,1,.152-.289.24.24,0,0,1,.345-.016A.249.249,0,0,1,577.574,314.879Z" transform="translate(-576.961 -314.671)" fill="#fff"/>
          </g>
          <g id="Group_88" data-name="Group 88" transform="translate(0.992 4.44)">
            <path id="Path_236" data-name="Path 236" d="M576.324,318.578a.86.86,0,0,1-.053.326.82.82,0,0,1-.171.283.238.238,0,0,1-.345-.007.248.248,0,0,1-.063-.146.865.865,0,0,1,.054-.323.855.855,0,0,1,.168-.281.241.241,0,0,1,.346,0A.247.247,0,0,1,576.324,318.578Z" transform="translate(-575.69 -318.358)" fill="#fff"/>
          </g>
          <g id="Group_89" data-name="Group 89" transform="translate(0.516 5.918)">
            <path id="Path_237" data-name="Path 237" d="M575.4,321.194a.341.341,0,0,1-.015.2.336.336,0,0,1-.13.159.274.274,0,0,1-.383-.111.286.286,0,0,1-.021-.053.34.34,0,0,1,.144-.361.274.274,0,0,1,.384.107A.283.283,0,0,1,575.4,321.194Z" transform="translate(-574.84 -320.994)" fill="#fff"/>
          </g>
          <g id="Group_90" data-name="Group 90" transform="translate(0 7.126)">
            <path id="Path_238" data-name="Path 238" d="M574.484,323.354a.343.343,0,0,1-.156.361.279.279,0,0,1-.4-.177.334.334,0,0,1,.021-.2.341.341,0,0,1,.133-.154.275.275,0,0,1,.381.117A.331.331,0,0,1,574.484,323.354Z" transform="translate(-573.92 -323.148)" fill="#fff"/>
          </g>
        </g>
        <g id="Group_98" data-name="Group 98">
          <g id="Group_92" data-name="Group 92" transform="translate(5.663)">
            <path id="Path_239" data-name="Path 239" d="M567.977,300.591a10.01,10.01,0,0,1,2.518-1.143,3.629,3.629,0,0,1,2.826.209,2.332,2.332,0,0,1,.938,1.157,4.962,4.962,0,0,1,.29,1.4,11.168,11.168,0,0,1-.247,2.752.218.218,0,1,1-.429-.075,12.293,12.293,0,0,0,.147-2.639,2.582,2.582,0,0,0-.99-2.117,3.105,3.105,0,0,0-2.4-.173,10.758,10.758,0,0,0-2.435,1.008.222.222,0,0,1-.3-.081A.225.225,0,0,1,567.977,300.591Z" transform="translate(-567.866 -299.261)" fill="#fff"/>
          </g>
          <g id="Group_93" data-name="Group 93" transform="translate(4.707 1.616)">
            <path id="Path_240" data-name="Path 240" d="M566.885,302.513a.614.614,0,0,1-.2.2.645.645,0,0,1-.26.1.247.247,0,0,1-.269-.236.262.262,0,0,1,.029-.128.6.6,0,0,1,.2-.2.636.636,0,0,1,.267-.1.245.245,0,0,1,.262.243A.266.266,0,0,1,566.885,302.513Z" transform="translate(-566.161 -302.142)" fill="#fff"/>
          </g>
          <g id="Group_94" data-name="Group 94" transform="translate(3.853 2.191)">
            <path id="Path_241" data-name="Path 241" d="M565.358,303.529a.611.611,0,0,1-.186.205.647.647,0,0,1-.256.108.248.248,0,0,1-.279-.224.263.263,0,0,1,.024-.128.591.591,0,0,1,.187-.211.632.632,0,0,1,.261-.108.245.245,0,0,1,.274.229A.27.27,0,0,1,565.358,303.529Z" transform="translate(-564.637 -303.169)" fill="#fff"/>
          </g>
          <g id="Group_95" data-name="Group 95" transform="translate(1.69 2.775)">
            <path id="Path_242" data-name="Path 242" d="M562.831,304.589c-.261.261-.547.488-.826.726s-.57.458-.882.658a.222.222,0,0,1-.31-.061.226.226,0,0,1,.025-.269,7.467,7.467,0,0,1,.815-.762,7.18,7.18,0,0,1,.916-.639.219.219,0,0,1,.305.082A.227.227,0,0,1,562.831,304.589Z" transform="translate(-560.779 -304.211)" fill="#fff"/>
          </g>
          <g id="Group_96" data-name="Group 96" transform="translate(0.798 4.834)">
            <path id="Path_243" data-name="Path 243" d="M559.726,308.2a.25.25,0,0,1-.242.221.3.3,0,0,1-.3-.311v-.009a.256.256,0,0,1,.08-.158.262.262,0,0,1,.164-.066.294.294,0,0,1,.294.312Z" transform="translate(-559.187 -307.882)" fill="#fff"/>
          </g>
          <g id="Group_97" data-name="Group 97" transform="translate(0 5.604)">
            <path id="Path_244" data-name="Path 244" d="M558.306,309.57a.256.256,0,0,1-.074.158.249.249,0,0,1-.159.071.3.3,0,0,1-.308-.3v-.009a.254.254,0,0,1,.238-.234.3.3,0,0,1,.3.3Z" transform="translate(-557.765 -309.257)" fill="#fff"/>
          </g>
        </g>
      </g>
    </g>
    <g id="Group_212" data-name="Group 212" transform="translate(78.696 -1159.34)">
      <path id="Path_245" data-name="Path 245" d="M262.509,164.9c-33.578-.528-123.377,27.269-134.332,0-9.029-22.472,24.729-20.749,26.691-39.355s-6.826-26.531,7.185-35.145,36.845,3.346,51.923-8.614,22.949-20.674,56.893-24.809,59.065,34.112,73.589,37.9,35.327-5.857,45.533,5.857-22.767,37.641-15.7,48.453,24.366,16.669,17.679,31.83S295.192,165.41,262.509,164.9Z" transform="translate(-126.646 -56.66)" fill="#f5f5f5"/>
      <g id="Group_115" data-name="Group 115" transform="translate(1.242 89.926)">
        <g id="Group_107" data-name="Group 107" transform="translate(0.611)">
          <g id="Group_101" data-name="Group 101" transform="translate(0 7)">
            <path id="Path_246" data-name="Path 246" d="M129.951,230.439a1.14,1.14,0,0,1,.086-.426,1.444,1.444,0,0,1,.215-.377.215.215,0,0,1,.357-.012.324.324,0,0,1,.046.179,1.346,1.346,0,0,1-.095.406,1.886,1.886,0,0,1-.2.368c-.106.133-.266.154-.355.04A.3.3,0,0,1,129.951,230.439Z" transform="translate(-129.951 -229.535)" fill="#fff"/>
          </g>
          <g id="Group_102" data-name="Group 102" transform="translate(0.616 5.567)">
            <path id="Path_247" data-name="Path 247" d="M131.051,227.812a1.3,1.3,0,0,1,.143-.409,1.218,1.218,0,0,1,.259-.347c.136-.113.3-.1.358.035a.3.3,0,0,1,.02.182,1.621,1.621,0,0,1-.143.392,1.558,1.558,0,0,1-.246.339.217.217,0,0,1-.355-.006A.309.309,0,0,1,131.051,227.812Z" transform="translate(-131.049 -226.98)" fill="#fff"/>
          </g>
          <g id="Group_103" data-name="Group 103" transform="translate(1.41 4.226)">
            <path id="Path_248" data-name="Path 248" d="M132.475,225.348a1.444,1.444,0,0,1,.185-.391,1.33,1.33,0,0,1,.3-.312c.146-.1.3-.064.35.072a.306.306,0,0,1,0,.185,1.44,1.44,0,0,1-.191.372,1.355,1.355,0,0,1-.279.311c-.138.1-.3.081-.357-.05A.3.3,0,0,1,132.475,225.348Z" transform="translate(-132.465 -224.588)" fill="#fff"/>
          </g>
          <g id="Group_104" data-name="Group 104" transform="translate(3.17 2.092)">
            <path id="Path_249" data-name="Path 249" d="M135.633,221.417a1.345,1.345,0,0,1,.253-.349,1.23,1.23,0,0,1,.347-.256c.161-.072.308-.011.333.132a.3.3,0,0,1-.031.182,1.622,1.622,0,0,1-.252.335,1.477,1.477,0,0,1-.333.255c-.152.078-.305.03-.339-.112A.306.306,0,0,1,135.633,221.417Z" transform="translate(-135.605 -220.782)" fill="#fff"/>
          </g>
          <g id="Group_105" data-name="Group 105" transform="translate(4.665 0.994)">
            <path id="Path_250" data-name="Path 250" d="M138.29,219.153a.518.518,0,0,1,.159-.212.549.549,0,0,1,.239-.114.234.234,0,0,1,.288.278.439.439,0,0,1-.016.063.527.527,0,0,1-.156.206.573.573,0,0,1-.232.113.236.236,0,0,1-.3-.267A.4.4,0,0,1,138.29,219.153Z" transform="translate(-138.271 -218.823)" fill="#fff"/>
          </g>
          <g id="Group_106" data-name="Group 106" transform="translate(6.035)">
            <path id="Path_251" data-name="Path 251" d="M140.746,217.335a.53.53,0,0,1,.181-.2.538.538,0,0,1,.252-.089.234.234,0,0,1,.253.31.349.349,0,0,1-.024.061.543.543,0,0,1-.175.186.563.563,0,0,1-.242.087.235.235,0,0,1-.268-.3A.376.376,0,0,1,140.746,217.335Z" transform="translate(-140.715 -217.051)" fill="#fff"/>
          </g>
        </g>
        <g id="Group_114" data-name="Group 114" transform="translate(0 8.637)">
          <g id="Group_108" data-name="Group 108">
            <path id="Path_252" data-name="Path 252" d="M133.125,245.935c-.409-.434-.75-.926-1.126-1.389-.322-.5-.653-1-.954-1.513-.265-.534-.548-1.06-.8-1.6l-.658-1.662a13.8,13.8,0,0,1-.707-3.517,10.965,10.965,0,0,1,.361-3.566c.045-.16.174-.26.289-.224a.267.267,0,0,1,.134.329,11.328,11.328,0,0,0-.255,3.427,13.207,13.207,0,0,0,.707,3.37l.627,1.624c.238.528.509,1.041.762,1.563.285.5.6.992.9,1.488.353.458.668.949,1.049,1.385a.255.255,0,0,1,.026.358A.272.272,0,0,1,133.125,245.935Z" transform="translate(-128.861 -232.456)" fill="#fff"/>
          </g>
          <g id="Group_109" data-name="Group 109" transform="translate(4.768 13.796)">
            <path id="Path_253" data-name="Path 253" d="M137.7,257.09a1.154,1.154,0,0,1,.284.211.977.977,0,0,1,.216.28c.07.159.007.311-.146.335a.323.323,0,0,1-.153-.017,1.057,1.057,0,0,1-.31-.2.911.911,0,0,1-.2-.306c-.062-.171.014-.316.165-.33A.3.3,0,0,1,137.7,257.09Z" transform="translate(-137.366 -257.062)" fill="#fff"/>
          </g>
          <g id="Group_110" data-name="Group 110" transform="translate(5.75 14.721)">
            <path id="Path_254" data-name="Path 254" d="M139.435,258.729a1.321,1.321,0,0,1,.3.182.961.961,0,0,1,.239.26.22.22,0,0,1-.115.347.318.318,0,0,1-.154,0,1.04,1.04,0,0,1-.326-.172.824.824,0,0,1-.233-.284c-.077-.165-.015-.317.135-.343A.3.3,0,0,1,139.435,258.729Z" transform="translate(-139.117 -258.711)" fill="#fff"/>
          </g>
          <g id="Group_111" data-name="Group 111" transform="translate(6.747 15.512)">
            <path id="Path_255" data-name="Path 255" d="M141.258,260.173l1.225.711,1.235.692a.249.249,0,0,1,.13.333.265.265,0,0,1-.306.066,7.588,7.588,0,0,1-1.337-.606,8.677,8.677,0,0,1-1.2-.842c-.122-.115-.146-.274-.056-.356A.263.263,0,0,1,141.258,260.173Z" transform="translate(-140.894 -260.123)" fill="#fff"/>
          </g>
          <g id="Group_112" data-name="Group 112" transform="translate(10.487 17.394)">
            <path id="Path_256" data-name="Path 256" d="M147.765,263.493a.4.4,0,0,1,.22,0,.39.39,0,0,1,.182.122.252.252,0,0,1-.115.414l-.01,0a.419.419,0,0,1-.417-.131.251.251,0,0,1,.128-.409Z" transform="translate(-147.564 -263.478)" fill="#fff"/>
          </g>
          <g id="Group_113" data-name="Group 113" transform="translate(11.885 17.743)">
            <path id="Path_257" data-name="Path 257" d="M150.229,264.126a.4.4,0,0,1,.216-.02.378.378,0,0,1,.194.093.252.252,0,0,1-.052.427l-.01,0a.424.424,0,0,1-.23.026.41.41,0,0,1-.205-.1.251.251,0,0,1,.075-.422Z" transform="translate(-150.058 -264.101)" fill="#fff"/>
          </g>
        </g>
      </g>
      <path id="Path_258" data-name="Path 258" d="M338.052,87.681q-23.594,3.836-36.7,21.478c-8.156,10.739-6.408,24.546.583,35.285,6.408,10.228,18.642,13.807,30.293,16.364,32.624,7.671,62.334,17.386,93.21,27.1,13.4,4.091,29.128,10.227,40.779,1.023l.018-.014a3.646,3.646,0,0,0,1.359-3.611c-1.855-9.051-13.461-14.453-18.932-22.826-7.066-10.812,25.906-36.738,15.7-48.453s-31.01-2.067-45.533-5.857a20.42,20.42,0,0,1-5.611-2.677C387.233,99.73,366.706,83.243,338.052,87.681Z" transform="translate(-201.016 -69.959)" fill="#e6e6e6"/>
      <path id="Path_259" data-name="Path 259" d="M381.617,184.657c-13.725,0-37.295-5.267-60.088-10.361-22.433-5.013-43.622-9.748-56.7-9.953-.332-.006-.677-.008-1.019-.008-10.753,0-26.587,2.576-43.351,5.3-19.332,3.144-41.242,6.708-58.246,6.708-16.745,0-26.237-3.368-29.021-10.3-4.3-10.7,2.044-14.524,10.824-19.812,7.044-4.242,15.028-9.05,16.021-18.457a70.1,70.1,0,0,0-.428-16.363c-.938-8.078-1.409-12.132,6.383-16.923,3.357-2.064,7.532-2.945,13.96-2.945,2.45,0,4.949.121,7.594.248,2.677.13,5.446.263,8.2.263,6.71,0,15.325-.725,22.453-6.378,1.387-1.1,2.713-2.173,4-3.217,12.424-10.049,21.4-17.31,51.336-20.956a39.4,39.4,0,0,1,4.739-.288c19.014,0,35.173,13.768,48.158,24.83,7.751,6.6,13.873,11.82,19.461,13.278a37.405,37.405,0,0,0,9.461,1.05c3.409,0,6.93-.292,10.335-.575,3.39-.281,6.592-.547,9.67-.547,7.15,0,11.512,1.5,14.584,5.031,4.221,4.845-2.245,14.682-7.95,23.361-6.235,9.485-12.125,18.444-7.964,24.811,2.4,3.68,5.8,6.733,9.077,9.684,6.883,6.2,12.321,11.088,8.412,19.95C390.794,183.747,387.276,184.657,381.617,184.657Z" transform="translate(-128.916 -58.664)" fill="none" stroke="#fff" stroke-miterlimit="10" stroke-width="0.973"/>
    </g>
    <g id="Group_213" data-name="Group 213" transform="translate(126.073 -1112.32)">
      <rect id="Rectangle_8" data-name="Rectangle 8" width="179.683" height="99.219" rx="3.855" transform="translate(6.285 7.49)" fill="#3a3d7d"/>
      <rect id="Rectangle_9" data-name="Rectangle 9" width="179.683" height="99.219" rx="3.855" transform="translate(3.142 3.745)" fill="#4eadb3"/>
      <g id="Group_121" data-name="Group 121" transform="translate(0 0)">
        <rect id="Rectangle_10" data-name="Rectangle 10" width="179.683" height="99.219" rx="2.124" fill="#fff" stroke="#4eadb3" stroke-miterlimit="10" stroke-width="0.974"/>
        <path id="Path_260" data-name="Path 260" d="M226.89,154.895h11.492v-.676H226.89Zm-2.7.338h1.352v-1.352h-1.352Zm2.7,3.38h11.492v-.676H226.89Zm-2.7.338h1.352V157.6h-1.352Zm2.7,3.38h11.492v-.676H226.89Zm-2.7.338h1.352v-1.352h-1.352Z" transform="translate(-216.874 -146.391)" fill="#764582" fill-rule="evenodd"/>
        <rect id="Rectangle_12" data-name="Rectangle 12" width="51.032" height="49.471" rx="15.112" transform="translate(64.634 22.26)" fill="#e6e6e6"/>
        <g id="Group_120" data-name="Group 120" transform="translate(157.79 5.842)">
          <g id="Group_119" data-name="Group 119">
            <g id="Group_117" data-name="Group 117">
              <path id="Path_261" data-name="Path 261" d="M495.286,157.649l-.858-5.714a.319.319,0,0,0-.315-.273l-1.537-.01,0-.709,1.537.01a1.025,1.025,0,0,1,1.012.877l.1.635,9.693.061-1,4.507Zm.046-4.474.558,3.721,7.454-.532.692-3.134Z" transform="translate(-492.576 -150.943)" fill="#764582"/>
            </g>
            <g id="Group_118" data-name="Group 118" transform="translate(2.489 6.273)">
              <path id="Path_262" data-name="Path 262" d="M506,163.909l-8.376-.049a.614.614,0,0,1-.6-.713l.164-1.017.7.113-.147.908,8.267.048Z" transform="translate(-497.016 -162.131)" fill="#764582"/>
            </g>
            <path id="Path_263" data-name="Path 263" d="M500.42,167.049a.956.956,0,1,1-.95-.962A.956.956,0,0,1,500.42,167.049Z" transform="translate(-495.182 -157.596)" fill="none" stroke="#764582" stroke-miterlimit="10" stroke-width="1.265"/>
            <path id="Path_264" data-name="Path 264" d="M509.37,167.106a.956.956,0,1,1-.95-.963A.956.956,0,0,1,509.37,167.106Z" transform="translate(-499.114 -157.621)" fill="none" stroke="#764582" stroke-miterlimit="10" stroke-width="1.265"/>
          </g>
        </g>
      </g>
      <g id="Group_124" data-name="Group 124" transform="translate(72.573 37.011)">
        <path id="Path_265" data-name="Path 265" d="M377.991,235.213c0,.7-8.374,1.267-18.7,1.267s-18.7-.567-18.7-1.267,8.374-1.268,18.7-1.268S377.991,234.512,377.991,235.213Z" transform="translate(-340.584 -218.577)" fill="#a1abad" opacity="0.7" style="mix-blend-mode: multiply;isolation: isolate"/>
        <g id="Group_123" data-name="Group 123" transform="translate(0.432)">
          <g id="Group_122" data-name="Group 122">
            <path id="Path_266" data-name="Path 266" d="M347.388,212.358s.374-.946,3.649.3c1.776.674,4.091,2.3,8.6.338,0,0,1.373,4.555-4.368,4.157A9.554,9.554,0,0,1,347.388,212.358Z" transform="translate(-344.005 -208.942)" fill="#dd4026"/>
            <path id="Path_267" data-name="Path 267" d="M376.668,225.313l1.329.35c.755.4.715,2.411.093,3.032,0,0-5.37,3.139-21.094,3.4-9.044-.174-15.089-1.72-15.369-2.335a8.1,8.1,0,0,1-.249-2.96l1.7-1.986Z" transform="translate(-341.354 -214.568)" fill="#e2e2e2"/>
            <path id="Path_268" data-name="Path 268" d="M345.448,209.951s-1.772,1.7-1.982,3.1a16.55,16.55,0,0,0-.425,5.043,42.142,42.142,0,0,0,13.6,2.087,87.631,87.631,0,0,0,14.612-.99c3.746-.668,7.459-1.563,7.459-1.563-1.082-3.787-4.354-2.381-9.018-3.857-3.172-1-10.726-7.238-10.726-7.238s-1.75,1.3-1.845,1.967c-.06.422.773,1.518.773,1.518a4.063,4.063,0,0,1-3.783,3.818C350.631,214.068,345.448,209.951,345.448,209.951Z" transform="translate(-342.065 -206.535)" fill="#fd6141"/>
            <path id="Path_269" data-name="Path 269" d="M378.016,226.325a20.476,20.476,0,0,1-6.937,2.709,80.675,80.675,0,0,1-15.364.925c-4.734-.181-14.317-2.491-14.317-2.491" transform="translate(-341.373 -215.229)" fill="none"/>
            <path id="Path_270" data-name="Path 270" d="M369.583,212.75a11.872,11.872,0,0,1,2.451.23c1.509.528,5.878,4.013,9.15,4.427" transform="translate(-353.756 -209.265)" fill="none" stroke="#efe9da" stroke-linecap="round" stroke-miterlimit="10" stroke-width="1.157"/>
            <path id="Path_271" data-name="Path 271" d="M377.375,211.839l-1.459,2.357c-.2.278-1.074-.35-.874-.629l1.352-2.487C376.685,210.7,377.666,211.462,377.375,211.839Z" transform="translate(-356.141 -208.487)" fill="#e2e2e2"/>
            <path id="Path_272" data-name="Path 272" d="M381.023,214.073l-1.533,2.5c-.187.419-1.168-.016-.981-.436l1.533-2.822C380.334,212.937,381.315,213.7,381.023,214.073Z" transform="translate(-357.667 -209.469)" fill="#e2e2e2"/>
            <path id="Path_273" data-name="Path 273" d="M384.814,216.309l-1.553,2.512c-.165.354-1.128-.094-.962-.449l1.533-2.822C384.124,215.173,385.105,215.932,384.814,216.309Z" transform="translate(-359.334 -210.451)" fill="#e2e2e2"/>
            <path id="Path_274" data-name="Path 274" d="M371.318,214.449a.558.558,0,0,1,1.113.046l-.442,4.187c0,.6-.635.6-.635,0Z" transform="translate(-354.518 -209.794)" fill="#e2e2e2"/>
            <path id="Path_275" data-name="Path 275" d="M364.415,226.6a4.609,4.609,0,0,1,2.3-2.712c2.008-.946,6.779.842,9.419-.623a27.845,27.845,0,0,0,2.778-2.207" transform="translate(-351.486 -212.915)" fill="none" stroke="#efe9da" stroke-linecap="round" stroke-miterlimit="10" stroke-width="1.157"/>
            <path id="Path_276" data-name="Path 276" d="M344.681,216.19a13.136,13.136,0,0,1,4.146,2.94c.593.753,1.42,4.8,1.42,4.8" transform="translate(-342.816 -210.777)" fill="none" stroke="#efe9da" stroke-linecap="round" stroke-miterlimit="10" stroke-width="1.157"/>
          </g>
        </g>
      </g>
      <g id="Group_131" data-name="Group 131" transform="translate(68.056 27.722)">
        <path id="Path_301" data-name="Path 301" d="M334.629,196.138v.058c0,.29-.072.415-.239.415h-1.623c-.167,0-.238-.124-.238-.415v-.058c0-.29.071-.415.238-.415h1.623C334.557,195.723,334.629,195.847,334.629,196.138Z" transform="translate(-332.529 -192.495)" fill="#764582"/>
        <path id="Path_302" data-name="Path 302" d="M341.12,191.36c0,1.153-.637,1.394-1.194,1.394s-1.194-.241-1.194-1.394.637-1.394,1.194-1.394S341.12,190.207,341.12,191.36Zm-1.575,0c0,.324.072.714.382.714s.374-.39.374-.714-.064-.681-.374-.681S339.545,191.036,339.545,191.36Zm3.795-1.228a.342.342,0,0,1-.039.116l-2.84,5.377a.373.373,0,0,1-.35.232h-.35c-.111,0-.167-.05-.167-.108a.317.317,0,0,1,.04-.124l2.84-5.377a.373.373,0,0,1,.35-.232h.35C343.285,190.016,343.339,190.066,343.339,190.132Zm.859,4.381c0,1.153-.636,1.394-1.193,1.394s-1.194-.241-1.194-1.394.636-1.394,1.194-1.394S344.2,193.36,344.2,194.513Zm-1.575,0c0,.324.071.713.382.713s.374-.39.374-.713-.064-.681-.374-.681S342.624,194.189,342.624,194.513Z" transform="translate(-335.255 -189.966)" fill="#764582"/>
      </g>
      <g id="Group_133" data-name="Group 133" transform="translate(73.942 58.263)">
        <g id="Group_132" data-name="Group 132" transform="translate(26.987)">
          <path id="Path_303" data-name="Path 303" d="M394.415,244.658v.547c.78.013,2.162.328,2.162.78,0,.205-.3.725-.438.725a4.609,4.609,0,0,0-1.724-.52v3.187c1.218.438,2.613.93,2.613,2.818a2.585,2.585,0,0,1-2.613,2.682v.684c0,.15-.082.219-.274.219s-.274-.068-.274-.219v-.671c-1.546-.041-2.709-.629-2.709-1,0-.219.329-.738.479-.738a4.931,4.931,0,0,0,2.23.752v-3.53c-1.2-.465-2.531-.944-2.531-2.709a2.5,2.5,0,0,1,2.531-2.435v-.575c0-.151.082-.219.274-.219S394.415,244.507,394.415,244.658Zm-1.833,3.064c0,.78.561,1.149,1.286,1.45v-2.941A1.414,1.414,0,0,0,392.582,247.722Zm1.833,6.143a1.625,1.625,0,0,0,1.368-1.669c0-.862-.616-1.272-1.368-1.6Z" transform="translate(-391.159 -244.439)" fill="#fd6141"/>
        </g>
        <rect id="Rectangle_14" data-name="Rectangle 14" width="26.288" height="4.738" rx="2.369" transform="translate(0 6.156)" fill="#fd6141"/>
      </g>
      <g id="Group_670" data-name="Group 670" transform="translate(-1321.229 -1180.858)">
        <path id="Path_885" data-name="Path 885" d="M1402.023,1482.429s6.531,6.068,7.647,11.152c.827,3.768,2.638,11.66,2.638,13.164s10.973,31.365,14.445,34.851c8.513,8.547-.079,4.936-3.731,3.432s-11.529-16.226-15.826-22.135-8.23-10.528-9.3-18.441c-1.219-9-4.124-12.16-10.57-14.739s-18.823-4.886-22.822-13.479C1361.917,1470.682,1400.462,1480.851,1402.023,1482.429Z" transform="translate(-77.178 -216.85)" fill="url(#linear-gradient)"/>
        <path id="Path_886" data-name="Path 886" d="M1526.023,1665.366s5.641,5.393,7.9,7.526,13.163,5.545,12.98,7.007-8.409,2.864-13.528,1.523-11.274-5.18-14.077-5.91-1.646-4.957-.437-7.634C1520.255,1664.785,1526.023,1665.366,1526.023,1665.366Z" transform="translate(-174.996 -338.647)" fill="#eea886"/>
        <path id="Path_887" data-name="Path 887" d="M1519.861,1667.76s1.173-2.686.262-3.981c-.784-1.113,1.539.417,1.539.417S1521.866,1667.9,1519.861,1667.76Z" transform="translate(-176.467 -337.402)" fill="#eea886"/>
        <path id="Path_888" data-name="Path 888" d="M1301.377,1461.863a50.906,50.906,0,0,1,1.753,8.631,81.808,81.808,0,0,0,3.372,16.319c1.484,3.912.4,12.678,0,18.073s-2.832,36.954-.944,42.484,9.71,10.385,11.194,11.6,8.5,3.237,8.631,6.339-8.092,4.045-12,.809-9.036-2.967-11.059-7.013-.135-5.53-3.911-14.3-6.743-25.355-4.99-37.9-13.352-34.257-14.3-43.023S1301.377,1461.863,1301.377,1461.863Z" transform="translate(-22.72 -207.141)" fill="url(#linear-gradient)"/>
        <path id="Path_889" data-name="Path 889" d="M1356.134,1157.491s2.778-5.266,2-10.721-5.571-13.608-15.284-11.39a22.227,22.227,0,0,0-2.819,1.258s-7.853-.959-11.509,4.556-4.8,13.607-2.4,21.161,3.117,9.231,3.117,9.231l9.711-.093,11.749-12.735Z" transform="translate(-51.944)" fill="#002856"/>
        <path id="Path_890" data-name="Path 890" d="M1371.664,1141.044a16.66,16.66,0,0,1,7.912,17.894c-2.427,12.409-8.722,10.61-9.891,10.251s-7.643-2.518-8.632-11.689S1362.222,1137.987,1371.664,1141.044Z" transform="translate(-74.916 -3.506)" fill="#eea886"/>
        <path id="Path_891" data-name="Path 891" d="M1293.225,1199.6s-8.4,1.955-10.741,2.4-15.565,5.422-17.274,5.961-1.348.27-1.708-1.079-2.877-9.8-3.057-13.308a58.829,58.829,0,0,0-1.079-7.733s-4.2-.936-4.361.787c-.18,1.933.2,18.54.619,21.932.544,4.4,1.791,10.491,4.129,10.85s18.5-5.425,19.935-5.515,28.593,11.15,28.593,11.15,3.867,15.825,4.766,16.634,5.1,9.29,11.805,14.318c5.177,3.883,7.9,4.66,7.9,4.66s5.073-3.691,2.106-4.321-9.056-10.622-11.3-14.06a66.4,66.4,0,0,1-4.666-10.4c-.63-2.158-2.428-14.477-3.957-17.085s-11.089-10.97-12.154-11.869S1293.225,1199.6,1293.225,1199.6Z" transform="translate(-7.306 -32.303)" fill="#eea886"/>
        <path id="Path_892" data-name="Path 892" d="M1269.661,1315.958s1.618,2.518,14.208,4.046,49.184,8.273,55.389,8.183,8.722-2.068,8.722-2.068c-4.226-1.529-14.3-16.005-24.188-21.85s-16.725-19.243-17.354-22.3,6.115-11.869,8.453-14.836,2.728-10.9,2.908-11.624.929-.849,3.252-3.137c2.007-1.978.763-7.269.763-7.269l5.306-1.888a32.711,32.711,0,0,0-4.137-7.823c-2.428-3.057-11.525-8.182-11.525-8.182l-11.4-3.6s-7.1,1.439-11.689,2.428a59.1,59.1,0,0,0-10.071,3.506c1.888,2.428,3.686,11.42,3.686,11.42a31.963,31.963,0,0,1,4.046-.809c.45.089,1.08,4.765,1.439,7.283a52.336,52.336,0,0,1-.395,8.918c-.064.591-.136,1.187-.215,1.78v0c-.505,3.828-1.291,7.507-2.357,8.9-2.339,3.057-2.428,4.047-10.791,17.713S1269.661,1315.958,1269.661,1315.958Z" transform="translate(-15.984 -56.582)" fill="url(#linear-gradient-3)"/>
        <path id="Path_893" data-name="Path 893" d="M1355.719,1206.757s6.354,10.251,9.352,11.989,4.319-7.06,4.319-7.06l-2.267-1.752s0-.6.034-1.379a13.689,13.689,0,0,1,.371-2.849c.42-1.406-8.22-9.737-8.966-8.329,0,0-.416,8.26-.995,9.021Z" transform="translate(-71.65 -39.727)" fill="#eea886"/>
        <path id="Path_894" data-name="Path 894" d="M1373.464,1148.415s-2.278,7.193-12.048,8.632-3.786-13.727-3.786-13.727,3.126-5.455,7.922-4.616c7.019,1.229,10.809,8.572,11.189,11.989a43.228,43.228,0,0,0,.62,4.4S1375.621,1149.674,1373.464,1148.415Z" transform="translate(-71.711 -2.305)" fill="#002856"/>
        <g id="Group_668" data-name="Group 668" transform="translate(1245.556 1145.175)">
          <path id="Path_895" data-name="Path 895" d="M1255.974,1173.707s-.192-2.635,1.338-3.393a27.17,27.17,0,0,1,3.85-1.648c.514-.08,2.678-.819,1.833-1.347s-5.38-.323-6.078.177-.455-3.237-.966-3.95-6.929-.707-6.788,1.873,1.746,5.068,1.82,5.526c.126.772.3,3.156.3,3.156Z" transform="translate(-1249.161 -1163.141)" fill="#eea886"/>
        </g>
        <g id="Group_669" data-name="Group 669" transform="translate(1243.517 1136.07)">
          <path id="Path_896" data-name="Path 896" d="M1252.527,1148.053s-.972-7.87-1.492-8.339-.957-.39-.9.35.712,7.631.712,7.631-2.77-9.116-3.108-9.59c-.2-.278-1.055-.174-1.061.225s2.2,9.59,2.2,9.59-2.6-8.507-3.008-8.822a.633.633,0,0,0-.97.655c.148.644,2.1,8.675,2.1,8.675s-2.311-5.977-2.8-6.143c-.429-.145-1.055.014-.411,1.563s1.764,5.36,1.764,5.36Z" transform="translate(-1243.517 -1137.949)" fill="#eea886"/>
        </g>
        <path id="Path_897" data-name="Path 897" d="M1359.04,1139.522s-4.858,1.577-4.376,7.913C1354.664,1147.435,1355.5,1141.98,1359.04,1139.522Z" transform="translate(-70.955 -2.884)" fill="#214361"/>
        <path id="Path_898" data-name="Path 898" d="M1318.346,1275.178a52.337,52.337,0,0,1-.395,8.919c1.482-5.767,10.289-4.918,13.973-4.294.992.226,1.618.321,1.618.321l-.119-.028c-6.743-1.559-10.672-4.019-10.491-10.582.119-4.349-6.025-1.618-6.025-1.618C1317.357,1267.984,1317.987,1272.659,1318.346,1275.178Z" transform="translate(-46.865 -84.319)" fill="url(#linear-gradient-3)"/>
        <path id="Path_899" data-name="Path 899" d="M1373.644,1212.359a13.7,13.7,0,0,1,.37-2.849,11.833,11.833,0,0,1-8.136-6.335S1365.572,1208.221,1373.644,1212.359Z" transform="translate(-78.137 -43.531)" fill="#a77860"/>
      </g>
      <path id="Path_900" data-name="Path 900" d="M1347.69,1301.984s-2.687,5.62,6.782,12.11,16.863,24.374,20.883,21.819,10.36-14.691,19.756-17.8,15.244-7.287,1.7-17.363c-6.322-4.7-17.316-21.742-23.771-17.971S1357.067,1289.879,1347.69,1301.984Z" transform="translate(-1367.578 -1259.988)" fill="#e6e6e6"/>
      <g id="Group_671" data-name="Group 671" transform="translate(-11.709 40.767) rotate(-11)">
        <path id="Path_289" data-name="Path 289" d="M478.015,235.213c0,.7-8.374,1.267-18.7,1.267s-18.7-.567-18.7-1.267,8.374-1.268,18.7-1.268S478.015,234.512,478.015,235.213Z" transform="translate(-440.608 -218.577)" fill="#a1abad" opacity="0.7" style="mix-blend-mode: multiply;isolation: isolate"/>
        <g id="Group_129" data-name="Group 129" transform="translate(0.432)">
          <g id="Group_128" data-name="Group 128">
            <path id="Path_290" data-name="Path 290" d="M447.412,212.358s.375-.946,3.649.3c1.776.674,4.091,2.3,8.6.338,0,0,1.373,4.555-4.368,4.157A9.554,9.554,0,0,1,447.412,212.358Z" transform="translate(-444.03 -208.942)" fill="#3c8460"/>
            <path id="Path_291" data-name="Path 291" d="M476.693,225.313l1.329.35c.755.4.715,2.411.093,3.032,0,0-5.37,3.139-21.093,3.4-9.045-.174-15.089-1.72-15.369-2.335a8.1,8.1,0,0,1-.249-2.96l1.705-1.986Z" transform="translate(-441.379 -214.568)" fill="#e2e2e2"/>
            <path id="Path_292" data-name="Path 292" d="M445.472,209.951s-1.772,1.7-1.982,3.1a16.566,16.566,0,0,0-.425,5.043,42.142,42.142,0,0,0,13.6,2.087,87.626,87.626,0,0,0,14.612-.99c3.746-.668,7.459-1.563,7.459-1.563-1.082-3.787-4.354-2.381-9.017-3.857-3.172-1-10.726-7.238-10.726-7.238s-1.751,1.3-1.846,1.967c-.06.422.773,1.518.773,1.518a4.062,4.062,0,0,1-3.782,3.818C450.655,214.068,445.472,209.951,445.472,209.951Z" transform="translate(-442.09 -206.535)" fill="#71bf9d"/>
            <path id="Path_293" data-name="Path 293" d="M478.04,226.325a20.476,20.476,0,0,1-6.937,2.709,80.678,80.678,0,0,1-15.365.925c-4.734-.181-14.317-2.491-14.317-2.491" transform="translate(-441.398 -215.229)" fill="none"/>
            <path id="Path_294" data-name="Path 294" d="M469.607,212.75a11.869,11.869,0,0,1,2.451.23c1.509.528,5.878,4.013,9.15,4.427" transform="translate(-453.781 -209.265)" fill="none" stroke="#efe9da" stroke-miterlimit="10" stroke-width="1.157"/>
            <path id="Path_295" data-name="Path 295" d="M477.4,211.839,475.94,214.2c-.2.278-1.074-.35-.874-.629l1.352-2.487C476.709,210.7,477.69,211.462,477.4,211.839Z" transform="translate(-456.166 -208.487)" fill="#e2e2e2"/>
            <path id="Path_296" data-name="Path 296" d="M481.048,214.073l-1.534,2.5c-.187.419-1.167-.016-.981-.436l1.533-2.822C480.358,212.937,481.34,213.7,481.048,214.073Z" transform="translate(-457.692 -209.469)" fill="#e2e2e2"/>
            <path id="Path_297" data-name="Path 297" d="M484.838,216.309l-1.552,2.512c-.165.354-1.128-.094-.962-.449l1.533-2.822C484.148,215.173,485.129,215.932,484.838,216.309Z" transform="translate(-459.359 -210.451)" fill="#e2e2e2"/>
            <path id="Path_298" data-name="Path 298" d="M471.343,214.449a.558.558,0,0,1,1.112.046l-.441,4.187c0,.6-.635.6-.635,0Z" transform="translate(-454.543 -209.794)" fill="#e2e2e2"/>
            <path id="Path_299" data-name="Path 299" d="M464.439,226.6a4.609,4.609,0,0,1,2.3-2.712c2.008-.946,6.779.842,9.418-.623a27.869,27.869,0,0,0,2.778-2.207" transform="translate(-451.51 -212.915)" fill="none" stroke="#efe9da" stroke-miterlimit="10" stroke-width="1.157"/>
            <path id="Path_300" data-name="Path 300" d="M444.7,216.19a13.136,13.136,0,0,1,4.147,2.94c.593.753,1.419,4.8,1.419,4.8" transform="translate(-442.84 -210.777)" fill="none" stroke="#efe9da" stroke-miterlimit="10" stroke-width="1.157"/>
          </g>
        </g>
      </g>
    </g>
    <path id="Path_444" data-name="Path 444" d="M433.057,258.44" transform="translate(-182.564 -1304.647)" fill="#ffb072"/>
    <g id="Group_216" data-name="Group 216" transform="translate(329.408 -1071.956)">
      <g id="Group_183" data-name="Group 183" transform="translate(0 0)">
        <path id="Path_407" data-name="Path 407" d="M586.3,221.906c5.024-7.24,10.205-5.669,12.109-2.617s.53,7.585-3.435,11.332c-2.844,2.85-8.538,4.836-13.112,5.925-3.2-3.445-6.832-8.258-7.616-12.208-1.217-5.318.156-9.851,3.435-11.332S586.14,213.1,586.3,221.906Z" transform="translate(-573.807 -212.516)" fill-rule="evenodd" fill="url(#linear-gradient-3)"/>
      </g>
      <g id="Group_184" data-name="Group 184" transform="translate(1.227 4.215)" opacity="0.5">
        <path id="Path_408" data-name="Path 408" d="M599.369,222.592c-1.626-2.606-5.643-4.127-9.909-.009,3.634-2.865,8.843-2.919,9.3,2.321a7.47,7.47,0,0,1-9.011,8.3c-6.665-1.261-5.026-6.851-8.193-9.586-2.477-2.083-5.413,1.065-5.544,3.647a15.372,15.372,0,0,0,.262,3.454,39.16,39.16,0,0,0,6.55,9.128c4.573-1.089,10.268-3.075,13.112-5.925C599.9,230.176,601.273,225.643,599.369,222.592Z" transform="translate(-575.995 -220.034)" fill-rule="evenodd" fill="url(#linear-gradient-3)"/>
      </g>
    </g>
    <g id="Group_687" data-name="Group 687" transform="translate(-1179.513 -2295.81)">
      <path id="Path_867" data-name="Path 867" d="M1505.021,1472.4s-12.362,7.772-12.229,14.142,5.551,11.1,7.082,13.352,19.753,32.011,20.682,35.992-.334,3.824-1.794,9.664c-.484,1.935-9.695,7.255-8.633,9.379s11.111-1.195,12.7-1.991,4.424-6.592,6.813-9.025c1.961-2,1.592-5.132-2.92-12.3s-8.405-25.055-10.263-30.1-7.982-11.017-6.39-13.406,28.666-5.707,32.249-10.086S1518.151,1470.22,1505.021,1472.4Z" transform="translate(-22.851 -209.06)" fill="url(#linear-gradient)"/>
      <path id="Path_868" data-name="Path 868" d="M1678.378,1289.743l-1.379,2.639.672-3.538Z" transform="translate(-137.874 -94.866)" fill="#6a4075"/>
      <path id="Path_869" data-name="Path 869" d="M1526.942,1297.6s-7.078,4.778-11.591,8.14-17.961,11.149-18.315,12.122-.531,2.43,1.681,2.011,17.076-7.851,21.058-8.559,10.617-4.689,10.617-4.689Z" transform="translate(-25.369 -100.333)" fill="#eea886"/>
      <path id="Path_870" data-name="Path 870" d="M1566.84,1137.218s6.364-2.092,10.964,4.749,5.132,13.005,3.008,18.609-4.9,14.1-10.912,16.87-18.816,23.063-24.892,26.957-10.086,1.18-8.966-2.241,6.135-3.48,5.427-7.845-12.446-4.011-11.5-11.443,7.609-7.432,14.038-8.14,10.677-7.09,8.258-13.1-3.577-13.748.531-19.223C1556.2,1137.867,1562.542,1136.452,1566.84,1137.218Z" transform="translate(-46.031 0)" fill="#002856"/>
      <path id="Path_871" data-name="Path 871" d="M1589.218,1476.491s-.265,14.4.663,19.842.266,9.953.8,13.138a97.666,97.666,0,0,1,1.725,12.475c.133,4.247-.262,36.339-1.837,39.922a19.01,19.01,0,0,1-7.786,8.626c-2.919,1.46-10.632,3.171-10.632,5.161s5.146,4.262,8.729,4.129,6.282-3.805,9.334-4.335,4.315-.287,5.509-7.453,10.274-41.419,9.477-50.845.741-22.278,2.865-28.383,4.513-17.12,4.513-17.12S1591.076,1467.4,1589.218,1476.491Z" transform="translate(-72.403 -208.395)" fill="url(#linear-gradient)"/>
      <path id="Path_872" data-name="Path 872" d="M1606.324,1152.576s-6.282,5.22-2.92,17.873,11.237,6.99,13.537,4.778,4.778-10.176,4.866-13.1S1617.472,1144.967,1606.324,1152.576Z" transform="translate(-91.302 -8.398)" fill="#eea886"/>
      <path id="Path_873" data-name="Path 873" d="M1549.161,1228.508a13.254,13.254,0,0,0-6.01-.8,7.936,7.936,0,0,0-6.194,6.37,19.43,19.43,0,0,1-2.123,6.283c-.8,1.5-4.62,6.168-4.689,10-.177,9.732,4.736,9.345,4.382,10.938-1.048,4.715,1.458,11.409,3.227,14.949s7.344,8.62,6.194,14.283a53.331,53.331,0,0,1-4.971,11.59c-1.842,3.008-14.848,8.494-22.1,10.175a20.142,20.142,0,0,0-11.236,7.7s6.4-1.717,17.843,3.451c17.637,7.963,48.162,10.971,50.019,8.848,0,0,.266-21.146,1.5-24.774s1.769-13.36-4.689-21.589-9.467-32.029-9.467-32.029l6.37-10.352s-3.628-7.255-7.786-11.059S1549.161,1228.508,1549.161,1228.508Z" transform="translate(-30.872 -56.633)" fill="url(#linear-gradient-3)"/>
      <path id="Path_874" data-name="Path 874" d="M1607.8,1303.015a26.334,26.334,0,0,0,9.319.779c4.188-.649,5.191-5.368,6.017-7.9s2.537-1.769,2.537-1.769,1.533,20.409-1.3,21.47.356-9.673-6.075-9.792A21.294,21.294,0,0,1,1607.8,1303.015Z" transform="translate(-94.665 -98.093)" fill="url(#linear-gradient-3)"/>
      <path id="Path_875" data-name="Path 875" d="M1606.3,1276.83a185.174,185.174,0,0,0-3.275,19.345c-.54,4.4-1.57,4.137-3.442,5.177S1580.065,1314.4,1578.8,1315s.569,4.216,3.156,3.741,21.727-8.976,23.113-9.683c3.355-1.715,4.891-2.833,5.464-4.7s5.439-19.73,5.538-22.825C1616.15,1279.139,1606.3,1276.83,1606.3,1276.83Z" transform="translate(-76.302 -87.365)" fill="#eea886"/>
      <path id="Path_876" data-name="Path 876" d="M1472.59,1349.348a25.512,25.512,0,0,1-4.226,2.506c-1,.236-5.662,3.953-6.724,4.365s-6.132,2.932-5.365,3.462,7.9-2.4,9.023-2.578,3.244-.944,3.421-.118-.531,2.6-.354,3.6.118,2.182.531,2.241,1.651-3.6,2.182-4.542,2.419-3.362,2.714-4.247.425-2.08,1.68-2.611S1472.59,1349.348,1472.59,1349.348Z" transform="translate(0 -132.647)" fill="#eea886"/>
      <path id="Path_877" data-name="Path 877" d="M1624.931,1203.595c-.436,4.122-.453,12.634-.453,12.634-1.537,3.6-8.313,7.074-12.029,3.358s1.888-5.426,2.419-6.134a1.276,1.276,0,0,0,.2-.757,5.542,5.542,0,0,0-.354-1.712S1625.366,1199.473,1624.931,1203.595Z" transform="translate(-96.778 -41.079)" fill="#eea886"/>
      <path id="Path_878" data-name="Path 878" d="M1606.83,1158.16s10.853,6.488,11.915,10.795,4.129-17.928-5.427-18.845-13.626,2.3-14.333,8.625-.234,8.45-.234,8.45S1602.465,1159.694,1606.83,1158.16Z" transform="translate(-88.918 -8.142)" fill="#002856"/>
      <path id="Path_879" data-name="Path 879" d="M1659.679,1273.438s-2.005-7.521-5.515-10.44c-2.268-1.886-8.554,6.589-6.809,14.293C1647.355,1277.291,1653.995,1267.288,1659.679,1273.438Z" transform="translate(-119.176 -78.561)" fill="#eddad3"/>
      <path id="Path_880" data-name="Path 880" d="M1629.329,1212.962c-3.251,6.655-8.389,6.139-8.389,6.139a5.54,5.54,0,0,0-.354-1.712C1625.536,1218.03,1629.329,1212.962,1629.329,1212.962Z" transform="translate(-102.649 -47.484)" fill="#a77860"/>
      <g id="Group_663" data-name="Group 663" transform="translate(1471.974 1216.444)">
        <path id="Path_881" data-name="Path 881" d="M1503.888,1354.969a27.024,27.024,0,0,1-4.364-.413l.252-.423c.063.012,6.273,1.194,7.922-.563a1.555,1.555,0,0,0,.295-1.563c-1.043-4.016-9.7-2.678-9.787-2.663l.632-.435c.359-.062,8.438-1.42,9.583,2.987a1.987,1.987,0,0,1-.4,1.978C1507.219,1354.727,1505.538,1354.969,1503.888,1354.969Z" transform="translate(-1498.206 -1348.663)" fill="#73a5f5"/>
      </g>
      <g id="Group_664" data-name="Group 664" transform="translate(1471.689 1216.991)">
        <path id="Path_882" data-name="Path 882" d="M1500.536,1356.611a6.529,6.529,0,0,1-2-.366l.261-.39c.018.007,1.821.688,2.936.035a1.8,1.8,0,0,0,.826-1.4c.383-2.729-5.061-4.032-5.114-4.045l.48-.325c.233.054,5.51,1.307,5.072,4.431a2.22,2.22,0,0,1-1.042,1.722A2.806,2.806,0,0,1,1500.536,1356.611Z" transform="translate(-1497.449 -1350.121)" fill="#e55353"/>
      </g>
      <path id="Path_884" data-name="Path 884" d="M1347.69,1301.984s-2.687,5.62,6.782,12.11,16.863,24.374,20.883,21.819,10.36-14.691,19.756-17.8,15.244-7.287,1.7-17.363c-6.322-4.7-17.316-21.742-23.771-17.971S1357.067,1289.879,1347.69,1301.984Z" transform="translate(99.008 -75.499)" fill="#e6e6e6"/>
      <g id="Group_665" data-name="Group 665" transform="translate(1492.724 1223.63)">
        <path id="Path_883" data-name="Path 883" d="M1570.2,1367.8s-2.521,2.106-3.462,1.9a28.285,28.285,0,0,0-3.648-.347c-.886-.043-3.244-.911-4.161-.662a26.972,26.972,0,0,1-3.194,1.648c-.785.135-2.411.24-2.271.827s1.617.84,1.617.84-.708.161-.769.713a1.351,1.351,0,0,0,.536,1.419s-.609.572-.53,1.028a1.785,1.785,0,0,0,.82,1.321,1.527,1.527,0,0,0,.043,1.184,1.756,1.756,0,0,0,1.376.9s.192,1.125.907,1.245a5.356,5.356,0,0,0,1.941-.186,26.553,26.553,0,0,0,8.376-4.208,18.466,18.466,0,0,1,6.147-3.362Z" transform="translate(-1553.456 -1367.797)" fill="#eea886"/>
      </g>
      <g id="Group_667" data-name="Group 667" transform="translate(1461.369 1232.536) rotate(-34)">
        <path id="Path_277" data-name="Path 277" d="M260.89,234.8c0,.47-5.625.851-12.562.851s-12.562-.381-12.562-.851,5.624-.851,12.562-.851S260.89,234.326,260.89,234.8Z" transform="translate(-235.766 -223.623)" fill="#a1abad" opacity="0.7" style="mix-blend-mode: multiply;isolation: isolate"/>
        <g id="Group_126" data-name="Group 126" transform="translate(0.29)">
          <g id="Group_125" data-name="Group 125">
            <path id="Path_278" data-name="Path 278" d="M242.57,212.245s.251-.636,2.451.2c1.193.453,2.747,1.546,5.773.227,0,0,.922,3.059-2.934,2.792A6.417,6.417,0,0,1,242.57,212.245Z" transform="translate(-240.298 -209.95)" fill="#dd4026"/>
            <path id="Path_279" data-name="Path 279" d="M260.255,225.151l.893.235c.507.269.481,1.619.062,2.037,0,0-3.606,2.108-14.168,2.287-6.075-.117-10.134-1.155-10.322-1.568a5.435,5.435,0,0,1-.168-1.988l1.145-1.334Z" transform="translate(-236.536 -217.934)" fill="#e2e2e2"/>
            <path id="Path_280" data-name="Path 280" d="M239.817,208.829a4.967,4.967,0,0,0-1.331,2.083,11.116,11.116,0,0,0-.285,3.387,28.305,28.305,0,0,0,9.132,1.4,58.858,58.858,0,0,0,9.814-.665c2.516-.449,5.01-1.05,5.01-1.05-.726-2.543-2.924-1.6-6.057-2.591-2.131-.674-7.2-4.862-7.2-4.862s-1.176.873-1.24,1.321c-.04.283.519,1.019.519,1.019a2.729,2.729,0,0,1-2.54,2.564C243.3,211.595,239.817,208.829,239.817,208.829Z" transform="translate(-237.545 -206.535)" fill="#ffd25a"/>
            <path id="Path_281" data-name="Path 281" d="M261.174,226.325a13.753,13.753,0,0,1-4.659,1.819,54.185,54.185,0,0,1-10.319.621,70.329,70.329,0,0,1-9.616-1.673" transform="translate(-236.563 -218.873)" fill="none"/>
            <path id="Path_282" data-name="Path 282" d="M264.765,212.75a7.973,7.973,0,0,1,1.646.155c1.014.354,3.948,2.7,6.145,2.973" transform="translate(-254.135 -210.41)" fill="none" stroke="#efe9da" stroke-miterlimit="10" stroke-width="1.157"/>
            <path id="Path_283" data-name="Path 283" d="M271.781,211.556l-.98,1.583c-.134.187-.721-.235-.587-.422l.908-1.67C271.318,210.793,271.977,211.3,271.781,211.556Z" transform="translate(-257.519 -209.305)" fill="#e2e2e2"/>
            <path id="Path_284" data-name="Path 284" d="M275.372,213.791l-1.03,1.679c-.125.282-.784-.011-.659-.293l1.03-1.9C274.909,213.028,275.568,213.538,275.372,213.791Z" transform="translate(-259.685 -210.698)" fill="#e2e2e2"/>
            <path id="Path_285" data-name="Path 285" d="M279.164,216.026l-1.043,1.687c-.111.238-.757-.063-.646-.3l1.03-1.9C278.7,215.263,279.36,215.773,279.164,216.026Z" transform="translate(-262.05 -212.091)" fill="#e2e2e2"/>
            <path id="Path_286" data-name="Path 286" d="M266.5,214.286a.375.375,0,0,1,.747.031l-.3,2.812c0,.406-.426.406-.426,0Z" transform="translate(-255.217 -211.16)" fill="#e2e2e2"/>
            <path id="Path_287" data-name="Path 287" d="M259.6,224.779a3.1,3.1,0,0,1,1.547-1.821c1.349-.636,4.553.566,6.326-.418a18.7,18.7,0,0,0,1.866-1.482" transform="translate(-250.913 -215.588)" fill="none" stroke="#efe9da" stroke-miterlimit="10" stroke-width="1.157"/>
            <path id="Path_288" data-name="Path 288" d="M239.863,216.19a8.823,8.823,0,0,1,2.785,1.975,15.567,15.567,0,0,1,.953,3.226" transform="translate(-238.61 -212.554)" fill="none" stroke="#efe9da" stroke-miterlimit="10" stroke-width="1.157"/>
          </g>
        </g>
      </g>
    </g>
  </g>
</svg>
