<svg xmlns="http://www.w3.org/2000/svg" xmlns:xlink="http://www.w3.org/1999/xlink" width="299.003" height="230.409" viewBox="0 0 299.003 230.409">
  <defs>
    <linearGradient id="linear-gradient" x1="0.5" x2="0.5" y2="1" gradientUnits="objectBoundingBox">
      <stop offset="0" stop-color="#f0ae4b"/>
      <stop offset="1" stop-color="#df6445"/>
    </linearGradient>
    <linearGradient id="linear-gradient-2" x1="0.5" x2="0.5" y2="1" gradientUnits="objectBoundingBox">
      <stop offset="0" stop-color="#ff7a58"/>
      <stop offset="1" stop-color="#d81b60"/>
    </linearGradient>
    <linearGradient id="linear-gradient-9" y1="1" y2="0" xlink:href="#linear-gradient"/>
    <linearGradient id="linear-gradient-11" x1="0.5" y1="1" x2="0.5" gradientUnits="objectBoundingBox">
      <stop offset="0" stop-color="#008da7"/>
      <stop offset="1" stop-color="#002856"/>
    </linearGradient>
  </defs>
  <g id="vc6" transform="translate(-68.966 1166.935)">
    <g id="Group_212" data-name="Group 212" transform="translate(78.696 -1159.34)">
      <path id="Path_245" data-name="Path 245" d="M262.509,164.9c-33.578-.528-123.377,27.269-134.332,0-9.029-22.472,24.729-20.749,26.691-39.355s-6.826-26.531,7.185-35.145,36.845,3.346,51.923-8.614,22.949-20.674,56.893-24.809,59.065,34.112,73.589,37.9,35.327-5.857,45.533,5.857-22.767,37.641-15.7,48.453,24.366,16.669,17.679,31.83S295.192,165.41,262.509,164.9Z" transform="translate(-126.646 -56.66)" fill="#f5f5f5"/>
      <g id="Group_115" data-name="Group 115" transform="translate(1.242 89.926)">
        <g id="Group_107" data-name="Group 107" transform="translate(0.611)">
          <g id="Group_101" data-name="Group 101" transform="translate(0 7)">
            <path id="Path_246" data-name="Path 246" d="M129.951,230.439a1.14,1.14,0,0,1,.086-.426,1.444,1.444,0,0,1,.215-.377.215.215,0,0,1,.357-.012.324.324,0,0,1,.046.179,1.346,1.346,0,0,1-.095.406,1.886,1.886,0,0,1-.2.368c-.106.133-.266.154-.355.04A.3.3,0,0,1,129.951,230.439Z" transform="translate(-129.951 -229.535)" fill="#fff"/>
          </g>
          <g id="Group_102" data-name="Group 102" transform="translate(0.616 5.567)">
            <path id="Path_247" data-name="Path 247" d="M131.051,227.812a1.3,1.3,0,0,1,.143-.409,1.218,1.218,0,0,1,.259-.347c.136-.113.3-.1.358.035a.3.3,0,0,1,.02.182,1.621,1.621,0,0,1-.143.392,1.558,1.558,0,0,1-.246.339.217.217,0,0,1-.355-.006A.309.309,0,0,1,131.051,227.812Z" transform="translate(-131.049 -226.98)" fill="#fff"/>
          </g>
          <g id="Group_103" data-name="Group 103" transform="translate(1.41 4.226)">
            <path id="Path_248" data-name="Path 248" d="M132.475,225.348a1.444,1.444,0,0,1,.185-.391,1.33,1.33,0,0,1,.3-.312c.146-.1.3-.064.35.072a.306.306,0,0,1,0,.185,1.44,1.44,0,0,1-.191.372,1.355,1.355,0,0,1-.279.311c-.138.1-.3.081-.357-.05A.3.3,0,0,1,132.475,225.348Z" transform="translate(-132.465 -224.588)" fill="#fff"/>
          </g>
          <g id="Group_104" data-name="Group 104" transform="translate(3.17 2.092)">
            <path id="Path_249" data-name="Path 249" d="M135.633,221.417a1.345,1.345,0,0,1,.253-.349,1.23,1.23,0,0,1,.347-.256c.161-.072.308-.011.333.132a.3.3,0,0,1-.031.182,1.622,1.622,0,0,1-.252.335,1.477,1.477,0,0,1-.333.255c-.152.078-.305.03-.339-.112A.306.306,0,0,1,135.633,221.417Z" transform="translate(-135.605 -220.782)" fill="#fff"/>
          </g>
          <g id="Group_105" data-name="Group 105" transform="translate(4.665 0.994)">
            <path id="Path_250" data-name="Path 250" d="M138.29,219.153a.518.518,0,0,1,.159-.212.549.549,0,0,1,.239-.114.234.234,0,0,1,.288.278.439.439,0,0,1-.016.063.527.527,0,0,1-.156.206.573.573,0,0,1-.232.113.236.236,0,0,1-.3-.267A.4.4,0,0,1,138.29,219.153Z" transform="translate(-138.271 -218.823)" fill="#fff"/>
          </g>
          <g id="Group_106" data-name="Group 106" transform="translate(6.035)">
            <path id="Path_251" data-name="Path 251" d="M140.746,217.335a.53.53,0,0,1,.181-.2.538.538,0,0,1,.252-.089.234.234,0,0,1,.253.31.349.349,0,0,1-.024.061.543.543,0,0,1-.175.186.563.563,0,0,1-.242.087.235.235,0,0,1-.268-.3A.376.376,0,0,1,140.746,217.335Z" transform="translate(-140.715 -217.051)" fill="#fff"/>
          </g>
        </g>
        <g id="Group_114" data-name="Group 114" transform="translate(0 8.637)">
          <g id="Group_108" data-name="Group 108">
            <path id="Path_252" data-name="Path 252" d="M133.125,245.935c-.409-.434-.75-.926-1.126-1.389-.322-.5-.653-1-.954-1.513-.265-.534-.548-1.06-.8-1.6l-.658-1.662a13.8,13.8,0,0,1-.707-3.517,10.965,10.965,0,0,1,.361-3.566c.045-.16.174-.26.289-.224a.267.267,0,0,1,.134.329,11.328,11.328,0,0,0-.255,3.427,13.207,13.207,0,0,0,.707,3.37l.627,1.624c.238.528.509,1.041.762,1.563.285.5.6.992.9,1.488.353.458.668.949,1.049,1.385a.255.255,0,0,1,.026.358A.272.272,0,0,1,133.125,245.935Z" transform="translate(-128.861 -232.456)" fill="#fff"/>
          </g>
          <g id="Group_109" data-name="Group 109" transform="translate(4.768 13.796)">
            <path id="Path_253" data-name="Path 253" d="M137.7,257.09a1.154,1.154,0,0,1,.284.211.977.977,0,0,1,.216.28c.07.159.007.311-.146.335a.323.323,0,0,1-.153-.017,1.057,1.057,0,0,1-.31-.2.911.911,0,0,1-.2-.306c-.062-.171.014-.316.165-.33A.3.3,0,0,1,137.7,257.09Z" transform="translate(-137.366 -257.062)" fill="#fff"/>
          </g>
          <g id="Group_110" data-name="Group 110" transform="translate(5.75 14.721)">
            <path id="Path_254" data-name="Path 254" d="M139.435,258.729a1.321,1.321,0,0,1,.3.182.961.961,0,0,1,.239.26.22.22,0,0,1-.115.347.318.318,0,0,1-.154,0,1.04,1.04,0,0,1-.326-.172.824.824,0,0,1-.233-.284c-.077-.165-.015-.317.135-.343A.3.3,0,0,1,139.435,258.729Z" transform="translate(-139.117 -258.711)" fill="#fff"/>
          </g>
          <g id="Group_111" data-name="Group 111" transform="translate(6.747 15.512)">
            <path id="Path_255" data-name="Path 255" d="M141.258,260.173l1.225.711,1.235.692a.249.249,0,0,1,.13.333.265.265,0,0,1-.306.066,7.588,7.588,0,0,1-1.337-.606,8.677,8.677,0,0,1-1.2-.842c-.122-.115-.146-.274-.056-.356A.263.263,0,0,1,141.258,260.173Z" transform="translate(-140.894 -260.123)" fill="#fff"/>
          </g>
          <g id="Group_112" data-name="Group 112" transform="translate(10.487 17.394)">
            <path id="Path_256" data-name="Path 256" d="M147.765,263.493a.4.4,0,0,1,.22,0,.39.39,0,0,1,.182.122.252.252,0,0,1-.115.414l-.01,0a.419.419,0,0,1-.417-.131.251.251,0,0,1,.128-.409Z" transform="translate(-147.564 -263.478)" fill="#fff"/>
          </g>
          <g id="Group_113" data-name="Group 113" transform="translate(11.885 17.743)">
            <path id="Path_257" data-name="Path 257" d="M150.229,264.126a.4.4,0,0,1,.216-.02.378.378,0,0,1,.194.093.252.252,0,0,1-.052.427l-.01,0a.424.424,0,0,1-.23.026.41.41,0,0,1-.205-.1.251.251,0,0,1,.075-.422Z" transform="translate(-150.058 -264.101)" fill="#fff"/>
          </g>
        </g>
      </g>
      <path id="Path_258" data-name="Path 258" d="M338.052,87.681q-23.594,3.836-36.7,21.478c-8.156,10.739-6.408,24.546.583,35.285,6.408,10.228,18.642,13.807,30.293,16.364,32.624,7.671,62.334,17.386,93.21,27.1,13.4,4.091,29.128,10.227,40.779,1.023l.018-.014a3.646,3.646,0,0,0,1.359-3.611c-1.855-9.051-13.461-14.453-18.932-22.826-7.066-10.812,25.906-36.738,15.7-48.453s-31.01-2.067-45.533-5.857a20.42,20.42,0,0,1-5.611-2.677C387.233,99.73,366.706,83.243,338.052,87.681Z" transform="translate(-201.016 -69.959)" fill="#e6e6e6"/>
      <path id="Path_259" data-name="Path 259" d="M381.617,184.657c-13.725,0-37.295-5.267-60.088-10.361-22.433-5.013-43.622-9.748-56.7-9.953-.332-.006-.677-.008-1.019-.008-10.753,0-26.587,2.576-43.351,5.3-19.332,3.144-41.242,6.708-58.246,6.708-16.745,0-26.237-3.368-29.021-10.3-4.3-10.7,2.044-14.524,10.824-19.812,7.044-4.242,15.028-9.05,16.021-18.457a70.1,70.1,0,0,0-.428-16.363c-.938-8.078-1.409-12.132,6.383-16.923,3.357-2.064,7.532-2.945,13.96-2.945,2.45,0,4.949.121,7.594.248,2.677.13,5.446.263,8.2.263,6.71,0,15.325-.725,22.453-6.378,1.387-1.1,2.713-2.173,4-3.217,12.424-10.049,21.4-17.31,51.336-20.956a39.4,39.4,0,0,1,4.739-.288c19.014,0,35.173,13.768,48.158,24.83,7.751,6.6,13.873,11.82,19.461,13.278a37.405,37.405,0,0,0,9.461,1.05c3.409,0,6.93-.292,10.335-.575,3.39-.281,6.592-.547,9.67-.547,7.15,0,11.512,1.5,14.584,5.031,4.221,4.845-2.245,14.682-7.95,23.361-6.235,9.485-12.125,18.444-7.964,24.811,2.4,3.68,5.8,6.733,9.077,9.684,6.883,6.2,12.321,11.088,8.412,19.95C390.794,183.747,387.276,184.657,381.617,184.657Z" transform="translate(-128.916 -58.664)" fill="none" stroke="#fff" stroke-miterlimit="10" stroke-width="0.973"/>
    </g>
    <g id="_2968305" data-name="2968305" transform="translate(-23.938 -1187.227)">
      <g id="Background_Complete" data-name="Background Complete" transform="translate(94.594 92.174)">
        <g id="Group_443" data-name="Group 443" transform="translate(186.949 20.768)">
          <path id="Path_710" data-name="Path 710" d="M474.951,193.366V215.14a7.1,7.1,0,0,0,7.133,6.981h78.074a7.133,7.133,0,0,0,7.133-7.133v-18.4l9.72-10.212-94.9-.3A7.167,7.167,0,0,0,474.951,193.366Z" transform="translate(-474.951 -186.081)" fill="#f5f5f5"/>
          <g id="Group_440" data-name="Group 440" transform="translate(9.984 10.687)">
            <path id="Path_711" data-name="Path 711" d="M566.019,210.229l-70.847-.327.008-2.178,70.846.327Z" transform="translate(-495.172 -207.724)" fill="#e0e0e0"/>
          </g>
          <g id="Group_441" data-name="Group 441" transform="translate(9.984 17.85)">
            <path id="Path_712" data-name="Path 712" d="M566.019,224.738l-70.847-.327.008-2.178,70.846.327Z" transform="translate(-495.172 -222.233)" fill="#e0e0e0"/>
          </g>
          <g id="Group_442" data-name="Group 442" transform="translate(52.798 25.022)">
            <rect id="Rectangle_55" data-name="Rectangle 55" width="2.178" height="28.032" transform="matrix(0.005, -1, 1, 0.005, 0, 2.178)" fill="#e0e0e0"/>
          </g>
        </g>
        <g id="Group_467" data-name="Group 467" transform="translate(8.232 63.72)">
          <g id="Group_446" data-name="Group 446">
            <g id="Group_445" data-name="Group 445">
              <g id="Group_444" data-name="Group 444">
                <path id="Path_713" data-name="Path 713" d="M158.656,348.387c10.917-7.627,13.394-21.785,12.962-34.511-.072-2.124.161-4.364-.849-6.228s-3.369-3.137-5.271-2.242c-1.578.743-2.265,2.577-3.148,4.1a12.427,12.427,0,0,1-4.982,4.758c-1.352.7-3.026,1.131-4.362.395-1.832-1.011-2.048-3.543-2.035-5.656q.037-5.907.074-11.813a19.7,19.7,0,0,0-.637-6.275,6.553,6.553,0,0,0-4.119-4.431c-2.01-.563-4.5.6-4.92,2.664a19.527,19.527,0,0,0-.06,2.631,2.221,2.221,0,0,1-1.3,2.092,2.555,2.555,0,0,1-2.32-.969,28.1,28.1,0,0,1-5.044-7.614,38.961,38.961,0,0,0-4.7-7.858,11.425,11.425,0,0,0-7.741-4.342c-3.026-.171-6.25,1.7-7.014,4.667s.971,6,2.862,8.412a47.156,47.156,0,0,0,9.819,9.36,3.879,3.879,0,0,1,1.642,1.766c.459,1.409-.875,2.807-2.266,3.271-1.575.524-3.283.361-4.931.555s-3.432.92-4.056,2.477c-.865,2.16.941,4.423,2.718,5.906a40.4,40.4,0,0,0,11.956,6.9,13.623,13.623,0,0,1,4.443,2.16c1.253,1.092,2.01,2.991,1.253,4.479s-2.7,1.966-4.329,1.664a28.143,28.143,0,0,1-4.636-1.771c-2.9-1.1-6.653-.9-8.513,1.614a6.687,6.687,0,0,0-.712,5.912,15.413,15.413,0,0,0,3.2,5.222,40.623,40.623,0,0,0,17.347,12.19c6.735,2.335,12.975,2.967,19.669.519" transform="translate(-113 -273.072)" fill="#f5f5f5"/>
              </g>
            </g>
          </g>
          <g id="Group_450" data-name="Group 450" transform="translate(3.238 1.779)">
            <g id="Group_449" data-name="Group 449">
              <g id="Group_448" data-name="Group 448">
                <g id="Group_447" data-name="Group 447">
                  <path id="Path_714" data-name="Path 714" d="M162.142,359.646a92.787,92.787,0,0,0-3.452-17.413,189.33,189.33,0,0,0-7.515-20.383q-1.137-2.654-2.244-5.241c-.741-1.719-1.475-3.423-2.3-5.046a94.511,94.511,0,0,0-5.253-9.054c-1.81-2.8-3.63-5.389-5.349-7.8s-3.375-4.62-4.965-6.572a75.054,75.054,0,0,0-8.182-8.648c-1.042-.942-1.875-1.646-2.446-2.115l-.652-.53a1.666,1.666,0,0,0-.231-.17,1.43,1.43,0,0,0,.2.2l.627.559c.554.489,1.369,1.211,2.395,2.169a79.263,79.263,0,0,1,8.07,8.71c1.572,1.958,3.205,4.176,4.916,6.587s3.515,5.009,5.312,7.806a95.662,95.662,0,0,1,5.213,9.029c.814,1.615,1.54,3.305,2.281,5.028l2.242,5.239a193.991,193.991,0,0,1,7.529,20.331,94.377,94.377,0,0,1,3.521,17.336" transform="translate(-119.558 -276.675)" fill="#e0e0e0"/>
                </g>
              </g>
            </g>
          </g>
          <g id="Group_454" data-name="Group 454" transform="translate(30.193 13.408)">
            <g id="Group_453" data-name="Group 453">
              <g id="Group_452" data-name="Group 452">
                <g id="Group_451" data-name="Group 451">
                  <path id="Path_715" data-name="Path 715" d="M174.161,323.471a4.258,4.258,0,0,0,.206-.9c.111-.584.244-1.433.392-2.486.3-2.1.612-5.022.946-8.242s.687-6.128,1.017-8.221c.162-1.047.3-1.894.406-2.477a4.24,4.24,0,0,0,.118-.917,4.2,4.2,0,0,0-.266.885c-.15.575-.331,1.417-.528,2.461-.4,2.089-.8,5-1.133,8.227-.321,3.178-.611,6.053-.832,8.25-.106.992-.2,1.828-.269,2.5A4.265,4.265,0,0,0,174.161,323.471Z" transform="translate(-174.149 -300.227)" fill="#e0e0e0"/>
                </g>
              </g>
            </g>
          </g>
          <g id="Group_458" data-name="Group 458" transform="translate(3.04 31.548)">
            <g id="Group_457" data-name="Group 457">
              <g id="Group_456" data-name="Group 456">
                <g id="Group_455" data-name="Group 455">
                  <path id="Path_716" data-name="Path 716" d="M119.158,336.993a5.912,5.912,0,0,0,1.083.129c.7.062,1.706.147,2.949.291,2.488.269,5.912.76,9.665,1.467s7.123,1.505,9.543,2.148c1.213.313,2.187.592,2.862.781a5.8,5.8,0,0,0,1.06.26,5.8,5.8,0,0,0-1.015-.406c-.663-.234-1.628-.555-2.835-.9-2.409-.713-5.78-1.549-9.544-2.266a95.9,95.9,0,0,0-9.71-1.357c-1.251-.109-2.266-.152-2.967-.166A5.712,5.712,0,0,0,119.158,336.993Z" transform="translate(-119.158 -336.965)" fill="#e0e0e0"/>
                </g>
              </g>
            </g>
          </g>
          <g id="Group_462" data-name="Group 462" transform="translate(42.034 32.144)">
            <g id="Group_461" data-name="Group 461">
              <g id="Group_460" data-name="Group 460">
                <g id="Group_459" data-name="Group 459">
                  <path id="Path_717" data-name="Path 717" d="M198.134,372.866a1.4,1.4,0,0,0,.187-.331l.464-.983c.4-.855.946-2.107,1.6-3.664,1.31-3.112,2.986-7.467,4.769-12.3s3.417-9.2,4.661-12.333c.609-1.524,1.111-2.777,1.484-3.709l.4-1.012a1.4,1.4,0,0,0,.115-.364,1.443,1.443,0,0,0-.187.332l-.464.982c-.4.855-.946,2.107-1.6,3.664-1.311,3.112-2.986,7.467-4.77,12.3s-3.416,9.2-4.66,12.331c-.61,1.523-1.111,2.777-1.484,3.708l-.4,1.012A1.423,1.423,0,0,0,198.134,372.866Z" transform="translate(-198.132 -338.173)" fill="#e0e0e0"/>
                </g>
              </g>
            </g>
          </g>
          <g id="Group_466" data-name="Group 466" transform="translate(5.94 55.2)">
            <g id="Group_465" data-name="Group 465">
              <g id="Group_464" data-name="Group 464">
                <g id="Group_463" data-name="Group 463">
                  <path id="Path_718" data-name="Path 718" d="M125.031,384.872a1.438,1.438,0,0,0,.358.148l1.048.352,3.865,1.253c3.264,1.059,7.754,2.572,12.715,4.251s9.47,3.154,12.757,4.145c1.643.5,2.976.884,3.9,1.133l1.069.281a1.438,1.438,0,0,0,.38.072,1.455,1.455,0,0,0-.358-.149l-1.048-.351-3.865-1.253c-3.264-1.058-7.755-2.572-12.716-4.252s-9.469-3.153-12.755-4.144c-1.643-.5-2.976-.884-3.9-1.133l-1.069-.281A1.424,1.424,0,0,0,125.031,384.872Z" transform="translate(-125.031 -384.868)" fill="#e0e0e0"/>
                </g>
              </g>
            </g>
          </g>
        </g>
        <g id="Group_471" data-name="Group 471">
          <path id="Path_719" data-name="Path 719" d="M175.406,149.547v16.871a5.527,5.527,0,0,1-5.527,5.527H109.385a5.527,5.527,0,0,1-5.527-5.527V152.163l-7.531-7.913,73.535-.23A5.527,5.527,0,0,1,175.406,149.547Z" transform="translate(-96.327 -144.02)" fill="#e0e0e0"/>
          <g id="Group_468" data-name="Group 468" transform="translate(16.443 8.281)">
            <path id="Path_720" data-name="Path 720" d="M129.635,162.731l54.894-.254-.006-1.687-54.894.254Z" transform="translate(-129.629 -160.791)" fill="#fafafa"/>
          </g>
          <g id="Group_469" data-name="Group 469" transform="translate(16.443 13.831)">
            <path id="Path_721" data-name="Path 721" d="M129.635,173.973l54.894-.254-.006-1.687-54.894.254Z" transform="translate(-129.629 -172.032)" fill="#fafafa"/>
          </g>
          <g id="Group_470" data-name="Group 470" transform="translate(16.441 19.389)">
            <rect id="Rectangle_56" data-name="Rectangle 56" width="21.72" height="1.687" transform="translate(0 0.107) rotate(-0.282)" fill="#fafafa"/>
          </g>
        </g>
      </g>
      <g id="Floor" transform="translate(92.904 250.444)">
        <g id="Group_472" data-name="Group 472">
          <path id="Path_723" data-name="Path 723" d="M377.446,464.69c0,.071-63.7.129-142.264.129-78.589,0-142.278-.058-142.278-.129s63.688-.128,142.278-.128C313.744,464.562,377.446,464.62,377.446,464.69Z" transform="translate(-92.904 -464.562)" fill="#263238"/>
        </g>
      </g>
      <g id="Device" transform="translate(144.03 86.131)">
        <g id="Group_512" data-name="Group 512">
          <g id="Group_478" data-name="Group 478">
            <g id="Group_477" data-name="Group 477">
              <g id="Group_473" data-name="Group 473">
                <path id="Rectangle_57" data-name="Rectangle 57" d="M11.55,0H115.892a11.549,11.549,0,0,1,11.549,11.549V171.34a11.549,11.549,0,0,1-11.549,11.549H11.549A11.549,11.549,0,0,1,0,171.34V11.55A11.55,11.55,0,0,1,11.55,0Z" transform="translate(0 127.441) rotate(-90)" fill="url(#linear-gradient)"/>
              </g>
              <g id="Group_474" data-name="Group 474" transform="translate(12.512 4.019)">
                <rect id="Rectangle_58" data-name="Rectangle 58" width="119.404" height="152.734" transform="translate(0 119.404) rotate(-90)" fill="#fff"/>
              </g>
              <g id="Group_475" data-name="Group 475" transform="translate(167.819 57.842)">
                <circle id="Ellipse_16" data-name="Ellipse 16" cx="4.89" cy="4.89" r="4.89" transform="matrix(0.229, -0.973, 0.973, 0.229, 0, 9.52)" fill="#fff"/>
              </g>
              <g id="Group_476" data-name="Group 476" transform="translate(5.267 44.529)">
                <rect id="Rectangle_59" data-name="Rectangle 59" width="38.384" height="2.02" rx="1.01" transform="translate(0 38.384) rotate(-90)" fill="#fff"/>
              </g>
            </g>
          </g>
          <g id="Group_496" data-name="Group 496" transform="translate(60.321 92.849)">
            <g id="Group_491" data-name="Group 491" transform="translate(48.349)">
              <path id="Path_734" data-name="Path 734" d="M418.214,403.7l2.963-1.469,2.89,1.608-.481-3.272,2.422-2.251-3.26-.553-1.393-3-1.534,2.93-3.283.4,2.312,2.364Z" transform="translate(-416.538 -394.765)" fill="#e0e0e0"/>
            </g>
            <g id="Group_492" data-name="Group 492" transform="translate(36.262)">
              <path id="Path_735" data-name="Path 735" d="M393.733,403.7l2.963-1.469,2.89,1.608-.481-3.272,2.422-2.251-3.26-.553-1.392-3-1.534,2.93-3.283.4,2.313,2.364Z" transform="translate(-392.057 -394.765)" fill="#e8505b"/>
            </g>
            <g id="Group_493" data-name="Group 493" transform="translate(24.175)">
              <path id="Path_736" data-name="Path 736" d="M369.253,403.7l2.963-1.469,2.89,1.608-.481-3.272,2.422-2.251-3.26-.553-1.393-3-1.534,2.93-3.283.4,2.313,2.364Z" transform="translate(-367.577 -394.765)" fill="#e8505b"/>
            </g>
            <g id="Group_494" data-name="Group 494" transform="translate(12.087)">
              <path id="Path_737" data-name="Path 737" d="M344.773,403.7l2.963-1.469,2.89,1.608-.481-3.272,2.422-2.251-3.26-.553-1.393-3-1.534,2.93-3.283.4,2.312,2.364Z" transform="translate(-343.097 -394.765)" fill="#e8505b"/>
            </g>
            <g id="Group_495" data-name="Group 495">
              <path id="Path_738" data-name="Path 738" d="M320.292,403.7l2.963-1.469,2.89,1.608-.481-3.272,2.422-2.251-3.26-.553-1.393-3-1.534,2.93-3.283.4,2.313,2.364Z" transform="translate(-318.616 -394.765)" fill="#e8505b"/>
            </g>
          </g>
          <g id="Group_497" data-name="Group 497" transform="translate(59.044 28.899)">
            <path id="Path_739" data-name="Path 739" d="M375.262,265.379c0,.073-13.26.131-29.615.131s-29.617-.059-29.617-.131,13.257-.132,29.617-.132S375.262,265.306,375.262,265.379Z" transform="translate(-316.03 -265.247)" fill="url(#linear-gradient-2)"/>
          </g>
          <g id="Group_498" data-name="Group 498" transform="translate(74.46 25.342)">
            <path id="Path_740" data-name="Path 740" d="M376.507,258.174c0,.073-6.55.131-14.628.131s-14.629-.059-14.629-.131,6.548-.132,14.629-.132S376.507,258.1,376.507,258.174Z" transform="translate(-347.251 -258.042)" fill="url(#linear-gradient-2)"/>
          </g>
          <rect id="Rectangle_60" data-name="Rectangle 60" width="152.734" height="7.62" transform="translate(12.512 4.019)" fill="#e0e0e0"/>
          <path id="Path_749" data-name="Path 749" d="M229.655,221.09a1.032,1.032,0,1,1-1.032-1.032A1.032,1.032,0,0,1,229.655,221.09Z" transform="translate(-212.215 -213.471)" fill="url(#linear-gradient-2)"/>
          <path id="Path_750" data-name="Path 750" d="M236.6,221.09a1.032,1.032,0,1,1-1.032-1.032A1.032,1.032,0,0,1,236.6,221.09Z" transform="translate(-215.73 -213.471)" fill="url(#linear-gradient-2)"/>
          <path id="Path_751" data-name="Path 751" d="M243.541,221.09a1.032,1.032,0,1,1-1.032-1.032A1.032,1.032,0,0,1,243.541,221.09Z" transform="translate(-219.244 -213.471)" fill="url(#linear-gradient-2)"/>
          <g id="Group_510" data-name="Group 510" transform="translate(30.043 34.908)">
            <path id="Path_752" data-name="Path 752" d="M375.67,277.548c0,.073-26.5.132-59.185.132s-59.191-.059-59.191-.132,26.5-.131,59.191-.131S375.67,277.476,375.67,277.548Z" transform="translate(-257.294 -277.417)" fill="url(#linear-gradient-2)"/>
          </g>
          <g id="Group_511" data-name="Group 511" transform="translate(30.043 37.842)">
            <path id="Path_753" data-name="Path 753" d="M375.67,283.491c0,.073-26.5.131-59.185.131s-59.191-.059-59.191-.131,26.5-.132,59.191-.132S375.67,283.418,375.67,283.491Z" transform="translate(-257.294 -283.359)" fill="url(#linear-gradient-2)"/>
          </g>
        </g>
      </g>
      <g id="Plant" transform="translate(103.857 205.609)">
        <g id="Group_570" data-name="Group 570">
          <g id="Group_560" data-name="Group 560" transform="translate(6.965)">
            <path id="Path_795" data-name="Path 795" d="M613.368,392.042c-1.232,1.761-3.628,1.178-4.739.1a8.95,8.95,0,0,1-2.008-4.117c-.977-3.393-1.961-6.953-1.235-10.409a5.784,5.784,0,0,1,1.329-2.83,3.022,3.022,0,0,1,2.863-.952,4.417,4.417,0,0,1,2.5,2.628,24.813,24.813,0,0,1,2.453,10.648,8.609,8.609,0,0,1-1.164,4.93" transform="translate(-605.135 -373.758)" fill="#3a3d7d"/>
          </g>
          <g id="Group_561" data-name="Group 561" transform="translate(6.965)" opacity="0.2">
            <path id="Path_796" data-name="Path 796" d="M613.368,392.042c-1.232,1.761-3.628,1.178-4.739.1a8.95,8.95,0,0,1-2.008-4.117c-.977-3.393-1.961-6.953-1.235-10.409a5.784,5.784,0,0,1,1.329-2.83,3.022,3.022,0,0,1,2.863-.952,4.417,4.417,0,0,1,2.5,2.628,24.813,24.813,0,0,1,2.453,10.648,8.609,8.609,0,0,1-1.164,4.93" transform="translate(-605.135 -373.758)" fill="none"/>
          </g>
          <g id="Group_562" data-name="Group 562" transform="translate(0 26.208)">
            <path id="Path_797" data-name="Path 797" d="M601.609,427.828a10.685,10.685,0,0,0-6.628-.805,5.508,5.508,0,0,0-3.274,1.462,2.356,2.356,0,0,0-.034,3.269,3.137,3.137,0,0,0,2.064.523c1.752-.02,3.7-.329,5.1.725.8.6,1.33,1.6,2.285,1.9a2.257,2.257,0,0,0,2.484-1.105,3.86,3.86,0,0,0,.281-2.847A4.347,4.347,0,0,0,601.609,427.828Z" transform="translate(-591.029 -426.836)" fill="#4eadb3"/>
          </g>
          <g id="Group_563" data-name="Group 563" transform="translate(17.282 5.665)">
            <path id="Path_798" data-name="Path 798" d="M627.332,400.376a6.406,6.406,0,0,1-1-5.9,11.359,11.359,0,0,1,3.492-5.064,18.8,18.8,0,0,1,6.252-3.689,6.662,6.662,0,0,1,2.812-.477,2.95,2.95,0,0,1,2.36,1.427c.658,1.255.027,2.777-.655,4.019a47.589,47.589,0,0,1-4.107,6.253,11.115,11.115,0,0,1-4.516,3.869c-1.876.717-3.825.633-4.819-.668" transform="translate(-626.031 -385.231)" fill="#4eadb3"/>
          </g>
          <g id="Group_565" data-name="Group 565" transform="translate(6.081 28.652)">
            <g id="Group_564" data-name="Group 564">
              <path id="Path_799" data-name="Path 799" d="M612.545,447.976a3.883,3.883,0,0,1-.111-.8c-.057-.583-.128-1.313-.213-2.183a31.655,31.655,0,0,0-.491-3.2,24.759,24.759,0,0,0-1.164-3.78,13.946,13.946,0,0,0-1.93-3.42,7.215,7.215,0,0,0-2.44-2.028,6.821,6.821,0,0,0-2.055-.64,3.886,3.886,0,0,1-.8-.115,3.748,3.748,0,0,1,.81-.013,6.218,6.218,0,0,1,2.143.558,7.185,7.185,0,0,1,2.574,2.046,13.617,13.617,0,0,1,2,3.488,23.123,23.123,0,0,1,1.155,3.841,27.056,27.056,0,0,1,.426,3.243c.07.927.1,1.678.109,2.2A3.723,3.723,0,0,1,612.545,447.976Z" transform="translate(-603.345 -431.787)" fill="#263238"/>
            </g>
          </g>
          <g id="Group_567" data-name="Group 567" transform="translate(11.041 7.074)">
            <g id="Group_566" data-name="Group 566">
              <path id="Path_800" data-name="Path 800" d="M617.481,424.172a1.578,1.578,0,0,1-.022-.371c0-.279,0-.631,0-1.062,0-.921,0-2.255-.047-3.9-.081-3.292-.365-7.837-.912-12.833s-1.282-9.492-1.949-12.717c-.157-.808-.316-1.536-.466-2.173s-.264-1.189-.381-1.634l-.248-1.032a1.587,1.587,0,0,1-.065-.366,1.548,1.548,0,0,1,.129.348l.308,1.017c.137.441.276.988.436,1.624s.342,1.36.515,2.167a120.615,120.615,0,0,1,2.049,12.73c.549,5.006.8,9.564.818,12.864.02,1.651-.015,2.986-.058,3.908-.026.431-.048.783-.065,1.061A1.559,1.559,0,0,1,617.481,424.172Z" transform="translate(-613.391 -388.084)" fill="#263238"/>
            </g>
          </g>
          <g id="Group_569" data-name="Group 569" transform="translate(15.094 9.762)">
            <g id="Group_568" data-name="Group 568">
              <path id="Path_801" data-name="Path 801" d="M621.614,418.137a7.112,7.112,0,0,1,.008-1.109c.041-.713.139-1.742.34-3a39.481,39.481,0,0,1,.977-4.377,38.828,38.828,0,0,1,1.83-5.18,27.6,27.6,0,0,1,5.376-8.37,13.665,13.665,0,0,1,1.264-1.175c.195-.164.366-.328.541-.457l.49-.338a7.023,7.023,0,0,1,.934-.6,32.939,32.939,0,0,0-3.06,2.729,29.078,29.078,0,0,0-5.241,8.34,41.348,41.348,0,0,0-1.841,5.132c-.48,1.608-.8,3.087-1.04,4.334s-.361,2.268-.441,2.974A7.113,7.113,0,0,1,621.614,418.137Z" transform="translate(-621.599 -393.529)" fill="#263238"/>
            </g>
          </g>
        </g>
      </g>
      <g id="Speech_Bubble" data-name="Speech Bubble" transform="translate(131.733 36.606)">
        <g id="Group_576" data-name="Group 576">
          <g id="Group_572" data-name="Group 572">
            <g id="Group_571" data-name="Group 571">
              <path id="Path_802" data-name="Path 802" d="M251.113,41.613a2.075,2.075,0,0,1-.343.042l-1.006.085a11.3,11.3,0,0,0-1.62.235c-.317.068-.667.1-1.024.207l-1.143.331a18.887,18.887,0,0,0-5.423,2.768,19.323,19.323,0,0,0-5.3,6.035,20.363,20.363,0,0,0-1.832,4.317,21.62,21.62,0,0,0-.683,7.7c.029.454.132.9.195,1.359a9.6,9.6,0,0,0,.275,1.367,19.313,19.313,0,0,0,2.132,5.345,19.089,19.089,0,0,0,9.1,8.083,17.552,17.552,0,0,0,6.368,1.354,17.181,17.181,0,0,0,6.62-1.029l.648-.246.085-.032.078.038,9.382,4.63-.275.239c-1.031-3.08-2.031-6.066-2.99-8.932l-.037-.111.081-.083a19.922,19.922,0,0,0,4.8-8.2,20.453,20.453,0,0,0,.612-8.677,19.951,19.951,0,0,0-6.8-12.428,20.49,20.49,0,0,0-4.616-2.864,20.066,20.066,0,0,0-3.885-1.176l-1.454-.231-1.071-.063-.656-.043a1.122,1.122,0,0,1-.223-.026,1.2,1.2,0,0,1,.223-.007l.658.011,1.078.031,1.467.2a19.68,19.68,0,0,1,3.935,1.131,20.463,20.463,0,0,1,4.7,2.851,20.1,20.1,0,0,1,4.364,5.148,20.322,20.322,0,0,1,2.61,7.417,20.746,20.746,0,0,1-.591,8.824,20.248,20.248,0,0,1-4.875,8.364l.044-.194,3,8.928.152.45-.426-.21-9.385-4.624.163.006-.662.252a17.551,17.551,0,0,1-6.768,1.051,17.924,17.924,0,0,1-6.508-1.39,19.439,19.439,0,0,1-9.27-8.261,19.638,19.638,0,0,1-2.155-5.448,9.98,9.98,0,0,1-.275-1.391c-.063-.465-.165-.922-.194-1.383a21.914,21.914,0,0,1,.728-7.823,20.56,20.56,0,0,1,1.883-4.371,19.444,19.444,0,0,1,5.412-6.074,18.764,18.764,0,0,1,5.51-2.736l1.157-.316a10.466,10.466,0,0,1,1.034-.191,10.588,10.588,0,0,1,1.634-.2l1.012-.045A2.216,2.216,0,0,1,251.113,41.613Z" transform="translate(-232.303 -41.606)" fill="#263238"/>
            </g>
          </g>
          <g id="Group_575" data-name="Group 575" transform="translate(11.767 10.392)">
            <g id="Group_573" data-name="Group 573">
              <path id="Path_803" data-name="Path 803" d="M267.592,69.489l-1.367.016-3.03-4.123-.031-2.729s-2.114-.106-1.825,3.464.01,2.663.01,2.663-4.486.068-4.854.462c-.268.286-.34,4.744-.359,7.161a2.618,2.618,0,0,0,1.884,2.615,1.963,1.963,0,0,0,.483.059c1.119-.013,6.826-.988,6.826-.988l2.361-.027Z" transform="translate(-256.135 -62.652)" fill="#4eadb3"/>
            </g>
            <g id="Group_574" data-name="Group 574" transform="translate(12.182 6.043)">
              <path id="Path_804" data-name="Path 804" d="M283.986,74.891l-.734,9.359-2.341.027-.1-9.161Z" transform="translate(-280.807 -74.891)" fill="#4eadb3"/>
            </g>
          </g>
        </g>
      </g>
    </g>
    <g id="Group_213" data-name="Group 213" transform="translate(141.597 -1070.123)">
      <path id="Path_711-2" data-name="Path 711" d="M0,70.016v0Z" transform="translate(5.414 6.452)" fill="#3a3d7d"/>
      <path id="Path_710-2" data-name="Path 710" d="M0,3.855Z" transform="translate(3.142 3.745)" fill="#4eadb3"/>
      <g id="Group_121" data-name="Group 121" transform="translate(6.157 18.199)">
        <rect id="Rectangle_11" data-name="Rectangle 11" width="36.896" height="35.768" rx="10" fill="#ececec"/>
        <rect id="Rectangle_12" data-name="Rectangle 12" width="36.896" height="35.768" rx="10" transform="translate(41.444)" fill="#ececec"/>
        <rect id="Rectangle_13" data-name="Rectangle 13" width="36.896" height="35.768" rx="10" transform="translate(82.888)" fill="#ececec"/>
        <line id="Line_1" data-name="Line 1" x2="37.073" transform="translate(41.267 40.242)" fill="#fff" stroke="#3a3d7d" stroke-linecap="round" stroke-linejoin="round" stroke-width="1.024"/>
      </g>
      <g id="Group_124" data-name="Group 124" transform="translate(53.34 28.864)">
        <path id="Path_265" data-name="Path 265" d="M367.629,234.862c0,.506-6.055.916-13.523.916s-13.523-.41-13.523-.916,6.054-.917,13.523-.917S367.629,234.355,367.629,234.862Z" transform="translate(-340.584 -222.834)" fill="#a1abad" opacity="0.7" style="mix-blend-mode: multiply;isolation: isolate"/>
        <g id="Group_123" data-name="Group 123" transform="translate(0.312)">
          <g id="Group_122" data-name="Group 122">
            <path id="Path_266" data-name="Path 266" d="M347.388,212.262s.27-.684,2.638.214c1.284.487,2.958,1.664,6.215.244,0,0,.992,3.293-3.158,3.005A6.908,6.908,0,0,1,347.388,212.262Z" transform="translate(-344.942 -209.792)" fill="#dd4026"/>
            <path id="Path_267" data-name="Path 267" d="M366.886,225.177l.961.253c.546.29.517,1.743.067,2.192,0,0-3.882,2.27-15.251,2.462-6.539-.126-10.909-1.244-11.111-1.688a5.859,5.859,0,0,1-.18-2.14l1.233-1.436Z" transform="translate(-341.354 -217.408)" fill="#e2e2e2"/>
            <path id="Path_268" data-name="Path 268" d="M344.762,209a5.347,5.347,0,0,0-1.433,2.242,11.966,11.966,0,0,0-.307,3.646,30.47,30.47,0,0,0,9.83,1.509,63.359,63.359,0,0,0,10.564-.715c2.708-.483,5.393-1.13,5.393-1.13-.782-2.738-3.148-1.721-6.52-2.789-2.294-.726-7.755-5.233-7.755-5.233s-1.266.94-1.334,1.422c-.043.3.559,1.1.559,1.1a2.938,2.938,0,0,1-2.735,2.76C348.51,211.981,344.762,209,344.762,209Z" transform="translate(-342.317 -206.535)" fill="#fd6141"/>
            <path id="Path_269" data-name="Path 269" d="M367.872,226.325a14.8,14.8,0,0,1-5.016,1.958,58.326,58.326,0,0,1-11.108.669,75.7,75.7,0,0,1-10.351-1.8" transform="translate(-341.38 -218.303)" fill="none"/>
            <path id="Path_270" data-name="Path 270" d="M369.583,212.75a8.584,8.584,0,0,1,1.772.167c1.091.381,4.249,2.9,6.615,3.2" transform="translate(-358.14 -210.231)" fill="none" stroke="#efe9da" stroke-linecap="round" stroke-miterlimit="10" stroke-width="1.157"/>
            <path id="Path_271" data-name="Path 271" d="M376.72,211.6l-1.055,1.7c-.145.2-.777-.253-.632-.454l.977-1.8C376.222,210.779,376.931,211.328,376.72,211.6Z" transform="translate(-361.368 -209.177)" fill="#e2e2e2"/>
            <path id="Path_272" data-name="Path 272" d="M380.32,213.835l-1.109,1.807c-.135.3-.844-.012-.709-.315l1.109-2.04C379.822,213.014,380.531,213.562,380.32,213.835Z" transform="translate(-363.434 -210.506)" fill="#e2e2e2"/>
            <path id="Path_273" data-name="Path 273" d="M384.112,216.07l-1.122,1.816c-.12.256-.815-.068-.7-.324l1.109-2.04C383.613,215.249,384.323,215.8,384.112,216.07Z" transform="translate(-365.69 -211.835)" fill="#e2e2e2"/>
            <path id="Path_274" data-name="Path 274" d="M371.318,214.312a.4.4,0,0,1,.8.033l-.319,3.027c0,.437-.459.437-.459,0Z" transform="translate(-359.172 -210.947)" fill="#e2e2e2"/>
            <path id="Path_275" data-name="Path 275" d="M364.415,225.064a3.333,3.333,0,0,1,1.664-1.961c1.452-.684,4.9.609,6.81-.45a20.131,20.131,0,0,0,2.008-1.6" transform="translate(-355.067 -215.17)" fill="none" stroke="#efe9da" stroke-linecap="round" stroke-miterlimit="10" stroke-width="1.157"/>
            <path id="Path_276" data-name="Path 276" d="M344.681,216.19a9.5,9.5,0,0,1,3,2.126,16.756,16.756,0,0,1,1.026,3.473" transform="translate(-343.333 -212.276)" fill="none" stroke="#efe9da" stroke-linecap="round" stroke-miterlimit="10" stroke-width="1.157"/>
          </g>
        </g>
      </g>
      <g id="Group_127" data-name="Group 127" transform="translate(10.851 28.864)">
        <path id="Path_277" data-name="Path 277" d="M262.811,234.862c0,.506-6.055.916-13.523.916s-13.523-.41-13.523-.916,6.054-.917,13.523-.917S262.811,234.355,262.811,234.862Z" transform="translate(-235.766 -222.834)" fill="#a1abad" opacity="0.7" style="mix-blend-mode: multiply;isolation: isolate"/>
        <g id="Group_126" data-name="Group 126" transform="translate(0.312)">
          <g id="Group_125" data-name="Group 125">
            <path id="Path_278" data-name="Path 278" d="M242.57,212.262s.27-.684,2.638.214c1.284.487,2.958,1.664,6.215.244,0,0,.992,3.293-3.158,3.005A6.908,6.908,0,0,1,242.57,212.262Z" transform="translate(-240.124 -209.792)" fill="#dd4026"/>
            <path id="Path_279" data-name="Path 279" d="M262.068,225.177l.961.253c.546.29.517,1.743.067,2.192,0,0-3.882,2.27-15.251,2.462-6.539-.126-10.909-1.244-11.111-1.688a5.85,5.85,0,0,1-.18-2.14l1.233-1.436Z" transform="translate(-236.536 -217.408)" fill="#e2e2e2"/>
            <path id="Path_280" data-name="Path 280" d="M239.944,209a5.346,5.346,0,0,0-1.433,2.242,11.965,11.965,0,0,0-.307,3.646,30.469,30.469,0,0,0,9.83,1.509,63.36,63.36,0,0,0,10.564-.715c2.708-.483,5.393-1.13,5.393-1.13-.782-2.738-3.148-1.721-6.52-2.789-2.294-.726-7.754-5.233-7.754-5.233s-1.266.94-1.334,1.422c-.043.3.559,1.1.559,1.1a2.938,2.938,0,0,1-2.735,2.76C243.692,211.981,239.944,209,239.944,209Z" transform="translate(-237.499 -206.535)" fill="#ffd25a"/>
            <path id="Path_281" data-name="Path 281" d="M263.054,226.325a14.8,14.8,0,0,1-5.016,1.958,58.325,58.325,0,0,1-11.108.669,75.7,75.7,0,0,1-10.351-1.8" transform="translate(-236.562 -218.303)" fill="none"/>
            <path id="Path_282" data-name="Path 282" d="M264.765,212.75a8.584,8.584,0,0,1,1.772.167c1.091.381,4.249,2.9,6.615,3.2" transform="translate(-253.322 -210.231)" fill="none" stroke="#efe9da" stroke-miterlimit="10" stroke-width="1.157"/>
            <path id="Path_283" data-name="Path 283" d="M271.9,211.6l-1.055,1.7c-.145.2-.777-.253-.632-.454l.977-1.8C271.4,210.779,272.113,211.328,271.9,211.6Z" transform="translate(-256.551 -209.177)" fill="#e2e2e2"/>
            <path id="Path_284" data-name="Path 284" d="M275.5,213.835l-1.109,1.807c-.135.3-.844-.012-.709-.315l1.109-2.04C275,213.014,275.713,213.562,275.5,213.835Z" transform="translate(-258.616 -210.506)" fill="#e2e2e2"/>
            <path id="Path_285" data-name="Path 285" d="M279.294,216.07l-1.122,1.816c-.12.256-.815-.068-.7-.324l1.109-2.04C278.8,215.249,279.5,215.8,279.294,216.07Z" transform="translate(-260.872 -211.835)" fill="#e2e2e2"/>
            <path id="Path_286" data-name="Path 286" d="M266.5,214.312a.4.4,0,0,1,.8.033l-.319,3.027c0,.437-.458.437-.459,0Z" transform="translate(-254.354 -210.947)" fill="#e2e2e2"/>
            <path id="Path_287" data-name="Path 287" d="M259.6,225.064a3.332,3.332,0,0,1,1.665-1.961c1.452-.684,4.9.609,6.809-.45a20.13,20.13,0,0,0,2.008-1.6" transform="translate(-250.249 -215.17)" fill="none" stroke="#efe9da" stroke-miterlimit="10" stroke-width="1.157"/>
            <path id="Path_288" data-name="Path 288" d="M239.863,216.19a9.5,9.5,0,0,1,3,2.126,16.757,16.757,0,0,1,1.026,3.473" transform="translate(-238.515 -212.276)" fill="none" stroke="#efe9da" stroke-miterlimit="10" stroke-width="1.157"/>
          </g>
        </g>
      </g>
      <g id="Group_130" data-name="Group 130" transform="translate(93.887 28.864)">
        <path id="Path_289" data-name="Path 289" d="M467.653,234.862c0,.506-6.054.916-13.523.916s-13.523-.41-13.523-.916,6.054-.917,13.523-.917S467.653,234.355,467.653,234.862Z" transform="translate(-440.608 -222.834)" fill="#a1abad" opacity="0.7" style="mix-blend-mode: multiply;isolation: isolate"/>
        <g id="Group_129" data-name="Group 129" transform="translate(0.313)">
          <g id="Group_128" data-name="Group 128">
            <path id="Path_290" data-name="Path 290" d="M447.412,212.262s.271-.684,2.638.214c1.284.487,2.958,1.664,6.215.244,0,0,.992,3.293-3.158,3.005A6.908,6.908,0,0,1,447.412,212.262Z" transform="translate(-444.967 -209.792)" fill="#3c8460"/>
            <path id="Path_291" data-name="Path 291" d="M466.911,225.177l.961.253c.546.29.517,1.743.067,2.192,0,0-3.882,2.27-15.25,2.462-6.539-.126-10.91-1.244-11.111-1.688a5.86,5.86,0,0,1-.18-2.14l1.233-1.436Z" transform="translate(-441.379 -217.408)" fill="#e2e2e2"/>
            <path id="Path_292" data-name="Path 292" d="M444.786,209a5.35,5.35,0,0,0-1.433,2.242,11.976,11.976,0,0,0-.307,3.646,30.469,30.469,0,0,0,9.83,1.509,63.356,63.356,0,0,0,10.564-.715c2.709-.483,5.393-1.13,5.393-1.13-.782-2.738-3.148-1.721-6.519-2.789-2.294-.726-7.755-5.233-7.755-5.233s-1.266.94-1.334,1.422c-.043.3.559,1.1.559,1.1a2.937,2.937,0,0,1-2.735,2.76C448.534,211.981,444.786,209,444.786,209Z" transform="translate(-442.341 -206.535)" fill="#71bf9d"/>
            <path id="Path_293" data-name="Path 293" d="M467.9,226.325a14.8,14.8,0,0,1-5.015,1.958,58.329,58.329,0,0,1-11.109.669,75.691,75.691,0,0,1-10.351-1.8" transform="translate(-441.405 -218.303)" fill="none"/>
            <path id="Path_294" data-name="Path 294" d="M469.607,212.75a8.582,8.582,0,0,1,1.772.167c1.091.381,4.25,2.9,6.616,3.2" transform="translate(-458.165 -210.231)" fill="none" stroke="#efe9da" stroke-miterlimit="10" stroke-width="1.157"/>
            <path id="Path_295" data-name="Path 295" d="M476.744,211.6l-1.055,1.7c-.145.2-.776-.253-.632-.454l.977-1.8C476.246,210.779,476.955,211.328,476.744,211.6Z" transform="translate(-461.393 -209.177)" fill="#e2e2e2"/>
            <path id="Path_296" data-name="Path 296" d="M480.345,213.835l-1.109,1.807c-.135.3-.844-.012-.709-.315l1.108-2.04C479.846,213.014,480.556,213.562,480.345,213.835Z" transform="translate(-463.459 -210.506)" fill="#e2e2e2"/>
            <path id="Path_297" data-name="Path 297" d="M484.136,216.07l-1.122,1.816c-.12.256-.815-.068-.7-.324l1.109-2.04C483.637,215.249,484.347,215.8,484.136,216.07Z" transform="translate(-465.715 -211.835)" fill="#e2e2e2"/>
            <path id="Path_298" data-name="Path 298" d="M471.343,214.312a.4.4,0,0,1,.8.033l-.319,3.027c0,.437-.459.437-.459,0Z" transform="translate(-459.197 -210.947)" fill="#e2e2e2"/>
            <path id="Path_299" data-name="Path 299" d="M464.439,225.064A3.332,3.332,0,0,1,466.1,223.1c1.452-.684,4.9.609,6.809-.45a20.149,20.149,0,0,0,2.009-1.6" transform="translate(-455.091 -215.17)" fill="none" stroke="#efe9da" stroke-miterlimit="10" stroke-width="1.157"/>
            <path id="Path_300" data-name="Path 300" d="M444.7,216.19a9.5,9.5,0,0,1,3,2.126,16.778,16.778,0,0,1,1.026,3.473" transform="translate(-443.357 -212.276)" fill="none" stroke="#efe9da" stroke-miterlimit="10" stroke-width="1.157"/>
          </g>
        </g>
      </g>
      <g id="Group_131" data-name="Group 131" transform="translate(50.075 22.148)">
        <path id="Path_301" data-name="Path 301" d="M334.047,196.023v.042c0,.21-.052.3-.173.3H332.7c-.121,0-.172-.09-.172-.3v-.042c0-.21.051-.3.172-.3h1.174C334,195.723,334.047,195.813,334.047,196.023Z" transform="translate(-332.529 -193.389)" fill="#764582"/>
        <path id="Path_302" data-name="Path 302" d="M340.459,190.974c0,.834-.46,1.008-.863,1.008s-.863-.174-.863-1.008.461-1.008.863-1.008S340.459,190.14,340.459,190.974Zm-1.139,0c0,.234.052.516.276.516s.27-.282.27-.516-.046-.492-.27-.492S339.32,190.74,339.32,190.974Zm2.743-.888a.248.248,0,0,1-.028.084l-2.054,3.887a.27.27,0,0,1-.253.168h-.253c-.08,0-.121-.036-.121-.078a.229.229,0,0,1,.029-.09l2.054-3.887a.27.27,0,0,1,.253-.168h.253C342.024,190,342.063,190.038,342.063,190.086Zm.621,3.168c0,.834-.46,1.008-.863,1.008s-.863-.174-.863-1.008.46-1.008.863-1.008S342.685,192.42,342.685,193.254Zm-1.139,0c0,.234.051.516.276.516s.27-.282.27-.516-.046-.492-.27-.492S341.546,193.019,341.546,193.254Z" transform="translate(-336.218 -189.966)" fill="#764582"/>
      </g>
      <g id="Group_133" data-name="Group 133" transform="translate(54.33 43.229)">
        <g id="Group_132" data-name="Group 132" transform="translate(19.511)">
          <path id="Path_303" data-name="Path 303" d="M393.513,244.6v.4c.564.01,1.563.237,1.563.564,0,.148-.218.524-.317.524a3.332,3.332,0,0,0-1.246-.376v2.3c.88.317,1.889.673,1.889,2.037a1.869,1.869,0,0,1-1.889,1.939v.495c0,.109-.059.158-.2.158s-.2-.049-.2-.158V252c-1.118-.03-1.958-.455-1.958-.722,0-.158.238-.534.346-.534a3.565,3.565,0,0,0,1.612.544v-2.552c-.87-.336-1.83-.683-1.83-1.958a1.8,1.8,0,0,1,1.83-1.76V244.6c0-.109.06-.158.2-.158S393.513,244.488,393.513,244.6Zm-1.325,2.215c0,.564.405.831.93,1.049v-2.127A1.022,1.022,0,0,0,392.188,246.813Zm1.325,4.441a1.175,1.175,0,0,0,.989-1.207c0-.623-.445-.92-.989-1.157Z" transform="translate(-391.159 -244.439)" fill="#fd6141"/>
        </g>
        <rect id="Rectangle_14" data-name="Rectangle 14" width="19.006" height="3.425" rx="1.713" transform="translate(0 4.451)" fill="#fd6141"/>
      </g>
    </g>
    <path id="Path_444" data-name="Path 444" d="M433.057,258.44" transform="translate(-182.564 -1304.647)" fill="#ffb072"/>
    <g id="Group_689" data-name="Group 689" transform="matrix(-1, -0.017, 0.017, -1, 364.701, -943.382)">
      <g id="Group_611" data-name="Group 611" transform="translate(20.172 170.877)">
        <g id="Group_610" data-name="Group 610" transform="translate(0 0)">
          <g id="Group_609" data-name="Group 609">
            <g id="Group_608" data-name="Group 608">
              <g id="Group_607" data-name="Group 607">
                <path id="Path_845" data-name="Path 845" d="M18.336,50.333s7.13-3.488,5.367-12.976S21.16,26.59,23.132,22.883,27.431,3.36,25.656.363,3.688,13.536.888,27.1,2.662,46.7,4.28,48.953,12.041,53.528,18.336,50.333Z" transform="translate(0 0)" fill="#002856"/>
              </g>
            </g>
          </g>
        </g>
      </g>
      <g id="Group_612" data-name="Group 612" transform="translate(34.146 2.469)">
        <path id="Path_846" data-name="Path 846" d="M1.672.546H3.288V6.163A39.227,39.227,0,0,0,8.446,1.128C9.072.369,12.771-.148,16.935.038s4.106,1.327,4,2.83c-.163,2.386-4.6,3.108-5.967,3.481S10.5,12.07,9.5,13.372a17.849,17.849,0,0,0-2.082,3.481s-.777,3.17-4.631,0S.056,7.592.491,7.033,1.672.546,1.672.546Z" transform="translate(0 0)" fill="#163342"/>
      </g>
      <g id="Group_613" data-name="Group 613" transform="translate(36.06 8.403)">
        <path id="Path_847" data-name="Path 847" d="M7.9.414c1.429-.932,5.158,0,5.158,0C12,1.782,5.506,10.918,5.506,10.918,1.56,13.218,0,10.053,0,10.053,1.61,9.561,6.47,1.347,7.9.414Z" transform="translate(0 0)" fill="#eea886"/>
      </g>
      <g id="Group_617" data-name="Group 617" transform="translate(85.311 141.921)">
        <g id="Group_616" data-name="Group 616" transform="translate(0 0)">
          <g id="Group_615" data-name="Group 615">
            <g id="Group_614" data-name="Group 614">
              <path id="Path_848" data-name="Path 848" d="M.206,7.494s2.587-.5,3.471.72a8.45,8.45,0,0,0,3,2.073c.707.328,2.5,2.143,2.925,1.256S6.785,8.408,6.2,7.8s3.174-.875,3.823-1.466S9.874-.456,7.316.027,2.343,2.714,1.876,2.71A15.985,15.985,0,0,0,0,2.988Z" transform="translate(0 0)" fill="#eea886"/>
            </g>
          </g>
        </g>
      </g>
      <g id="Group_621" data-name="Group 621" transform="translate(92.749 139.115)">
        <g id="Group_620" data-name="Group 620" transform="translate(0 0)">
          <g id="Group_619" data-name="Group 619">
            <g id="Group_618" data-name="Group 618">
              <path id="Path_849" data-name="Path 849" d="M2.014,9.4s7.735-2,8.139-2.563.271-.977-.46-.821S2.164,7.726,2.164,7.726s8.757-3.9,9.19-4.294c.253-.229.043-1.043-.356-1s-9.3,3.42-9.3,3.42,8.17-3.66,8.435-4.094A.616.616,0,0,0,9.358.914c-.625.23-8.4,3.2-8.4,3.2S6.737,1.075,6.744.576C6.748.271,6.6-.442,5.132.389S0,2.815,0,2.815Z" transform="translate(0 0)" fill="#eea886"/>
            </g>
          </g>
        </g>
      </g>
      <g id="Group_622" data-name="Group 622" transform="translate(14.424 0)">
        <path id="Path_850" data-name="Path 850" d="M.455,2.8h.994V6.083A39.989,39.989,0,0,1,5.481,1.418c1-.88,2.245-1.527,6.658-1.4s4.077,1.7,4.1,2.711c.045,1.884-4.1,3.978-4.1,3.978C10.461,8.2,6.3,14.38,6.3,14.38a5.82,5.82,0,0,1-4.77-.978C-.57,11.708.082,7.885.144,6.891S.455,2.8.455,2.8Z" transform="translate(0 0)" fill="#163342"/>
      </g>
      <g id="Group_623" data-name="Group 623" transform="translate(8.876 12.781)">
        <path id="Path_851" data-name="Path 851" d="M9.049,120.962s-5.258-6.837-6.685-14.947.842-35.333.78-39.342S-.647,52.688.1,45.136,3.788,0,3.788,0l8.058,1.6s-.466,38.317,0,41.487,1.4,14.724,1.588,16.029S25.27,94.692,25.27,100.539,21.728,130.5,9.049,120.962Z" transform="translate(0)" fill="url(#linear-gradient-9)"/>
      </g>
      <g id="Group_624" data-name="Group 624" transform="translate(26.259 19.061)">
        <path id="Path_852" data-name="Path 852" d="M18.08,112.01s8.639-32.972,9.664-37.54,2.511-8.336,2.511-10.275c0-4.5-1.672-11.727-1.672-11.727L17.614,0H7.165s5.821,31.477,5.978,37.633,4.906,14.928,3.974,17.539S2.107,87.895,2.107,87.895-8.552,121.581,18.08,112.01Z" transform="translate(0)" fill="url(#linear-gradient-9)"/>
      </g>
      <g id="Group_625" data-name="Group 625" transform="translate(15.951 6.256)">
        <path id="Path_853" data-name="Path 853" d="M10.612.448,4.77,8.124,0,7.145a26.545,26.545,0,0,1,3.6-6.02C5.306-.92,10.612.448,10.612.448Z" transform="translate(0 0)" fill="#eea886"/>
      </g>
      <g id="Group_627" data-name="Group 627" transform="translate(37.634 143.855)">
        <g id="Group_626" data-name="Group 626" transform="translate(0 0)">
          <path id="Path_854" data-name="Path 854" d="M3.137,43.247A10.78,10.78,0,0,0,9.39,40.028a41.27,41.27,0,0,0,5.922-9.02c.7-1.538,10.586-15.79,11.1-16.111s5.479-1.98,8.77-3.087C40.259,10.1,50.438,6.4,50.438,6.4L48.417,0S29.275,6.264,24.481,7.445C18.619,8.889,5.124,26.2,5.124,26.2S-4.937,37.992,3.137,43.247Z" transform="translate(0)" fill="url(#linear-gradient-11)"/>
        </g>
      </g>
      <g id="Group_629" data-name="Group 629" transform="translate(9.826 119.14)">
        <g id="Group_628" data-name="Group 628" transform="translate(0 0)">
          <path id="Path_855" data-name="Path 855" d="M24.729,70.461a48.293,48.293,0,0,1,6.216-2.5c1.6-.32,7.818-8.394,8.907-11.342s0-7.369-2.243-12.559-.128-6.92-1.153-12.111-.7-24.608-.5-27.492S5.959-2.8,0,2.458c0,0,4.034,17.5,8.811,22.494,1.033,1.08.924,8.278.219,10.073S.379,50.212.379,50.212-.2,63.8,3.262,66.488c3.012,2.339,11.22,3.173,12.694,3.685A25.175,25.175,0,0,0,24.729,70.461Z" transform="translate(0 0)" fill="#ebebeb"/>
        </g>
      </g>
      <g id="Group_631" data-name="Group 631" transform="translate(25.783 182.598)">
        <g id="Group_630" data-name="Group 630" transform="translate(0 0)">
          <path id="Path_856" data-name="Path 856" d="M10.975,12.327s-.138-1.27-.3-2.987c-.061-.68-.129-1.429-.19-2.2a51.813,51.813,0,0,1-.242-6.035S5.451-3.7,0,6.714A14.307,14.307,0,0,1,.566,16.853C-1.16,22.7,10.975,12.327,10.975,12.327Z" transform="translate(0 0)" fill="#eea886"/>
        </g>
      </g>
      <g id="Group_632" data-name="Group 632" transform="translate(47.903 161.287)">
        <path id="Path_857" data-name="Path 857" d="M2.274,0S3.428,7.676,2.2,12.344A29.81,29.81,0,0,0,0,2.63Z" transform="translate(0)" fill="#183c59"/>
      </g>
      <g id="Group_633" data-name="Group 633" transform="translate(22.099 179.513)">
        <path id="Path_858" data-name="Path 858" d="M0,9.062S3.3-.679,12.352.038s4.292,8.225,4.292,8.225a20,20,0,0,1-2.892,1.416c-.635.122-10.011.241-10.011.241Z" transform="translate(0 0)" fill="#eea886"/>
      </g>
      <g id="Group_634" data-name="Group 634" transform="translate(38.744 91.111)">
        <path id="Path_859" data-name="Path 859" d="M0,96.664S4.742,83.545,4.742,70.175s.382-35.15,2.038-42.027S13.148,0,13.148,0l3.694,1.91S7.96,35.857,7.289,38.3,7.8,66.612,8.436,68.777s3.346,11.8,2.924,14.477c-.531,3.371-3.685,8.359-8.78,12.647Z" transform="translate(0 0)" fill="url(#linear-gradient-11)"/>
      </g>
      <g id="Group_635" data-name="Group 635" transform="translate(3.875 86.526)">
        <path id="Path_860" data-name="Path 860" d="M20.013,102.458a136.394,136.394,0,0,0,4.441-21.526C25.948,68.845,19.869,12.737,15.793,0L0,2.547s3.4,39.66,8.015,46.877,6.084,13.6,1.1,28.667S11.3,100.617,11.3,100.617,18.628,102.3,20.013,102.458Z" transform="translate(0 0)" fill="url(#linear-gradient-11)"/>
      </g>
      <g id="Group_641" data-name="Group 641" transform="translate(22.651 126.932)">
        <g id="Group_640" data-name="Group 640" transform="translate(0 0)">
          <g id="Group_639" data-name="Group 639">
            <g id="Group_638" data-name="Group 638">
              <g id="Group_637" data-name="Group 637">
                <g id="Group_636" data-name="Group 636">
                  <path id="Path_861" data-name="Path 861" d="M8.781,0A3.963,3.963,0,0,0,7.528.18S6.859.568,6.367.815A3.71,3.71,0,0,1,5.98.99a7.25,7.25,0,0,0-2.135.9A48.6,48.6,0,0,0,0,5.952L1.416,8.1,2.455,10.31S8.75,9.9,9.6,9.448A2.427,2.427,0,0,0,9.838,9.3,9.241,9.241,0,0,0,11.17,7.942c.121-.1,1.256-1.215,1.217-1.688a1.551,1.551,0,0,0-.754-1.306,3.709,3.709,0,0,0-.794-1.879A2.305,2.305,0,0,0,9.729,1.364S9.48.172,8.781,0Z" transform="translate(0 0)" fill="#eea886"/>
                </g>
              </g>
            </g>
          </g>
        </g>
      </g>
      <g id="Group_643" data-name="Group 643" transform="translate(0 129.416)">
        <g id="Group_642" data-name="Group 642" transform="translate(0 0)">
          <path id="Path_862" data-name="Path 862" d="M18.455,57.686s-5.815,1.666-9.147-4.742A29.24,29.24,0,0,1,5.547,40.673c-.42-2.954-2.319-11.021-2.511-11.854S-1.455,18.052.516,14.58C2.5,11.09,22.625.818,22.5.049s3.486,7.767,3.486,7.767-8.144,4.539-9.478,5.937c-2.167,2.271-6.738,4.716-5.8,7.533,1.1,3.308,4.416,14.47,5.185,16.1S23.357,55.6,18.455,57.686Z" transform="translate(0 0)" fill="url(#linear-gradient-11)"/>
        </g>
      </g>
      <g id="Group_648" data-name="Group 648" transform="translate(23.819 191.889)">
        <g id="Group_647" data-name="Group 647" transform="translate(0 0)">
          <g id="Group_646" data-name="Group 646">
            <g id="Group_645" data-name="Group 645">
              <g id="Group_644" data-name="Group 644">
                <path id="Path_863" data-name="Path 863" d="M13.655,28.269s10.353-3.254,4.733-21.12S-1.371,9.22.108,20.105,13.655,28.269,13.655,28.269Z" transform="translate(0 0)" fill="#eea987"/>
              </g>
            </g>
          </g>
        </g>
      </g>
      <g id="Group_653" data-name="Group 653" transform="translate(23.003 198.652)">
        <g id="Group_652" data-name="Group 652" transform="translate(0 0)">
          <g id="Group_651" data-name="Group 651">
            <g id="Group_650" data-name="Group 650">
              <g id="Group_649" data-name="Group 649">
                <path id="Path_864" data-name="Path 864" d="M20.262,11.081A23.356,23.356,0,0,0,6.509,5.4S3.2,1.522,2.946,0c0,0-7.681,13.092,1.761,20.941S23.733,14.315,20.262,11.081Z" transform="translate(0)" fill="#002856"/>
              </g>
            </g>
          </g>
        </g>
      </g>
      <g id="Group_658" data-name="Group 658" transform="translate(26.023 200.629)">
        <g id="Group_657" data-name="Group 657" transform="translate(0 0)">
          <g id="Group_656" data-name="Group 656">
            <g id="Group_655" data-name="Group 655">
              <g id="Group_654" data-name="Group 654">
                <path id="Path_865" data-name="Path 865" d="M3.592,3.069c-.067,1.3-.868,4.259-2.8,3.431S.91-.354,2.192.016C2.192.016,3.75-.007,3.592,3.069Z" transform="translate(0 0)" fill="#eea987"/>
              </g>
            </g>
          </g>
        </g>
      </g>
      <g id="Group_659" data-name="Group 659" transform="translate(28.648 189.741)">
        <path id="Path_866" data-name="Path 866" d="M7.814,2.2c-.061-.68-.129-1.429-.19-2.2C7.624,0,3.054.272,0,7.07.2,6.773,3.547,1.855,7.814,2.2Z" transform="translate(0)" fill="#a77860"/>
      </g>
    </g>
  </g>
</svg>
