<svg xmlns="http://www.w3.org/2000/svg" xmlns:xlink="http://www.w3.org/1999/xlink" width="250" height="250" viewBox="0 0 250 250">
  <defs>
    <linearGradient id="linear-gradient" x1="0.5" x2="0.5" y2="1" gradientUnits="objectBoundingBox">
      <stop offset="0" stop-color="#008da7"/>
      <stop offset="1" stop-color="#002856"/>
    </linearGradient>
    <linearGradient id="linear-gradient-2" x1="0.5" x2="0.5" y2="1" gradientUnits="objectBoundingBox">
      <stop offset="0" stop-color="#f0ae4b"/>
      <stop offset="1" stop-color="#df6445"/>
    </linearGradient>
    <linearGradient id="linear-gradient-8" x1="0.5" x2="0.5" y2="1" gradientUnits="objectBoundingBox">
      <stop offset="0" stop-color="#ff7a58"/>
      <stop offset="1" stop-color="#d81b60"/>
    </linearGradient>
  </defs>
  <g id="setup3" transform="translate(-1886 -448)">
    <circle id="Ellipse_22" data-name="Ellipse 22" cx="125" cy="125" r="125" transform="translate(1886 448)" fill="url(#linear-gradient)"/>
    <path id="Path_980" data-name="Path 980" d="M120,0A120,120,0,1,1,0,120,120,120,0,0,1,120,0Z" transform="translate(1891 453)" fill="#fff"/>
    <g id="Group_805" data-name="Group 805" transform="translate(1839.072 414.122)">
      <g id="Group_748" data-name="Group 748" transform="translate(226.617 129.432)">
        <g id="Group_744" data-name="Group 744" transform="translate(11.483 51.303)">
          <path id="Path_981" data-name="Path 981" d="M813.726,517.116l.522,12.118-1.531,20.6-2.292.163-2.784-18.713-3.852-15.835Z" transform="translate(-803.789 -515.452)" fill="url(#linear-gradient-2)"/>
          <path id="Path_982" data-name="Path 982" d="M835.481,679.412l2.566,1.063,1.151-1.327L837.871,678l-2.478.176Z" transform="translate(-828.763 -643.899)" fill="#292949"/>
        </g>
        <g id="Group_745" data-name="Group 745" transform="translate(4.694 47.737)">
          <path id="Path_983" data-name="Path 983" d="M771.931,499.4l-.5,9.159,1.492,27.235,2.295.115,3.439-17.862,3.033-19.588Z" transform="translate(-771.428 -498.453)" fill="url(#linear-gradient-2)"/>
          <path id="Path_984" data-name="Path 984" d="M775.165,676.447l-2.543,1.117-1.179-1.3,1.3-1.179,2.481.124Z" transform="translate(-771.44 -638.029)" fill="url(#linear-gradient-2)"/>
        </g>
        <g id="Group_746" data-name="Group 746" transform="translate(1.485 20.51)">
          <path id="Path_985" data-name="Path 985" d="M776.663,370.615l-6.932-1.952s-4-.245-8.243,8.631c-2.361,4.938-4.2,13.038-5.361,19.252.016.917.326,4.976,4.533,5.009,7.226.057,11.162-.444,14.129.642,2.513,1.009,2.9-2.621,3.078-5.411l.4-8.659Z" transform="translate(-756.128 -368.663)" fill="url(#linear-gradient)"/>
        </g>
        <g id="Group_747" data-name="Group 747" transform="translate(13.371 8.348)">
          <path id="Path_986" data-name="Path 986" d="M824.924,330.055a13.436,13.436,0,0,0-5.326-1.3,1.509,1.509,0,0,0-1.114.377,1.578,1.578,0,0,0-.238.4c-.733,1.595-1.722,3.976-.883,5.7a2.793,2.793,0,0,0,.673.85,3.968,3.968,0,0,0,1.229.739,7.156,7.156,0,0,1-.6,1.146c.3.683,2.191,1.079,2.642.549l.318-1.519a3.835,3.835,0,0,0,.723-.233,4.356,4.356,0,0,0,2.04-1.974c.506-.932,1.141-1.791,1.621-2.746a1.441,1.441,0,0,0,.2-1.117,1.536,1.536,0,0,0-.953-.74Z" transform="translate(-816.15 -324.96)" fill="#a0675c"/>
          <path id="Path_987" data-name="Path 987" d="M815.479,315.736a5.626,5.626,0,0,1,3.153-.237c2.47.6,3.075,2.6,2.819,4.917.837-.759,2.316-1.641,2.585-2.754a5.344,5.344,0,0,0-.076-3.074c-.357-.827-1.524-1.446-2.186-2l-1.872-1.573a1.066,1.066,0,0,0-1.019-.31l-5.128.438a1.061,1.061,0,0,0-.874.37,1.047,1.047,0,0,0-.086.586,24.509,24.509,0,0,1,.194,2.687c.015.517-.121,3.132.815,2.986a11.738,11.738,0,0,0,.74-1.32A2.063,2.063,0,0,1,815.479,315.736Z" transform="translate(-812.79 -310.688)" fill="#002856"/>
        </g>
        <path id="Path_988" data-name="Path 988" d="M764.138,368.666l-2.744.352-11.22,8.37-1.124,3.194,3.282,8.294,1.7-2.549-.987-5.886,3.428-1.637,5.64-8.5Z" transform="translate(-749.05 -348.155)" fill="url(#linear-gradient)"/>
        <path id="Path_989" data-name="Path 989" d="M846.393,306.565l5.741-4.421,1.263-14.4,2.291-.576.46,14.9-1.5,3.442-6.711,6.584Z" transform="translate(-825.973 -283.752)" fill="url(#linear-gradient)"/>
        <path id="Path_990" data-name="Path 990" d="M879.783,274.43l.22-1.3-1.163-2.236-1.181.742.373,1.875-.527.535.476.838Z" transform="translate(-850.559 -270.894)" fill="#a0675c"/>
      </g>
      <g id="Group_751" data-name="Group 751" transform="translate(102.351 124.717)">
        <rect id="Rectangle_92" data-name="Rectangle 92" width="134.973" height="85.145" transform="translate(0 6.637)" fill="#dddae8"/>
        <rect id="Rectangle_93" data-name="Rectangle 93" width="134.973" height="5.109" transform="translate(0 0)" fill="#002856"/>
        <rect id="Rectangle_94" data-name="Rectangle 94" width="134.973" height="6.706" transform="translate(0 5.109)" fill="url(#linear-gradient-8)"/>
        <rect id="Rectangle_95" data-name="Rectangle 95" width="114.786" height="2.863" transform="translate(13.975 7.57)" fill="#ececec"/>
        <g id="Group_749" data-name="Group 749" transform="translate(3.941 1.502)">
          <path id="Path_991" data-name="Path 991" d="M177.179,256.418a.854.854,0,1,1-.854-.84A.847.847,0,0,1,177.179,256.418Z" transform="translate(-175.471 -255.578)" fill="#8cabef"/>
          <path id="Path_992" data-name="Path 992" d="M189.1,256.418a.854.854,0,1,1-.854-.84A.848.848,0,0,1,189.1,256.418Z" transform="translate(-184.894 -255.578)" fill="#dddae8"/>
          <path id="Path_993" data-name="Path 993" d="M201.03,256.418a.854.854,0,1,1-.854-.84A.847.847,0,0,1,201.03,256.418Z" transform="translate(-194.319 -255.578)" fill="#d67086"/>
        </g>
        <g id="Group_750" data-name="Group 750" transform="translate(4.288 7.628)" opacity="0.36">
          <path id="Path_994" data-name="Path 994" d="M201.075,284.778v2.747l.994-1.374Z" transform="translate(-196.051 -284.778)" fill="#ececec"/>
          <path id="Path_995" data-name="Path 995" d="M178.118,287.525v-2.747l-.994,1.374Z" transform="translate(-177.124 -284.778)" fill="#ececec"/>
        </g>
      </g>
      <g id="Group_765" data-name="Group 765" transform="translate(87.928 146.542)">
        <g id="Group_763" data-name="Group 763" transform="translate(0 0)">
          <path id="Path_996" data-name="Path 996" d="M141.7,707.206l-.155,1.43,2.706,1.74,1.585-1.275-1.275-1.585-2.706-1.74Z" transform="translate(-130.297 -631.657)" fill="#252526"/>
          <path id="Path_997" data-name="Path 997" d="M172.644,705.551l-.155,1.43,2.706,1.74,1.585-1.275L175.5,705.86l-2.706-1.74Z" transform="translate(-154.75 -630.349)" fill="#252526"/>
          <g id="Group_761" data-name="Group 761" transform="translate(0 4.913)">
            <g id="Group_752" data-name="Group 752" transform="translate(6.317 33.944)">
              <path id="Path_998" data-name="Path 998" d="M118.043,546.719l2.884,12.811,1.773,15.084,3.311-.31,1.346-36.619-8.865.161Z" transform="translate(-118.043 -537.685)" fill="url(#linear-gradient)"/>
            </g>
            <g id="Group_754" data-name="Group 754" transform="translate(13.978 34.19)">
              <g id="Group_753" data-name="Group 753">
                <path id="Path_999" data-name="Path 999" d="M163.872,546.861l.372,12.436-2.473,15.933-3.451-.361-.474-16.467-2.461-11.286-.826-7.388,7.381-.871Z" transform="translate(-154.558 -538.857)" fill="url(#linear-gradient)"/>
              </g>
            </g>
            <g id="Group_755" data-name="Group 755" transform="translate(4.89 8.55)">
              <path id="Path_1000" data-name="Path 1000" d="M123.8,416.823l-7.952-.19-4.61,8.574,1.639,8.031.292,9.611,11.343.155,3.732-.606-.991-10.269.568-13.718Z" transform="translate(-111.239 -416.633)" fill="url(#linear-gradient-8)"/>
            </g>
            <g id="Group_756" data-name="Group 756" transform="translate(8.691 28.086)">
              <path id="Path_1001" data-name="Path 1001" d="M129.4,510.846l-.043,1.341,2.367.862,1.364-1.034v-1.561l-1.317-.073-.041-.343-.431-.277Z" transform="translate(-129.356 -509.76)" fill="#e1cfb5"/>
            </g>
            <g id="Group_757" data-name="Group 757" transform="translate(0 9.141)">
              <path id="Path_1002" data-name="Path 1002" d="M97.165,419.452l-8.807,10.131-.43,4.438,8.687,6.857,1.558-2.255-5.618-6L98,427.3Z" transform="translate(-87.928 -419.452)" fill="url(#linear-gradient-8)"/>
            </g>
            <g id="Group_758" data-name="Group 758" transform="translate(17.739 10.329)">
              <path id="Path_1003" data-name="Path 1003" d="M172.49,428.718l4.142,8.28,4.466.888,8.942-1.367-1.1-2.8h-8.2l-4.63-8.61Z" transform="translate(-172.49 -425.111)" fill="url(#linear-gradient-8)"/>
            </g>
            <g id="Group_760" data-name="Group 760" transform="translate(10.069)">
              <g id="Group_759" data-name="Group 759">
                <path id="Path_1004" data-name="Path 1004" d="M142.813,377.953c-1.2-3.485-5.8-2.179-6.748.924a4.549,4.549,0,0,0,3.042,5.233,2.026,2.026,0,0,1,.016.217,6.8,6.8,0,0,0,.09.97,10.57,10.57,0,0,0,2.058-.272.278.278,0,0,0,.19-.094c.074-.115-.046-.455-.06-.583q-.024-.227-.048-.454a3.621,3.621,0,0,0,1.87-2.676A6.723,6.723,0,0,0,142.813,377.953Z" transform="translate(-135.928 -375.875)" fill="#eac2a7"/>
              </g>
            </g>
          </g>
          <g id="Group_762" data-name="Group 762" transform="translate(11.853 13.463)">
            <path id="Path_1005" data-name="Path 1005" d="M144.429,416.777l2.467,3.487,1.16-.095,1.933-3.536Z" transform="translate(-144.429 -416.633)" fill="#ececec"/>
          </g>
          <path id="Path_1006" data-name="Path 1006" d="M136.929,356.969a6.087,6.087,0,0,1,.454-.68,11.82,11.82,0,0,0,1.1-1.381,1.532,1.532,0,0,0,.012-1.666,1.826,1.826,0,0,0-.983-.541,7.064,7.064,0,0,0-3.717.006c-1.151.318-2.177.826-3.35.415a3.924,3.924,0,0,0-3.025.227c-1.229.467-2.888.6-4,1.25a3.305,3.305,0,0,0-1.11,1.139,4.981,4.981,0,0,0,.092,5.267,7.105,7.105,0,0,0,.795.961,5.337,5.337,0,0,0,2.119,1.608c0-.719-.7-2.972-.155-3.572.857-.952,2.844-.666,3.935-.458,1.19.227,2.263,1.045,3.442,1.2a4.43,4.43,0,0,0,2.629-.776C136.046,359.414,136.427,357.832,136.929,356.969Z" transform="translate(-114.541 -352.456)" fill="#292949"/>
        </g>
        <g id="Group_764" data-name="Group 764" transform="translate(9.182 17.432)">
          <path id="Path_1007" data-name="Path 1007" d="M138.129,489.626l-6.432-5.964,18.154-5.771,7.008,6.021Z" transform="translate(-131.697 -469.009)" fill="#002856"/>
          <path id="Path_1008" data-name="Path 1008" d="M162.357,456.17l18.73-5.714v-14.9l-18.73,5.714Z" transform="translate(-155.925 -435.553)" fill="#f7f7f7"/>
        </g>
      </g>
      <g id="Group_772" data-name="Group 772" transform="translate(132.921 145.718)">
        <path id="Path_1009" data-name="Path 1009" d="M373.37,418.783l4.948,6.171,6.517-3.769,2.5,2.026-5.144,6.527-4.169,3.364-5.985-7.71Z" transform="translate(-357.429 -404.046)" fill="url(#linear-gradient)"/>
        <g id="Group_771" data-name="Group 771">
          <g id="Group_768" data-name="Group 768" transform="translate(2.748 33.045)">
            <g id="Group_766" data-name="Group 766" transform="translate(7.102)">
              <path id="Path_1010" data-name="Path 1010" d="M360.651,507.715l.213,18.461L358.9,549.94h-2.675l-3.2-21.925-3.66-21.963Z" transform="translate(-349.36 -506.052)" fill="#292949"/>
              <path id="Path_1011" data-name="Path 1011" d="M382.142,715.193l2.893,1.446,1.446-1.446-1.446-1.446h-2.893Z" transform="translate(-375.265 -670.176)" fill="#292949"/>
            </g>
            <g id="Group_767" data-name="Group 767">
              <path id="Path_1012" data-name="Path 1012" d="M315.557,507.715l-.053,10.68,1.8,31.545h2.675l4.475-20.933,2.389-22.955Z" transform="translate(-315.504 -506.052)" fill="#292949"/>
              <path id="Path_1013" data-name="Path 1013" d="M320.437,715.193l-2.893,1.446-1.446-1.446,1.446-1.446h2.893Z" transform="translate(-315.974 -670.176)" fill="#292949"/>
            </g>
          </g>
          <path id="Path_1014" data-name="Path 1014" d="M302.423,437.537c-.057,1.695-.021,3.961.693,4.046a.7.7,0,0,0,.38-.1c1.241-.6,2.125-1.455,3.348-2.037a15.114,15.114,0,0,1,4.162-1.15,43.3,43.3,0,0,1,6.419-.562c1.837-.016,3.747.822,5.483,1.282a6.059,6.059,0,0,1,1.767,1.046c.82.564,1.18.788,1.068-.365-.183-1.881-.372-3.762-.6-5.637a69.581,69.581,0,0,0-2.153-11.1c-.406-1.383-.875-2.748-1.343-4.112l-1.711-4.982a6.234,6.234,0,0,0-4-4.24,7.819,7.819,0,0,0-5.82.079c-1.957.971-2.888,4.279-3.839,6.046a37.687,37.687,0,0,0-2.2,7.444c-.375,2.01-.722,4.011-1,6.006a61.53,61.53,0,0,0-.577,6.6C302.5,436.051,302.451,436.728,302.423,437.537Z" transform="translate(-302.405 -396.399)" fill="url(#linear-gradient)"/>
          <path id="Path_1015" data-name="Path 1015" d="M330.7,413.365l3.615.034s3.879,13.556,4.022,15.892c.14,2.294,1.12,11.594,1.12,11.594s-4,.094-8.616.656c-4.509.965-4.888.394-4.888.394s2.434-9.775,2.514-12.583c.083-2.872.45-12.359.45-12.359Z" transform="translate(-321.012 -399.764)" fill="#fff"/>
          <g id="Group_770" data-name="Group 770" transform="translate(5.552)">
            <path id="Path_1016" data-name="Path 1016" d="M343.669,382.039a.423.423,0,0,1-.148.085.82.82,0,0,1-.352.01l-1.434-.17c.158-1.464-.7-1.8-1.532-2.737s-.585-2.242-.538-3.411a2.484,2.484,0,0,1,.167-.956,2.089,2.089,0,0,1,1.349-.974,5.085,5.085,0,0,1,4.212.463,2.229,2.229,0,0,1,.808.82,3.022,3.022,0,0,1,.127,1.762,5.941,5.941,0,0,1-.9,2.578c-.481.716-1.4,1.06-1.5,1.919A.973.973,0,0,1,343.669,382.039Z" transform="translate(-337.341 -368.368)" fill="#eac2a7"/>
            <g id="Group_769" data-name="Group 769">
              <path id="Path_1017" data-name="Path 1017" d="M370.639,376.653a2.506,2.506,0,0,0-.164,1.106,2.123,2.123,0,0,0,1.173-1.4,2.146,2.146,0,0,0,.138-.859,1.019,1.019,0,0,0-.38-.749.642.642,0,0,0-.989.277C370.325,375.445,370.761,376.1,370.639,376.653Z" transform="translate(-361.692 -369.151)" fill="#292949"/>
              <path id="Path_1018" data-name="Path 1018" d="M340.92,352.8a1.31,1.31,0,0,0-.576-1.1,2.663,2.663,0,0,1-.937-.784c-.16-.283-.184-.633-.343-.917a2.3,2.3,0,0,0-1.454-.84c-1.357-.436-2.088-.939-3.526-.381-1.022.4-2.343.45-3.292,1.029a3.323,3.323,0,0,0-1.01,1.063,6,6,0,0,0-.564,5.169,6.377,6.377,0,0,0,.507.979,3.929,3.929,0,0,0,1.458,1.676c.042-.29.258-.45.326-.736a2.255,2.255,0,0,0,.022-.632c-.041-.822-.293-2.121.527-2.529,1.038-.515,2.984-.05,3.984.386.884.386,2.377.888,3.32.475A3.521,3.521,0,0,0,340.92,352.8Z" transform="translate(-328.87 -348.531)" fill="#292949"/>
            </g>
          </g>
        </g>
      </g>
      <g id="Group_774" data-name="Group 774" transform="translate(130.267 164.132)">
        <g id="Group_773" data-name="Group 773" transform="translate(0)">
          <circle id="Ellipse_23" data-name="Ellipse 23" cx="31.13" cy="31.13" r="31.13" fill="url(#linear-gradient-8)"/>
          <path id="Path_1019" data-name="Path 1019" d="M368.366,482.775a24.6,24.6,0,1,0,1.928,9.546A24.439,24.439,0,0,0,368.366,482.775Zm-34.516,8.79a24.331,24.331,0,0,1,.652-5.623h10.034v11.665h-9.955A25.382,25.382,0,0,1,333.85,491.565Zm18.078-16.124a25.92,25.92,0,0,1,4.191,6.7c.186.438.357.882.516,1.329H347V470.893A28.412,28.412,0,0,1,351.928,475.441Zm-7.392-4.306v12.339H335.23q.229-.645.495-1.278a25.894,25.894,0,0,1,4.155-6.687A28.635,28.635,0,0,1,344.535,471.135Zm0,28.94v13.242a34.389,34.389,0,0,1-4.561-4.827,30.5,30.5,0,0,1-4.22-7.25q-.234-.58-.44-1.166ZM347,513.595V500.075h9.547q-.2.563-.421,1.12a30.461,30.461,0,0,1-4.188,7.232A34.315,34.315,0,0,1,347,513.595Zm0-15.987V485.942h10.36a24.319,24.319,0,0,1,.652,5.623,25.392,25.392,0,0,1-.731,6.042Zm12.89-11.665h7a22.3,22.3,0,0,1,.3,11.665H359.82a27.818,27.818,0,0,0,.664-6.042A26.849,26.849,0,0,0,359.894,485.942Zm1.472-9.217a22.045,22.045,0,0,1,4.62,6.749h-6.747q-.37-1.163-.848-2.293a28.377,28.377,0,0,0-4.587-7.344,31.329,31.329,0,0,0-2.91-2.975A21.914,21.914,0,0,1,361.366,476.725Zm-31.192,0a21.9,21.9,0,0,1,10.909-5.963,31.368,31.368,0,0,0-3.021,3.074,28.388,28.388,0,0,0-4.587,7.344q-.48,1.129-.848,2.293h-7.073A22.041,22.041,0,0,1,330.173,476.725Zm-5.528,9.217h7.326a26.849,26.849,0,0,0-.59,5.623,27.818,27.818,0,0,0,.664,6.042h-7.7a22.309,22.309,0,0,1,.3-11.665Zm5.528,21.975a21.988,21.988,0,0,1-5.063-7.842h7.6q.336,1.053.754,2.091A32.959,32.959,0,0,0,338.025,510a37.217,37.217,0,0,0,3.583,3.982A21.9,21.9,0,0,1,330.173,507.917Zm31.192,0a21.9,21.9,0,0,1-11.022,5.986,37.252,37.252,0,0,0,3.5-3.9,32.959,32.959,0,0,0,4.559-7.838q.419-1.037.753-2.091h7.277A21.99,21.99,0,0,1,361.366,507.917Z" transform="translate(-314.639 -461.191)" fill="#fff"/>
        </g>
      </g>
      <path id="Path_1020" data-name="Path 1020" d="M431.979,425.042l3.236-.475,2.237,2.477-1.359,1.213-2.212-1.027-1.071.508-1.841-1.034Z" transform="translate(-271.078 -262.897)" fill="#eac2a7"/>
      <g id="Group_799" data-name="Group 799" transform="translate(184.936 146.614)">
        <g id="Group_794" data-name="Group 794" transform="translate(6.408)">
          <g id="Group_792" data-name="Group 792">
            <g id="Group_777" data-name="Group 777" transform="translate(23.345 57.695)">
              <g id="Group_775" data-name="Group 775" transform="translate(0 16.114)">
                <path id="Path_1021" data-name="Path 1021" d="M693.209,705.02a.953.953,0,0,1,.862-.369.974.974,0,0,1,.724.545,1.852,1.852,0,0,1,.124.621c.09,1.093.082,3.689-1.374,4.063a1.084,1.084,0,0,1-1.282-.827A5.748,5.748,0,0,1,693.209,705.02Z" transform="translate(-692.188 -704.641)" fill="#002856"/>
              </g>
              <g id="Group_776" data-name="Group 776" transform="translate(0.503)">
                <path id="Path_1022" data-name="Path 1022" d="M694.586,627.829l.076,6.668c-.089,2.962.374,5.94.285,8.9a7.513,7.513,0,0,0-.026,2.075c.168.66.7.777,1.255.443.738-.448.619-1.494.742-2.258.338-2.1.734-4.185,1.086-6.28.173-1.027-.184-2.467-.106-3.506l1.077-5.589Z" transform="translate(-694.586 -627.829)" fill="#eac2a7"/>
              </g>
            </g>
            <g id="Group_778" data-name="Group 778" transform="translate(22.095 37.829)">
              <path id="Path_1023" data-name="Path 1023" d="M695.6,542.219l-2.9,12.892-.617,12.175-4.6-.1-1.251-34.056,8.921.162Z" transform="translate(-686.229 -533.127)" fill="url(#linear-gradient-2)"/>
            </g>
            <g id="Group_783" data-name="Group 783" transform="translate(14.011 38.076)">
              <g id="Group_781" data-name="Group 781" transform="translate(1.792 20.555)">
                <g id="Group_779" data-name="Group 779" transform="translate(0.816 14.977)">
                  <path id="Path_1024" data-name="Path 1024" d="M661.289,704.022a.935.935,0,0,1,.875-.319,1,1,0,0,1,.7.589,1.876,1.876,0,0,1,.1.629c.043,1.1-.076,3.7-1.543,3.985a1.1,1.1,0,0,1-1.242-.9A5.714,5.714,0,0,1,661.289,704.022Z" transform="translate(-660.124 -703.684)" fill="#002856"/>
                </g>
                <g id="Group_780" data-name="Group 780">
                  <path id="Path_1025" data-name="Path 1025" d="M660.64,632.291l-.391,6.658c-.032,1.85-.278,3.686-.47,5.524-.178,1.707.1,3.485-.793,5.038-.28.487-.845.811-1.24.219-.3-.456-.124-1.216-.182-1.733-.239-2.111-.536-4.215-.789-6.324-.124-1.034.3-2.455.271-3.5l-.813-5.633Z" transform="translate(-656.233 -632.291)" fill="#eac2a7"/>
                </g>
              </g>
              <g id="Group_782" data-name="Group 782">
                <path id="Path_1026" data-name="Path 1026" d="M648.067,542.363l-.375,12.515,1.964,12.656,4.681.14-.207-13.7,2.477-11.359.832-7.435-7.428-.876Z" transform="translate(-647.693 -534.307)" fill="url(#linear-gradient-2)"/>
              </g>
            </g>
            <g id="Group_784" data-name="Group 784" transform="translate(15.789 12.272)">
              <path id="Path_1027" data-name="Path 1027" d="M660.645,411.495l8-.191,4.64,8.629-1.649,8.082-.294,9.672-11.415.156-3.756-.61,1-10.335-.572-13.805Z" transform="translate(-656.173 -411.304)" fill="#f7f7f7"/>
            </g>
            <g id="Group_785" data-name="Group 785" transform="translate(22.095 12.868)">
              <path id="Path_1028" data-name="Path 1028" d="M692.663,414.14l6.5,9.894-.976,5.512-10.061,6.97-1.893-1.655,6.726-8.5-.261-5.373Z" transform="translate(-686.229 -414.14)" fill="#f7f7f7"/>
            </g>
            <g id="Group_786" data-name="Group 786" transform="translate(0 14.062)">
              <path id="Path_1029" data-name="Path 1029" d="M600.767,423.465,596.6,431.8l-4.494.893-11.2-4.889,1.932-2.191,10.212,1.869,4.071-7.645Z" transform="translate(-580.906 -419.836)" fill="#f7f7f7"/>
            </g>
            <g id="Group_791" data-name="Group 791" transform="translate(15.466)">
              <g id="Group_787" data-name="Group 787" transform="translate(4.819 3.668)">
                <path id="Path_1030" data-name="Path 1030" d="M678.079,372.377c1.206-3.508,5.837-2.193,6.791.93a4.578,4.578,0,0,1-3.061,5.266,2.017,2.017,0,0,0-.017.219,6.827,6.827,0,0,1-.09.976,10.657,10.657,0,0,1-2.071-.274.281.281,0,0,1-.191-.094c-.075-.116.047-.458.06-.587q.024-.228.048-.456a3.643,3.643,0,0,1-1.882-2.693A6.765,6.765,0,0,1,678.079,372.377Z" transform="translate(-677.602 -370.286)" fill="#eac2a7"/>
              </g>
              <g id="Group_790" data-name="Group 790">
                <g id="Group_788" data-name="Group 788" transform="translate(0 2.092)">
                  <path id="Path_1031" data-name="Path 1031" d="M662.946,363.271a1.839,1.839,0,0,1,.417.941,1.468,1.468,0,0,1,.036.61c-.172.8-.962.755-1.572,1.011A4.073,4.073,0,0,0,660,367.4c-.66,1.051-.363,2.4-.1,3.562.094.408.284,1.016-.033,1.38a1.36,1.36,0,0,1-1.451.123c-.352-.174-.642-.5-1.029-.561-.409-.069-.963.111-1.153-.264a2.555,2.555,0,0,0-.125-.328c-.226-.323-.789.055-1.108-.173a.622.622,0,0,1-.128-.676,1.61,1.61,0,0,0,.132-.717,2.357,2.357,0,0,0-.281-.558,1.1,1.1,0,0,1,.152-1.17c.5-.583,1.48-.473,2.02-1.021a2.375,2.375,0,0,0,.5-1.088,2.086,2.086,0,0,1,.532-1.066c.372-.327.908-.271,1.275-.659a7.493,7.493,0,0,1,.6-.722,4.844,4.844,0,0,1,1.338-.6A1.74,1.74,0,0,1,662.946,363.271Z" transform="translate(-654.629 -362.774)" fill="#292949"/>
                </g>
                <g id="Group_789" data-name="Group 789" transform="translate(6.291)">
                  <path id="Path_1032" data-name="Path 1032" d="M689.574,360.988c.022,1.154-.552,2.4-.02,3.419s1.874,1.21,3.015,1.264c.188.009,2.594.216,2.6.171a7.835,7.835,0,0,1,.787-2.33,2.566,2.566,0,0,1,1.928-1.341.494.494,0,0,1-.322-.564,3.828,3.828,0,0,1,.223-.686,1.616,1.616,0,0,0-.422-1.623c-.851-.793-2.395-.464-3.124-1.375-.453-.565-.4-1.385-.636-2.074-.459-1.334-1.919-1.613-3.011-2.215a5.23,5.23,0,0,0-3.567-.763,2.71,2.71,0,0,0-2.238,3.533c.815,2.026,4.076,1.851,4.686,3.908A2.549,2.549,0,0,1,689.574,360.988Z" transform="translate(-684.619 -352.801)" fill="#292949"/>
                </g>
              </g>
            </g>
          </g>
          <g id="Group_793" data-name="Group 793" transform="translate(20.302 12.272)">
            <path id="Path_1033" data-name="Path 1033" d="M683.277,411.449l-2.483,3.509-1.167-.1-1.945-3.559Z" transform="translate(-677.682 -411.304)" fill="#eac2a7"/>
          </g>
        </g>
        <g id="Group_797" data-name="Group 797" transform="translate(0 13.221)">
          <g id="Group_796" data-name="Group 796">
            <path id="Path_1034" data-name="Path 1034" d="M571.412,442.835a.784.784,0,0,1-.566-.235l-5.59-5.73-3.455,4.423a.7.7,0,0,1-.564.279.891.891,0,0,1-.806-.569L552.1,418.588a.729.729,0,0,1,.174-.8.7.7,0,0,1,.549-.27.794.794,0,0,1,.3.059l22.2,8.878a.839.839,0,0,1,.541.667.829.829,0,0,1-.349.774l-4.427,3.285,5.578,5.718a.83.83,0,0,1,.232.562.783.783,0,0,1-.235.58l-4.677,4.563a.831.831,0,0,1-.576.233Zm-6.236-8a.833.833,0,0,1,.589.237l5.669,5.811,3.521-3.435-5.658-5.8a.787.787,0,0,1-.23-.618.876.876,0,0,1,.361-.627l4.012-2.977-19.177-7.668,7.192,19.362,3.136-4.015A.733.733,0,0,1,565.175,434.84Z" transform="translate(-551.697 -417.161)" fill="#fff"/>
            <g id="Group_795" data-name="Group 795">
              <path id="Path_1035" data-name="Path 1035" d="M575.582,435.315l-5.295-5.427,2.285-1.7,1.816-1.348a1.168,1.168,0,0,0-.271-2.055l-3.043-1.217-4.5-1.8-6.626-2.65-5.3-2.119-1.364-.546-1.365-.546a1.145,1.145,0,0,0-.427-.085,1.043,1.043,0,0,0-.811.384,1.074,1.074,0,0,0-.244,1.167l2.708,7.291.122.329,1.211,3.261,3.261,8.779.512,1.378.512,1.377a1.256,1.256,0,0,0,1.138.8,1.065,1.065,0,0,0,.843-.415l1.852-2.371,1.353-1.732,1.5,1.542,3.037,3.114.382.392.382.392a1.134,1.134,0,0,0,.82.342,1.19,1.19,0,0,0,.824-.333l.338-.329,4.339-4.234a1.15,1.15,0,0,0,.342-.839A1.174,1.174,0,0,0,575.582,435.315Zm-.5,1.136-4.677,4.563a.473.473,0,0,1-.329.132.432.432,0,0,1-.312-.128l-.765-.784L563.887,435l-3.7,4.743a.352.352,0,0,1-.285.143.542.542,0,0,1-.474-.338L558.4,436.79l-4.473-12.041-2.831-7.62a.372.372,0,0,1,.1-.439.345.345,0,0,1,.287-.156.441.441,0,0,1,.164.034l2.729,1.091,11.926,4.769,7.547,3.018a.461.461,0,0,1,.112.828l-4.752,3.527.4.409,5.462,5.6A.461.461,0,0,1,575.078,436.451Z" transform="translate(-550.357 -415.826)" fill="#fff"/>
              <path id="Path_1036" data-name="Path 1036" d="M575.573,437.519a.462.462,0,0,1,.089-.713l4.521-3.355-1.931-.772-11.926-4.769-6.65-2.66.682,1.835,4.473,12.041,2.537,6.829,3.527-4.515a.38.38,0,0,1,.306-.134.479.479,0,0,1,.335.13l.765.784,5.152,5.281,4.028-3.93-.443-.454Zm4.127,6.8-2.237,2.182-1.324-1.357-3.333-3.416-.383-.392-.382-.392a1.179,1.179,0,0,0-.842-.344,1.083,1.083,0,0,0-.864.407l-1.763,2.257-.982,1.258-.793-2.135-1.3-3.5-.607-1.634-3.866-10.407-.125-.337,5.167,2.066,3.727,1.49,8.2,3.279.753.3-3.5,2.6a1.229,1.229,0,0,0-.5.883,1.135,1.135,0,0,0,.33.893l5.41,5.546Z" transform="translate(-557.72 -423.273)" fill="#fff"/>
            </g>
          </g>
          <path id="Path_1037" data-name="Path 1037" d="M555.965,421.453l8.326,22.416,3.992-5.11,6.227,6.383,2.339-2.282,2.339-2.282L572.96,434.2l5.207-3.864Z" transform="translate(-554.788 -420.273)" fill="#292949"/>
        </g>
        <g id="Group_798" data-name="Group 798" transform="translate(22.57 33.365)">
          <path id="Path_1038" data-name="Path 1038" d="M661.659,512.945l.043,1.35-2.383.867-1.373-1.04V512.55l1.326-.074.042-.346.434-.279Z" transform="translate(-657.946 -511.851)" fill="#e1cfb5"/>
        </g>
      </g>
      <g id="Group_802" data-name="Group 802" transform="translate(129.203 159.789)">
        <g id="Group_800" data-name="Group 800" transform="translate(10.902 21.914)">
          <path id="Path_1039" data-name="Path 1039" d="M337.488,520.069l-.837,1.06,1.4,2.113,1.723-.021.934-1.263-1.022-.847.172-.3-.183-.482Z" transform="translate(-336.651 -520.069)" fill="url(#linear-gradient)"/>
        </g>
        <g id="Group_801" data-name="Group 801" transform="translate(0)">
          <path id="Path_1040" data-name="Path 1040" d="M295.116,415.6,288.4,419.7l-3.717,6.98.976,5.512,10.061,6.97,1.893-1.655-6.726-8.5.261-5.373Z" transform="translate(-284.685 -415.604)" fill="url(#linear-gradient)"/>
        </g>
      </g>
      <g id="Group_803" data-name="Group 803" transform="translate(130.242 91.878)">
        <rect id="Rectangle_96" data-name="Rectangle 96" width="85.424" height="29.893" transform="translate(0 0)" fill="#002856"/>
        <path id="Path_1041" data-name="Path 1041" d="M539.271,220.368v15.273l13.408-15.273Z" transform="translate(-486.903 -193.414)" fill="#002856"/>
      </g>
      <g id="Group_804" data-name="Group 804" transform="translate(138.822 100.311)">
        <path id="Path_1042" data-name="Path 1042" d="M345.913,142.825l-3.376-9.9-2.166.008-3.381,9.789-3.3-9.764-3.159.012,5.081,14.129,2.484-.009,3.283-9.372,3.334,9.347,2.484-.009,4.974-14.167-2.961.011Z" transform="translate(-330.535 -132.716)" fill="#fff"/>
        <path id="Path_1043" data-name="Path 1043" d="M452.569,142.421l-3.376-9.9-2.166.008-3.381,9.789-3.3-9.764-3.16.012,5.081,14.129,2.484-.009,3.283-9.372,3.334,9.347,2.484-.009,4.974-14.167-2.961.011Z" transform="translate(-414.817 -132.397)" fill="#fff"/>
        <path id="Path_1044" data-name="Path 1044" d="M559.224,142.017l-3.376-9.9-2.166.008-3.381,9.789-3.3-9.764-3.16.012,5.081,14.129,2.484-.009,3.283-9.372,3.334,9.347,2.484-.009,4.974-14.167-2.961.011Z" transform="translate(-499.098 -132.078)" fill="#fff"/>
        <rect id="Rectangle_97" data-name="Rectangle 97" width="3.239" height="3.199" transform="translate(66.787 10.947) rotate(-0.218)" fill="#fff"/>
      </g>
    </g>
  </g>
</svg>
