<svg xmlns="http://www.w3.org/2000/svg" xmlns:xlink="http://www.w3.org/1999/xlink" width="250" height="250" viewBox="0 0 250 250">
  <defs>
    <linearGradient id="linear-gradient" x1="0.5" x2="0.5" y2="1" gradientUnits="objectBoundingBox">
      <stop offset="0" stop-color="#008da7"/>
      <stop offset="1" stop-color="#002856"/>
    </linearGradient>
    <linearGradient id="linear-gradient-2" x1="0.5" x2="0.5" y2="1" gradientUnits="objectBoundingBox">
      <stop offset="0" stop-color="#ff7a58"/>
      <stop offset="1" stop-color="#d81b60"/>
    </linearGradient>
    <clipPath id="clip-path">
      <path id="Path_968" data-name="Path 968" d="M0-162H98.689v84.306H0Z" transform="translate(0 162.001)" fill="url(#linear-gradient)"/>
    </clipPath>
    <clipPath id="clip-path-2">
      <rect id="Rectangle_89" data-name="Rectangle 89" width="98.689" height="9.87" fill="none"/>
    </clipPath>
    <clipPath id="clip-path-3">
      <path id="Path_964" data-name="Path 964" d="M98.689-14.031C98.689-11.306,76.6-9.1,49.344-9.1S0-11.306,0-14.031s22.093-4.935,49.344-4.935,49.345,2.21,49.345,4.935" transform="translate(0 18.966)" fill="none"/>
    </clipPath>
    <radialGradient id="radial-gradient" cx="-2.359" cy="360.399" r="57.77" gradientTransform="translate(13.475 469.108) scale(0.854 0.085)" gradientUnits="userSpaceOnUse">
      <stop offset="0" stop-color="#231f1f"/>
      <stop offset="0.1" stop-color="#545051"/>
      <stop offset="0.2" stop-color="#7e7b7c"/>
      <stop offset="0.3" stop-color="#a19fa0"/>
      <stop offset="0.4" stop-color="#bebdbd"/>
      <stop offset="0.5" stop-color="#d5d4d4"/>
      <stop offset="0.6" stop-color="#e6e5e6"/>
      <stop offset="0.7" stop-color="#f2f2f2"/>
      <stop offset="0.8" stop-color="#fafafa"/>
      <stop offset="0.9" stop-color="#fefefe"/>
      <stop offset="1" stop-color="#fff"/>
    </radialGradient>
    <clipPath id="clip-path-4">
      <path id="Path_970" data-name="Path 970" d="M32.3-125.11c7.068,11.244,13.493,50.437,13.493,50.437h27.95c-4.176-23.773,4.5-71.962,4.5-71.962h0C61.534-143.422,32.3-125.11,32.3-125.11" transform="translate(-32.299 146.635)" fill="url(#linear-gradient-2)"/>
    </clipPath>
    <linearGradient id="linear-gradient-7" x1="0.481" y1="0.478" x2="0.76" y2="0.478" xlink:href="#linear-gradient-2"/>
    <clipPath id="clip-path-5">
      <path id="Path_977" data-name="Path 977" d="M0-162H98.689v84.306H0Z" transform="translate(0 162.001)" fill="none"/>
    </clipPath>
    <clipPath id="clip-path-6">
      <rect id="Rectangle_90" data-name="Rectangle 90" width="5.462" height="61.36" fill="none"/>
    </clipPath>
    <clipPath id="clip-path-7">
      <rect id="Rectangle_91" data-name="Rectangle 91" width="41.442" height="53.863" fill="none"/>
    </clipPath>
    <clipPath id="clip-path-8">
      <path id="Path_976" data-name="Path 976" d="M38.114-111.857c-3.149,1.85-5.815,3.426-5.815,3.426,7.068,11.244,13.493,50.438,13.493,50.438H73.742L50.267-62.147a173.461,173.461,0,0,1-12.153-49.71" transform="translate(-32.299 111.857)" fill="none"/>
    </clipPath>
    <linearGradient id="linear-gradient-8" x1="0.515" y1="0.371" x2="0.767" y2="0.371" gradientUnits="objectBoundingBox">
      <stop offset="0" stop-color="#79c142"/>
      <stop offset="0.1" stop-color="#78bf42"/>
      <stop offset="0.2" stop-color="#77be42"/>
      <stop offset="0.3" stop-color="#75bc41"/>
      <stop offset="0.4" stop-color="#74bb41"/>
      <stop offset="0.5" stop-color="#72ba41"/>
      <stop offset="0.6" stop-color="#71b840"/>
      <stop offset="0.7" stop-color="#70b740"/>
      <stop offset="0.8" stop-color="#6eb53f"/>
      <stop offset="0.9" stop-color="#6db43f"/>
      <stop offset="1" stop-color="#6bb33f"/>
    </linearGradient>
    <radialGradient id="radial-gradient-2" cx="407.821" cy="418.605" r="1088.727" gradientTransform="translate(100.212 24.962) scale(0.1 0.01)" gradientUnits="userSpaceOnUse">
      <stop offset="0" stop-color="#231f20"/>
      <stop offset="0.009" stop-color="#272324"/>
      <stop offset="0.113" stop-color="#595657"/>
      <stop offset="0.221" stop-color="#858384"/>
      <stop offset="0.332" stop-color="#aba9aa"/>
      <stop offset="0.447" stop-color="#c9c8c8"/>
      <stop offset="0.567" stop-color="#e1e0e0"/>
      <stop offset="0.693" stop-color="#f1f1f1"/>
      <stop offset="0.83" stop-color="#fbfbfb"/>
      <stop offset="1" stop-color="#fff"/>
    </radialGradient>
  </defs>
  <g id="setup2" transform="translate(-1526 -448)">
    <circle id="Ellipse_21" data-name="Ellipse 21" cx="125" cy="125" r="125" transform="translate(1526 448)" fill="url(#linear-gradient)"/>
    <path id="Path_978" data-name="Path 978" d="M120,0A120,120,0,1,1,0,120,120,120,0,0,1,120,0Z" transform="translate(1531 453)" fill="#fff"/>
    <g id="Group_719" data-name="Group 719" transform="translate(1223.808 260.234)">
      <g id="Group_711" data-name="Group 711" transform="translate(352.805 260.006)">
        <g id="Group_710" data-name="Group 710" transform="translate(0 0)">
          <path id="Path_954" data-name="Path 954" d="M363.857,421.482,337.629,317.93c-.005-.019-.012-.035-.016-.055l-1.926-7.618a5.365,5.365,0,0,0-4.93-3.836H240.386a5.365,5.365,0,0,0-4.93,3.836l-1.937,7.655c0,.007,0,.012-.006.018L207.286,421.482c-1.6,6.33,2.428,11.507,8.957,11.507H354.9C361.429,432.99,365.461,427.812,363.857,421.482Z" transform="translate(-206.934 -306.421)" fill="#002856"/>
          <path id="Path_955" data-name="Path 955" d="M363.857,584.677l-.737-2.91c.058.413-.289,2.32-11.7,2.32H219.727c-11.415,0-11.762-1.907-11.7-2.32l-.737,2.911c-1.6,6.33,2.428,11.507,8.957,11.507H354.9C361.429,596.185,365.461,591.007,363.857,584.677Z" transform="translate(-206.934 -469.616)" fill="#002856"/>
          <rect id="Rectangle_86" data-name="Rectangle 86" width="18.846" height="2.327" rx="1.164" transform="translate(70.727 3.49)" fill="#58595b"/>
          <rect id="Rectangle_87" data-name="Rectangle 87" width="99.347" height="2.723" rx="1.361" transform="translate(6.512 118.659)" fill="#fff"/>
          <rect id="Rectangle_88" data-name="Rectangle 88" width="37.692" height="2.723" rx="1.361" transform="translate(110.978 118.659)" fill="#fff"/>
          <path id="Path_956" data-name="Path 956" d="M369.015,427.414H230.347l21.638-95.857h95.393Z" transform="translate(-220.811 -321.319)" fill="#fff"/>
          <path id="Path_957" data-name="Path 957" d="M384.455,388.3c0,9.573-15.573,17.334-34.783,17.334s-34.784-7.761-34.784-17.334,15.573-17.332,34.784-17.332S384.455,378.732,384.455,388.3Z" transform="translate(-270.918 -344.68)" fill="none" stroke="#8bc3cd" stroke-miterlimit="10" stroke-width="1.053"/>
          <path id="Path_958" data-name="Path 958" d="M349.785,369.827c-19.275,0-34.9,7.917-34.9,17.683s15.624,17.683,34.9,17.683,34.9-7.918,34.9-17.683S369.061,369.827,349.785,369.827Zm0,32.176c-15.8,0-28.607-6.488-28.607-14.493s12.807-14.494,28.607-14.494,28.607,6.488,28.607,14.494S365.584,402,349.785,402Z" transform="translate(-270.916 -344.001)" fill="url(#linear-gradient)"/>
        </g>
        <path id="Path_959" data-name="Path 959" d="M359.974,468.587H239.451l-9.1,40.043H369.015Z" transform="translate(-220.811 -402.535)" fill="#7ad3c6"/>
      </g>
      <g id="Group_720" data-name="Group 720" transform="translate(381.815 224.602)">
        <g id="Group_728" data-name="Group 728" transform="translate(0 0)" clip-path="url(#clip-path)">
          <g id="Group_724" data-name="Group 724" transform="translate(0 74.437)" style="mix-blend-mode: multiply;isolation: isolate">
            <g id="Group_723" data-name="Group 723" transform="translate(0 0)">
              <g id="Group_722" data-name="Group 722" clip-path="url(#clip-path-2)">
                <g id="Group_721" data-name="Group 721" transform="translate(0 0)" clip-path="url(#clip-path-3)">
                  <g id="Group_720-2" data-name="Group 720" transform="translate(0 -74.436)">
                    <path id="Path_963" data-name="Path 963" d="M-94.819-152.518H3.87v84.306H-94.819Z" transform="translate(94.819 152.518)" fill="url(#radial-gradient)"/>
                  </g>
                </g>
              </g>
            </g>
          </g>
          <g id="Group_725" data-name="Group 725" transform="translate(63.259 6.731)">
            <path id="Path_965" data-name="Path 965" d="M-13.2-25.858a1.286,1.286,0,0,1-.876-.346,1.285,1.285,0,0,1-.062-1.817c3.822-4.1,12.7-16.063,7.933-22.06a2.94,2.94,0,0,0-2.583-1.26c-5.306.3-13.611,11.754-16.364,16.146a1.284,1.284,0,0,1-1.772.406,1.288,1.288,0,0,1-.406-1.772c1.084-1.732,10.815-16.922,18.4-17.346a5.527,5.527,0,0,1,4.739,2.226c7.118,8.95-7.444,24.742-8.069,25.412a1.283,1.283,0,0,1-.939.409" transform="translate(27.529 53.916)" fill="#002856"/>
          </g>
          <g id="Group_726" data-name="Group 726" transform="translate(64.034 23.417)">
            <path id="Path_966" data-name="Path 966" d="M-9.77,0,.51,6.425S-13.946,43.691-12.661,56.542h-7.71S-17.159,11.244-9.77,0" transform="translate(20.371)" fill="url(#linear-gradient)"/>
          </g>
          <g id="Group_727" data-name="Group 727" transform="translate(56.487 7.996)">
            <path id="Path_967" data-name="Path 967" d="M-1.626-66.319H4.156s3.856-41.764,10.6-56.542L2.872-138.281s-10.281,37.909-4.5,71.962" transform="translate(3.391 138.281)" fill="url(#linear-gradient)"/>
          </g>
        </g>
        <g id="Group_730" data-name="Group 730" transform="translate(16.809 7.997)" clip-path="url(#clip-path-4)">
          <g id="Group_729" data-name="Group 729" transform="translate(81.88 76.31) rotate(180)">
            <path id="Path_969" data-name="Path 969" d="M98.689,84.306H0V0H98.689Z" transform="translate(0 0)" fill="url(#linear-gradient-7)"/>
          </g>
        </g>
        <g id="Group_743" data-name="Group 743" transform="translate(0 0)" clip-path="url(#clip-path-5)">
          <g id="Group_731" data-name="Group 731" transform="translate(41.824 18.85)">
            <path id="Path_971" data-name="Path 971" d="M-4.442-2.22A2.41,2.41,0,0,1-6.852.189,2.41,2.41,0,0,1-9.261-2.22,2.41,2.41,0,0,1-6.852-4.629,2.41,2.41,0,0,1-4.442-2.22" transform="translate(9.261 4.629)" fill="#fff"/>
          </g>
          <g id="Group_732" data-name="Group 732" transform="translate(27.325 25.714)">
            <path id="Path_972" data-name="Path 972" d="M-4.441-2.221A2.41,2.41,0,0,1-6.85.189,2.411,2.411,0,0,1-9.26-2.221,2.411,2.411,0,0,1-6.85-4.63,2.41,2.41,0,0,1-4.441-2.221" transform="translate(9.26 4.63)" fill="#fff"/>
          </g>
          <g id="Group_733" data-name="Group 733" transform="translate(20.619 0)">
            <path id="Path_973" data-name="Path 973" d="M-7.857-26.1a1.283,1.283,0,0,1-1.112-.64c-1.024-1.769-9.9-17.474-6.734-24.376a5.493,5.493,0,0,1,4.184-3.147C-.283-56.365,6.876-36.113,7.174-35.249a1.286,1.286,0,0,1-.794,1.634,1.284,1.284,0,0,1-1.636-.791c-1.84-5.3-8.257-18.746-15.792-17.328a2.909,2.909,0,0,0-2.319,1.694c-2.22,4.831,4.028,17.531,6.621,22.014a1.284,1.284,0,0,1-.469,1.756,1.269,1.269,0,0,1-.643.173" transform="translate(16.383 54.413)" fill="#002856"/>
          </g>
          <g id="Group_737" data-name="Group 737" transform="translate(52.235 13.28)" style="mix-blend-mode: soft-light;isolation: isolate">
            <g id="Group_736" data-name="Group 736">
              <g id="Group_735" data-name="Group 735" clip-path="url(#clip-path-6)">
                <g id="Group_734" data-name="Group 734" transform="translate(0 0)">
                  <path id="Path_974" data-name="Path 974" d="M-5.034,0S-12.368,43.033-8,61.36c0,0-7.259-28.86,2.962-61.36" transform="translate(10.495)" fill="#fff"/>
                </g>
              </g>
            </g>
          </g>
          <g id="Group_742" data-name="Group 742" transform="translate(16.809 26.095)" opacity="0.5" style="mix-blend-mode: multiply;isolation: isolate">
            <g id="Group_741" data-name="Group 741">
              <g id="Group_740" data-name="Group 740" clip-path="url(#clip-path-7)">
                <g id="Group_739" data-name="Group 739" transform="translate(0 0)" clip-path="url(#clip-path-8)">
                  <g id="Group_738" data-name="Group 738" transform="translate(81.88 58.211) rotate(180)">
                    <path id="Path_975" data-name="Path 975" d="M98.689,84.306H0V0H98.689Z" transform="translate(0 0)" fill="url(#linear-gradient-8)"/>
                  </g>
                </g>
              </g>
            </g>
          </g>
        </g>
      </g>
      <path id="Path_979" data-name="Path 979" d="M516.692,418.6c0,6.013-48.743,10.889-108.872,10.889S298.951,424.617,298.951,418.6,347.7,407.717,407.82,407.717,516.692,412.592,516.692,418.6Z" transform="translate(22.19 -122.592)" fill="url(#radial-gradient-2)" style="mix-blend-mode: multiply;isolation: isolate"/>
      <text id="Manage_Inventory_" data-name="Manage 
Inventory " transform="translate(431.192 342.766)" fill="#fff" font-size="14" font-family="SegoeUI, Segoe UI"><tspan x="-30.676" y="0">MANAGE </tspan><tspan font-family="SegoeUI-Bold, Segoe UI" font-weight="700"><tspan x="-41.504" y="14">INVENTORY </tspan></tspan></text>
    </g>
  </g>
</svg>
