<svg xmlns="http://www.w3.org/2000/svg" xmlns:xlink="http://www.w3.org/1999/xlink" width="250" height="250" viewBox="0 0 250 250">
  <defs>
    <linearGradient id="linear-gradient" x1="0.5" x2="0.5" y2="1" gradientUnits="objectBoundingBox">
      <stop offset="0" stop-color="#008da7"/>
      <stop offset="1" stop-color="#002856"/>
    </linearGradient>
    <linearGradient id="linear-gradient-2" y1="0.5" x2="1" y2="0.5" gradientUnits="objectBoundingBox">
      <stop offset="0" stop-color="#bb7ad5"/>
      <stop offset="1" stop-color="#fbfbfb"/>
    </linearGradient>
    <linearGradient id="linear-gradient-25" x1="0.5" x2="0.5" y2="1" gradientUnits="objectBoundingBox">
      <stop offset="0" stop-color="#f0ae4b"/>
      <stop offset="1" stop-color="#df6445"/>
    </linearGradient>
    <linearGradient id="linear-gradient-28" x1="0.5" y1="1" x2="0.5" gradientUnits="objectBoundingBox">
      <stop offset="0" stop-color="#cac7c2"/>
      <stop offset="0.216" stop-color="#dddbd8"/>
      <stop offset="0.468" stop-color="#ededeb"/>
      <stop offset="0.727" stop-color="#f7f7f7"/>
      <stop offset="1" stop-color="#fbfbfb"/>
    </linearGradient>
  </defs>
  <g id="setup4" transform="translate(-1886 -448)">
    <circle id="Ellipse_22" data-name="Ellipse 22" cx="125" cy="125" r="125" transform="translate(1886 448)" fill="url(#linear-gradient)"/>
    <path id="Path_980" data-name="Path 980" d="M120,0A120,120,0,1,1,0,120,120,120,0,0,1,120,0Z" transform="translate(1891 453)" fill="#fff"/>
    <g id="Group_820" data-name="Group 820" transform="translate(1585.382 348.439)">
      <g id="Group_807" data-name="Group 807" transform="translate(309.618 206.614)" opacity="0.23" style="mix-blend-mode: multiply;isolation: isolate">
        <path id="Path_1045" data-name="Path 1045" d="M390.975,292.874q.013-.4.016-.808L360.1,322.953q.4,0,.808-.016Z" transform="translate(-328.808 -260.769)" fill="url(#linear-gradient-2)"/>
        <path id="Path_1046" data-name="Path 1046" d="M388.558,286.719c-.022-.239-.046-.479-.074-.718l-34.445,34.444q.359.041.718.074Z" transform="translate(-326.502 -258.464)" fill="url(#linear-gradient-2)"/>
        <path id="Path_1047" data-name="Path 1047" d="M323.99,299.92c.066.066.13.134.2.2s.134.13.2.2l43.968-43.968c-.065-.067-.129-.135-.2-.2s-.134-.13-.2-.2Z" transform="translate(-315.081 -247.042)" fill="url(#linear-gradient-2)"/>
        <path id="Path_1048" data-name="Path 1048" d="M393.142,299.921c.055-.315.108-.63.154-.946l-26.282,26.282c.316-.046.631-.1.946-.154Z" transform="translate(-331.434 -263.395)" fill="url(#linear-gradient-2)"/>
        <path id="Path_1049" data-name="Path 1049" d="M385.972,281.194q-.067-.326-.141-.652l-37.25,37.25c.216.05.434.1.651.141Z" transform="translate(-324.428 -256.389)" fill="url(#linear-gradient-2)"/>
        <path id="Path_1050" data-name="Path 1050" d="M396.215,319.842l-8.335,8.335a31.28,31.28,0,0,0,8.335-8.335Z" transform="translate(-339.365 -271.327)" fill="url(#linear-gradient-2)"/>
        <path id="Path_1051" data-name="Path 1051" d="M383.261,276.157q-.095-.3-.2-.6L343.6,315.025q.3.1.6.2Z" transform="translate(-322.535 -254.496)" fill="url(#linear-gradient-2)"/>
        <path id="Path_1052" data-name="Path 1052" d="M327.3,303.088c.143.122.286.242.431.361l43.759-43.759q-.179-.217-.361-.431Z" transform="translate(-316.338 -248.299)" fill="url(#linear-gradient-2)"/>
        <path id="Path_1053" data-name="Path 1053" d="M374.549,263.327c-.106-.157-.214-.314-.324-.469L330.9,306.187c.156.11.312.217.469.324Z" transform="translate(-317.706 -249.667)" fill="url(#linear-gradient-2)"/>
        <path id="Path_1054" data-name="Path 1054" d="M377.538,267.265q-.14-.255-.286-.506L334.8,309.213q.252.145.506.286Z" transform="translate(-319.189 -251.15)" fill="url(#linear-gradient-2)"/>
        <path id="Path_1055" data-name="Path 1055" d="M380.445,271.531q-.119-.275-.244-.549l-41.179,41.179q.273.125.549.244Z" transform="translate(-320.794 -252.755)" fill="url(#linear-gradient-2)"/>
        <path id="Path_1056" data-name="Path 1056" d="M394.832,308.531q.226-.605.425-1.217l-19.9,19.905q.612-.2,1.217-.426Z" transform="translate(-334.604 -266.565)" fill="url(#linear-gradient-2)"/>
        <path id="Path_1057" data-name="Path 1057" d="M355.128,245.909q-.273-.125-.549-.244L313.7,286.54q.119.275.244.549Z" transform="translate(-311.171 -243.132)" fill="url(#linear-gradient-2)"/>
        <path id="Path_1058" data-name="Path 1058" d="M358.544,248.051q-.252-.145-.506-.286L315.8,290q.14.255.286.506Z" transform="translate(-311.969 -243.93)" fill="url(#linear-gradient-2)"/>
        <path id="Path_1059" data-name="Path 1059" d="M361.885,250.517c-.155-.11-.312-.217-.469-.324l-43.184,43.184c.107.157.214.314.324.469Z" transform="translate(-312.892 -244.853)" fill="url(#linear-gradient-2)"/>
        <path id="Path_1060" data-name="Path 1060" d="M365.154,253.286q-.215-.183-.431-.361l-43.759,43.759q.179.217.361.431Z" transform="translate(-313.931 -245.892)" fill="url(#linear-gradient-2)"/>
        <path id="Path_1061" data-name="Path 1061" d="M336.419,242.1c-.316.046-.631.1-.946.154l-25.182,25.182c-.056.315-.108.63-.154.946Z" transform="translate(-309.815 -241.776)" fill="url(#linear-gradient-2)"/>
        <path id="Path_1062" data-name="Path 1062" d="M326.557,250.183a31.295,31.295,0,0,0-8.335,8.335Z" transform="translate(-312.888 -244.849)" fill="url(#linear-gradient-2)"/>
        <path id="Path_1063" data-name="Path 1063" d="M351.63,244.127q-.3-.1-.6-.2l-39.065,39.065c.063.2.129.4.2.6Z" transform="translate(-310.512 -242.473)" fill="url(#linear-gradient-2)"/>
        <path id="Path_1064" data-name="Path 1064" d="M340.5,241.579q-.4,0-.808.016l-30.062,30.063q-.013.4-.016.808Z" transform="translate(-309.618 -241.579)" fill="url(#linear-gradient-2)"/>
        <path id="Path_1065" data-name="Path 1065" d="M312.51,262.734q-.225.605-.425,1.217l19.9-19.9q-.613.2-1.217.425Z" transform="translate(-310.556 -242.517)" fill="url(#linear-gradient-2)"/>
        <path id="Path_1066" data-name="Path 1066" d="M348.04,242.751q-.325-.074-.652-.141l-36.74,36.74c.045.218.092.435.141.652Z" transform="translate(-310.01 -241.971)" fill="url(#linear-gradient-2)"/>
        <path id="Path_1067" data-name="Path 1067" d="M344.343,241.86q-.359-.041-.718-.074l-33.8,33.8c.022.239.047.479.074.718Z" transform="translate(-309.696 -241.658)" fill="url(#linear-gradient-2)"/>
      </g>
      <circle id="Ellipse_24" data-name="Ellipse 24" cx="7.129" cy="7.129" r="7.129" transform="translate(330.312 199.126)" fill="#cfe5ff"/>
      <g id="Group_808" data-name="Group 808" transform="translate(346.473 190.472)">
        <path id="Path_1068" data-name="Path 1068" d="M394.123,245.435c-1.274-.34-3.273-3.548-4.923-3.694s-3.646,1.8-5.331.573-1.841-6.486-3.769-7.537-3.369.127-4.107-1.111.22-5.457-1.506-6.946-3.14-.994-3.481-2.3.688-3.362-.705-5.31-1.924-4.44.158-3.279,3.941,2.63,6.036,2.162,1.714,3.117,3.2,3.966,3.7-.586,4.907.172,1.3,4.809,2.313,5.191,5.038-2.424,6.925-1.639-.422,5.9,1.6,6.66,4.476,1.731,4.476,1.731Z" transform="translate(-369.072 -215.54)" fill="#b8e3c2"/>
        <path id="Path_1069" data-name="Path 1069" d="M376.252,223.763s2.273,7.5,22.638,20.544l1.294-2.1S383.732,235.05,376.252,223.763Z" transform="translate(-371.801 -218.665)" fill="#9ecdbb"/>
      </g>
      <path id="Path_1070" data-name="Path 1070" d="M371.27,286.1c-4.546,3.031-7.121,18.032,1.667,18.335,6.06.209,8.444-5.25,6.169-6.948-5.714-4.265-12.381,10.736-5.714,13.767,3.145,1.429,6.337-.85,9.776-3.625,5.264-4.248,11.108-9.657,18.257-4.709" transform="translate(-21.848 -51.886)" fill="none" stroke="#3a3d7d" stroke-miterlimit="10" stroke-width="2"/>
      <path id="Path_1071" data-name="Path 1071" d="M540.7,360.1c0,1.19-3.962,2.155-8.85,2.155S523,361.292,523,360.1s3.962-2.155,8.85-2.155S540.7,358.912,540.7,360.1Z" transform="translate(-81.106 -79.196)" fill="#e5ebf4" style="mix-blend-mode: multiply;isolation: isolate"/>
      <path id="Path_1072" data-name="Path 1072" d="M502.192,350.028H401.54a35.547,35.547,0,0,1-10.374-1.547l-15.65-4.774H529.763l-18.04,5.02A35.536,35.536,0,0,1,502.192,350.028Z" transform="translate(-25.048 -73.783)" fill="#e5ebf4" style="mix-blend-mode: multiply;isolation: isolate"/>
      <g id="Group_811" data-name="Group 811" transform="translate(466.104 163.626)">
        <path id="Path_1073" data-name="Path 1073" d="M593.107,206.827a35.689,35.689,0,0,0-9.008.6,7.941,7.941,0,0,0-5.44,3.722c-2.112,3.491-5.379,9.025-6.067,10.962,0,0-5.811-.906-9.088-2.9l-1.449,2.9s3.341,2.313,13.171,5.531a48.057,48.057,0,0,0,4.478-8.692,18.585,18.585,0,0,0,.79,6.585c.884,3.328-1.188,16.316-1.188,16.316l21.385-.766-1.757-12.916,2.594-3.334a4.293,4.293,0,0,0,.844-3.328,35.649,35.649,0,0,0-3.63-11.011A7.118,7.118,0,0,0,593.107,206.827Z" transform="translate(-562.055 -185.35)" fill="url(#linear-gradient-25)"/>
        <path id="Path_1074" data-name="Path 1074" d="M616.839,229.023l-.79-5.466s-1.053,7.178-1.514,8.034Z" transform="translate(-582.002 -191.74)" fill="#b14800"/>
        <path id="Path_1075" data-name="Path 1075" d="M602.34,243.057c-1.089.381-3.894,1.274-3.635,1.842.149.328,2.127-.451,2.346-.183.165.2-.539,1.252-1.8,1.917-.982.517-1.664.409-1.7.878-.052.594,2.85.533,3.591.441a4.138,4.138,0,0,0,1.962-.828,13.432,13.432,0,0,0,1.327-1.368,11.221,11.221,0,0,1,1.809-1.384l-1.445-2.346S602.966,242.838,602.34,243.057Z" transform="translate(-575.543 -198.761)" fill="#e7d1ad"/>
        <path id="Path_1076" data-name="Path 1076" d="M600.5,200.112l.455,5.206s2.817,2.409,5.271-.311l-1.363-6.294Z" transform="translate(-576.668 -182.298)" fill="#e0bd82"/>
        <path id="Path_1077" data-name="Path 1077" d="M604.455,177.14a8.057,8.057,0,0,1,2.384,5.962c0,4.022-4.752,9.7-9.106,9.7-3.838,0-6.948-3.944-6.948-8.809,0-3.729,1.849-6.877,4.409-8.2A8.3,8.3,0,0,1,604.455,177.14Z" transform="translate(-572.975 -173.256)" fill="#e7cb9e"/>
        <path id="Path_1078" data-name="Path 1078" d="M597.82,192.254s-1.185,1.954.242,2.041" transform="translate(-575.474 -179.842)" fill="none" stroke="#e0b695" stroke-miterlimit="10" stroke-width="0.5"/>
        <path id="Path_1079" data-name="Path 1079" d="M593.687,193.224c0,.387-.436.7-.973.7s-.973-.315-.973-.7.436-.7.973-.7S593.687,192.836,593.687,193.224Z" transform="translate(-573.339 -179.944)" fill="#e0ab82"/>
        <path id="Path_1080" data-name="Path 1080" d="M605.349,193.23c0,.43-.529.779-1.181.779s-1.182-.349-1.182-.779.529-.779,1.182-.779S605.349,192.8,605.349,193.23Z" transform="translate(-577.613 -179.917)" fill="#e0ab82"/>
        <ellipse id="Ellipse_25" data-name="Ellipse 25" cx="17.418" cy="3.029" rx="17.418" ry="3.029" transform="translate(7.804 105.507)" fill="#e5ebf4" style="mix-blend-mode: multiply;isolation: isolate"/>
        <g id="Group_809" data-name="Group 809" transform="translate(31.323 97.286)">
          <path id="Path_1081" data-name="Path 1081" d="M619.024,338.106s1,.206.859,1.722a35.427,35.427,0,0,0-.091,3.558l-.426.165a9.709,9.709,0,0,0-.366-1.839c-.128-.019-.973,1.831-1.974,2.257s-3.527,1.234-4.244.5c-.786-.805.969-1.537,1.869-2.069A49.259,49.259,0,0,0,619.024,338.106Z" transform="translate(-612.585 -332.567)" fill="#393939"/>
          <path id="Path_1082" data-name="Path 1082" d="M616.261,329.84s1.053,4.16.541,5.948a14.877,14.877,0,0,1-2.027,3.67c-.144.356,1.884.122,2.6-.5s2.628-3.859,2.51-4.293a29.149,29.149,0,0,1-.309-5.492Z" transform="translate(-613.415 -329.17)" fill="#e7cb9e"/>
        </g>
        <g id="Group_810" data-name="Group 810" transform="translate(13.907 97.743)">
          <path id="Path_1083" data-name="Path 1083" d="M591.67,338.822s.968.339.621,1.822a35.374,35.374,0,0,0-.565,3.514l-.444.107a9.724,9.724,0,0,0-.117-1.872c-.124-.036-1.164,1.715-2.213,2s-3.7.722-4.318-.1c-.671-.9,1.167-1.394,2.129-1.8A49.264,49.264,0,0,0,591.67,338.822Z" transform="translate(-584.488 -333.296)" fill="#393939"/>
          <path id="Path_1084" data-name="Path 1084" d="M589.68,330.127s.488,4.264-.259,5.967a14.856,14.856,0,0,1-2.5,3.366c-.19.334,1.851.373,2.646-.149s3.121-3.473,3.062-3.92a29.117,29.117,0,0,1,.428-5.484Z" transform="translate(-585.409 -329.907)" fill="#e7cb9e"/>
        </g>
        <path id="Path_1085" data-name="Path 1085" d="M588.611,262.9s-1.809,18.122-2.061,24.162c-.223,5.338,2.271,21.879,2.271,21.879l4.311-.374s.51-15.855,1.734-21.139c.932-4.025,3.728-16.1,3.728-16.1s1.437,11.463,1.915,15.284c.681,5.428,4.3,22.241,4.3,22.241l5.091-.221s-1.354-16.967-1.279-22.622C608.7,280.04,610,262.133,610,262.133Z" transform="translate(-571.36 -206.403)" fill="url(#linear-gradient)"/>
        <path id="Path_1086" data-name="Path 1086" d="M588.611,263.221s-1.809,18.122-2.061,24.162c-.223,5.338,2.271,21.879,2.271,21.879l4.311-.374s.51-15.855,1.734-21.139c.932-4.025,3.728-16.1,3.728-16.1a18.4,18.4,0,0,1-3.256-8.669Z" transform="translate(-571.36 -206.725)" fill="url(#linear-gradient)"/>
        <path id="Path_1087" data-name="Path 1087" d="M607.175,183.113s-.954,2.949-5.6.275a34.736,34.736,0,0,1-7.593-5.9s-1.516,3.9-3.9,5.466a21.637,21.637,0,0,1,.581-4.129c.5-1.573,1.909-4.837,6.8-5.034C608.625,173.346,607.175,183.113,607.175,183.113Z" transform="translate(-572.708 -172.82)" fill="#424242"/>
        <path id="Path_1088" data-name="Path 1088" d="M613.221,180.8a3.578,3.578,0,0,0,1.576-4.326c-1-2.91-4.854-4.482-6.846-1.888" transform="translate(-579.5 -172.626)" fill="#424242"/>
        <path id="Path_1089" data-name="Path 1089" d="M601.142,188.9c0,.348.181.629.4.629s.4-.281.4-.629-.181-.629-.4-.629S601.142,188.547,601.142,188.9Z" transform="translate(-576.912 -178.326)" fill="#424242"/>
        <path id="Path_1090" data-name="Path 1090" d="M594.356,189.277c0,.347.19.629.423.629s.423-.281.423-.629-.189-.629-.423-.629S594.356,188.929,594.356,189.277Z" transform="translate(-574.333 -178.471)" fill="#424242"/>
        <path id="Path_1091" data-name="Path 1091" d="M599.627,197.02a4.652,4.652,0,0,1-3.579.146C596.014,198.006,598.065,199.641,599.627,197.02Z" transform="translate(-574.975 -181.654)" fill="#e5f1ff"/>
        <path id="Path_1092" data-name="Path 1092" d="M611.34,191.359c-.529,1.63.062,3.248,1.322,3.616s2.709-.655,3.238-2.285-.062-3.248-1.322-3.615S611.869,189.73,611.34,191.359Z" transform="translate(-580.714 -178.605)"/>
        <path id="Path_1093" data-name="Path 1093" d="M609.4,196.893a7.035,7.035,0,0,1-7.508,2.437" transform="translate(-577.197 -181.605)" fill="none" stroke="#000" stroke-linecap="round" stroke-miterlimit="10" stroke-width="1"/>
        <path id="Path_1094" data-name="Path 1094" d="M607.275,184.57s1.34-12.262-8.377-12.338c-2.217-.017-6.213.81-7.353,4.7" transform="translate(-573.264 -172.232)" fill="none" stroke="#000" stroke-linecap="round" stroke-miterlimit="10" stroke-width="1"/>
      </g>
      <path id="Path_1095" data-name="Path 1095" d="M517.325,211l.006-.006-47.026-26.01a16.18,16.18,0,0,0-15.661,0L407.609,211l.006.006a6.666,6.666,0,0,0-3.477,5.855v65.459a6.667,6.667,0,0,0,6.667,6.667h103.34a6.667,6.667,0,0,0,6.667-6.667V216.865A6.666,6.666,0,0,0,517.325,211Z" transform="translate(-35.927 -12.686)" fill="#d49500"/>
      <g id="Group_812" data-name="Group 812" transform="translate(434.289 149.59)">
        <path id="Path_1096" data-name="Path 1096" d="M510.733,169.783c.536-1.2,4.017-2.677,4.419-4.284s-1.205-3.882.268-5.355,6.694-.8,8.033-2.544.4-3.347,1.741-3.882,5.355,1.071,7.1-.4,1.473-2.946,2.812-3.08,3.213,1.205,5.355.134,4.686-1.2,3.213.669-3.213,3.481-3.079,5.623-3.347,1.205-4.418,2.544,0,3.749-.937,4.82-4.954.536-5.49,1.473,1.607,5.355.536,7.1-5.757-1.339-6.828.536-2.409,4.151-2.409,4.151Z" transform="translate(-510.733 -149.59)" fill="#b8e3c2"/>
        <path id="Path_1097" data-name="Path 1097" d="M540.828,155.6S533.063,156.67,517,174.745l1.874,1.607S528.511,161.222,540.828,155.6Z" transform="translate(-513.114 -151.874)" fill="#9ecdbb"/>
      </g>
      <path id="Rectangle_98" data-name="Rectangle 98" d="M12.333,0H77.672A12.333,12.333,0,0,1,90.006,12.333V91.824a0,0,0,0,1,0,0H0a0,0,0,0,1,0,0V12.333A12.333,12.333,0,0,1,12.333,0Z" transform="translate(381.545 168.116)" fill="url(#linear-gradient-28)"/>
      <g id="Group_813" data-name="Group 813" transform="translate(392.963 181.679)" style="mix-blend-mode: multiply;isolation: isolate">
        <rect id="Rectangle_99" data-name="Rectangle 99" width="67.17" height="0.527" transform="translate(0 0)" fill="#e1e3e6"/>
        <rect id="Rectangle_100" data-name="Rectangle 100" width="67.17" height="0.527" transform="translate(0 7.423)" fill="#e1e3e6"/>
        <rect id="Rectangle_101" data-name="Rectangle 101" width="67.17" height="0.527" transform="translate(0 14.847)" fill="#e1e3e6"/>
        <rect id="Rectangle_102" data-name="Rectangle 102" width="67.17" height="0.527" transform="translate(0 22.27)" fill="#e1e3e6"/>
        <rect id="Rectangle_103" data-name="Rectangle 103" width="67.17" height="0.527" transform="translate(0 29.693)" fill="#e1e3e6"/>
        <rect id="Rectangle_104" data-name="Rectangle 104" width="67.17" height="0.527" transform="translate(0 37.117)" fill="#e1e3e6"/>
        <rect id="Rectangle_105" data-name="Rectangle 105" width="67.17" height="0.527" transform="translate(0 44.54)" fill="#e1e3e6"/>
        <rect id="Rectangle_106" data-name="Rectangle 106" width="67.17" height="0.527" transform="translate(0 51.963)" fill="#e1e3e6"/>
      </g>
      <path id="Path_1098" data-name="Path 1098" d="M511.023,246.945l-49.113,49.11a.272.272,0,0,1-.386,0l-49.109-49.109a11.706,11.706,0,0,0-8.278-3.429h0v61.822a6.667,6.667,0,0,0,6.667,6.667h103.34a6.667,6.667,0,0,0,6.667-6.667V243.517H519.3A11.705,11.705,0,0,0,511.023,246.945Z" transform="translate(-35.927 -35.701)" fill="url(#linear-gradient-25)"/>
      <path id="Path_1099" data-name="Path 1099" d="M479.079,300.568,461.906,317.74a.272.272,0,0,1-.386,0l-16.908-16.908-40.485,23.843.006,2.349a6.667,6.667,0,0,0,6.667,6.667h103.34a6.667,6.667,0,0,0,6.667-6.667v-2.1Z" transform="translate(-35.923 -57.387)" fill="#e7e7e6" style="mix-blend-mode: multiply;isolation: isolate"/>
      <path id="Path_1100" data-name="Path 1100" d="M520.812,323.663v-1.981l-50.506-27.935a16.177,16.177,0,0,0-15.661,0l-50.506,27.935v1.981a6.667,6.667,0,0,0,6.667,6.667h103.34A6.667,6.667,0,0,0,520.812,323.663Z" transform="translate(-35.927 -54.026)" fill="url(#linear-gradient-25)"/>
      <g id="Group_814" data-name="Group 814" transform="translate(439.703 262.096)">
        <path id="Path_1101" data-name="Path 1101" d="M550.272,339.487c0,1.237.2-.79,4.017-.79,2.9,0,.263,7.573-4.346,7.837a1.339,1.339,0,0,0-.79,1.581c.2,1.251,8.364-1.646,8.364-8.429C557.516,335.141,550.272,336.062,550.272,339.487Z" transform="translate(-530.74 -333.175)" fill="#fefefe"/>
        <path id="Path_1102" data-name="Path 1102" d="M519.466,334.009S520,351.632,531.1,351.632c10.036,0,11.173-17.623,11.173-17.623Z" transform="translate(-519.466 -332.193)" fill="#fefefe"/>
        <path id="Path_1103" data-name="Path 1103" d="M523.461,336.875a11.6,11.6,0,0,1-2.454-.506c.438,4.275,2.4,16.214,10.677,16.16a8.21,8.21,0,0,0,1.546-.158C525.862,351.04,523.947,341.158,523.461,336.875Z" transform="translate(-520.052 -333.09)" fill="#eaf4ff"/>
        <path id="Path_1104" data-name="Path 1104" d="M542.271,332.9c0,1-5.105,1.816-11.4,1.816s-11.4-.813-11.4-1.816,5.106-1.816,11.4-1.816S542.271,331.893,542.271,332.9Z" transform="translate(-519.466 -331.08)" fill="#eaf4ff"/>
        <ellipse id="Ellipse_26" data-name="Ellipse 26" cx="10.178" cy="1.426" rx="10.178" ry="1.426" transform="translate(1.225 0.39)" fill="#fefefe"/>
        <path id="Path_1105" data-name="Path 1105" d="M525.134,335.139a59.463,59.463,0,0,0,15.778,0,59.531,59.531,0,0,0-15.778,0Z" transform="translate(-521.62 -332.423)" fill="#606060"/>
      </g>
      <g id="Group_817" data-name="Group 817" transform="translate(346.494 187.993)">
        <path id="Path_1106" data-name="Path 1106" d="M403.919,211.58c-10.447.82-20.6,11.223-22.568,13.344-2.024,2.069-11.926,12.711-12.241,23.184-.184,6.115,4.032,12.073,6.6,14.059l11.805-14.827a14.638,14.638,0,0,0-6.071-3.063s1.031-5.322,7.417-12.024c6.025-6.323,11.824-8.168,11.824-8.168A14.643,14.643,0,0,0,404.037,230L418.279,217.5C416.171,215.026,410.018,211.1,403.919,211.58Z" transform="translate(-369.105 -211.54)" fill="#002856"/>
        <g id="Group_815" data-name="Group 815" transform="translate(3.979 33.847)">
          <path id="Path_1107" data-name="Path 1107" d="M389.812,267.975l-2.108-1.581c-1.388-1.083-5.124,1.384-8.344,5.511s-4.705,8.351-3.317,9.434l2.107,1.581Z" transform="translate(-375.523 -266.14)" fill="#002856"/>
          <path id="Path_1108" data-name="Path 1108" d="M387.786,278.378c-3.22,4.127-6.955,6.595-8.344,5.512s.1-5.307,3.317-9.434,6.956-6.595,8.344-5.511S391.006,274.251,387.786,278.378Z" transform="translate(-376.815 -267.109)" fill="#002856"/>
          <path id="Path_1109" data-name="Path 1109" d="M379.442,283.889c-1.388-1.084.1-5.307,3.317-9.434s6.956-6.595,8.344-5.511" transform="translate(-376.815 -267.109)" fill="#002856" stroke="#707070" stroke-miterlimit="10" stroke-width="1" style="mix-blend-mode: screen;isolation: isolate"/>
        </g>
        <g id="Group_816" data-name="Group 816" transform="translate(32.912 3.581)">
          <path id="Path_1110" data-name="Path 1110" d="M438.522,219.707l-1.776-1.945c-1.162-1.323-5.291.405-9.225,3.859s-6.179,7.327-5.017,8.65l1.776,1.945Z" transform="translate(-422.198 -217.317)" fill="#002856"/>
          <path id="Path_1111" data-name="Path 1111" d="M434.594,229.549c-3.933,3.455-8.063,5.182-9.225,3.859s1.084-5.2,5.017-8.65,8.063-5.182,9.225-3.859S438.527,226.1,434.594,229.549Z" transform="translate(-423.287 -218.509)" fill="#002856"/>
          <path id="Path_1112" data-name="Path 1112" d="M425.369,233.409c-1.162-1.323,1.084-5.2,5.017-8.65s8.063-5.182,9.225-3.859" transform="translate(-423.287 -218.509)" fill="#002856" stroke="#707070" stroke-miterlimit="10" stroke-width="1" style="mix-blend-mode: screen;isolation: isolate"/>
        </g>
        <path id="Path_1113" data-name="Path 1113" d="M371.55,244.373s7.024-19.493,26.692-28.712C398.242,215.661,382.525,222.861,371.55,244.373Z" transform="translate(-370.034 -213.106)" fill="#002856"/>
        <path id="Path_1114" data-name="Path 1114" d="M406.175,230.582s-5.6.654-13.785,8.092a36.224,36.224,0,0,0-8.517,12.644,6.58,6.58,0,0,1,2.292-.077,37.469,37.469,0,0,1,20.01-20.659Z" transform="translate(-374.718 -218.647)" fill="#002856"/>
      </g>
      <g id="Group_818" data-name="Group 818" transform="translate(357.451 164.85)">
        <path id="Path_1115" data-name="Path 1115" d="M398.378,183.25a7.509,7.509,0,0,0,.286,1.105,1.727,1.727,0,0,0,.333.6.56.56,0,0,0,.391.2.908.908,0,0,0,.453-.124,1.262,1.262,0,0,0,.6-.773,3.558,3.558,0,0,0,.13-1.312,7.367,7.367,0,0,0-.323-1.667,10.473,10.473,0,0,0-.773-1.844,6.741,6.741,0,0,0-1.325-1.791,4.348,4.348,0,0,0-1.611-.977,4.083,4.083,0,0,0-1.842-.151,6.082,6.082,0,0,0-2.009.683,6.317,6.317,0,0,0-2.253,1.96,7,7,0,0,0-1.147,2.72,9,9,0,0,0-.019,3.173,10.754,10.754,0,0,0,1.143,3.315,8.515,8.515,0,0,0,1.688,2.282,5.563,5.563,0,0,0,2.015,1.234,5.049,5.049,0,0,0,2.24.22,6.816,6.816,0,0,0,2.374-.78,12.456,12.456,0,0,0,1.379-.84,11.776,11.776,0,0,0,1.039-.824,7.062,7.062,0,0,0,.725-.746,4.249,4.249,0,0,0,.426-.6,1.727,1.727,0,0,1,.422-.441.813.813,0,0,1,.386-.149.611.611,0,0,1,.345.07,1.394,1.394,0,0,1,.293.206l.692.74a10.931,10.931,0,0,1-.812,1.265,11.3,11.3,0,0,1-1.067,1.235,11.728,11.728,0,0,1-1.352,1.161,13.217,13.217,0,0,1-1.657,1.036,9.178,9.178,0,0,1-3.328,1.067,7.359,7.359,0,0,1-3.126-.317,7.719,7.719,0,0,1-2.747-1.625,10.218,10.218,0,0,1-2.18-2.861,11.606,11.606,0,0,1-1.04-2.734,11.959,11.959,0,0,1-.337-2.813,11.3,11.3,0,0,1,.339-2.749,10.508,10.508,0,0,1,.985-2.524,9.747,9.747,0,0,1,1.6-2.147A8.887,8.887,0,0,1,391.9,175.1a7.474,7.474,0,0,1,2.726-.851,6.841,6.841,0,0,1,2.719.245,6.964,6.964,0,0,1,2.448,1.333,7.873,7.873,0,0,1,1.919,2.419,9.059,9.059,0,0,1,.945,2.71,7.617,7.617,0,0,1,.027,2.6,5.859,5.859,0,0,1-.849,2.212,4.459,4.459,0,0,1-1.683,1.542,2.862,2.862,0,0,1-.624.242,1.828,1.828,0,0,1-.649.05,1.9,1.9,0,0,1-.637-.182,2.011,2.011,0,0,1-.594-.45,4.774,4.774,0,0,1-.826,1.715,4.016,4.016,0,0,1-1.263,1.045,2.541,2.541,0,0,1-1.093.32,2.2,2.2,0,0,1-.993-.184,2.714,2.714,0,0,1-.857-.611,4.256,4.256,0,0,1-.693-.972,6.252,6.252,0,0,1-.539-1.429,6.692,6.692,0,0,1-.2-1.6,7.021,7.021,0,0,1,.2-1.655,6.133,6.133,0,0,1,.645-1.619,6.658,6.658,0,0,1,1.153-1.472,7.392,7.392,0,0,1,1.71-1.221q.448-.237.817-.392a6.4,6.4,0,0,1,.707-.252,5.356,5.356,0,0,1,.647-.145c.206-.032.424-.054.655-.067ZM395.6,181.4a3.625,3.625,0,0,0-.465.205,2.255,2.255,0,0,0-.858.831,3.683,3.683,0,0,0-.48,1.259,4.672,4.672,0,0,0-.038,1.475,4.23,4.23,0,0,0,.464,1.469q.52.981,1.182.63a1.4,1.4,0,0,0,.371-.292,1.371,1.371,0,0,0,.269-.472,2.327,2.327,0,0,0,.117-.683,4.586,4.586,0,0,0-.079-.935Z" transform="translate(-386.781 -174.207)" fill="#547efd"/>
      </g>
      <circle id="Ellipse_27" data-name="Ellipse 27" cx="2.197" cy="2.197" r="2.197" transform="translate(398.473 157.876)" fill="#ffb700"/>
      <circle id="Ellipse_28" data-name="Ellipse 28" cx="1.099" cy="1.099" r="1.099" transform="translate(352.459 265.597)" fill="#ffb700"/>
      <path id="Path_1116" data-name="Path 1116" d="M642.656,165.885a3.03,3.03,0,1,1-3.031-3.031A3.031,3.031,0,0,1,642.656,165.885Z" transform="translate(-124.284 -5.041)" fill="#c3f0ce"/>
      <circle id="Ellipse_29" data-name="Ellipse 29" cx="14.319" cy="14.319" r="14.319" transform="translate(386.773 261.304)" fill="url(#linear-gradient)"/>
      <path id="Path_1117" data-name="Path 1117" d="M456.158,339.4a3.239,3.239,0,1,0-3.239-3.239A3.239,3.239,0,0,0,456.158,339.4Zm-1.221,15.188c-1.134-1.032,4.186-9.911,3.488-12.8-.508-2.105-8.983-.722-9.07-.1,0,0,2.442-.31,2.878.826s-2.878,7.95-3.488,10.53,2.268,3.407,4.186,3.407c2.268,0,5.931-1.549,5.843-2.271S456.071,355.617,454.937,354.585Z" transform="translate(-52.85 -69.683)" fill="#f7fbfc"/>
      <g id="Group_819" data-name="Group 819" transform="translate(469.485 157.609)">
        <path id="Path_1118" data-name="Path 1118" d="M580.46,167.017v-.308a4.183,4.183,0,0,0-4.182-4.182h-4.587a4.182,4.182,0,0,0-4.182,4.182v.308a4.182,4.182,0,0,0,4.182,4.182h4.587c.055,0,.109-.006.163-.008a4.571,4.571,0,0,0,3.745,2.119,3.681,3.681,0,0,1-1.862-2.647A4.179,4.179,0,0,0,580.46,167.017Z" transform="translate(-567.509 -162.526)" fill="#ffb700"/>
        <path id="Path_1119" data-name="Path 1119" d="M574.194,169.138a.7.7,0,1,1-.7-.7A.7.7,0,0,1,574.194,169.138Z" transform="translate(-569.517 -164.772)" fill="#fefefe"/>
        <path id="Path_1120" data-name="Path 1120" d="M578.309,169.138a.7.7,0,1,1-.7-.7A.7.7,0,0,1,578.309,169.138Z" transform="translate(-571.081 -164.772)" fill="#fefefe"/>
        <path id="Path_1121" data-name="Path 1121" d="M582.423,169.138a.7.7,0,1,1-.7-.7A.7.7,0,0,1,582.423,169.138Z" transform="translate(-572.645 -164.772)" fill="#fefefe"/>
      </g>
    </g>
  </g>
</svg>
