<svg xmlns="http://www.w3.org/2000/svg" xmlns:xlink="http://www.w3.org/1999/xlink" width="322.722" height="261.874" viewBox="0 0 322.722 261.874">
  <defs>
    <linearGradient id="linear-gradient" x1="1" y1="0.5" x2="0" y2="0.5" gradientUnits="objectBoundingBox">
      <stop offset="0" stop-color="#fae8dc"/>
      <stop offset="1" stop-color="#fab9ab" stop-opacity="0.969"/>
    </linearGradient>
    <linearGradient id="linear-gradient-5" x1="1" y1="0.5" x2="0" y2="0.5" xlink:href="#linear-gradient"/>
    <linearGradient id="linear-gradient-6" x1="0.454" y1="0.294" x2="0.591" y2="0.726" xlink:href="#linear-gradient"/>
    <linearGradient id="linear-gradient-7" x1="0.251" y1="1.261" x2="0.633" y2="0.172" gradientUnits="objectBoundingBox">
      <stop offset="0" stop-color="#008da7"/>
      <stop offset="1" stop-color="#002856"/>
    </linearGradient>
    <linearGradient id="linear-gradient-8" x1="0.641" y1="-0.175" x2="-0.121" y2="1.986" xlink:href="#linear-gradient-7"/>
    <linearGradient id="linear-gradient-9" x1="1" y1="0.5" x2="0" y2="0.5" gradientUnits="objectBoundingBox">
      <stop offset="0" stop-color="#f0ae4b"/>
      <stop offset="1" stop-color="#df6445"/>
    </linearGradient>
  </defs>
  <g id="vc02" transform="translate(-76.755 379)">
    <g id="Group_217" data-name="Group 217" transform="translate(76.755 -306.528)">
      <path id="Path_245" data-name="Path 245" d="M262.509,164.9c-33.578-.528-123.377,27.269-134.332,0-9.029-22.472,24.729-20.749,26.691-39.355s-6.826-26.531,7.185-35.145,36.845,3.346,51.923-8.614,22.949-20.674,56.893-24.809,59.065,34.112,73.589,37.9,35.327-5.857,45.533,5.857-22.767,37.641-15.7,48.453,24.366,16.669,17.679,31.83S295.192,165.41,262.509,164.9Z" transform="translate(-126.646 -56.66)" fill="#f5f5f5"/>
      <g id="Group_115" data-name="Group 115" transform="translate(1.242 89.926)">
        <g id="Group_107" data-name="Group 107" transform="translate(0.611)">
          <g id="Group_101" data-name="Group 101" transform="translate(0 7)">
            <path id="Path_246" data-name="Path 246" d="M129.951,230.439a1.14,1.14,0,0,1,.086-.426,1.444,1.444,0,0,1,.215-.377.215.215,0,0,1,.357-.012.324.324,0,0,1,.046.179,1.346,1.346,0,0,1-.095.406,1.886,1.886,0,0,1-.2.368c-.106.133-.266.154-.355.04A.3.3,0,0,1,129.951,230.439Z" transform="translate(-129.951 -229.535)" fill="#fff"/>
          </g>
          <g id="Group_102" data-name="Group 102" transform="translate(0.616 5.567)">
            <path id="Path_247" data-name="Path 247" d="M131.051,227.812a1.3,1.3,0,0,1,.143-.409,1.218,1.218,0,0,1,.259-.347c.136-.113.3-.1.358.035a.3.3,0,0,1,.02.182,1.621,1.621,0,0,1-.143.392,1.558,1.558,0,0,1-.246.339.217.217,0,0,1-.355-.006A.309.309,0,0,1,131.051,227.812Z" transform="translate(-131.049 -226.98)" fill="#fff"/>
          </g>
          <g id="Group_103" data-name="Group 103" transform="translate(1.41 4.226)">
            <path id="Path_248" data-name="Path 248" d="M132.475,225.348a1.444,1.444,0,0,1,.185-.391,1.33,1.33,0,0,1,.3-.312c.146-.1.3-.064.35.072a.306.306,0,0,1,0,.185,1.44,1.44,0,0,1-.191.372,1.355,1.355,0,0,1-.279.311c-.138.1-.3.081-.357-.05A.3.3,0,0,1,132.475,225.348Z" transform="translate(-132.465 -224.588)" fill="#fff"/>
          </g>
          <g id="Group_104" data-name="Group 104" transform="translate(3.17 2.092)">
            <path id="Path_249" data-name="Path 249" d="M135.633,221.417a1.345,1.345,0,0,1,.253-.349,1.23,1.23,0,0,1,.347-.256c.161-.072.308-.011.333.132a.3.3,0,0,1-.031.182,1.622,1.622,0,0,1-.252.335,1.477,1.477,0,0,1-.333.255c-.152.078-.305.03-.339-.112A.306.306,0,0,1,135.633,221.417Z" transform="translate(-135.605 -220.782)" fill="#fff"/>
          </g>
          <g id="Group_105" data-name="Group 105" transform="translate(4.665 0.994)">
            <path id="Path_250" data-name="Path 250" d="M138.29,219.153a.518.518,0,0,1,.159-.212.549.549,0,0,1,.239-.114.234.234,0,0,1,.288.278.439.439,0,0,1-.016.063.527.527,0,0,1-.156.206.573.573,0,0,1-.232.113.236.236,0,0,1-.3-.267A.4.4,0,0,1,138.29,219.153Z" transform="translate(-138.271 -218.823)" fill="#fff"/>
          </g>
          <g id="Group_106" data-name="Group 106" transform="translate(6.035)">
            <path id="Path_251" data-name="Path 251" d="M140.746,217.335a.53.53,0,0,1,.181-.2.538.538,0,0,1,.252-.089.234.234,0,0,1,.253.31.349.349,0,0,1-.024.061.543.543,0,0,1-.175.186.563.563,0,0,1-.242.087.235.235,0,0,1-.268-.3A.376.376,0,0,1,140.746,217.335Z" transform="translate(-140.715 -217.051)" fill="#fff"/>
          </g>
        </g>
        <g id="Group_114" data-name="Group 114" transform="translate(0 8.637)">
          <g id="Group_108" data-name="Group 108">
            <path id="Path_252" data-name="Path 252" d="M133.125,245.935c-.409-.434-.75-.926-1.126-1.389-.322-.5-.653-1-.954-1.513-.265-.534-.548-1.06-.8-1.6l-.658-1.662a13.8,13.8,0,0,1-.707-3.517,10.965,10.965,0,0,1,.361-3.566c.045-.16.174-.26.289-.224a.267.267,0,0,1,.134.329,11.328,11.328,0,0,0-.255,3.427,13.207,13.207,0,0,0,.707,3.37l.627,1.624c.238.528.509,1.041.762,1.563.285.5.6.992.9,1.488.353.458.668.949,1.049,1.385a.255.255,0,0,1,.026.358A.272.272,0,0,1,133.125,245.935Z" transform="translate(-128.861 -232.456)" fill="#fff"/>
          </g>
          <g id="Group_109" data-name="Group 109" transform="translate(4.768 13.796)">
            <path id="Path_253" data-name="Path 253" d="M137.7,257.09a1.154,1.154,0,0,1,.284.211.977.977,0,0,1,.216.28c.07.159.007.311-.146.335a.323.323,0,0,1-.153-.017,1.057,1.057,0,0,1-.31-.2.911.911,0,0,1-.2-.306c-.062-.171.014-.316.165-.33A.3.3,0,0,1,137.7,257.09Z" transform="translate(-137.366 -257.062)" fill="#fff"/>
          </g>
          <g id="Group_110" data-name="Group 110" transform="translate(5.75 14.721)">
            <path id="Path_254" data-name="Path 254" d="M139.435,258.729a1.321,1.321,0,0,1,.3.182.961.961,0,0,1,.239.26.22.22,0,0,1-.115.347.318.318,0,0,1-.154,0,1.04,1.04,0,0,1-.326-.172.824.824,0,0,1-.233-.284c-.077-.165-.015-.317.135-.343A.3.3,0,0,1,139.435,258.729Z" transform="translate(-139.117 -258.711)" fill="#fff"/>
          </g>
          <g id="Group_111" data-name="Group 111" transform="translate(6.747 15.512)">
            <path id="Path_255" data-name="Path 255" d="M141.258,260.173l1.225.711,1.235.692a.249.249,0,0,1,.13.333.265.265,0,0,1-.306.066,7.588,7.588,0,0,1-1.337-.606,8.677,8.677,0,0,1-1.2-.842c-.122-.115-.146-.274-.056-.356A.263.263,0,0,1,141.258,260.173Z" transform="translate(-140.894 -260.123)" fill="#fff"/>
          </g>
          <g id="Group_112" data-name="Group 112" transform="translate(10.487 17.394)">
            <path id="Path_256" data-name="Path 256" d="M147.765,263.493a.4.4,0,0,1,.22,0,.39.39,0,0,1,.182.122.252.252,0,0,1-.115.414l-.01,0a.419.419,0,0,1-.417-.131.251.251,0,0,1,.128-.409Z" transform="translate(-147.564 -263.478)" fill="#fff"/>
          </g>
          <g id="Group_113" data-name="Group 113" transform="translate(11.885 17.743)">
            <path id="Path_257" data-name="Path 257" d="M150.229,264.126a.4.4,0,0,1,.216-.02.378.378,0,0,1,.194.093.252.252,0,0,1-.052.427l-.01,0a.424.424,0,0,1-.23.026.41.41,0,0,1-.205-.1.251.251,0,0,1,.075-.422Z" transform="translate(-150.058 -264.101)" fill="#fff"/>
          </g>
        </g>
      </g>
      <path id="Path_258" data-name="Path 258" d="M338.052,87.681q-23.594,3.836-36.7,21.478c-8.156,10.739-6.408,24.546.583,35.285,6.408,10.228,18.642,13.807,30.293,16.364,32.624,7.671,62.334,17.386,93.21,27.1,13.4,4.091,29.128,10.227,40.779,1.023l.018-.014a3.646,3.646,0,0,0,1.359-3.611c-1.855-9.051-13.461-14.453-18.932-22.826-7.066-10.812,25.906-36.738,15.7-48.453s-31.01-2.067-45.533-5.857a20.42,20.42,0,0,1-5.611-2.677C387.233,99.73,366.706,83.243,338.052,87.681Z" transform="translate(-201.016 -69.959)" fill="#e6e6e6"/>
      <path id="Path_259" data-name="Path 259" d="M381.617,184.657c-13.725,0-37.295-5.267-60.088-10.361-22.433-5.013-43.622-9.748-56.7-9.953-.332-.006-.677-.008-1.019-.008-10.753,0-26.587,2.576-43.351,5.3-19.332,3.144-41.242,6.708-58.246,6.708-16.745,0-26.237-3.368-29.021-10.3-4.3-10.7,2.044-14.524,10.824-19.812,7.044-4.242,15.028-9.05,16.021-18.457a70.1,70.1,0,0,0-.428-16.363c-.938-8.078-1.409-12.132,6.383-16.923,3.357-2.064,7.532-2.945,13.96-2.945,2.45,0,4.949.121,7.594.248,2.677.13,5.446.263,8.2.263,6.71,0,15.325-.725,22.453-6.378,1.387-1.1,2.713-2.173,4-3.217,12.424-10.049,21.4-17.31,51.336-20.956a39.4,39.4,0,0,1,4.739-.288c19.014,0,35.173,13.768,48.158,24.83,7.751,6.6,13.873,11.82,19.461,13.278a37.405,37.405,0,0,0,9.461,1.05c3.409,0,6.93-.292,10.335-.575,3.39-.281,6.592-.547,9.67-.547,7.15,0,11.512,1.5,14.584,5.031,4.221,4.845-2.245,14.682-7.95,23.361-6.235,9.485-12.125,18.444-7.964,24.811,2.4,3.68,5.8,6.733,9.077,9.684,6.883,6.2,12.321,11.088,8.412,19.95C390.794,183.747,387.276,184.657,381.617,184.657Z" transform="translate(-128.916 -58.664)" fill="none" stroke="#fff" stroke-miterlimit="10" stroke-width="0.973"/>
    </g>
    <g id="vc2" transform="translate(120.012 -375.263)">
      <g id="Group_1" data-name="Group 1" transform="translate(0 0)">
        <g id="Group_38" data-name="Group 38" transform="translate(39.229 25.013)">
          <path id="Path_2" data-name="Path 2" d="M288.684,359.952c27.538-.313,40.852-3.031,68.339-2.416,1.536-1.214,9.58.134,12.4.385,18.079,1.613,29.555,5.539,47.613,7.427,2.5.261,2.5,2.971,0,3.233-13.523,1.415-27.22,1.2-40.838,1.681-.168,2.151-2.426,4.094-6.953,4.039-32.112-.387-63.994-1.453-96-3.109C266.331,370.834,281.577,360.033,288.684,359.952Z" transform="translate(-271.49 -141.178)" fill="#005077" opacity="0.1"/>
          <g id="Group_37" data-name="Group 37" transform="translate(103.122)">
            <g id="Group_13" data-name="Group 13" transform="translate(40.589 49.737)">
              <g id="Group_12" data-name="Group 12" transform="translate(0 36.118)">
                <path id="Path_3" data-name="Path 3" d="M349.725,246.3l-7.759,3.152,3.744,6.625,4.4-2.258L351.638,250Z" transform="translate(-336.668 -246.303)" fill="url(#linear-gradient)"/>
                <g id="Group_5" data-name="Group 5" transform="translate(0.161 2.712)">
                  <g id="Group_4" data-name="Group 4">
                    <path id="Path_4" data-name="Path 4" d="M355.068,249.96a8.222,8.222,0,0,0-5.41,2.625c-.6.637-1.47-.413-.876-1.043a9.379,9.379,0,0,1,6.067-2.926c.868-.076,1.094,1.267.218,1.343Z" transform="translate(-348.583 -248.613)" fill="url(#linear-gradient)"/>
                  </g>
                </g>
                <g id="Group_7" data-name="Group 7" transform="translate(0 4.786)">
                  <g id="Group_6" data-name="Group 6">
                    <path id="Path_5" data-name="Path 5" d="M355.37,251.726a9.915,9.915,0,0,0-6.518,3.16c-.6.639-1.471-.413-.876-1.041a11.07,11.07,0,0,1,7.176-3.462c.868-.076,1.094,1.267.218,1.343Z" transform="translate(-347.776 -250.379)" fill="url(#linear-gradient)"/>
                  </g>
                </g>
                <g id="Group_9" data-name="Group 9" transform="translate(1.976 6.375)">
                  <g id="Group_8" data-name="Group 8">
                    <path id="Path_6" data-name="Path 6" d="M353.687,253.08a9.915,9.915,0,0,0-6.518,3.16c-.6.637-1.471-.413-.876-1.043a11.072,11.072,0,0,1,7.176-3.461c.868-.076,1.094,1.267.218,1.343Z" transform="translate(-346.093 -251.733)" fill="url(#linear-gradient)"/>
                  </g>
                </g>
                <g id="Group_11" data-name="Group 11" transform="translate(5.362 6.81)">
                  <g id="Group_10" data-name="Group 10">
                    <path id="Path_7" data-name="Path 7" d="M350.711,253.478a9.766,9.766,0,0,0-5.6,4.336c-.463.749-1.573-.04-1.114-.782a11.185,11.185,0,0,1,6.492-4.9c.839-.248,1.05,1.1.218,1.344Z" transform="translate(-343.892 -252.103)" fill="url(#linear-gradient-5)"/>
                  </g>
                </g>
              </g>
              <path id="Path_8" data-name="Path 8" d="M295.424,251.656l32.106-.236,11.478-29.834c1.574-4.278,6.145-7.571,10.107-5.317h0c3.435,1.954,3.49,6.7,1.688,10.217l-16.27,35.523c-.607,1.47-37.439-6.044-37.439-6.044Z" transform="translate(-282.368 -215.538)" fill="url(#linear-gradient-6)"/>
            </g>
            <path id="Path_9" data-name="Path 9" d="M323.057,271.7c-1.782.683-20.831,45.27-20.831,45.27L292.736,367.2l4.972-1.33,12.133-32.635V318.977l31.98-37.694Z" transform="translate(-228.465 -156.028)" fill="url(#linear-gradient-7)"/>
            <g id="Group_16" data-name="Group 16" transform="translate(0 106.45)">
              <g id="Group_14" data-name="Group 14" transform="translate(8.072 3.645)">
                <path id="Path_10" data-name="Path 10" d="M331.4,375.629l-1.912.188-7.056-108.679,1.912-.187Z" transform="translate(-260.98 -266.949)" fill="#002856"/>
                <path id="Path_11" data-name="Path 11" d="M374.776,375.629l1.912.188,7.056-108.679-1.912-.187Z" transform="translate(-374.776 -266.949)" fill="#002856"/>
              </g>
              <rect id="Rectangle_3" data-name="Rectangle 3" width="85.744" height="2.626" transform="translate(0.41 0)" fill="#9e9d98"/>
              <rect id="Rectangle_4" data-name="Rectangle 4" width="70.033" height="2.626" transform="translate(8.265 2.626)" fill="#002856"/>
              <g id="Group_15" data-name="Group 15" transform="translate(0 3.645)">
                <path id="Path_12" data-name="Path 12" d="M326.58,384.175l-2.35.2-8.674-117.226,2.35-.2Z" transform="translate(-240.016 -266.949)" fill="#002856"/>
                <path id="Path_13" data-name="Path 13" d="M379.9,384.175l2.35.2,8.674-117.226-2.35-.2Z" transform="translate(-379.901 -266.949)" fill="#002856"/>
              </g>
            </g>
            <g id="Group_20" data-name="Group 20" transform="translate(91.669 119.632)">
              <g id="Group_17" data-name="Group 17" transform="translate(0 96.067)">
                <path id="Path_14" data-name="Path 14" d="M317.481,361.71v1.873c0,2.657-9.471,4.809-21.158,4.809s-21.155-2.152-21.155-4.809V361.71c0-2.653,9.471-4.809,21.155-4.809S317.481,359.056,317.481,361.71Z" transform="translate(-275.168 -356.901)" fill="#002856"/>
                <path id="Path_15" data-name="Path 15" d="M302.383,361.71c0-2.653-9.471-4.809-21.158-4.809-2.106,0-4.137.07-6.057.2l9.359,9.359C294.645,366.1,302.383,364.112,302.383,361.71Z" transform="translate(-260.07 -356.901)" fill="#cccbc4"/>
                <path id="Path_16" data-name="Path 16" d="M290.377,361.68c0,2.658,9.471,4.81,21.155,4.81q1.685,0,3.3-.059l-9.359-9.359C296.744,357.665,290.377,359.506,290.377,361.68Z" transform="translate(-290.377 -356.871)" fill="#9e9d98"/>
              </g>
              <rect id="Rectangle_5" data-name="Rectangle 5" width="2.186" height="93.785" transform="translate(19.783 5.624)" fill="#002856"/>
              <g id="Group_18" data-name="Group 18" transform="translate(2.015 62.391)">
                <path id="Path_17" data-name="Path 17" d="M315.113,334.681c0-4.245-9.536-6.465-18.957-6.465s-18.957,2.22-18.957,6.465,9.537,6.466,18.957,6.466S315.113,338.927,315.113,334.681Zm-2,0c0,1.82-6.6,4.462-16.953,4.462S279.2,336.5,279.2,334.681s6.6-4.462,16.953-4.462S313.109,332.862,313.109,334.681Z" transform="translate(-277.199 -328.216)" fill="#002856"/>
              </g>
              <g id="Group_19" data-name="Group 19" transform="translate(0)">
                <path id="Path_18" data-name="Path 18" d="M275.169,279.17v6.68c0,2.656,9.472,4.81,21.156,4.81s21.156-2.154,21.156-4.81v-6.68Z" transform="translate(-275.169 -274.36)" fill="#9e9d98"/>
                <path id="Path_19" data-name="Path 19" d="M317.481,279.883c0,2.657-9.472,4.81-21.156,4.81s-21.156-2.153-21.156-4.81,9.472-4.81,21.156-4.81S317.481,277.226,317.481,279.883Z" transform="translate(-275.169 -275.073)" fill="#d6d5ca"/>
              </g>
            </g>
            <path id="Path_20" data-name="Path 20" d="M314.3,226.909a21.248,21.248,0,0,1-10.27,6.729,9.847,9.847,0,0,1-4.437.43,4.806,4.806,0,0,1-3.549-2.477,3.218,3.218,0,0,1,.962-4,5.524,5.524,0,0,1-3.583-9.441,9.79,9.79,0,0,1-8.613-3.173,16.2,16.2,0,0,1-3.87-8.6,24.6,24.6,0,0,1,5.207-19.243c-2.348-.851-1.6-7.757,4.094-11.059,4.235-2.455,9.4-3.07,14.288-2.867a20.054,20.054,0,0,1,13.3,5.4c5.1,5.072,6.32,13.1,4.751,20.126-.5,2.252-1.158,4.925.412,6.616a9.093,9.093,0,0,0,2.913,1.673,3.5,3.5,0,0,1,2.2,2.383c.288,2.1-2.6,3.5-2.616,5.615-.016,1.558,1.484,2.629,2.732,3.564s2.5,2.484,1.837,3.893c-.527,1.111-1.927,1.405-3.1,1.77s-2.484,1.311-2.2,2.508c.244,1.047,1.578,1.507,1.939,2.521.421,1.182-.81,2.427-2.062,2.518a6.2,6.2,0,0,1-3.5-1.226C319.056,229.323,316.375,228.154,314.3,226.909Z" transform="translate(-202.688 -173.173)" fill="#002856"/>
            <g id="Group_21" data-name="Group 21" transform="translate(60.491 103.717)">
              <path id="Path_21" data-name="Path 21" d="M332.288,264.912c5.026.342,10.237-4.149,13.737-3.284,2.043.506,3.1,4.336,3.045,5.89-.15,4-.485,9.324-2.8,12.421-6.429,8.618-58.94,15.166-58.94,15.166l11.082,13.022,12.115,34.865-3.644,3.3-34.1-57.857S318.674,263.987,332.288,264.912Z" transform="translate(-272.786 -261.517)" fill="url(#linear-gradient-8)"/>
              <path id="Path_22" data-name="Path 22" d="M302.9,341.919l2.433-6.729,4.167-3.856,5.48,2.921L300.6,349.722l-.491-2.2Z" transform="translate(-270.779 -249.368)" fill="#002856"/>
            </g>
            <path id="Path_23" data-name="Path 23" d="M279.488,216.225c2.029-3.109,2.875-8.806,6.891-9.286,9.594-1.147,14.917,8.231,15.861,16.172.62,5.207,1,10.435,1.477,15.655.289,3.153.05,7.707,1.635,10.573,2.779,5.026,9.56,16.27,13.415,22.7,1.3,2.175,1.847,4.573-.686,4.737l-33.977,2.239s-.851-13.812,0-21.479c.6-5.408-1.656-8.765-3.224-13.877-.725-2.363-.957-3.585-2.707-5.539-1.692-1.89-4.849-4.1-5.464-6.736C271.417,225.863,276.493,220.813,279.488,216.225Z" transform="translate(-182.751 -167.314)" fill="url(#linear-gradient-9)"/>
            <g id="Group_22" data-name="Group 22" transform="translate(86.6 14.496)">
              <path id="Path_24" data-name="Path 24" d="M297.2,198.644c1.2-1,1.364-2.794,1.046-4.318s-1.018-2.957-1.236-4.5.208-3.347,1.573-4.095c0,0,9.4-1.745,11.517,4.781a13,13,0,0,0,3.2,5.017c-.066-3.7,3.158-2.753,3.942-1.947a2.726,2.726,0,0,1,.4,3.126,2.934,2.934,0,0,1-2.744,1.6l4.073,14.128c-2.182,1.281-4.469,2.37-6.713,3.519a5.2,5.2,0,0,1-1.026-1.89c-.944-3.095-3.082-5.858-4.036-5.6-1.915.521-3.749,2.343-5.561,1.536-1.414-.628-1.735-2.458-1.836-4s-.337-3.362-1.7-4.091c-.886-.474-2.294-.621-2.318-1.625C295.754,199.534,296.616,199.129,297.2,198.644Z" transform="translate(-295.772 -185.521)" fill="url(#linear-gradient)"/>
            </g>
            <path id="Path_25" data-name="Path 25" d="M301.864,212.907a4.409,4.409,0,0,0,2.683-.9,2.941,2.941,0,0,0,.783-2.214,8.736,8.736,0,0,0-.513-2.354,16.253,16.253,0,0,0-4.522-1.1,5.484,5.484,0,0,0-4.272,1.5,8.126,8.126,0,0,0-.964,1.364q-1.432,2.358-2.865,4.715Z" transform="translate(-191.338 -167.404)" fill="url(#linear-gradient-9)"/>
            <g id="Group_32" data-name="Group 32" transform="translate(52.649 48.194)">
              <g id="Group_31" data-name="Group 31" transform="translate(0 42.834)">
                <path id="Path_26" data-name="Path 26" d="M339.482,250.709l-7.252,4.188,4.619,6.047L340.9,258.1l.986-3.991Z" transform="translate(-327.545 -250.709)" fill="url(#linear-gradient)"/>
                <g id="Group_24" data-name="Group 24" transform="translate(0 3.582)">
                  <g id="Group_23" data-name="Group 23">
                    <path id="Path_27" data-name="Path 27" d="M344.952,255.081a8.216,8.216,0,0,0-5,3.342c-.51.715-1.513-.207-1.011-.911a9.373,9.373,0,0,1,5.607-3.732c.85-.195,1.258,1.1.4,1.3Z" transform="translate(-338.806 -253.76)" fill="url(#linear-gradient)"/>
                  </g>
                </g>
                <g id="Group_26" data-name="Group 26" transform="translate(0.199 5.505)">
                  <g id="Group_25" data-name="Group 25">
                    <path id="Path_28" data-name="Path 28" d="M344.933,256.719a9.918,9.918,0,0,0-6.022,4.027c-.51.715-1.513-.208-1.01-.912a11.072,11.072,0,0,1,6.631-4.415c.849-.195,1.259,1.1.4,1.3Z" transform="translate(-337.765 -255.398)" fill="url(#linear-gradient)"/>
                  </g>
                </g>
                <g id="Group_28" data-name="Group 28" transform="translate(2.374 6.808)">
                  <g id="Group_27" data-name="Group 27">
                    <path id="Path_29" data-name="Path 29" d="M343.08,257.829a9.916,9.916,0,0,0-6.022,4.026c-.51.715-1.513-.207-1.01-.912a11.074,11.074,0,0,1,6.631-4.414c.85-.195,1.259,1.1.4,1.3Z" transform="translate(-335.911 -256.508)" fill="url(#linear-gradient)"/>
                  </g>
                </g>
                <g id="Group_30" data-name="Group 30" transform="translate(5.974 6.863)">
                  <g id="Group_29" data-name="Group 29">
                    <path id="Path_30" data-name="Path 30" d="M339.912,257.919a9.757,9.757,0,0,0-4.947,5.064c-.356.805-1.564.177-1.21-.621a11.173,11.173,0,0,1,5.757-5.743c.8-.362,1.189.943.4,1.3Z" transform="translate(-333.691 -256.556)" fill="url(#linear-gradient)"/>
                  </g>
                </g>
              </g>
              <path id="Path_31" data-name="Path 31" d="M289.988,257.058l31.768-4.647,7.268-31.128c.971-4.454,5.046-8.345,9.281-6.657h0c3.67,1.463,4.378,6.158,3.076,9.888L330.15,261.937c-.4,1.539-37.915-.839-37.915-.839Z" transform="translate(-278.051 -214.224)" fill="url(#linear-gradient)"/>
            </g>
            <g id="Group_34" data-name="Group 34" transform="translate(13.725 81.353)">
              <path id="Path_32" data-name="Path 32" d="M381.975,265.932H349.533l-4.839-19.876a2.9,2.9,0,0,1,2.82-3.588h26.468a2.9,2.9,0,0,1,2.819,2.215Z" transform="translate(-343.244 -242.468)" fill="#eeebd4"/>
              <path id="Path_33" data-name="Path 33" d="M358.71,243.479a2.885,2.885,0,0,0-.483,2.4l4.839,19.876h17.919Z" transform="translate(-358.144 -242.292)" fill="#cccbc4"/>
              <path id="Path_34" data-name="Path 34" d="M359.818,262.453H331.84l1.634,1.634h27.978A1.634,1.634,0,0,0,359.818,262.453Z" transform="translate(-307.73 -238.99)" fill="#c5c4bb"/>
              <path id="Path_35" data-name="Path 35" d="M355.671,262.453a1.631,1.631,0,0,0,1.631,1.634h19.19l-1.634-1.634Z" transform="translate(-350.748 -238.99)" fill="#c0afae"/>
              <path id="Path_36" data-name="Path 36" d="M348.2,264.087H333.472a1.632,1.632,0,0,1-1.632-1.634h14.724A1.634,1.634,0,0,1,348.2,264.087Z" transform="translate(-294.476 -238.99)" fill="#eeebd4"/>
              <g id="Group_33" data-name="Group 33" transform="translate(0.566)">
                <path id="Path_37" data-name="Path 37" d="M382.572,265.932,377.4,244.683a2.9,2.9,0,0,0-2.82-2.215H348.111a2.886,2.886,0,0,0-2.336,1.187l22.276,22.277Z" transform="translate(-345.775 -242.468)" fill="#d6d5ca"/>
                <path id="Path_38" data-name="Path 38" d="M361.687,253.548a1.944,1.944,0,0,0,1.83,1.816,1.583,1.583,0,0,0,1.519-1.816,1.942,1.942,0,0,0-1.829-1.815A1.582,1.582,0,0,0,361.687,253.548Z" transform="translate(-346.919 -240.856)" fill="#fff"/>
              </g>
            </g>
            <g id="Group_35" data-name="Group 35" transform="translate(1.994 80.485)">
              <path id="Path_39" data-name="Path 39" d="M386.667,243.121v9.22a.4.4,0,0,1-.8,0v-4.61a1.4,1.4,0,0,0-1.4-1.4h0a1.4,1.4,0,0,0-1.4,1.4v4.71a3.107,3.107,0,0,0,3.108,3.106h.1a.4.4,0,0,1,.4.4v4.111a.4.4,0,0,0,.4.4h.58V241.79A1.4,1.4,0,0,0,386.667,243.121Z" transform="translate(-382.325 -241.718)" fill="#00acc1"/>
              <path id="Path_40" data-name="Path 40" d="M382.461,246.338h0a1.4,1.4,0,0,0-1.4,1.4v6.713a.4.4,0,1,1-.8,0V243.132a1.4,1.4,0,0,0-1.4-1.4h0a1.4,1.4,0,0,0-.423.072V260.47h1.424a.4.4,0,0,0,.4-.4v-2.008a.4.4,0,0,1,.4-.4h.15a3.056,3.056,0,0,0,3.056-3.057v-6.863A1.4,1.4,0,0,0,382.461,246.338Z" transform="translate(-373.11 -241.729)" fill="#00838f"/>
              <path id="Path_41" data-name="Path 41" d="M389.394,261.1v-5.033H377.237v.656l8.454,8.454A4.1,4.1,0,0,0,389.394,261.1Z" transform="translate(-377.237 -239.234)" fill="#005077"/>
              <path id="Path_42" data-name="Path 42" d="M380.391,256.627V261a4.1,4.1,0,0,0,4.1,4.1h3.962c.133,0,.264-.008.394-.02Z" transform="translate(-380.391 -239.137)" fill="#002856"/>
            </g>
            <g id="Group_36" data-name="Group 36" transform="translate(70.789 105.282)">
              <path id="Path_43" data-name="Path 43" d="M324.942,262.85A1.148,1.148,0,0,0,323.794,264h6.1l-1.148-1.148Z" transform="translate(-323.794 -262.85)" fill="#d3c0be"/>
              <path id="Path_44" data-name="Path 44" d="M324.761,262.85H318.24L319.388,264h6.52A1.148,1.148,0,0,0,324.761,262.85Z" transform="translate(-313.283 -262.85)" fill="#d6d5ca"/>
            </g>
            <path id="Path_45" data-name="Path 45" d="M332.976,358.86l5.362-4.738,5.506-1.386,3.408,5.192-20.04,6.675.623-2.163Z" transform="translate(-274.371 -141.927)" fill="#002856"/>
          </g>
        </g>
        <g id="Group_60" data-name="Group 60" transform="translate(-33.083 137.796)">
          <path id="Path_54" data-name="Path 54" d="M191.859,365.321c13.131-.134,19.48-1.3,32.588-1.035.731-.519,4.568.058,5.914.166,8.621.692,14.094,2.373,22.7,3.18,1.192.113,1.192,1.274,0,1.385-6.449.606-12.98.513-19.473.72-.08.922-1.156,1.753-3.315,1.729-15.313-.166-30.516-.622-45.778-1.331C181.2,369.981,188.47,365.356,191.859,365.321Z" transform="translate(-182.111 -252.737)" fill="#005077" opacity="0.1"/>
          <g id="Group_59" data-name="Group 59" transform="translate(0)">
            <g id="Group_47" data-name="Group 47" transform="translate(11.217 72.833)">
              <path id="Path_55" data-name="Path 55" d="M195.365,373.477h46.889v-42.2H195.365Zm38.553-8.337H203.7V339.613h30.218Z" transform="translate(-195.365 -331.277)" fill="#cccbc4"/>
            </g>
            <g id="Group_58" data-name="Group 58">
              <g id="Group_48" data-name="Group 48" transform="translate(27.339)">
                <path id="Path_56" data-name="Path 56" d="M219.5,270.382c.491,2.033.929,4.1,1.334,6.178l.822.441Q220.68,273.657,219.5,270.382Z" transform="translate(-219.223 -269.041)" fill="#005077"/>
                <path id="Path_57" data-name="Path 57" d="M219.469,276.085l-.822-.441c.234,1.2.434,2.419.642,3.632l1.181.5C220.154,278.54,219.826,277.308,219.469,276.085Z" transform="translate(-217.037 -268.125)" fill="#008da7"/>
                <path id="Path_58" data-name="Path 58" d="M217.946,287.986l-1.875-.757q.416,3.5.7,6.976l2.08.832C218.615,292.679,218.325,290.326,217.946,287.986Z" transform="translate(-212.398 -266.109)" fill="#005077"/>
                <path id="Path_59" data-name="Path 59" d="M217.849,294l-2.08-.832c.036.439.082.881.116,1.317.073.935.121,1.87.164,2.806l2.154,1C218.108,296.861,217.995,295.431,217.849,294Z" transform="translate(-211.392 -265.075)" fill="#008da7"/>
                <path id="Path_60" data-name="Path 60" d="M217.772,297.681l-2.154-1a91.164,91.164,0,0,1-.083,9.973l2.494,1.561Q218.118,302.95,217.772,297.681Z" transform="translate(-210.96 -264.464)" fill="#005077"/>
                <path id="Path_61" data-name="Path 61" d="M218.316,306.739l-2.494-1.561c-.02.329-.033.657-.058.986-.054.722-.13,1.457-.214,2.2l2.679,1.163C218.267,308.6,218.3,307.669,218.316,306.739Z" transform="translate(-211.248 -262.986)" fill="#008da7"/>
                <path id="Path_62" data-name="Path 62" d="M218.83,309.054l-2.679-1.163c-.2,1.793-.439,3.628-.527,5.45l2.839,1.594Q218.715,312,218.83,309.054Z" transform="translate(-211.848 -262.513)" fill="#005077"/>
                <path id="Path_63" data-name="Path 63" d="M216.121,314.455a14.612,14.612,0,0,0,.659,3.981,1.065,1.065,0,0,0,1.615.581c.13-.992.244-1.988.348-2.984Z" transform="translate(-212.344 -261.371)" fill="#005077"/>
                <path id="Path_64" data-name="Path 64" d="M218.8,314.127l-2.839-1.594c-.036.757-.031,1.509,0,2.256l2.622,1.578C218.662,315.622,218.736,314.875,218.8,314.127Z" transform="translate(-212.186 -261.706)" fill="#008da7"/>
                <path id="Path_65" data-name="Path 65" d="M218.524,284.629l-1.678-.765c.182,1.317.346,2.634.5,3.951l1.875.757C219.011,287.255,218.781,285.939,218.524,284.629Z" transform="translate(-213.677 -266.695)" fill="#008da7"/>
                <path id="Path_66" data-name="Path 66" d="M218.624,279.237l-1.181-.5c.343,2,.64,4.007.917,6.018l1.678.765C219.622,283.413,219.156,281.316,218.624,279.237Z" transform="translate(-215.191 -267.587)" fill="#005077"/>
                <path id="Path_67" data-name="Path 67" d="M222.1,275q-1.488-2.86-3.27-5.682a.155.155,0,0,0-.284.115c.1.382.18.77.271,1.153.713,1.97,1.358,3.965,1.958,5.975Z" transform="translate(-218.54 -269.239)" fill="#008da7"/>
                <path id="Path_68" data-name="Path 68" d="M218.356,274.142l-1.324,1.56c.4,1.334.761,2.678,1.109,4.027l1.985-1.883C219.573,276.6,218.994,275.366,218.356,274.142Z" transform="translate(-214.797 -268.386)" fill="#62afbd"/>
                <path id="Path_69" data-name="Path 69" d="M219.372,283.6a61.556,61.556,0,0,0-2.4-6.3l-1.985,1.883c.574,2.222,1.074,4.465,1.517,6.721Z" transform="translate(-211.647 -267.837)" fill="#008da7"/>
                <path id="Path_70" data-name="Path 70" d="M217.148,282.663l-2.865,2.3c.218,1.113.414,2.232.6,3.352l3.095-2.792C217.723,284.564,217.45,283.608,217.148,282.663Z" transform="translate(-209.422 -266.904)" fill="#62afbd"/>
                <path id="Path_71" data-name="Path 71" d="M217.6,292.859a59.3,59.3,0,0,0-1.512-7.756l-3.095,2.792c.444,2.665.782,5.348,1.046,8.037Z" transform="translate(-207.533 -266.479)" fill="#008da7"/>
                <path id="Path_72" data-name="Path 72" d="M216.488,294.082c-.07-.8-.16-1.59-.259-2.373l-3.561,3.074c.146,1.483.255,2.968.346,4.454l3.6-3.266C216.57,295.341,216.543,294.711,216.488,294.082Z" transform="translate(-206.16 -265.329)" fill="#62afbd"/>
                <path id="Path_73" data-name="Path 73" d="M216.23,305.093a93.537,93.537,0,0,0-.139-9.754l-3.6,3.266q.289,4.661.225,9.33Z" transform="translate(-205.638 -264.698)" fill="#008da7"/>
                <path id="Path_74" data-name="Path 74" d="M216.154,303.647l-3.511,2.842c-.014,1.135-.047,2.269-.093,3.4l3.36-2.1C216.029,306.414,216.1,305.03,216.154,303.647Z" transform="translate(-205.563 -263.252)" fill="#62afbd"/>
                <path id="Path_75" data-name="Path 75" d="M216.46,307.214l0-.035-3.36,2.1q-.111,2.774-.344,5.535l2.611-.472A39.958,39.958,0,0,0,216.46,307.214Z" transform="translate(-206.115 -262.637)" fill="#008da7"/>
                <path id="Path_76" data-name="Path 76" d="M216.523,313.279l-2.611.472c-.066.77-.142,1.539-.223,2.308l1.848-.08A16.961,16.961,0,0,0,216.523,313.279Z" transform="translate(-207.269 -261.576)" fill="#62afbd"/>
                <path id="Path_77" data-name="Path 77" d="M214.9,315.659c-.11,1.057-.23,2.111-.369,3.163a.9.9,0,0,0,.119-.1,11.9,11.9,0,0,0,2.1-3.148Z" transform="translate(-208.478 -261.176)" fill="#008da7"/>
              </g>
              <g id="Group_52" data-name="Group 52" transform="translate(0 11.517)">
                <g id="Group_49" data-name="Group 49" transform="translate(15.569)">
                  <path id="Path_78" data-name="Path 78" d="M228.359,279.969c.87,1.559,1.706,3.153,2.517,4.769l.777.173Q230.082,282.389,228.359,279.969Z" transform="translate(-227.851 -278.89)" fill="#005077"/>
                  <path id="Path_79" data-name="Path 79" d="M227.712,284.2l-.777-.173c.47.935.915,1.887,1.364,2.835l1.085.138C228.84,286.062,228.286,285.126,227.712,284.2Z" transform="translate(-223.91 -278.183)" fill="#008da7"/>
                  <path id="Path_80" data-name="Path 80" d="M223.144,293.334l-1.714-.19q1.148,2.782,2.185,5.568l1.9.2C224.775,297.035,223.994,295.168,223.144,293.334Z" transform="translate(-213.579 -276.597)" fill="#005077"/>
                  <path id="Path_81" data-name="Path 81" d="M222.241,298.091l-1.9-.2c.132.352.27.7.4,1.055.275.75.529,1.509.781,2.267l2,.324C223.111,300.379,222.689,299.23,222.241,298.091Z" transform="translate(-210.304 -275.772)" fill="#008da7"/>
                  <path id="Path_82" data-name="Path 82" d="M220.1,301.041l-2-.324a77.953,77.953,0,0,1,2.228,8.212l2.408.708Q221.592,305.291,220.1,301.041Z" transform="translate(-206.879 -275.279)" fill="#005077"/>
                  <path id="Path_83" data-name="Path 83" d="M220.016,308.42l-2.408-.708c.059.275.124.548.18.823.122.606.229,1.227.331,1.856l2.469.339C220.4,309.959,220.217,309.188,220.016,308.42Z" transform="translate(-204.164 -274.062)" fill="#008da7"/>
                  <path id="Path_84" data-name="Path 84" d="M219.181,310.333l-2.469-.339c.247,1.518.474,3.082.822,4.6l2.7.656Q219.764,312.782,219.181,310.333Z" transform="translate(-202.757 -273.665)" fill="#005077"/>
                  <path id="Path_85" data-name="Path 85" d="M216.082,315.489a12.514,12.514,0,0,0,1.459,3.119.908.908,0,0,0,1.46.106c-.121-.845-.257-1.689-.4-2.532Z" transform="translate(-200.787 -272.709)" fill="#005077"/>
                  <path id="Path_86" data-name="Path 86" d="M219.123,314.567l-2.7-.656c.144.63.322,1.247.519,1.853l2.518.693Q219.3,315.511,219.123,314.567Z" transform="translate(-201.647 -272.983)" fill="#008da7"/>
                  <path id="Path_87" data-name="Path 87" d="M225,290.721l-1.554-.243q.678,1.56,1.323,3.13l1.714.19C226.008,292.765,225.517,291.737,225,290.721Z" transform="translate(-216.922 -277.061)" fill="#008da7"/>
                  <path id="Path_88" data-name="Path 88" d="M225.8,286.585l-1.085-.138c.741,1.564,1.448,3.146,2.139,4.734l1.554.243Q227.167,288.968,225.8,286.585Z" transform="translate(-220.324 -277.763)" fill="#005077"/>
                  <path id="Path_89" data-name="Path 89" d="M232.223,283q-1.881-2.008-3.994-3.915a.132.132,0,0,0-.207.16c.166.291.324.591.488.884,1.038,1.455,2.027,2.946,2.983,4.458Z" transform="translate(-228.003 -279.05)" fill="#008da7"/>
                  <path id="Path_90" data-name="Path 90" d="M226.767,282.415,226.038,284c.634,1,1.242,2.025,1.839,3.052l1.2-2C228.333,284.156,227.572,283.274,226.767,282.415Z" transform="translate(-222.547 -278.464)" fill="#62afbd"/>
                  <path id="Path_91" data-name="Path 91" d="M227.742,289.283a52.6,52.6,0,0,0-3.42-4.623l-1.2,2q1.476,2.541,2.794,5.173Z" transform="translate(-217.796 -278.074)" fill="#008da7"/>
                  <path id="Path_92" data-name="Path 92" d="M223.805,288.6l-1.823,2.552c.436.864.855,1.738,1.266,2.615l1.9-3.005C224.715,290.027,224.27,289.3,223.805,288.6Z" transform="translate(-213.859 -277.388)" fill="#62afbd"/>
                  <path id="Path_93" data-name="Path 93" d="M224.33,296.462a50.632,50.632,0,0,0-3.028-6.023l-1.9,3.005c.978,2.087,1.874,4.214,2.71,6.362Z" transform="translate(-210.014 -277.068)" fill="#008da7"/>
                  <path id="Path_94" data-name="Path 94" d="M221.276,297.459c-.242-.642-.5-1.269-.76-1.89l-2.218,3.345c.461,1.185.893,2.38,1.311,3.581l2.2-3.511C221.633,298.475,221.466,297.963,221.276,297.459Z" transform="translate(-206.2 -276.175)" fill="#62afbd"/>
                  <path id="Path_95" data-name="Path 95" d="M220.851,306.457a79.62,79.62,0,0,0-2.361-7.98l-2.2,3.511q1.31,3.762,2.333,7.612Z" transform="translate(-202.878 -275.669)" fill="#008da7"/>
                  <path id="Path_96" data-name="Path 96" d="M217.877,305.274l-2.231,3.144q.373,1.4.708,2.816l2.276-2.5C218.41,307.576,218.153,306.422,217.877,305.274Z" transform="translate(-199.903 -274.486)" fill="#62afbd"/>
                  <path id="Path_97" data-name="Path 97" d="M217.289,308.253l-.006-.029-2.276,2.5q.546,2.3.991,4.627l2.036-.99A34.033,34.033,0,0,0,217.289,308.253Z" transform="translate(-198.556 -273.973)" fill="#008da7"/>
                  <path id="Path_98" data-name="Path 98" d="M217.043,313.449l-2.036.99c.123.648.237,1.3.349,1.947l1.5-.49A14.379,14.379,0,0,0,217.043,313.449Z" transform="translate(-197.565 -273.064)" fill="#62afbd"/>
                  <path id="Path_99" data-name="Path 99" d="M215.167,316.023c.153.893.3,1.788.425,2.684a.9.9,0,0,0,.076-.106,10.182,10.182,0,0,0,1-3.068Z" transform="translate(-197.377 -272.701)" fill="#008da7"/>
                </g>
                <g id="Group_50" data-name="Group 50" transform="translate(0 11.209)">
                  <path id="Path_100" data-name="Path 100" d="M239.841,289.317c1.431,1.065,2.847,2.179,4.248,3.32l.781-.161Q242.4,290.819,239.841,289.317Z" transform="translate(-238.979 -288.472)" fill="#005077"/>
                  <path id="Path_101" data-name="Path 101" d="M238.346,292.008l-.781.161c.811.661,1.607,1.348,2.406,2.029l1.047-.317C240.135,293.243,239.247,292.615,238.346,292.008Z" transform="translate(-232.455 -288.004)" fill="#008da7"/>
                  <path id="Path_102" data-name="Path 102" d="M229.48,298.328l-1.642.528q2.187,2.067,4.273,4.187l1.817-.591C232.482,301.038,231.007,299.653,229.48,298.328Z" transform="translate(-213.946 -286.904)" fill="#005077"/>
                  <path id="Path_103" data-name="Path 103" d="M227.461,301.841l-1.817.591c.263.268.534.532.8.8.558.573,1.1,1.16,1.64,1.749l1.957-.524C229.192,303.572,228.337,302.7,227.461,301.841Z" transform="translate(-207.479 -286.293)" fill="#008da7"/>
                  <path id="Path_104" data-name="Path 104" d="M222.555,304.069l-1.957.524a77.807,77.807,0,0,1,5.393,6.582l2.488-.339Q225.66,307.334,222.555,304.069Z" transform="translate(-199.997 -285.905)" fill="#005077"/>
                  <path id="Path_105" data-name="Path 105" d="M221.837,309.832l-2.488.339c.167.227.338.448.5.677.359.5.71,1.026,1.061,1.557l2.391-.7C222.819,311.076,222.333,310.45,221.837,309.832Z" transform="translate(-193.354 -284.902)" fill="#008da7"/>
                  <path id="Path_106" data-name="Path 106" d="M219.209,311.427l-2.391.7c.846,1.286,1.694,2.618,2.631,3.86l2.732-.506Q220.744,313.423,219.209,311.427Z" transform="translate(-189.261 -284.624)" fill="#005077"/>
                  <path id="Path_107" data-name="Path 107" d="M214.7,316.63a12.493,12.493,0,0,0,2.607,2.249.908.908,0,0,0,1.376-.5q-.685-1.083-1.4-2.146Z" transform="translate(-183.281 -283.788)" fill="#005077"/>
                  <path id="Path_108" data-name="Path 108" d="M218.629,314.881l-2.732.506c.39.517.8,1.006,1.233,1.478l2.58-.4C219.354,315.936,219,315.406,218.629,314.881Z" transform="translate(-185.709 -284.023)" fill="#008da7"/>
                  <path id="Path_109" data-name="Path 109" d="M233.145,296.453l-1.518.414c.839.764,1.666,1.538,2.488,2.315l1.642-.528C234.9,297.908,234.029,297.17,233.145,296.453Z" transform="translate(-220.223 -287.23)" fill="#008da7"/>
                  <path id="Path_110" data-name="Path 110" d="M234.9,293.6l-1.047.317c1.316,1.124,2.609,2.278,3.888,3.443l1.518-.414C237.834,295.795,236.383,294.675,234.9,293.6Z" transform="translate(-226.336 -287.726)" fill="#005077"/>
                  <path id="Path_111" data-name="Path 111" d="M245.663,290.542c-1.692-.708-3.436-1.352-5.247-1.938a.133.133,0,0,0-.123.231c.27.2.538.406.808.607,1.543.9,3.056,1.856,4.546,2.846Z" transform="translate(-240.238 -288.597)" fill="#008da7"/>
                  <path id="Path_112" data-name="Path 112" d="M237.542,290.254,237.526,292c.99.657,1.962,1.34,2.927,2.032l.274-2.318C239.684,291.2,238.628,290.708,237.542,290.254Z" transform="translate(-232.118 -288.309)" fill="#62afbd"/>
                  <path id="Path_113" data-name="Path 113" d="M238.542,294.317a52.738,52.738,0,0,0-5.012-2.819l-.274,2.318q2.386,1.715,4.666,3.576Z" transform="translate(-224.922 -288.092)" fill="#008da7"/>
                  <path id="Path_114" data-name="Path 114" d="M232.08,293.9l-.62,3.075c.751.612,1.491,1.236,2.226,1.869l.5-3.52C233.495,294.831,232.794,294.353,232.08,293.9Z" transform="translate(-218.459 -287.675)" fill="#62afbd"/>
                  <path id="Path_115" data-name="Path 115" d="M232.738,299.368a50.786,50.786,0,0,0-5.227-4.256l-.5,3.52c1.746,1.5,3.434,3.077,5.076,4.7Z" transform="translate(-211.782 -287.464)" fill="#008da7"/>
                  <path id="Path_116" data-name="Path 116" d="M226.931,300.151c-.484-.487-.973-.954-1.466-1.414l-.654,3.96c.905.891,1.788,1.806,2.66,2.73l.573-4.106C227.673,300.931,227.31,300.532,226.931,300.151Z" transform="translate(-204.508 -286.833)" fill="#62afbd"/>
                  <path id="Path_117" data-name="Path 117" d="M226.187,307.253a79.7,79.7,0,0,0-5.419-6.315l-.573,4.106q2.735,2.9,5.244,5.991Z" transform="translate(-197.232 -286.45)" fill="#008da7"/>
                  <path id="Path_118" data-name="Path 118" d="M219.149,306.317,218.4,310.1q.916,1.127,1.8,2.28l1.057-3.21C220.578,308.2,219.871,307.253,219.149,306.317Z" transform="translate(-190.193 -285.514)" fill="#62afbd"/>
                  <path id="Path_119" data-name="Path 119" d="M216.753,308.769l-.016-.023-1.057,3.21q1.442,1.879,2.8,3.817l1.453-1.736A34.049,34.049,0,0,0,216.753,308.769Z" transform="translate(-185.675 -285.091)" fill="#008da7"/>
                  <path id="Path_120" data-name="Path 120" d="M216.426,313.252l-1.453,1.736c.378.54.748,1.086,1.115,1.633l1.168-1.06A14.43,14.43,0,0,0,216.426,313.252Z" transform="translate(-182.17 -284.307)" fill="#62afbd"/>
                  <path id="Path_121" data-name="Path 121" d="M214.666,316.279c.5.753,1,1.51,1.486,2.275a.729.729,0,0,0,.026-.128,10.151,10.151,0,0,0-.344-3.207Z" transform="translate(-180.748 -283.965)" fill="#008da7"/>
                </g>
                <g id="Group_51" data-name="Group 51" transform="translate(7.291 31.612)">
                  <path id="Path_122" data-name="Path 122" d="M234.506,306.361c1.206.467,2.409.971,3.608,1.5l.513-.262Q236.586,306.915,234.506,306.361Z" transform="translate(-233.764 -305.909)" fill="#005077"/>
                  <path id="Path_123" data-name="Path 123" d="M233.122,307.413l-.513.262c.693.305,1.382.63,2.071.952l.669-.424C234.611,307.928,233.869,307.662,233.122,307.413Z" transform="translate(-228.259 -305.726)" fill="#008da7"/>
                  <path id="Path_124" data-name="Path 124" d="M225.272,310.237l-1.045.687q1.927,1.021,3.791,2.1l1.155-.764C227.89,311.55,226.593,310.869,225.272,310.237Z" transform="translate(-212.243 -305.234)" fill="#005077"/>
                  <path id="Path_125" data-name="Path 125" d="M223.42,311.958l-1.155.764c.236.135.477.268.71.4.5.292.992.6,1.483.9l1.266-.743C224.963,312.833,224.2,312.387,223.42,311.958Z" transform="translate(-206.49 -304.935)" fill="#008da7"/>
                  <path id="Path_126" data-name="Path 126" d="M218.9,313.09l-1.266.743a56.624,56.624,0,0,1,5.037,3.553l1.671-.717Q221.694,314.77,218.9,313.09Z" transform="translate(-199.662 -304.738)" fill="#005077"/>
                  <path id="Path_127" data-name="Path 127" d="M218.12,316.138l-1.671.717c.16.126.323.249.481.377.348.281.694.579,1.041.882l1.534-.951C219.047,316.818,218.587,316.474,218.12,316.138Z" transform="translate(-193.444 -304.208)" fill="#008da7"/>
                  <path id="Path_128" data-name="Path 128" d="M215.549,317.011l-1.534.951c.839.734,1.688,1.5,2.583,2.186l1.809-.881Q217.005,318.109,215.549,317.011Z" transform="translate(-189.487 -304.056)" fill="#005077"/>
                  <path id="Path_129" data-name="Path 129" d="M211.923,320.475a9.033,9.033,0,0,0,2.255,1.066.657.657,0,0,0,.863-.615c-.458-.417-.924-.824-1.394-1.228Z" transform="translate(-183.667 -303.588)" fill="#005077"/>
                  <path id="Path_130" data-name="Path 130" d="M214.92,318.933l-1.809.881c.371.285.755.547,1.146.795l1.725-.777C215.63,319.529,215.277,319.229,214.92,318.933Z" transform="translate(-186.001 -303.721)" fill="#008da7"/>
                  <path id="Path_131" data-name="Path 131" d="M228.53,309.359l-.98.582c.734.371,1.46.751,2.185,1.135l1.045-.687C230.034,310.035,229.285,309.689,228.53,309.359Z" transform="translate(-217.75 -305.387)" fill="#008da7"/>
                  <path id="Path_132" data-name="Path 132" d="M230.135,308.086l-.669.424c1.135.53,2.261,1.086,3.379,1.653l.98-.582Q232,308.783,230.135,308.086Z" transform="translate(-223.045 -305.609)" fill="#005077"/>
                  <path id="Path_133" data-name="Path 133" d="M238.984,306.314c-1.317-.167-2.659-.281-4.036-.338a.1.1,0,0,0-.042.184c.228.086.454.18.681.268,1.252.331,2.492.706,3.724,1.108Z" transform="translate(-234.844 -305.976)" fill="#008da7"/>
                  <path id="Path_134" data-name="Path 134" d="M232.769,306.264l.326,1.222c.817.268,1.628.556,2.436.854l-.257-1.671C234.448,306.513,233.615,306.372,232.769,306.264Z" transform="translate(-228.629 -305.926)" fill="#62afbd"/>
                  <path id="Path_135" data-name="Path 135" d="M233.45,307.609a38.131,38.131,0,0,0-4.043-1l.257,1.671c1.331.491,2.646,1.026,3.947,1.6Z" transform="translate(-222.762 -305.866)" fill="#008da7"/>
                  <path id="Path_136" data-name="Path 136" d="M227.776,307.461l.161,2.266c.643.282,1.281.575,1.915.875l-.329-2.555C228.944,307.838,228.362,307.639,227.776,307.461Z" transform="translate(-217.088 -305.717)" fill="#62afbd"/>
                  <path id="Path_137" data-name="Path 137" d="M228.457,309.922a36.75,36.75,0,0,0-4.472-1.962l.329,2.555c1.51.713,2.991,1.485,4.451,2.3Z" transform="translate(-211.55 -305.631)" fill="#008da7"/>
                  <path id="Path_138" data-name="Path 138" d="M223.249,310.334c-.431-.245-.863-.478-1.3-.7l.308,2.89c.8.448,1.6.916,2.386,1.392l-.393-2.977C223.918,310.736,223.588,310.528,223.249,310.334Z" transform="translate(-205.046 -305.34)" fill="#62afbd"/>
                  <path id="Path_139" data-name="Path 139" d="M222.851,314.105a57.527,57.527,0,0,0-5-3.362l.393,2.977q2.467,1.493,4.818,3.169Z" transform="translate(-198.642 -305.146)" fill="#008da7"/>
                  <path id="Path_140" data-name="Path 140" d="M216.306,313.607l.209,2.784q.856.611,1.7,1.246l.116-2.445C217.668,314.645,216.992,314.12,216.306,313.607Z" transform="translate(-192.097 -304.648)" fill="#62afbd"/>
                  <path id="Path_141" data-name="Path 141" d="M213.669,314.97l-.018-.014-.116,2.445q1.37,1.032,2.69,2.123l.68-1.492A24.626,24.626,0,0,0,213.669,314.97Z" transform="translate(-187.421 -304.413)" fill="#008da7"/>
                  <path id="Path_142" data-name="Path 142" d="M213.342,317.576l-.68,1.492q.553.458,1.094.926l.611-.967A10.6,10.6,0,0,0,213.342,317.576Z" transform="translate(-183.859 -303.957)" fill="#62afbd"/>
                  <path id="Path_143" data-name="Path 143" d="M211.924,319.779c.5.427.992.859,1.477,1.3a.512.512,0,0,0-.006-.094,7.4,7.4,0,0,0-.861-2.174Z" transform="translate(-182.027 -303.742)" fill="#008da7"/>
                </g>
              </g>
              <g id="Group_56" data-name="Group 56" transform="translate(34.411 17.059)">
                <g id="Group_53" data-name="Group 53" transform="translate(1.469)">
                  <path id="Path_144" data-name="Path 144" d="M207.734,284.629c-.48,1.5-.929,3.035-1.354,4.58l-.6.269Q206.692,287.019,207.734,284.629Z" transform="translate(-197.74 -283.621)" fill="#005077"/>
                  <path id="Path_145" data-name="Path 145" d="M207.887,288.8l.6-.269c-.245.893-.471,1.8-.7,2.7l-.845.285C207.242,290.606,207.556,289.7,207.887,288.8Z" transform="translate(-199.842 -282.942)" fill="#008da7"/>
                  <path id="Path_146" data-name="Path 146" d="M210.093,297.6l1.34-.426q-.535,2.624-.98,5.234l-1.485.467C209.3,301.107,209.667,299.345,210.093,297.6Z" transform="translate(-205.175 -281.438)" fill="#005077"/>
                  <path id="Path_147" data-name="Path 147" d="M210.351,302.1l1.485-.467c-.056.33-.12.661-.174.99-.116.7-.216,1.409-.312,2.116l-1.549.586C209.97,304.246,210.15,303.171,210.351,302.1Z" transform="translate(-206.559 -280.662)" fill="#008da7"/>
                  <path id="Path_148" data-name="Path 148" d="M211.142,304.864l1.549-.586c-.343,2.507-.561,5.035-.654,7.568l-1.821.987Q210.529,308.832,211.142,304.864Z" transform="translate(-207.899 -280.202)" fill="#005077"/>
                  <path id="Path_149" data-name="Path 149" d="M210.913,311.711l1.821-.987c-.009.251-.025.5-.032.753-.014.552-.014,1.115-.009,1.684l-1.92.672C210.814,313.125,210.858,312.418,210.913,311.711Z" transform="translate(-208.596 -279.08)" fill="#008da7"/>
                  <path id="Path_150" data-name="Path 150" d="M210.961,313.471l1.92-.672c.009,1.375.042,2.786-.028,4.174l-2.058.986Q210.831,315.715,210.961,313.471Z" transform="translate(-208.784 -278.719)" fill="#005077"/>
                  <path id="Path_151" data-name="Path 151" d="M212.878,317.812a12.11,12.11,0,0,1-.736,2.967.7.7,0,0,1-1.147.313c-.019-.763-.026-1.527-.026-2.29Z" transform="translate(-208.97 -277.846)" fill="#005077"/>
                  <path id="Path_152" data-name="Path 152" d="M210.844,317.34l2.058-.986c-.028.578-.086,1.147-.161,1.712l-1.909.99C210.832,318.484,210.834,317.912,210.844,317.34Z" transform="translate(-208.833 -278.1)" fill="#008da7"/>
                  <path id="Path_153" data-name="Path 153" d="M209.2,295.105l1.2-.448q-.328,1.477-.626,2.956l-1.34.426C208.675,297.057,208.926,296.079,209.2,295.105Z" transform="translate(-203.516 -281.876)" fill="#008da7"/>
                  <path id="Path_154" data-name="Path 154" d="M208.949,291.117l.845-.285c-.377,1.489-.724,2.989-1.058,4.491l-1.2.448Q208.185,293.422,208.949,291.117Z" transform="translate(-201.853 -282.541)" fill="#005077"/>
                  <path id="Path_155" data-name="Path 155" d="M205.55,287.866q1.222-2.05,2.645-4.049a.109.109,0,0,1,.187.109c-.093.282-.178.569-.269.852-.628,1.438-1.213,2.9-1.767,4.376Z" transform="translate(-198.119 -283.77)" fill="#008da7"/>
                  <path id="Path_156" data-name="Path 156" d="M208.768,287.259l.8,1.288c-.367.98-.713,1.971-1.047,2.966l-1.227-1.584C207.758,289.029,208.243,288.138,208.768,287.259Z" transform="translate(-201.337 -283.163)" fill="#62afbd"/>
                  <path id="Path_157" data-name="Path 157" d="M208.182,294.121a49.1,49.1,0,0,1,2.091-4.588l1.227,1.584c-.553,1.64-1.054,3.3-1.519,4.977Z" transform="translate(-204.32 -282.767)" fill="#008da7"/>
                  <path id="Path_158" data-name="Path 158" d="M210.25,293.441l1.8,1.972c-.229.828-.443,1.66-.65,2.495l-1.922-2.361C209.72,294.837,209.975,294.134,210.25,293.441Z" transform="translate(-206.388 -282.087)" fill="#62afbd"/>
                  <path id="Path_159" data-name="Path 159" d="M210.03,301a48.835,48.835,0,0,1,1.588-5.761l1.922,2.361c-.493,1.985-.917,3.993-1.29,6.012Z" transform="translate(-208.53 -281.775)" fill="#008da7"/>
                  <path id="Path_160" data-name="Path 160" d="M211.349,301.921c.106-.6.223-1.193.348-1.779l2.22,2.612c-.205,1.112-.385,2.229-.554,3.349l-2.233-2.76C211.2,302.869,211.266,302.394,211.349,301.921Z" transform="translate(-210.196 -280.921)" fill="#62afbd"/>
                  <path id="Path_161" data-name="Path 161" d="M211.6,310.254q.22-3.712.79-7.385l2.233,2.76q-.53,3.512-.819,7.057Z" transform="translate(-211.459 -280.447)" fill="#008da7"/>
                  <path id="Path_162" data-name="Path 162" d="M212.427,309.159l2.2,2.433c-.072.862-.129,1.725-.18,2.588l-2.152-1.856C212.315,311.266,212.364,310.212,212.427,309.159Z" transform="translate(-212.285 -279.352)" fill="#62afbd"/>
                  <path id="Path_163" data-name="Path 163" d="M212.465,311.88v-.026l2.152,1.856q-.121,2.11-.159,4.223l-1.755-.564A33.564,33.564,0,0,1,212.465,311.88Z" transform="translate(-212.452 -278.883)" fill="#008da7"/>
                  <path id="Path_164" data-name="Path 164" d="M212.587,316.552l1.755.564c-.009.591-.012,1.179-.012,1.768l-1.26-.205A14.009,14.009,0,0,1,212.587,316.552Z" transform="translate(-212.334 -278.066)" fill="#62afbd"/>
                  <path id="Path_165" data-name="Path 165" d="M213.833,318.568q0,1.215.028,2.428a.618.618,0,0,1-.075-.081,9.423,9.423,0,0,1-1.213-2.552Z" transform="translate(-211.837 -277.751)" fill="#008da7"/>
                </g>
                <g id="Group_54" data-name="Group 54" transform="translate(1.937 7.523)">
                  <path id="Path_166" data-name="Path 166" d="M197.767,290.906c-.994,1.154-1.969,2.349-2.928,3.565l-.643-.023Q195.934,292.615,197.767,290.906Z" transform="translate(-174.636 -290.051)" fill="#005077"/>
                  <path id="Path_167" data-name="Path 167" d="M198.561,293.923l.643.023c-.555.7-1.1,1.429-1.638,2.15l-.877-.122C197.305,295.28,197.926,294.593,198.561,293.923Z" transform="translate(-179.002 -289.526)" fill="#008da7"/>
                  <path id="Path_168" data-name="Path 168" d="M204.718,300.728l1.379.217q-1.458,2.152-2.829,4.332l-1.529-.247C202.7,303.567,203.684,302.125,204.718,300.728Z" transform="translate(-191.824 -288.342)" fill="#005077"/>
                  <path id="Path_169" data-name="Path 169" d="M205.843,304.393l1.529.247c-.174.275-.353.548-.525.824-.366.588-.719,1.187-1.067,1.788l-1.63-.166C204.7,306.179,205.263,305.278,205.843,304.393Z" transform="translate(-195.927 -287.704)" fill="#008da7"/>
                  <path id="Path_170" data-name="Path 170" d="M209.3,306.687l1.63.166a71.673,71.673,0,0,0-3.4,6.61l-2.025.076Q207.271,310.031,209.3,306.687Z" transform="translate(-201.075 -287.305)" fill="#005077"/>
                  <path id="Path_171" data-name="Path 171" d="M209.311,312.534l2.025-.076c-.1.224-.207.446-.306.672-.217.5-.425,1.011-.632,1.532l-2-.256C208.7,313.779,209,313.153,209.311,312.534Z" transform="translate(-204.88 -286.301)" fill="#008da7"/>
                  <path id="Path_172" data-name="Path 172" d="M211.011,314.117l2,.256c-.5,1.26-.992,2.562-1.568,3.8l-2.244-.033Q210.061,316.105,211.011,314.117Z" transform="translate(-207.492 -286.012)" fill="#005077"/>
                  <path id="Path_173" data-name="Path 173" d="M214.131,318.836a11.036,11.036,0,0,1-1.769,2.374.7.7,0,0,1-1.163-.234q.4-1.058.824-2.1Z" transform="translate(-210.96 -285.191)" fill="#005077"/>
                  <path id="Path_174" data-name="Path 174" d="M211.179,317.54l2.244.033c-.24.514-.5,1.007-.78,1.489l-2.109.039Q210.851,318.317,211.179,317.54Z" transform="translate(-209.472 -285.417)" fill="#008da7"/>
                  <path id="Path_175" data-name="Path 175" d="M202.1,298.741l1.264.136q-.845,1.2-1.665,2.414l-1.379-.217Q201.2,299.892,202.1,298.741Z" transform="translate(-187.427 -288.688)" fill="#008da7"/>
                  <path id="Path_176" data-name="Path 176" d="M201.1,295.67l.877.122c-.895,1.188-1.766,2.4-2.626,3.62l-1.264-.136Q199.548,297.428,201.1,295.67Z" transform="translate(-183.41 -289.222)" fill="#005077"/>
                  <path id="Path_177" data-name="Path 177" d="M193.692,292.69q1.874-1.317,3.912-2.5c.1-.06.216.086.129.184-.188.215-.372.439-.56.656-1.1,1.027-2.179,2.1-3.231,3.193Z" transform="translate(-174.042 -290.178)" fill="#008da7"/>
                  <path id="Path_178" data-name="Path 178" d="M199.283,292.318l.25,1.536c-.7.728-1.378,1.475-2.052,2.231l-.533-2C197.708,293.476,198.48,292.883,199.283,292.318Z" transform="translate(-179.633 -289.806)" fill="#62afbd"/>
                  <path id="Path_179" data-name="Path 179" d="M198.7,297.061a43.493,43.493,0,0,1,3.6-3.238l.533,2q-1.666,1.87-3.226,3.854Z" transform="translate(-184.985 -289.544)" fill="#008da7"/>
                  <path id="Path_180" data-name="Path 180" d="M202.93,296.581l.911,2.616c-.514.65-1.018,1.313-1.516,1.981l-.882-3.024C201.93,297.615,202.423,297.089,202.93,296.581Z" transform="translate(-189.22 -289.064)" fill="#62afbd"/>
                  <path id="Path_181" data-name="Path 181" d="M202.735,302.458a44.161,44.161,0,0,1,3.58-4.538l.882,3.024c-1.186,1.588-2.314,3.229-3.4,4.9Z" transform="translate(-194.09 -288.831)" fill="#008da7"/>
                  <path id="Path_182" data-name="Path 182" d="M206.359,303.25c.318-.5.645-.987.974-1.465l1.06,3.388c-.6.923-1.178,1.86-1.746,2.806l-1.016-3.529C205.875,304.05,206.109,303.645,206.359,303.25Z" transform="translate(-198.688 -288.158)" fill="#62afbd"/>
                  <path id="Path_183" data-name="Path 183" d="M207.119,310.433q1.574-3.286,3.453-6.378l1.016,3.529q-1.782,2.964-3.356,6.067Z" transform="translate(-203.628 -287.763)" fill="#008da7"/>
                  <path id="Path_184" data-name="Path 184" d="M211.265,309.488l1.112,3.218q-.576,1.131-1.121,2.28l-1.277-2.669C210.384,311.362,210.817,310.421,211.265,309.488Z" transform="translate(-207.774 -286.818)" fill="#62afbd"/>
                  <path id="Path_185" data-name="Path 185" d="M212.745,311.921l.011-.023,1.277,2.669q-.891,1.87-1.706,3.781l-1.394-1.309A32.475,32.475,0,0,1,212.745,311.921Z" transform="translate(-210.551 -286.398)" fill="#008da7"/>
                  <path id="Path_186" data-name="Path 186" d="M212.731,316.277l1.394,1.309c-.228.534-.447,1.071-.666,1.608l-1.073-.76A14.135,14.135,0,0,1,212.731,316.277Z" transform="translate(-212.349 -285.636)" fill="#62afbd"/>
                  <path id="Path_187" data-name="Path 187" d="M214.063,318.875c-.3.738-.592,1.48-.872,2.227a.779.779,0,0,1-.038-.108,9.99,9.99,0,0,1-.163-2.879Z" transform="translate(-212.953 -285.317)" fill="#008da7"/>
                </g>
                <g id="Group_55" data-name="Group 55" transform="translate(0 26.586)">
                  <path id="Path_188" data-name="Path 188" d="M199.845,306.839c-.9.593-1.785,1.219-2.667,1.862l-.444-.154Q198.266,307.64,199.845,306.839Z" transform="translate(-177.757 -306.341)" fill="#005077"/>
                  <path id="Path_189" data-name="Path 189" d="M200.671,308.294l.444.154c-.511.373-1.013.764-1.518,1.152l-.591-.274C199.557,308.974,200.11,308.626,200.671,308.294Z" transform="translate(-181.694 -306.088)" fill="#008da7"/>
                  <path id="Path_190" data-name="Path 190" d="M206.578,311.832l.925.446q-1.395,1.19-2.732,2.418l-1.024-.5C204.671,313.382,205.611,312.587,206.578,311.832Z" transform="translate(-193.648 -305.473)" fill="#005077"/>
                  <path id="Path_191" data-name="Path 191" d="M207.727,313.848l1.024.5c-.17.156-.343.309-.511.464-.358.332-.708.676-1.058,1.02l-1.108-.464C206.618,314.851,207.167,314.342,207.727,313.848Z" transform="translate(-197.628 -305.122)" fill="#008da7"/>
                  <path id="Path_192" data-name="Path 192" d="M211.254,315.141l1.108.464a48.3,48.3,0,0,0-3.524,3.888l-1.428-.379C208.64,317.733,209.921,316.4,211.254,315.141Z" transform="translate(-202.808 -304.897)" fill="#005077"/>
                  <path id="Path_193" data-name="Path 193" d="M211.375,318.525l1.428.379c-.109.135-.222.268-.331.4-.238.3-.473.615-.708.935l-1.351-.606C210.73,319.263,211.049,318.89,211.375,318.525Z" transform="translate(-206.772 -304.308)" fill="#008da7"/>
                  <path id="Path_194" data-name="Path 194" d="M213.263,319.472l1.351.606c-.569.772-1.14,1.577-1.759,2.315l-1.559-.5Q212.253,320.658,213.263,319.472Z" transform="translate(-209.624 -304.143)" fill="#005077"/>
                  <path id="Path_195" data-name="Path 195" d="M215.9,322.766a7.326,7.326,0,0,1-1.648,1.279.523.523,0,0,1-.771-.412c.308-.434.623-.864.942-1.29Z" transform="translate(-213.472 -303.644)" fill="#005077"/>
                  <path id="Path_196" data-name="Path 196" d="M213.518,321.532l1.559.5c-.256.306-.526.6-.8.872l-1.478-.424C213.033,322.164,213.274,321.845,213.518,321.532Z" transform="translate(-211.845 -303.785)" fill="#008da7"/>
                  <path id="Path_197" data-name="Path 197" d="M204.048,310.769l.858.365c-.533.437-1.059.882-1.583,1.329l-.925-.446C202.943,311.591,203.492,311.173,204.048,310.769Z" transform="translate(-189.469 -305.658)" fill="#008da7"/>
                  <path id="Path_198" data-name="Path 198" d="M203.032,309.173l.591.274c-.832.638-1.652,1.3-2.465,1.965l-.858-.365Q201.643,310.069,203.032,309.173Z" transform="translate(-185.72 -305.935)" fill="#005077"/>
                  <path id="Path_199" data-name="Path 199" d="M196.364,307.325c1.026-.346,2.079-.648,3.167-.908a.086.086,0,0,1,.059.156c-.169.11-.337.227-.506.339-.951.48-1.888,1-2.813,1.538Z" transform="translate(-176.996 -306.415)" fill="#008da7"/>
                  <path id="Path_200" data-name="Path 200" d="M200.989,307.19l-.093,1.126c-.614.358-1.22.735-1.822,1.119l-.023-1.51C199.687,307.662,200.331,307.413,200.989,307.19Z" transform="translate(-181.621 -306.28)" fill="#62afbd"/>
                  <path id="Path_201" data-name="Path 201" d="M200.682,309.306a29.526,29.526,0,0,1,3.082-1.49l.023,1.51c-.993.633-1.966,1.3-2.924,2Z" transform="translate(-186.334 -306.171)" fill="#008da7"/>
                  <path id="Path_202" data-name="Path 202" d="M204.484,309.085l.181,2.02c-.474.345-.94.7-1.405,1.059l-.087-2.3C203.606,309.593,204.042,309.332,204.484,309.085Z" transform="translate(-190.137 -305.951)" fill="#62afbd"/>
                  <path id="Path_203" data-name="Path 203" d="M204.37,312.152a29.54,29.54,0,0,1,3.292-2.4l.087,2.3c-1.1.856-2.179,1.76-3.23,2.7Z" transform="translate(-194.625 -305.835)" fill="#008da7"/>
                  <path id="Path_204" data-name="Path 204" d="M207.837,312.611c.31-.282.622-.552.936-.815l.149,2.592c-.579.515-1.146,1.047-1.708,1.585l-.093-2.681C207.359,313.065,207.594,312.833,207.837,312.611Z" transform="translate(-199.028 -305.479)" fill="#62afbd"/>
                  <path id="Path_205" data-name="Path 205" d="M208.576,316.787a49.136,49.136,0,0,1,3.524-3.717l.093,2.681q-1.761,1.689-3.4,3.519Z" transform="translate(-204.008 -305.257)" fill="#008da7"/>
                  <path id="Path_206" data-name="Path 206" d="M212.866,316.236l.215,2.483c-.4.445-.792.9-1.181,1.352l-.426-2.137C211.925,317.355,212.392,316.791,212.866,316.236Z" transform="translate(-208.298 -304.706)" fill="#62afbd"/>
                  <path id="Path_207" data-name="Path 207" d="M214.638,317.7l.012-.015.426,2.137q-.949,1.115-1.851,2.275l-.744-1.212A21.955,21.955,0,0,1,214.638,317.7Z" transform="translate(-211.474 -304.454)" fill="#008da7"/>
                  <path id="Path_208" data-name="Path 208" d="M214.675,320.409l.744,1.212q-.377.486-.744.98l-.618-.76A9.958,9.958,0,0,1,214.675,320.409Z" transform="translate(-213.668 -303.98)" fill="#62afbd"/>
                  <path id="Path_209" data-name="Path 209" d="M215.7,322.389q-.507.678-1,1.368a.467.467,0,0,1-.008-.083,7.192,7.192,0,0,1,.389-2.044Z" transform="translate(-214.691 -303.768)" fill="#008da7"/>
                </g>
              </g>
              <g id="Group_57" data-name="Group 57" transform="translate(21.708 53.781)">
                <path id="Path_210" data-name="Path 210" d="M208.267,316.439a7.978,7.978,0,0,1,4.512-1.39h9.331a8.019,8.019,0,0,1,8.019,8.018v2.483a8.583,8.583,0,0,1-7.727,8.509c-.271.026-.545.041-.823.041H213.31a8.55,8.55,0,0,1-8.55-8.55v-2.483A8.009,8.009,0,0,1,208.267,316.439Z" transform="translate(-204.76 -315.049)" fill="#9e9d98"/>
                <path id="Path_211" data-name="Path 211" d="M226.621,325.551v-2.483a8.019,8.019,0,0,0-8.019-8.018h-9.331a7.978,7.978,0,0,0-4.512,1.39c2.03,7.649,6.855,13.724,16.874,16.874A8.54,8.54,0,0,0,226.621,325.551Z" transform="translate(-201.253 -315.049)" fill="#cccbc4" opacity="0.5"/>
              </g>
            </g>
          </g>
        </g>
        <path id="Path_446" data-name="Path 446" d="M39,0A39,39,0,1,1,0,39,39,39,0,0,1,39,0Z" transform="translate(-0.012 -0.737)" fill="#f5f5f5"/>
        <path id="Path_445" data-name="Path 445" d="M39,0A39,39,0,1,1,0,39,39,39,0,0,1,39,0Z" transform="translate(6.988 6.263)" fill="#e6e6e6"/>
        <text id="_" data-name="+" transform="translate(24.988 61.263)" fill="#fff" font-size="60" font-family="SegoeUI-Bold, Segoe UI" font-weight="700"><tspan x="0" y="0">+</tspan></text>
      </g>
    </g>
  </g>
</svg>
