<svg xmlns="http://www.w3.org/2000/svg" xmlns:xlink="http://www.w3.org/1999/xlink" width="291.121" height="247.559" viewBox="0 0 291.121 247.559">
  <defs>
    <linearGradient id="linear-gradient" x1="0.5" x2="0.5" y2="1" gradientUnits="objectBoundingBox">
      <stop offset="0" stop-color="#f0ae4b"/>
      <stop offset="1" stop-color="#df6445"/>
    </linearGradient>
    <linearGradient id="linear-gradient-6" x1="-0.426" y1="2.413" x2="-0.217" y2="-0.333" gradientUnits="objectBoundingBox">
      <stop offset="0" stop-color="#1ae5ff"/>
      <stop offset="0.259" stop-color="#63e8f8"/>
      <stop offset="0.704" stop-color="#eaeeee"/>
    </linearGradient>
    <linearGradient id="linear-gradient-8" y1="0.5" x2="1" y2="0.5" gradientUnits="objectBoundingBox">
      <stop offset="0" stop-color="#008da7"/>
      <stop offset="1" stop-color="#002856"/>
    </linearGradient>
    <linearGradient id="linear-gradient-9" x1="0.379" y1="-0.704" x2="0.707" y2="2.574" xlink:href="#linear-gradient"/>
    <linearGradient id="linear-gradient-12" x1="0.5" y1="-0.431" x2="0.5" y2="1.431" xlink:href="#linear-gradient-8"/>
    <linearGradient id="linear-gradient-13" x1="5.327" y1="1.013" x2="5.948" y2="0.049" xlink:href="#linear-gradient-8"/>
    <linearGradient id="linear-gradient-17" x1="0.5" y1="0" x2="0.5" y2="1" xlink:href="#linear-gradient-8"/>
  </defs>
  <g id="vc4" transform="translate(-75.291 389.425)">
    <g id="Group_267" data-name="Group 267" transform="translate(87.755 -378.528)">
      <path id="Path_245" data-name="Path 245" d="M262.509,164.9c-33.578-.528-123.377,27.269-134.332,0-9.029-22.472,24.729-20.749,26.691-39.355s-6.826-26.531,7.185-35.145,36.845,3.346,51.923-8.614,22.949-20.674,56.893-24.809,59.065,34.112,73.589,37.9,35.327-5.857,45.533,5.857-22.767,37.641-15.7,48.453,24.366,16.669,17.679,31.83S295.192,165.41,262.509,164.9Z" transform="translate(-126.646 -56.66)" fill="#f5f5f5"/>
      <g id="Group_115" data-name="Group 115" transform="translate(1.242 89.926)">
        <g id="Group_107" data-name="Group 107" transform="translate(0.611)">
          <g id="Group_101" data-name="Group 101" transform="translate(0 7)">
            <path id="Path_246" data-name="Path 246" d="M129.951,230.439a1.14,1.14,0,0,1,.086-.426,1.444,1.444,0,0,1,.215-.377.215.215,0,0,1,.357-.012.324.324,0,0,1,.046.179,1.346,1.346,0,0,1-.095.406,1.886,1.886,0,0,1-.2.368c-.106.133-.266.154-.355.04A.3.3,0,0,1,129.951,230.439Z" transform="translate(-129.951 -229.535)" fill="#fff"/>
          </g>
          <g id="Group_102" data-name="Group 102" transform="translate(0.616 5.567)">
            <path id="Path_247" data-name="Path 247" d="M131.051,227.812a1.3,1.3,0,0,1,.143-.409,1.218,1.218,0,0,1,.259-.347c.136-.113.3-.1.358.035a.3.3,0,0,1,.02.182,1.621,1.621,0,0,1-.143.392,1.558,1.558,0,0,1-.246.339.217.217,0,0,1-.355-.006A.309.309,0,0,1,131.051,227.812Z" transform="translate(-131.049 -226.98)" fill="#fff"/>
          </g>
          <g id="Group_103" data-name="Group 103" transform="translate(1.41 4.226)">
            <path id="Path_248" data-name="Path 248" d="M132.475,225.348a1.444,1.444,0,0,1,.185-.391,1.33,1.33,0,0,1,.3-.312c.146-.1.3-.064.35.072a.306.306,0,0,1,0,.185,1.44,1.44,0,0,1-.191.372,1.355,1.355,0,0,1-.279.311c-.138.1-.3.081-.357-.05A.3.3,0,0,1,132.475,225.348Z" transform="translate(-132.465 -224.588)" fill="#fff"/>
          </g>
          <g id="Group_104" data-name="Group 104" transform="translate(3.17 2.092)">
            <path id="Path_249" data-name="Path 249" d="M135.633,221.417a1.345,1.345,0,0,1,.253-.349,1.23,1.23,0,0,1,.347-.256c.161-.072.308-.011.333.132a.3.3,0,0,1-.031.182,1.622,1.622,0,0,1-.252.335,1.477,1.477,0,0,1-.333.255c-.152.078-.305.03-.339-.112A.306.306,0,0,1,135.633,221.417Z" transform="translate(-135.605 -220.782)" fill="#fff"/>
          </g>
          <g id="Group_105" data-name="Group 105" transform="translate(4.665 0.994)">
            <path id="Path_250" data-name="Path 250" d="M138.29,219.153a.518.518,0,0,1,.159-.212.549.549,0,0,1,.239-.114.234.234,0,0,1,.288.278.439.439,0,0,1-.016.063.527.527,0,0,1-.156.206.573.573,0,0,1-.232.113.236.236,0,0,1-.3-.267A.4.4,0,0,1,138.29,219.153Z" transform="translate(-138.271 -218.823)" fill="#fff"/>
          </g>
          <g id="Group_106" data-name="Group 106" transform="translate(6.035)">
            <path id="Path_251" data-name="Path 251" d="M140.746,217.335a.53.53,0,0,1,.181-.2.538.538,0,0,1,.252-.089.234.234,0,0,1,.253.31.349.349,0,0,1-.024.061.543.543,0,0,1-.175.186.563.563,0,0,1-.242.087.235.235,0,0,1-.268-.3A.376.376,0,0,1,140.746,217.335Z" transform="translate(-140.715 -217.051)" fill="#fff"/>
          </g>
        </g>
        <g id="Group_114" data-name="Group 114" transform="translate(0 8.637)">
          <g id="Group_108" data-name="Group 108">
            <path id="Path_252" data-name="Path 252" d="M133.125,245.935c-.409-.434-.75-.926-1.126-1.389-.322-.5-.653-1-.954-1.513-.265-.534-.548-1.06-.8-1.6l-.658-1.662a13.8,13.8,0,0,1-.707-3.517,10.965,10.965,0,0,1,.361-3.566c.045-.16.174-.26.289-.224a.267.267,0,0,1,.134.329,11.328,11.328,0,0,0-.255,3.427,13.207,13.207,0,0,0,.707,3.37l.627,1.624c.238.528.509,1.041.762,1.563.285.5.6.992.9,1.488.353.458.668.949,1.049,1.385a.255.255,0,0,1,.026.358A.272.272,0,0,1,133.125,245.935Z" transform="translate(-128.861 -232.456)" fill="#fff"/>
          </g>
          <g id="Group_109" data-name="Group 109" transform="translate(4.768 13.796)">
            <path id="Path_253" data-name="Path 253" d="M137.7,257.09a1.154,1.154,0,0,1,.284.211.977.977,0,0,1,.216.28c.07.159.007.311-.146.335a.323.323,0,0,1-.153-.017,1.057,1.057,0,0,1-.31-.2.911.911,0,0,1-.2-.306c-.062-.171.014-.316.165-.33A.3.3,0,0,1,137.7,257.09Z" transform="translate(-137.366 -257.062)" fill="#fff"/>
          </g>
          <g id="Group_110" data-name="Group 110" transform="translate(5.75 14.721)">
            <path id="Path_254" data-name="Path 254" d="M139.435,258.729a1.321,1.321,0,0,1,.3.182.961.961,0,0,1,.239.26.22.22,0,0,1-.115.347.318.318,0,0,1-.154,0,1.04,1.04,0,0,1-.326-.172.824.824,0,0,1-.233-.284c-.077-.165-.015-.317.135-.343A.3.3,0,0,1,139.435,258.729Z" transform="translate(-139.117 -258.711)" fill="#fff"/>
          </g>
          <g id="Group_111" data-name="Group 111" transform="translate(6.747 15.512)">
            <path id="Path_255" data-name="Path 255" d="M141.258,260.173l1.225.711,1.235.692a.249.249,0,0,1,.13.333.265.265,0,0,1-.306.066,7.588,7.588,0,0,1-1.337-.606,8.677,8.677,0,0,1-1.2-.842c-.122-.115-.146-.274-.056-.356A.263.263,0,0,1,141.258,260.173Z" transform="translate(-140.894 -260.123)" fill="#fff"/>
          </g>
          <g id="Group_112" data-name="Group 112" transform="translate(10.487 17.394)">
            <path id="Path_256" data-name="Path 256" d="M147.765,263.493a.4.4,0,0,1,.22,0,.39.39,0,0,1,.182.122.252.252,0,0,1-.115.414l-.01,0a.419.419,0,0,1-.417-.131.251.251,0,0,1,.128-.409Z" transform="translate(-147.564 -263.478)" fill="#fff"/>
          </g>
          <g id="Group_113" data-name="Group 113" transform="translate(11.885 17.743)">
            <path id="Path_257" data-name="Path 257" d="M150.229,264.126a.4.4,0,0,1,.216-.02.378.378,0,0,1,.194.093.252.252,0,0,1-.052.427l-.01,0a.424.424,0,0,1-.23.026.41.41,0,0,1-.205-.1.251.251,0,0,1,.075-.422Z" transform="translate(-150.058 -264.101)" fill="#fff"/>
          </g>
        </g>
      </g>
      <path id="Path_258" data-name="Path 258" d="M338.052,87.681q-23.594,3.836-36.7,21.478c-8.156,10.739-6.408,24.546.583,35.285,6.408,10.228,18.642,13.807,30.293,16.364,32.624,7.671,62.334,17.386,93.21,27.1,13.4,4.091,29.128,10.227,40.779,1.023l.018-.014a3.646,3.646,0,0,0,1.359-3.611c-1.855-9.051-13.461-14.453-18.932-22.826-7.066-10.812,25.906-36.738,15.7-48.453s-31.01-2.067-45.533-5.857a20.42,20.42,0,0,1-5.611-2.677C387.233,99.73,366.706,83.243,338.052,87.681Z" transform="translate(-201.016 -69.959)" fill="#e6e6e6"/>
      <path id="Path_259" data-name="Path 259" d="M381.617,184.657c-13.725,0-37.295-5.267-60.088-10.361-22.433-5.013-43.622-9.748-56.7-9.953-.332-.006-.677-.008-1.019-.008-10.753,0-26.587,2.576-43.351,5.3-19.332,3.144-41.242,6.708-58.246,6.708-16.745,0-26.237-3.368-29.021-10.3-4.3-10.7,2.044-14.524,10.824-19.812,7.044-4.242,15.028-9.05,16.021-18.457a70.1,70.1,0,0,0-.428-16.363c-.938-8.078-1.409-12.132,6.383-16.923,3.357-2.064,7.532-2.945,13.96-2.945,2.45,0,4.949.121,7.594.248,2.677.13,5.446.263,8.2.263,6.71,0,15.325-.725,22.453-6.378,1.387-1.1,2.713-2.173,4-3.217,12.424-10.049,21.4-17.31,51.336-20.956a39.4,39.4,0,0,1,4.739-.288c19.014,0,35.173,13.768,48.158,24.83,7.751,6.6,13.873,11.82,19.461,13.278a37.405,37.405,0,0,0,9.461,1.05c3.409,0,6.93-.292,10.335-.575,3.39-.281,6.592-.547,9.67-.547,7.15,0,11.512,1.5,14.584,5.031,4.221,4.845-2.245,14.682-7.95,23.361-6.235,9.485-12.125,18.444-7.964,24.811,2.4,3.68,5.8,6.733,9.077,9.684,6.883,6.2,12.321,11.088,8.412,19.95C390.794,183.747,387.276,184.657,381.617,184.657Z" transform="translate(-128.916 -58.664)" fill="none" stroke="#fff" stroke-miterlimit="10" stroke-width="0.973"/>
    </g>
    <g id="OBJECTS" transform="translate(6.587 -478.36)">
      <g id="Group_262" data-name="Group 262" transform="translate(68.704 88.935)">
        <g id="Group_223" data-name="Group 223" transform="translate(211.245 197.082)">
          <path id="Path_450" data-name="Path 450" d="M362.6,354.8a4.54,4.54,0,0,1,2.059,3.566c0,1.318-.932,1.847-2.073,1.189l-18.777-10.841a4.543,4.543,0,0,1-2.059-3.574c0-1.31.933-1.839,2.073-1.181Z" transform="translate(-341.754 -343.678)" fill="url(#linear-gradient)"/>
        </g>
        <g id="Group_229" data-name="Group 229" transform="translate(0 70.733)">
          <g id="Group_224" data-name="Group 224" opacity="0.57">
            <path id="Path_451" data-name="Path 451" d="M70.967,199.456a5.018,5.018,0,0,0-2.263,3.932l.152,53.405c.009,3.4,2.428,4.8,5.376,3.094l31.812-18.367a5.019,5.019,0,0,0,2.263-3.932l-.152-53.4c-.01-3.4-2.429-4.8-5.376-3.094Z" transform="translate(-68.704 -180.362)" fill="url(#linear-gradient)"/>
          </g>
          <g id="Group_228" data-name="Group 228" transform="translate(6.471 23.378)">
            <g id="Group_227" data-name="Group 227">
              <g id="Group_225" data-name="Group 225">
                <path id="Path_452" data-name="Path 452" d="M77.742,225.649a1.482,1.482,0,0,0-.674,1.164l.008,2.835c0,.429.3.6.678.387l25.938-14.976a1.484,1.484,0,0,0,.674-1.167l-.008-2.835c0-.427-.3-.6-.678-.384Z" transform="translate(-77.068 -210.581)" fill="url(#linear-gradient)"/>
              </g>
              <g id="Group_226" data-name="Group 226" transform="translate(0.017 6.172)">
                <path id="Path_453" data-name="Path 453" d="M77.764,233.627a1.484,1.484,0,0,0-.674,1.167l.009,2.836c0,.429.3.6.678.384l25.939-14.976a1.48,1.48,0,0,0,.674-1.164l-.009-2.836c0-.429-.3-.6-.678-.386Z" transform="translate(-77.09 -218.559)" fill="url(#linear-gradient)"/>
              </g>
            </g>
            <path id="Path_454" data-name="Path 454" d="M90.582,242.495a3.519,3.519,0,0,0-1.6,2.766l0,.651c0,1.017.721,1.427,1.607.916l8.389-4.844a3.52,3.52,0,0,0,1.6-2.767l0-.651c0-1.015-.723-1.426-1.609-.914Z" transform="translate(-79.765 -216.658)" fill="url(#linear-gradient)"/>
          </g>
        </g>
        <g id="Group_233" data-name="Group 233" transform="translate(98.545)">
          <path id="Path_455" data-name="Path 455" d="M210.473,90.034c-.085-.049-.17-.1-.255-.142q-.165-.089-.328-.169t-.325-.153c-.108-.049-.214-.094-.32-.136s-.217-.084-.323-.121l-.062-.02-.024-.008c-.078-.026-.157-.053-.235-.077-.111-.033-.221-.063-.33-.091s-.22-.052-.329-.073-.234-.043-.35-.058c-.079-.011-.157-.017-.235-.024l-.035,0-.086-.009c-.127-.009-.252-.013-.376-.012-.141,0-.279.007-.415.02a4.241,4.241,0,0,0-.461.067l-.011,0-.015,0a4.051,4.051,0,0,0-.534.147,3.839,3.839,0,0,0-.648.3l-5.307,3.084a3.95,3.95,0,0,1,1.18-.446l.016,0a4.771,4.771,0,0,1,1.348-.068l.037,0a6.476,6.476,0,0,1,1.479.323l.022.008a9.251,9.251,0,0,1,1.615.743l145.093,83.991,5.307-3.084Z" transform="translate(-196.848 -88.935)" fill="url(#linear-gradient-6)"/>
          <path id="Path_456" data-name="Path 456" d="M411.737,214.448c0-.129-.009-.258-.018-.388s-.019-.26-.031-.39-.027-.262-.044-.393-.036-.268-.057-.4l0-.011,0-.009c-.02-.128-.043-.257-.067-.385s-.054-.279-.085-.418-.063-.279-.1-.419-.072-.283-.111-.425c-.031-.11-.063-.22-.1-.33l-.008-.026-.02-.067q-.064-.208-.132-.414t-.142-.408c-.047-.131-.1-.262-.147-.391s-.1-.259-.156-.388c-.042-.1-.084-.2-.128-.3l-.008-.019-.029-.067q-.086-.195-.176-.388-.1-.211-.2-.42c-.08-.161-.162-.32-.247-.48s-.189-.339-.285-.508c-.017-.029-.032-.06-.049-.089s-.039-.071-.06-.106q-.283-.482-.593-.945-.246-.368-.507-.722c-.117-.158-.235-.314-.356-.467q-.152-.193-.309-.381c-.1-.123-.2-.243-.309-.362s-.207-.232-.312-.345l-.063-.067-.023-.023c-.08-.085-.159-.17-.241-.253-.111-.114-.224-.224-.337-.333s-.234-.22-.352-.327-.237-.21-.357-.311c-.06-.05-.12-.1-.18-.147l-.041-.034-.135-.11c-.117-.092-.234-.181-.352-.268s-.231-.167-.348-.248-.227-.152-.34-.225-.226-.141-.34-.207l-.079-.046-5.307,3.085a12.384,12.384,0,0,1,1.594,1.1l.04.032a15.42,15.42,0,0,1,1.468,1.372l.023.024A18.749,18.749,0,0,1,404.088,210c.017.029.032.06.049.089a19.394,19.394,0,0,1,.94,1.86l.01.022a17.8,17.8,0,0,1,.724,1.964l.008.026a15.194,15.194,0,0,1,.457,1.977l0,.008a12.272,12.272,0,0,1,.157,1.946l-.287,101.292a9.127,9.127,0,0,1-.163,1.724l-.01.05a6.405,6.405,0,0,1-.453,1.41l-.011.026a4.681,4.681,0,0,1-.6.93c-.073.093-.143.19-.222.275a3.935,3.935,0,0,1-.875.721l5.307-3.085a3.934,3.934,0,0,0,.875-.721c.08-.085.148-.182.222-.275a4.374,4.374,0,0,0,.289-.357,5.016,5.016,0,0,0,.3-.548l.011-.026.01-.025c.06-.131.118-.265.171-.4s.1-.277.14-.422.074-.269.106-.409c.013-.057.023-.118.036-.176l.01-.05c.011-.056.023-.11.033-.166.022-.125.041-.253.057-.383s.029-.255.039-.386.019-.25.024-.378.008-.256.008-.388V316.1l.287-101.292C411.743,214.69,411.741,214.569,411.737,214.448Z" transform="translate(-241.889 -114.298)" fill="url(#linear-gradient)"/>
          <g id="Group_230" data-name="Group 230" transform="translate(0 3.084)">
            <path id="Path_457" data-name="Path 457" d="M352.648,179.612c4.424,2.554,7.993,8.738,7.979,13.82l-.287,101.292c-.015,5.083-3.608,7.131-8.031,4.577L204.06,213.71c-4.423-2.554-7.993-8.738-7.979-13.82L196.368,98.6c.015-5.083,3.608-7.13,8.031-4.577Z" transform="translate(-196.081 -92.922)" fill="url(#linear-gradient-8)"/>
          </g>
          <g id="Group_231" data-name="Group 231" transform="translate(10.466 13.934)">
            <path id="Path_458" data-name="Path 458" d="M346.559,182.562a16.161,16.161,0,0,1,7.336,12.706l-.264,93.118c-.014,4.673-3.317,6.555-7.384,4.208l-129.3-74.607a16.156,16.156,0,0,1-7.335-12.7l.264-93.118c.013-4.673,3.317-6.555,7.383-4.208Z" transform="translate(-209.609 -106.945)" fill="#f9fbfc"/>
          </g>
          <path id="Path_459" data-name="Path 459" d="M401.166,299.163h0a1.082,1.082,0,0,1-1.082-1.082V265.619a1.082,1.082,0,0,1,1.082-1.082h0a1.082,1.082,0,0,1,1.082,1.082v32.462A1.082,1.082,0,0,1,401.166,299.163Z" transform="translate(-242.257 -128.683)" fill="#f9fbfc"/>
          <g id="Group_232" data-name="Group 232" transform="translate(2.75 66.27)">
            <path id="Path_460" data-name="Path 460" d="M201.934,174.908a5.035,5.035,0,0,1,2.284,3.956c0,1.454-1.034,2.04-2.3,1.31a5.033,5.033,0,0,1-2.283-3.956C199.64,174.765,200.67,174.178,201.934,174.908Z" transform="translate(-199.636 -174.594)" fill="#fff"/>
          </g>
        </g>
        <g id="Group_237" data-name="Group 237" transform="translate(141.943 62.709)">
          <path id="Path_461" data-name="Path 461" d="M310.29,187.612a23.708,23.708,0,0,1,.853,4,19.064,19.064,0,0,1,.142,2.335c0,.232-.008.46-.018.684,0,.035,0,.07,0,.1-.011.213-.026.422-.045.627l-.012.119c-.021.206-.045.408-.074.606-.041.269-.074.461-.111.648-.049.243-.093.43-.14.614-.008.032-.016.063-.024.094-.047.178-.1.352-.152.522l-.03.093c-.057.172-.117.34-.181.5-.082.2-.149.358-.218.508-.1.212-.176.359-.255.5l-.046.083q-.12.211-.248.411l-.043.063c-.091.138-.185.272-.283.4s-.2.255-.309.374l-.045.051c-.1.113-.207.221-.314.325l-.062.059q-.163.153-.333.294l-.053.042c-.114.092-.23.179-.35.262-.149.1-.275.18-.4.255l-.073.043q-.188.106-.383.2l-.081.037c-.135.061-.27.118-.409.17-.114.041-.188.062-.26.085a17.224,17.224,0,0,0-7.8-13.381c-4.325-2.5-7.842-.494-7.856,4.469.006.011.125.209.356.56-.1-.141-.2-.282-.3-.426-.193-.281-.325-.476-.454-.672l-.071-.108q-.205-.316-.4-.637l-.084-.137c-.134-.22-.267-.442-.4-.665-.139-.242-.262-.464-.384-.687l-.07-.129q-.18-.334-.352-.672l-.062-.124c-.108-.217-.215-.434-.318-.653-.138-.293-.244-.526-.347-.759l-.063-.144q-.151-.348-.293-.7c-.121-.3-.207-.524-.289-.747l-.042-.11q-.129-.352-.248-.7c-.015-.047-.031-.094-.047-.141q-.239-.721-.434-1.443l-.039-.143c-.061-.233-.12-.467-.174-.7l-.028-.125q-.077-.333-.142-.665c-.061-.311-.1-.545-.14-.778-.008-.05-.016-.1-.024-.15-.036-.233-.069-.466-.1-.7-.034-.3-.056-.514-.075-.731,0-.039-.007-.078-.01-.118-.018-.227-.032-.452-.041-.677,0-.048,0-.1-.005-.144-.009-.23-.014-.46-.013-.687a15.163,15.163,0,0,1,.155-2.164,10.676,10.676,0,0,1,.871-3c.082-.174.169-.342.259-.505,2.09-3.751,6.506-4.623,11.608-1.676,4.578,2.644,8.589,7.716,10.856,13.173.149.359.293.719.427,1.082Q310.047,186.807,310.29,187.612Zm-11.582.371c2.64,1.524,4.781.3,4.79-2.729a10.479,10.479,0,0,0-4.758-8.242c-2.634-1.52-4.781-.3-4.79,2.729a10.5,10.5,0,0,0,4.758,8.242" transform="translate(-259.736 -169.991)" fill="url(#linear-gradient-9)"/>
          <g id="Group_236" data-name="Group 236" transform="translate(0 18.22)">
            <g id="Group_234" data-name="Group 234" transform="translate(0.046)">
              <path id="Path_462" data-name="Path 462" d="M322.883,233.526a3.932,3.932,0,0,1,1.788,3.088l-.022,7.525c0,1.139-.808,1.6-1.8,1.025l-68.825-39.737a3.936,3.936,0,0,1-1.788-3.1l.022-7.525c0-1.133.808-1.591,1.8-1.018Z" transform="translate(-252.236 -193.542)" fill="url(#linear-gradient)"/>
            </g>
            <g id="Group_235" data-name="Group 235" transform="translate(0 16.378)">
              <path id="Path_463" data-name="Path 463" d="M322.823,254.695a3.934,3.934,0,0,1,1.788,3.1l-.022,7.525c0,1.14-.808,1.591-1.8,1.018L253.964,226.6a3.923,3.923,0,0,1-1.788-3.088l.022-7.525c0-1.139.808-1.6,1.8-1.025Z" transform="translate(-252.176 -214.711)" fill="url(#linear-gradient)"/>
            </g>
          </g>
        </g>
        <path id="Path_464" data-name="Path 464" d="M297.7,267.545a7.353,7.353,0,0,1,3.334,5.774l0,1.359c-.006,2.124-1.507,2.979-3.355,1.912l-17.517-10.113a7.352,7.352,0,0,1-3.338-5.777l0-1.359c.006-2.118,1.512-2.977,3.36-1.909Z" transform="translate(-115.811 -126.97)" fill="url(#linear-gradient-12)"/>
        <g id="Group_245" data-name="Group 245" transform="translate(230.706 53.304)" opacity="0.67">
          <g id="Group_241" data-name="Group 241" transform="translate(0.121)">
            <path id="Path_479" data-name="Path 479" d="M384.868,167.818l-.008,2.848a2.182,2.182,0,0,1-3.276,1.881l-13.432-7.794a2.181,2.181,0,0,1-1.087-1.892l.009-2.848a2.181,2.181,0,0,1,3.276-1.881l13.432,7.793A2.183,2.183,0,0,1,384.868,167.818Z" transform="translate(-367.065 -157.834)" fill="url(#linear-gradient-13)"/>
          </g>
          <g id="Group_242" data-name="Group 242" transform="translate(0.08 14.169)">
            <path id="Path_480" data-name="Path 480" d="M427.348,210.65l-.008,2.854a2.182,2.182,0,0,1-3.272,1.883L368.1,183.075a2.18,2.18,0,0,1-1.091-1.895l.009-2.854a2.181,2.181,0,0,1,3.272-1.883l55.964,32.311A2.182,2.182,0,0,1,427.348,210.65Z" transform="translate(-367.013 -176.148)" fill="url(#linear-gradient-13)"/>
          </g>
          <g id="Group_243" data-name="Group 243" transform="translate(0 42.525)" opacity="0.53">
            <path id="Path_481" data-name="Path 481" d="M404.17,233.98l-.008,2.854a2.181,2.181,0,0,1-3.272,1.883L368,219.728a2.183,2.183,0,0,1-1.091-1.9l.009-2.854a2.181,2.181,0,0,1,3.272-1.883l32.891,18.99A2.179,2.179,0,0,1,404.17,233.98Z" transform="translate(-366.909 -212.8)" fill="url(#linear-gradient-13)"/>
          </g>
          <g id="Group_244" data-name="Group 244" transform="translate(0.04 28.347)">
            <path id="Path_482" data-name="Path 482" d="M418.617,223.966l-.008,2.854a2.182,2.182,0,0,1-3.272,1.883l-47.286-27.3a2.183,2.183,0,0,1-1.091-1.9l.009-2.854a2.181,2.181,0,0,1,3.272-1.883l47.285,27.3A2.181,2.181,0,0,1,418.617,223.966Z" transform="translate(-366.961 -194.474)" fill="url(#linear-gradient-13)"/>
          </g>
        </g>
        <g id="Group_250" data-name="Group 250" transform="translate(2.277 37.848)" opacity="0.67">
          <g id="Group_246" data-name="Group 246" transform="translate(21.862)">
            <path id="Path_483" data-name="Path 483" d="M99.9,142.992l0,1.465a1.122,1.122,0,0,0,1.685.967l6.911-4.009a1.122,1.122,0,0,0,.559-.974l0-1.465a1.122,1.122,0,0,0-1.685-.967l-6.911,4.009A1.123,1.123,0,0,0,99.9,142.992Z" transform="translate(-99.905 -137.856)" fill="url(#linear-gradient-17)"/>
          </g>
          <g id="Group_247" data-name="Group 247" transform="translate(0 7.29)">
            <path id="Path_484" data-name="Path 484" d="M71.647,165.029l0,1.468a1.122,1.122,0,0,0,1.683.969l28.793-16.623a1.122,1.122,0,0,0,.561-.975l0-1.468A1.122,1.122,0,0,0,101,147.43L72.209,164.054A1.124,1.124,0,0,0,71.647,165.029Z" transform="translate(-71.647 -147.278)" fill="url(#linear-gradient-17)"/>
          </g>
          <g id="Group_248" data-name="Group 248" transform="translate(11.913 21.878)" opacity="0.53">
            <path id="Path_485" data-name="Path 485" d="M87.045,177.033l0,1.468a1.123,1.123,0,0,0,1.683.969l16.922-9.77a1.121,1.121,0,0,0,.561-.975l0-1.468a1.122,1.122,0,0,0-1.683-.969l-16.922,9.77A1.124,1.124,0,0,0,87.045,177.033Z" transform="translate(-87.045 -166.135)" fill="url(#linear-gradient-17)"/>
          </g>
          <g id="Group_249" data-name="Group 249" transform="translate(4.486 14.584)">
            <path id="Path_486" data-name="Path 486" d="M77.445,171.88l0,1.468a1.122,1.122,0,0,0,1.683.969l24.329-14.046a1.124,1.124,0,0,0,.561-.976l0-1.468a1.122,1.122,0,0,0-1.683-.969L78.007,170.9A1.121,1.121,0,0,0,77.445,171.88Z" transform="translate(-77.445 -156.707)" fill="url(#linear-gradient-17)"/>
          </g>
        </g>
        <g id="Group_252" data-name="Group 252" transform="translate(63.042 16.438)" opacity="0.46">
          <path id="Path_489" data-name="Path 489" d="M200.229,136.879a10.9,10.9,0,0,1,4.941,8.558c-.009,3.163-2.238,4.433-4.974,2.854l-45.064-26.019a10.9,10.9,0,0,1-4.941-8.577c.009-3.143,2.238-4.414,4.974-2.834Z" transform="translate(-150.191 -110.182)" fill="url(#linear-gradient-13)"/>
        </g>
        <g id="Group_253" data-name="Group 253" transform="translate(249.139 162.343)" opacity="0.46">
          <path id="Path_490" data-name="Path 490" d="M425.514,317.332a7.574,7.574,0,0,1,3.434,5.949c-.006,2.2-1.556,3.081-3.457,1.984L394.169,307.18a7.578,7.578,0,0,1-3.434-5.962c.006-2.186,1.556-3.068,3.457-1.971Z" transform="translate(-390.735 -298.776)" fill="url(#linear-gradient-17)"/>
        </g>
        <g id="Group_254" data-name="Group 254" transform="translate(0.714 134.123)">
          <path id="Path_491" data-name="Path 491" d="M136.883,276.5a1.278,1.278,0,0,1,.013,2.419L98.411,301.289a4.6,4.6,0,0,1-4.177,0L70.5,287.585a1.278,1.278,0,0,1-.014-2.419L108.971,262.8a4.6,4.6,0,0,1,4.177,0Z" transform="translate(-69.626 -262.299)" fill="#002856"/>
        </g>
        <g id="Group_686" data-name="Group 686" transform="translate(-2908.97 -985.072)">
          <path id="Path_901" data-name="Path 901" d="M2995.373,1177.974a9.429,9.429,0,0,1,1.063-.846,37.255,37.255,0,0,1,5.569-.551c7.819-.5,21.06-.991,21.06-.991s3.264,4.293,5.923,7.119h0c.567.6,1.511,1.851,1.685,1.905,1,.315,11.09-.869,18.118-2.926,6.989-2.046,8.319-1.669,8.319-1.669s1.244-4.634-1.331-4.056-14.637,1.454-17.006,1.91c-1.883.363-3.574.751-4.851-.725-.672-.777-2.615-3.653-4.618-6.425-.837-1.159-1.684-2.3-2.455-3.258v0a13.808,13.808,0,0,0-2.236-2.381c-1.4-.98-6.358-2.653-9.976-3.792-.007,0-.009,0-.009,0-1.947-.611-3.508-1.069-3.916-1.184-1.166-.326-8.756.827-8.756.827s-3.844,2.974-6.221,4.759c-.577.431-1.065.793-1.394,1.03-.522.374,1.579-.041.151,1.318,0,0,.885,1.923.885,1.923C2995.377,1171.686,2993.247,1174.772,2995.373,1177.974Z" transform="translate(-11.758 -98.484)" fill="#eea886"/>
          <g id="Group_675" data-name="Group 675" transform="translate(3042.828 1073.713)">
            <g id="Group_674" data-name="Group 674" transform="translate(0 0)">
              <g id="Group_673" data-name="Group 673">
                <path id="Path_902" data-name="Path 902" d="M3210.926,1207.661a23.54,23.54,0,0,1,2.036-1.362c.6-.323,1.386-.925,1.919-1.239a20.7,20.7,0,0,1,3.619-1.484,16.131,16.131,0,0,0,2.524.285c.53-.141,1.568-.572,1.679-.068s-.715,1.17-.715,1.17a.685.685,0,0,1,.714.317,1.339,1.339,0,0,1,.146,1.283s.568.257.672.639a1.682,1.682,0,0,1-.062,1.3,1.584,1.584,0,0,1,.371.943,1.307,1.307,0,0,1-.547,1.14s.26.943-.141,1.264a3.953,3.953,0,0,1-1.23.47,13.758,13.758,0,0,1-6.461-.437,14.482,14.482,0,0,0-5.241-.483Z" transform="translate(-3210.207 -1203.555)" fill="#eea886"/>
              </g>
            </g>
          </g>
          <path id="Path_903" data-name="Path 903" d="M3026.521,1646.177s-2.637,7.293-4.283,8.081-4.15,4.953-2.693,7,9.948,7.082,10.61,8.5S3032.868,1649.421,3026.521,1646.177Z" transform="translate(-29.667 -448.806)" fill="url(#linear-gradient-17)"/>
          <path id="Path_904" data-name="Path 904" d="M3054.643,1405.738l2.868,11.516s2.675-5.513,5.416-10.933c.688-1.359,1.377-2.71,2.032-3.97a68.456,68.456,0,0,1,3.406-6.1c1.989-2.722,8.5-13.529,10.97-16.5s.6-6.126.232-10.446-5.863-19.664-6.831-24.3-5.363-21.33-5.363-21.33C3059.452,1327.251,3054.643,1405.738,3054.643,1405.738Z" transform="translate(-55.275 -216.399)" fill="#de9d7d"/>
          <path id="Path_905" data-name="Path 905" d="M3027.864,1294.807s-.351,8.57-.072,10.8.647,14.963.814,21.108,1.988,18.029,1.24,20.525-3.694,16.744-4.587,21.4-2.626,34.4-2.626,34.4a9.91,9.91,0,0,1-7.222-1.216s-.438-12.962-2.269-19.605-1.775-18.648.594-26.223-2.005-18.578-5.023-24.656-7.811-30.15-7.5-33.266,2.477-9.522,6.7-14.491S3027.864,1294.807,3027.864,1294.807Z" transform="translate(-16.76 -186.829)" fill="#eea886"/>
          <path id="Path_906" data-name="Path 906" d="M3047.634,1709.262a16.927,16.927,0,0,0,4.818.4,5.156,5.156,0,0,1,2.792.216s3.393,6.042,6.622,7.623,11.113,4.1,10.2,7.28-10.054,2.246-13.388.647-11.71-1.808-12.59-5.014S3047.968,1710.847,3047.634,1709.262Z" transform="translate(-48.982 -494.267)" fill="url(#linear-gradient-17)"/>
          <path id="Path_907" data-name="Path 907" d="M3025.208,1299.9s1.384,7.747,1.9,9.814,7.8,22.378,7.8,22.378-20.662,15.006-40.6,11.811c0,0-.338-27.521.686-39.854a32.93,32.93,0,0,1,6.466-16.961C3003.189,1284.589,3025.208,1299.9,3025.208,1299.9Z" transform="translate(-11.758 -189.836)" fill="url(#linear-gradient-17)"/>
          <path id="Path_908" data-name="Path 908" d="M3084.282,1572.727h0c.688-1.359,1.377-2.71,2.032-3.97-.2-1.61.852-14.166.852-14.166C3084.934,1561.346,3084.282,1572.727,3084.282,1572.727Z" transform="translate(-76.634 -382.808)" fill="#c78564"/>
          <g id="Group_676" data-name="Group 676" transform="translate(2988.858 1023.376)">
            <path id="Path_909" data-name="Path 909" d="M3029.684,1024.634s-3.338-3.156-7.583.529-4.246,8.106-3.82,12.108c.9,8.493,2.554,17.7.351,21.314s-1.5,1.759-1.5,1.759,11.21,5.244,13.187-12.735S3029.684,1024.634,3029.684,1024.634Z" transform="translate(-3017.026 -1023.376)" fill="#214361"/>
          </g>
          <g id="Group_677" data-name="Group 677" transform="translate(2983.769 1046.473)">
            <path id="Path_910" data-name="Path 910" d="M3010.079,1112.34s-.24,2.175-1.083,2.994-7.829,2.1-9.582,4.218.8,13.883,1.412,17.053,3.733,9.909,3.529,12.186a60.5,60.5,0,0,1-2.125,9.947c-.671,1.725-2.78,9.107-3.26,10.514,0,0,17.592,5.6,29.855,2.224,0,0-.77-11.4-.4-13.8s1.4-11.247,1.43-13.714,3.918-4.713,2.438-9.183c-1.3-3.923-7.657-11.681-8.827-13.209s-4.107-4.516-4.107-4.516-1.524-4.027-.95-6.5l-8.08-4.505A50.094,50.094,0,0,1,3010.079,1112.34Z" transform="translate(-2998.81 -1106.049)" fill="url(#linear-gradient)"/>
          </g>
          <g id="Group_678" data-name="Group 678" transform="translate(2977.938 1059.826)">
            <path id="Path_911" data-name="Path 911" d="M2986.449,1153.944c.847.053,4.282-1.087,4.893,3.254s-.793,9.044-1.567,11.2-3.56,12.8-3.91,14.619.322,3.033,1.5,5.82,6.594,20.219,7.178,21.4l-4.273.973s-11.13-19.345-11.79-22.106-.767-5.215-.067-10.132,1.557-17.3,2.1-19.079S2981.982,1153.663,2986.449,1153.944Z" transform="translate(-2977.938 -1153.846)" fill="#eea987"/>
          </g>
          <g id="Group_679" data-name="Group 679" transform="translate(2978.618 1058.808)">
            <path id="Path_912" data-name="Path 912" d="M2992.056,1168.3s-6.905-2.573-11.686-2.031c0,0-.191-15.744,8.64-16.069C2996.229,1149.938,2992.853,1162.868,2992.056,1168.3Z" transform="translate(-2980.37 -1150.2)" fill="url(#linear-gradient)"/>
          </g>
          <g id="Group_680" data-name="Group 680" transform="translate(2993.954 1045.106)">
            <path id="Path_913" data-name="Path 913" d="M3035.265,1111.81s4.73,8.194,10.712,8.58-.35-6.862-.35-6.862a14.479,14.479,0,0,1-.631-2.072,15.026,15.026,0,0,1-.315-1.862h0a11.627,11.627,0,0,1,0-2.562l-8.248-5.873S3036.859,1109.974,3035.265,1111.81Z" transform="translate(-3035.265 -1101.157)" fill="#eea987"/>
          </g>
          <g id="Group_681" data-name="Group 681" transform="translate(2993.471 1024.975)">
            <path id="Path_914" data-name="Path 914" d="M3042.2,1057.607c1.424.215,5.458.5,9.124-8.224,4.48-10.658.313-17.413-3.986-19.332s-8.746-1.139-12.148,4.231c0,0-2.541,4.208-1.332,12.789S3040.679,1057.376,3042.2,1057.607Z" transform="translate(-3033.536 -1029.099)" fill="#eea987"/>
          </g>
          <g id="Group_682" data-name="Group 682" transform="translate(2991.499 1024.404)">
            <path id="Path_915" data-name="Path 915" d="M3037.353,1035.113s5.973,1.519,10,11.022c0,0,4.551-9.658-1.447-15.593s-11.565-2.86-13.624-1.156c0,0-2.51.1-3.449,4.647s-5.249,10.737.867,15.276c0,0,.283-5.212,1.1-6.291S3033.521,1043.132,3037.353,1035.113Z" transform="translate(-3026.478 -1027.057)" fill="#214361"/>
          </g>
          <g id="Group_683" data-name="Group 683" transform="translate(2994.546 1037.461)">
            <path id="Path_916" data-name="Path 916" d="M3039.37,1074.736c-.155-.847-.925-1.323-1.543-.563s-.694,4.148.458,4.738S3039.685,1076.454,3039.37,1074.736Z" transform="translate(-3037.384 -1073.792)" fill="#eea987"/>
          </g>
          <g id="Group_684" data-name="Group 684" transform="translate(2997.079 1050.591)">
            <path id="Path_917" data-name="Path 917" d="M3046.45,1120.789a7.64,7.64,0,0,0,6.606,4.813,14.939,14.939,0,0,1-.314-1.862h0S3049.607,1124.153,3046.45,1120.789Z" transform="translate(-3046.45 -1120.789)" fill="#a77860"/>
          </g>
          <path id="Path_918" data-name="Path 918" d="M3077.864,1151.185s9.631,3.061,11.691,11.57l-3.716,1.373Z" transform="translate(-72.009 -92.102)" fill="url(#linear-gradient)"/>
          <g id="Group_685" data-name="Group 685" transform="translate(2988.439 1111.855)">
            <path id="Path_919" data-name="Path 919" d="M3020.133,1340.081s.659,3.124,1.331,3.588a18.035,18.035,0,0,1,2,1.821c.539.525,2.439,1.485,2.814,2.2a22.823,22.823,0,0,0,.824,2.932c.37.565,1.244,1.633.8,1.886s-1.455-.516-1.455-.516.309.531,0,.888a1.144,1.144,0,0,1-1.189.488s0,.709-.331.923a1.512,1.512,0,0,1-1.292.255,1.3,1.3,0,0,1-.759.658,1.487,1.487,0,0,1-1.353-.333s-.808.531-1.3.157a4.544,4.544,0,0,1-1.006-1.311,22.492,22.492,0,0,1-2.23-7.623,15.645,15.645,0,0,0-1.468-5.753Z" transform="translate(-3015.526 -1340.081)" fill="#eea886"/>
          </g>
        </g>
      </g>
    </g>
  </g>
</svg>
